<svg width="88" height="88" viewBox="0 0 88 88" fill="none" xmlns="http://www.w3.org/2000/svg">
<g clip-path="url(#clip0_23_23)">
<path fill-rule="evenodd" clip-rule="evenodd" d="M-250 125V377H7H264V125V-127H7H-250V125ZM174.99 123.156V330.288H5.74634H-163.498V123.156V-83.9756H5.74634H174.99V123.156ZM-112.424 -56.9317C-112.805 -55.9176 -113.739 -51.7921 -114.498 -47.7638C-116.447 -37.4294 -117.715 -36.8774 -121.447 -44.7398L-124.609 -51.4L-124.622 -41.8732C-124.629 -36.6328 -125.169 -32.3463 -125.824 -32.3463C-126.478 -32.3463 -128.52 -34.2824 -130.361 -36.6488C-132.201 -39.0151 -134.148 -40.9512 -134.687 -40.9512C-135.55 -40.9512 -131.77 -24.1828 -130.662 -23.0961C-129.464 -21.9221 -116.433 -27.369 -114.32 -29.9271L-111.887 -32.8737L-109.607 -29.9087C-107.487 -27.1539 -95.0541 -22.0598 -93.1961 -23.1846C-92.7461 -23.4587 -91.6968 -27.0703 -90.8669 -31.2117C-90.0357 -35.3531 -89.0453 -39.6531 -88.6667 -40.7681C-88.2881 -41.883 -90.2551 -40.3059 -93.0357 -37.2634C-97.4059 -32.484 -98.2158 -32.0353 -98.9931 -33.9653C-99.4883 -35.1946 -99.5898 -39.481 -99.22 -43.4921C-98.8489 -47.5032 -98.9141 -50.7718 -99.3667 -50.7559C-99.818 -50.7399 -101.468 -47.8745 -103.031 -44.387C-106.57 -36.4976 -107.88 -37.4785 -110.084 -49.6667C-110.989 -54.676 -112.042 -57.9459 -112.424 -56.9317ZM-47.8814 -55.0177C-50.2232 -53.4099 -50.6683 -51.9519 -50.6683 -45.8867C-50.6683 -35.626 -49.4949 -34.8049 -34.8258 -34.8049C-18.9219 -34.8049 -18.0732 -35.3335 -18.0732 -45.2266C-18.0732 -51.9741 -18.4731 -53.3791 -20.8601 -55.0177C-24.7627 -57.6988 -43.9788 -57.6988 -47.8814 -55.0177ZM34.939 -54.9034C33.4133 -54.5789 30.4509 -52.7448 28.3573 -50.8272C23.789 -46.6427 23.3502 -41.5511 27.1501 -36.8147L29.7476 -33.5756H25.9553C21.7505 -33.5756 15.7756 -31.2953 15.7756 -29.6899C15.7756 -29.1232 26.354 -28.6622 39.2817 -28.6671C60.6303 -28.6745 63.1326 -28.8995 66.5488 -31.1171L70.3098 -33.5596L62.5784 -33.567L54.8471 -33.5756L57.4472 -38.2296C59.7891 -42.4214 59.8718 -43.2352 58.2834 -46.4165C55.6144 -51.7614 50.6135 -54.7719 43.7623 -55.1554C40.4363 -55.341 36.466 -55.2279 34.939 -54.9034ZM125.053 -52.8825C124.26 -50.9931 123.269 -48.1166 122.853 -46.4891C122.192 -43.9101 121.267 -43.4835 115.635 -43.1627L109.173 -42.7951L113.859 -39.7219C116.436 -38.0317 118.552 -36.2247 118.561 -35.7059C118.568 -35.1872 115.698 -29.7563 112.181 -23.6394C108.664 -17.5214 106.015 -12.2921 106.294 -12.0179C106.573 -11.745 110.988 -15.6529 116.105 -20.7039C121.222 -25.755 125.883 -29.8878 126.464 -29.8878C127.044 -29.8878 129.554 -28.3672 132.041 -26.5073L136.563 -23.1268L135.748 -26.8146C135.301 -28.8429 134.594 -31.6666 134.177 -33.0913C133.582 -35.1294 134.561 -36.5 138.782 -39.5449L144.143 -43.4098H137.298H130.453L128.474 -49.8634L126.496 -56.3171L125.053 -52.8825ZM44.3465 -48.7534C45.9248 -47.7761 48.1313 -45.0951 49.2508 -42.7939C51.6678 -37.8252 50.0444 -34.8049 44.9583 -34.8049C40.4338 -34.8049 33.3268 -42.1793 33.3268 -46.8726C33.3268 -52.2949 37.4777 -53.003 44.3465 -48.7534ZM-24.3415 -45.2537V-40.9512H-34.3707H-44.4V-45.2537V-49.5561H-34.3707H-24.3415V-45.2537ZM-46.9073 -31.9899C-49.6604 -30.6291 -50.0866 -29.5289 -50.4113 -22.9314C-50.9403 -12.1605 -49.9123 -11.4488 -33.8078 -11.4488C-24.2073 -11.4488 -20.5103 -11.895 -19.4171 -13.1857C-18.5345 -14.2282 -18.0982 -18.0192 -18.3239 -22.6818C-18.6561 -29.5436 -19.0623 -30.6192 -21.8341 -31.9899C-23.5579 -32.8417 -29.1994 -33.54 -34.3707 -33.54C-39.5421 -33.54 -45.1835 -32.8417 -46.9073 -31.9899ZM-24.3415 -21.8976V-17.5951H-34.3707H-44.4V-21.8976V-26.2H-34.3707H-24.3415V-21.8976ZM-124.634 -22.0807C-127.623 -20.9781 -129.157 -19.557 -129.446 -17.6271C-129.814 -15.1599 -129.491 -14.9104 -126.938 -15.702C-114.818 -19.4599 -109.254 -19.4734 -97.5401 -15.7746C-93.3742 -14.4593 -92.6583 -18.3597 -96.6011 -20.8932C-100.822 -23.605 -118.475 -24.3524 -124.634 -22.0807ZM17.0293 -21.8976C14.2336 -20.3302 16.6055 -20.1397 38.9683 -20.136C59.0782 -20.1323 64.5229 -20.4888 66.4748 -21.9369C68.6411 -23.5435 66.2291 -23.7365 44.5358 -23.6984C25.771 -23.664 19.4426 -23.2498 17.0293 -21.8976ZM18.5963 -13.6369C17.0443 -12.903 15.7756 -11.8335 15.7756 -11.2607C15.7756 -10.6879 26.354 -10.2232 39.2817 -10.2281C60.6303 -10.2355 63.1326 -10.4604 66.5488 -12.678L70.3098 -15.1206L45.8634 -15.0456C31.0188 -15.0001 20.3088 -14.4457 18.5963 -13.6369ZM131.122 22.7777C127.292 28.2812 126.614 28.768 125.492 26.822C123.644 23.6161 118.964 18.0537 118.114 18.0537C116.07 18.0537 113.338 26.2111 113.931 30.5467C114.652 35.8129 114.156 36.1497 109.943 33.256C107.493 31.5732 106.843 31.524 105.921 32.9487C103.246 37.0913 106.895 45.8732 111.792 47.0791C116.695 48.2851 119.202 46.2125 119.202 40.9525C119.202 37.5953 119.723 36.4914 121.307 36.4914C122.464 36.4927 124.242 35.6789 125.256 34.6832C126.881 33.0901 127.285 33.0901 128.634 34.6832C129.476 35.6789 131.149 36.4927 132.35 36.4927C134.048 36.4927 134.501 37.4786 134.389 40.9377C134.22 46.199 136.704 48.2973 141.657 47.0791C146.554 45.8732 150.203 37.0913 147.528 32.9487C146.606 31.524 145.955 31.5732 143.506 33.256C139.409 36.0698 138.501 35.765 139.939 32.0563C140.921 29.5252 140.581 27.5485 138.331 22.6843L135.477 16.5195L131.122 22.7777ZM-123.738 27.444L-133.496 33.1085L-133.14 44.7767L-132.783 56.4449L-123.233 61.8513L-113.682 67.2576L-103.487 61.6361L-93.2927 56.0147V44.5751V33.1368L-103.293 27.4391C-108.793 24.3057 -113.448 21.7501 -113.636 21.7599C-113.824 21.771 -118.37 24.3278 -123.738 27.444ZM26.1183 23.7845L20.7902 25.6346V46.5321C20.7902 62.7695 21.14 67.2871 22.3573 66.7917C23.2198 66.4413 26.0406 65.4776 28.6256 64.6515L33.3268 63.1469V48.7952C33.3268 40.9021 33.6641 34.1128 34.0765 33.7096C34.489 33.3052 35.6223 33.2745 36.5964 33.6408C38.0418 34.1841 38.2349 37.0372 37.6457 49.2291C37.2483 57.4357 37.4301 64.863 38.0481 65.7333C38.9445 66.9933 40.3624 66.8138 45.026 64.8544L50.878 62.3946V47.6003C50.878 35.2683 51.1915 32.8049 52.7585 32.8049C53.7928 32.8049 54.6691 33.2204 54.7067 33.7268C54.8822 36.1374 55.4715 51.5094 55.6695 58.9059L55.8927 67.1838L61.8476 64.8912L67.8024 62.5987L68.1497 43.7589C68.3415 33.3962 68.2186 24.2061 67.8777 23.3346C67.4013 22.1176 65.3666 22.4262 59.0682 24.6671C51.6666 27.3027 50.878 27.3801 50.878 25.4821C50.878 22.0021 49.7222 21.841 42.4284 24.302C33.7455 27.2301 33.3268 27.2265 33.3268 24.2C33.3268 21.3469 33.1676 21.3383 26.1183 23.7845ZM-61.3043 27.5805C-64.8747 36.3648 -76.9951 69.024 -76.9951 69.8636C-76.9951 70.4402 -70.7908 70.9122 -63.2086 70.9122H-49.4222L-47.7535 66.9171L-46.0837 62.922L-55.0486 62.3073L-64.0135 61.6927L-57.3478 43.8683C-53.6821 34.0649 -50.6796 25.9062 -50.6746 25.7366C-50.6708 25.5669 -52.8647 25.4293 -55.5488 25.4293C-59.0277 25.4293 -60.68 26.0464 -61.3043 27.5805ZM-47.5404 26.9659C-47.8463 27.8116 -50.5881 35.0421 -53.6344 43.0361C-59.5291 58.504 -59.4715 59.2071 -52.362 58.4044C-49.0774 58.0332 -48.4092 56.9244 -42.8718 42.639C-39.5947 34.1878 -36.9056 26.8577 -36.8956 26.3512C-36.8643 24.7507 -46.9512 25.3334 -47.5404 26.9659ZM-33.7502 26.9659C-34.0561 27.8116 -36.7978 35.0421 -39.8442 43.0361C-45.7427 58.5113 -45.6837 59.2046 -38.5504 58.4044C-35.2358 58.0319 -34.6027 56.9748 -29.1041 42.639C-25.8621 34.1878 -23.1831 26.8577 -23.1492 26.3512C-23.0427 24.7483 -33.161 25.3346 -33.7502 26.9659ZM-19.9812 26.9659C-24.6724 39.4847 -30.6098 56.5519 -30.6098 57.5206C-30.6098 58.2089 -28.5186 58.5974 -25.9374 58.386L-21.2637 58.0049L-15.3414 42.639C-12.0844 34.1878 -9.39159 26.8577 -9.35774 26.3512C-9.25244 24.7495 -19.3707 25.3346 -19.9812 26.9659ZM-106.939 31.1564C-103.57 32.9536 -100.815 34.8295 -100.815 35.3249C-100.815 36.5173 -112.41 50.0146 -113.434 50.0146C-113.871 50.0146 -117.134 46.7411 -120.683 42.7386L-127.136 35.4638L-120.557 31.7022C-116.939 29.6346 -113.772 27.9296 -113.52 27.9149C-113.27 27.9001 -110.307 29.3592 -106.939 31.1564ZM-119.62 51.9753C-119.62 52.2494 -121.594 52.4732 -124.007 52.4732C-128.385 52.4732 -128.395 52.4609 -128.395 46.8247V41.1774L-124.007 46.3268C-121.594 49.1591 -119.62 51.7012 -119.62 51.9753ZM-98.3073 46.9415V52.4732H-103.41H-108.512L-103.723 46.982C-101.089 43.9617 -98.7937 41.4725 -98.6207 41.4503C-98.4477 41.4282 -98.3073 43.899 -98.3073 46.9415ZM118.262 47.4725C111.288 54.3994 110.354 59.0289 115.47 61.3141C118.144 62.5089 119.202 62.3147 122.315 60.059C124.34 58.5912 126.323 57.3902 126.724 57.3902C127.126 57.3902 129.109 58.5912 131.134 60.059C134.246 62.3147 135.304 62.5089 137.978 61.3141C143.18 58.9908 142.172 54.3687 134.943 47.3914C131.535 44.1019 127.727 41.4429 126.481 41.4835C125.236 41.5241 121.538 44.2199 118.262 47.4725ZM-110.844 57.3312L-106.456 57.4775L-109.59 59.2341C-113.747 61.5648 -115.046 61.5021 -118.437 58.8101L-121.294 56.5408L-118.263 56.8629C-116.596 57.0399 -113.257 57.2513 -110.844 57.3312ZM112.326 97.6488C112.309 101.298 111.955 101.659 108.233 101.811C105.287 101.933 104.94 102.126 106.979 102.512C110.458 103.168 110.533 104.299 107.293 107.176C103.49 110.55 104.248 111.658 110.073 111.241C114.902 110.897 115.468 110.497 116.589 106.642C117.49 103.546 117.417 102.289 116.315 101.929C115.49 101.66 114.806 100.517 114.796 99.3907C114.785 98.2634 114.229 96.5117 113.561 95.4976C112.638 94.0987 112.341 94.6174 112.326 97.6488ZM-127.141 120.766V143.439H-122.754H-118.366V128.688V113.937H-113.978H-109.59V128.688V143.439H-100.188H-90.7854V135.449V127.459H-95.1105H-99.4356L-99.8117 120.39C-100.184 113.402 -100.234 113.317 -104.262 112.937L-108.337 112.551V105.322V98.0925H-117.739H-127.141V120.766ZM-41.1969 101.587C-47.5655 105.704 -48.6875 109.289 -49.1965 127.151C-49.6039 141.444 -49.4146 143.439 -47.657 143.439C-45.9194 143.439 -45.6537 141.218 -45.6537 126.721V110.003L-41.3912 105.823C-36.344 100.874 -30.9545 100.322 -24.6235 104.107C-14.4915 110.165 -17.163 125.75 -28.7293 128.058L-32.4902 128.81L-28.6227 127.049C-18.8855 122.618 -16.6741 113.833 -23.5893 107.053C-29.5918 101.167 -36.7101 101.623 -42.1785 108.241C-43.9838 110.427 -44.3486 113.578 -44.3724 127.151C-44.3887 137.208 -43.9198 143.439 -43.1463 143.439C-42.4443 143.439 -41.8927 140.071 -41.8927 135.792V128.144L-34.0235 135.792C-29.6958 139.997 -25.3369 143.439 -24.3377 143.439C-23.3373 143.439 -27.0193 138.939 -32.5191 133.438C-38.0201 127.937 -41.6733 123.896 -40.639 124.458C-39.6048 125.02 -34.8948 129.52 -30.1722 134.459C-24.7552 140.125 -20.6081 143.439 -18.9369 143.439C-16.7017 143.439 -17.2345 142.496 -22.3344 137.419C-27.8505 131.927 -28.1564 131.328 -25.812 130.599C-24.3991 130.159 -21.5145 127.87 -19.4046 125.513C-16.1989 121.934 -15.5659 120.196 -15.5659 114.979C-15.5659 109.36 -16.056 108.25 -20.4326 103.957C-24.7577 99.7176 -25.98 99.1866 -31.4021 99.194C-35.3285 99.1989 -38.8212 100.053 -41.1969 101.587ZM118.681 106.138C117.985 108.61 117.711 111.099 118.07 111.67C118.918 113.015 129.511 113.024 130.358 111.681C130.714 111.117 130.37 108.627 129.594 106.149C128.344 102.157 127.716 101.644 124.065 101.644C120.392 101.644 119.81 102.129 118.681 106.138ZM131.398 106.561C132.64 111.359 132.803 111.478 138.16 111.478C141.179 111.478 143.632 111.063 143.612 110.556C143.516 108.138 135.887 101.644 133.143 101.644C130.246 101.644 130.176 101.841 131.398 106.561ZM36.6428 113.322L26.8905 123.771H19.6707C13.7459 123.771 11.9632 124.281 9.72545 126.615C8.22607 128.18 7 129.84 7 130.303C7 130.768 12.0648 131.146 18.2541 131.146H29.5094L39.7393 120.698L49.9704 110.249H57.1012C62.9332 110.249 64.7272 109.731 66.9575 107.404C68.4569 105.839 69.6829 104.18 69.6829 103.716C69.6829 103.252 64.4426 102.873 58.039 102.873H46.395L36.6428 113.322ZM-25.2817 108.74C-22.1864 111.406 -22.3782 119.072 -25.6114 121.942C-29.4263 125.327 -35.4552 124.827 -38.9566 120.834C-42.4079 116.899 -42.6386 114.299 -39.8781 110.434C-36.1697 105.243 -30.1547 104.545 -25.2817 108.74ZM-38.1317 110.249C-43.1514 115.171 -39.3227 122.951 -31.881 122.951C-27.097 122.951 -24.3415 120.052 -24.3415 115.018C-24.3415 108.195 -32.9867 105.204 -38.1317 110.249ZM-28.1526 112.034C-24.8216 115.969 -29.7134 122.013 -34.0573 119.331C-38.3975 116.65 -36.8517 110.249 -31.8634 110.249C-30.6536 110.249 -28.9838 111.051 -28.1526 112.034ZM38.0356 125.724C30.9637 132.882 24.99 139.244 24.7606 139.861C24.5299 140.476 26.4417 140.98 29.0067 140.98C33.2002 140.98 34.5993 140.018 42.8484 131.454L52.0251 121.927L52.0778 131.224C52.1279 139.772 52.415 140.786 55.6482 143.824C57.5814 145.641 59.4155 147.127 59.7226 147.127C60.6465 147.126 61.1718 117.918 60.2968 115.215C59.6875 113.334 58.4113 112.707 55.1894 112.707C51.377 112.707 49.4451 114.174 38.0356 125.724ZM104.785 113.919C104.785 115.736 118.771 133.824 119.57 133.039C120.288 132.335 116.167 116.216 114.96 115.007C113.437 113.483 104.785 112.559 104.785 113.919ZM136.993 113.595C135.056 113.88 133.22 114.765 132.912 115.562C130.697 121.3 127.715 133.605 128.54 133.605C129.609 133.605 142.143 117.241 143.26 114.384C143.923 112.691 143.492 112.637 136.993 113.595ZM117.885 117.317C120.847 129.32 123.931 137.614 124.83 135.997C125.723 134.39 131.112 115.981 131.112 114.538C131.112 114.207 127.948 113.937 124.082 113.937H117.05L117.885 117.317ZM-38.0878 181.465C-40.0047 184.977 -39.7941 185.234 -34.9976 185.234C-30.5646 185.234 -29.9879 184.565 -31.3707 181.033C-32.4276 178.333 -36.522 178.597 -38.0878 181.465ZM-124.007 181.748C-128.001 183.909 -133.481 189.251 -135.402 192.856C-137.934 197.608 -137.645 208.369 -134.848 213.527C-133.569 215.882 -130.164 219.45 -127.281 221.453C-120.664 226.053 -111.676 226.406 -103.762 222.378C-99.3742 220.144 -93.2927 213.301 -93.2927 210.596C-93.2927 208.617 -104.982 209.955 -107.994 212.278C-115.762 218.268 -127.141 212.036 -127.141 201.791C-127.141 200.143 -125.503 196.996 -123.5 194.798C-120.471 191.475 -119.008 190.824 -114.815 190.931C-111.731 191.01 -108.454 192.077 -106.378 193.679L-102.983 196.298H-109.854C-119.586 196.298 -124.126 201.635 -118.58 206.556C-115.067 209.673 -92.019 209.506 -89.0992 206.342C-87.9584 205.105 -87.0244 203.255 -87.0244 202.23C-87.0244 200.111 -90.8894 196.298 -93.0382 196.298C-93.8242 196.298 -94.1665 195.528 -93.7979 194.588C-92.8815 192.245 -100.494 184.011 -105.456 181.978C-110.315 179.988 -120.518 179.861 -124.007 181.748ZM23.8755 183.698C23.4781 185.556 22.6218 189.398 21.9712 192.232C20.2637 199.684 20.5195 205.609 22.6218 207.32C23.6285 208.14 26.7614 209.115 29.5834 209.486C33.2002 209.962 34.5241 210.651 34.0665 211.82C33.7092 212.732 33.036 216.294 32.5709 219.737L31.7234 225.997L35.3126 225.591C38.433 225.238 39.0398 224.502 39.9499 219.961C41.3089 213.178 43.6996 213.308 45.5989 220.268C46.9629 225.268 47.4694 225.8 50.873 225.8C55.064 225.8 55.2771 225.103 53.1823 218.244C51.8897 214.014 52.0101 213.166 54.2491 210.725C60.0185 204.44 58.4978 198.391 50.5634 196.06L45.6478 194.616L46.4827 189.153C46.9428 186.149 47.616 182.932 47.9783 182.004C48.4597 180.776 47.4643 180.317 44.3177 180.317H39.9963L38.3816 189.229C36.0974 201.833 35.2186 203.673 31.4777 203.673C27.7531 203.673 27.6515 202.706 30.1927 191.38C32.6411 180.468 32.6147 180.317 28.336 180.317C25.2708 180.317 24.4685 180.924 23.8755 183.698ZM84.3094 181.137C83.8493 181.587 83.4732 187.948 83.4732 195.274V208.59H89.1146H94.7561V199.985V191.38H111.68H128.605V185.849V180.317H106.875C94.9228 180.317 84.7682 180.686 84.3094 181.137ZM-40.0197 187.704C-40.4485 188.386 -40.4447 190.046 -40.0084 191.392C-38.8889 194.849 -31.2353 194.824 -29.3423 191.355C-28.5964 189.989 -28.3281 188.329 -28.7456 187.667C-29.7447 186.081 -39.0155 186.111 -40.0197 187.704ZM-22.1476 187.412C-24.7426 187.957 -24.9119 189.031 -22.7744 191.383C-21.4593 192.829 -21.5822 192.826 -23.5366 191.368C-25.5901 189.835 -26.0765 189.912 -27.6386 192.006C-28.6139 193.314 -29.1167 195.09 -28.7569 195.955C-28.3971 196.82 -27.7301 198.432 -27.2763 199.538C-26.7084 200.92 -26.9917 201.373 -28.1814 200.984C-29.1342 200.673 -30.2349 199.082 -30.6286 197.448C-31.115 195.426 -31.6516 194.966 -32.3072 196.007C-32.909 196.963 -34.4873 197.237 -36.5145 196.738C-38.9855 196.129 -39.5195 196.32 -38.7535 197.534C-38.1267 198.529 -38.6006 199.741 -40.0135 200.752C-42.077 202.232 -42.0933 202.445 -40.204 203.156C-39.0644 203.585 -38.1317 205.051 -38.1317 206.413C-38.1317 208.477 -37.817 208.636 -36.2512 207.361C-34.7506 206.14 -33.9909 206.14 -32.4902 207.361C-30.9207 208.638 -30.6098 208.467 -30.6098 206.326C-30.6098 203.489 -27.2362 201.215 -23.0276 201.215C-20.7372 201.215 -20.3811 200.648 -20.8199 197.711C-21.3427 194.221 -21.3264 194.213 -16.4096 195.296C-13.6954 195.893 -11.2871 196.199 -11.059 195.976C-10.8308 195.752 -11.6946 193.876 -12.977 191.807C-15.359 187.968 -18.2336 186.589 -22.1476 187.412ZM-55.4648 190.537C-59.5204 194.772 -59.0202 196.666 -54.1159 195.644C-51.8756 195.176 -49.0323 193.921 -47.7974 192.853C-45.6574 191.001 -45.6424 191.078 -47.4765 194.526C-50.1718 199.594 -49.8935 201.215 -46.3244 201.215C-40.9361 201.215 -38.9817 194.859 -42.9796 190.339C-46.1238 186.786 -51.9583 186.878 -55.4648 190.537ZM134.873 204.832V213.507H117.253H99.6328L100.015 219.346L100.398 225.185L121.963 225.521C147.731 225.923 146.426 226.83 145.888 208.895L145.529 196.912L140.201 196.535L134.873 196.156V204.832ZM-112.288 199.844C-109.749 201.421 -111.097 205.462 -114.31 205.91C-117.344 206.335 -119.128 203.706 -117.912 200.6C-117.111 198.551 -114.857 198.247 -112.288 199.844ZM-116.25 200.779C-118.025 202.519 -117.021 204.902 -114.513 204.902C-112.761 204.902 -112.046 204.235 -112.319 202.853C-112.767 200.59 -114.907 199.462 -116.25 200.779ZM50.1384 203.215C51.2178 205.972 48.6892 208.59 44.9495 208.59C42.624 208.59 42.0272 208.097 42.5951 206.646C43.0139 205.576 43.3561 203.917 43.3561 202.958C43.3561 200.519 49.1693 200.739 50.1384 203.215ZM-49.3269 203.98C-49.278 204.826 -48.7978 206.623 -48.26 207.974C-47.5943 209.647 -47.904 210.878 -49.2316 211.829C-50.8012 212.954 -50.9479 214.134 -49.9838 217.884C-48.5634 223.412 -46.0949 224.674 -44.5203 220.679C-43.713 218.628 -43.9537 216.932 -45.3678 214.737C-47.1969 211.895 -47.1894 211.789 -45.2776 213.325C-43.4748 214.773 -43.0172 214.576 -41.7222 211.789C-39.6248 207.275 -41.9667 202.444 -46.2542 202.444C-47.9942 202.444 -49.3745 203.135 -49.3269 203.98ZM-27.4894 205.366C-29.0853 207.754 -29.1693 208.878 -27.9445 211.512C-27.1208 213.286 -26.0364 214.737 -25.5362 214.737C-24.3339 214.737 -20.5805 206.915 -20.5805 204.41C-20.5805 201.398 -25.2717 202.047 -27.4894 205.366ZM-40.639 213.509C-42.3678 217.601 -41.1443 220.17 -36.8279 221.514C-34.6816 222.181 -26.8488 219.201 -26.8488 217.718C-26.8488 217.362 -27.71 215.441 -28.7619 213.446C-30.3026 210.524 -31.4911 209.82 -34.8772 209.82C-38.3662 209.82 -39.3465 210.446 -40.639 213.509ZM-23.5893 214.106C-26.9378 219.118 -24.4606 226.249 -20.9152 221.805C-18.7815 219.13 -18.2838 214.923 -19.8546 212.818C-21.2186 210.99 -21.5922 211.118 -23.5893 214.106ZM-4.39826 245.816C-9.01548 248.867 -49.7494 304.177 -48.6562 305.911C-47.6144 307.564 -28.8233 307.123 -26.6419 305.395C-25.5751 304.551 -22.0322 300.124 -18.7702 295.561C-15.5082 290.998 -12.4643 287.272 -12.008 287.282C-11.5516 287.293 -8.40621 291.417 -5.01757 296.447C-1.62893 301.479 1.94274 305.895 2.9206 306.263C5.84914 307.364 24.3494 307.018 25.0865 305.848C25.4626 305.25 24.7468 303.453 23.4944 301.852C22.2432 300.251 16.5215 292.14 10.7798 283.829C3.62891 273.475 0.747998 268.317 1.63057 267.451C2.5144 266.585 5.79398 270.376 12.0447 279.491C23.9946 296.917 29.8141 304.881 31.405 305.991C33.1538 307.211 53.0782 307.184 53.8492 305.961C54.8534 304.369 14.9006 248.779 10.5955 245.776C5.54951 242.256 0.969908 242.269 -4.39826 245.816Z" fill="white"/>
</g>
<defs>
<clipPath id="clip0_23_23">
<rect width="88" height="88" fill="white"/>
</clipPath>
</defs>
</svg>
