<svg width="88" height="88" viewBox="0 0 88 88" fill="none" xmlns="http://www.w3.org/2000/svg">
<g clip-path="url(#clip0_23_14)">
<path d="M387 -47V434H-82V-47H387ZM-3.07031 -5.93945V389.42H305.783V-5.93945H-3.07031ZM142.1 308.803C146.998 305.417 151.176 305.405 155.78 308.764C159.708 311.629 196.157 364.673 195.248 366.202C194.545 367.369 176.364 367.395 174.769 366.231C173.317 365.172 168.007 357.571 157.104 340.94C151.4 332.242 148.407 328.624 147.601 329.45C146.795 330.276 149.424 335.199 155.949 345.081C161.188 353.013 166.409 360.754 167.551 362.282C168.693 363.81 169.346 365.525 169.003 366.095C168.329 367.211 151.449 367.542 148.777 366.491C147.885 366.14 144.626 361.924 141.534 357.123C138.443 352.323 135.573 348.387 135.156 348.376C134.74 348.367 131.963 351.923 128.986 356.277C126.01 360.632 122.777 364.857 121.804 365.663C119.813 367.313 102.667 367.732 101.717 366.155C100.721 364.498 137.887 311.715 142.1 308.803ZM186.551 246.293C189.422 246.293 190.33 246.73 189.891 247.902C189.56 248.788 188.946 251.858 188.526 254.726L187.765 259.939L192.249 261.317C199.489 263.542 200.877 269.315 195.612 275.313C193.569 277.642 193.459 278.452 194.639 282.488C196.55 289.034 196.356 289.7 192.532 289.7C189.427 289.7 188.964 289.192 187.72 284.421C185.987 277.778 183.805 277.654 182.565 284.128C181.735 288.461 181.181 289.164 178.334 289.501L175.059 289.888L175.832 283.914C176.256 280.628 176.871 277.228 177.197 276.357C177.614 275.242 176.406 274.585 173.106 274.131C170.532 273.777 167.672 272.846 166.754 272.063C164.836 270.43 164.602 264.775 166.16 257.664C166.754 254.959 167.536 251.292 167.898 249.519C168.439 246.872 169.171 246.293 171.968 246.293C175.872 246.293 175.896 246.437 173.662 256.852C171.343 267.66 171.436 268.583 174.835 268.583C178.248 268.583 179.05 266.826 181.134 254.798L182.607 246.293H186.551ZM274.04 261.771L278.901 262.131L279.229 273.566C279.719 290.683 280.91 289.817 257.398 289.434L237.721 289.113L237.023 277.969H269.178V261.409L274.04 261.771ZM32.9619 247.658C36.1454 245.857 45.4559 245.979 49.8896 247.878C54.4172 249.818 61.3626 257.676 60.5264 259.912C60.1902 260.809 60.5028 261.544 61.2197 261.544C63.1804 261.544 66.707 265.184 66.707 267.206C66.7068 268.185 65.8552 269.95 64.8145 271.13C62.1503 274.15 41.1193 274.309 37.9141 271.334C32.8536 266.638 36.9969 261.544 45.877 261.544H52.1455L49.0479 259.045C47.1536 257.516 44.1635 256.498 41.3496 256.422C37.5245 256.32 36.1892 256.942 33.4258 260.112C31.5978 262.21 30.1025 265.214 30.1025 266.787C30.1028 276.564 40.4857 282.512 47.5732 276.795C50.3222 274.578 60.9883 273.302 60.9883 275.19C60.988 277.771 55.4391 284.302 51.4355 286.434C44.2141 290.278 36.0131 289.942 29.9756 285.552C27.3448 283.64 24.2382 280.235 23.0713 277.987C20.5192 273.065 20.2547 262.794 22.5654 258.259C24.318 254.819 29.3176 249.721 32.9619 247.658ZM124.589 278.54C126.411 275.688 126.752 275.566 127.996 277.311C129.429 279.32 128.975 283.335 127.028 285.888C123.794 290.128 121.534 283.323 124.589 278.54ZM103.908 267.41C107.82 267.41 109.957 272.02 108.043 276.328C106.861 278.988 106.444 279.177 104.799 277.795C103.055 276.329 103.048 276.429 104.717 279.142C106.007 281.237 106.227 282.856 105.49 284.812C104.053 288.625 101.801 287.42 100.505 282.145C99.6253 278.567 99.7594 277.441 101.191 276.367C102.403 275.459 102.686 274.284 102.078 272.688C101.587 271.398 101.149 269.683 101.104 268.876C101.061 268.069 102.321 267.41 103.908 267.41ZM114.289 274.449C117.379 274.449 118.463 275.122 119.869 277.91C120.829 279.814 121.614 281.647 121.614 281.986C121.614 283.402 114.467 286.246 112.509 285.609C108.571 284.327 107.454 281.875 109.031 277.97C110.211 275.047 111.106 274.449 114.289 274.449ZM121.03 270.198C123.054 267.031 127.334 266.412 127.334 269.286C127.334 271.677 123.91 279.141 122.812 279.142C122.356 279.142 121.367 277.757 120.615 276.064C119.498 273.55 119.574 272.478 121.03 270.198ZM191.861 268.146C190.977 265.783 185.673 265.573 185.673 267.9C185.673 268.816 185.361 270.399 184.979 271.42C184.461 272.805 185.005 273.275 187.127 273.275C190.539 273.275 192.846 270.777 191.861 268.146ZM263.459 246.293V256.852H232.573V273.275H222.278V260.566C222.278 253.576 222.621 247.505 223.041 247.075C223.46 246.645 232.725 246.293 243.631 246.293H263.459ZM125.904 253.064C129.476 252.278 132.098 253.595 134.271 257.259C135.441 259.232 136.23 261.021 136.022 261.236C135.814 261.45 133.616 261.158 131.14 260.588C126.653 259.554 126.638 259.563 127.115 262.894C127.515 265.696 127.191 266.236 125.102 266.236C121.262 266.236 118.183 268.407 118.183 271.114C118.183 273.158 117.899 273.321 116.467 272.103C115.098 270.938 114.404 270.938 113.035 272.103C111.607 273.319 111.319 273.168 111.319 271.198C111.319 269.898 110.469 268.498 109.429 268.089C107.705 267.411 107.72 267.208 109.603 265.796C110.892 264.83 111.324 263.674 110.752 262.725C110.053 261.566 110.54 261.383 112.795 261.964C114.645 262.44 116.085 262.178 116.634 261.267C117.232 260.273 117.722 260.712 118.166 262.642C118.525 264.201 119.529 265.719 120.398 266.016C121.484 266.387 121.743 265.955 121.225 264.637C120.811 263.581 120.202 262.043 119.874 261.217C119.546 260.392 120.004 258.696 120.894 257.448C122.319 255.449 122.763 255.377 124.637 256.84C126.42 258.231 126.532 258.233 125.332 256.854C123.382 254.609 123.537 253.584 125.904 253.064ZM43.6553 264.929C41.3114 263.405 39.2544 263.695 38.5234 265.65C37.4142 268.615 39.0424 271.122 41.8105 270.718C44.7421 270.289 45.9716 266.434 43.6553 264.929ZM40.041 265.821C41.2661 264.564 43.2186 265.641 43.627 267.801C43.8761 269.119 43.224 269.756 41.625 269.756C39.3372 269.756 38.4212 267.481 40.041 265.821ZM95.5039 256.047C98.7034 252.554 104.028 252.466 106.896 255.857C110.544 260.171 108.76 266.236 103.844 266.236C100.587 266.236 100.334 264.69 102.793 259.854C104.466 256.563 104.453 256.489 102.5 258.257C101.373 259.276 98.7785 260.474 96.7344 260.92C92.2599 261.896 91.8037 260.088 95.5039 256.047ZM109.597 253.343C110.513 251.822 118.971 251.794 119.884 253.307C120.265 253.939 120.02 255.523 119.34 256.826C117.613 260.137 110.629 260.161 109.607 256.861C109.21 255.577 109.206 253.994 109.597 253.343ZM111.359 247.389C112.788 244.652 116.524 244.399 117.488 246.976C118.75 250.347 118.224 250.985 114.18 250.985C109.803 250.985 109.61 250.74 111.359 247.389ZM196.471 181.769C199.41 181.769 200.575 182.367 201.131 184.161C201.929 186.741 201.45 214.616 200.606 214.617C200.325 214.616 198.652 213.198 196.889 211.465C193.939 208.566 193.677 207.597 193.631 199.439L193.583 190.567L185.21 199.659C177.683 207.833 176.406 208.751 172.58 208.751C170.24 208.751 168.496 208.27 168.706 207.683C168.915 207.094 174.366 201.023 180.818 194.191C191.229 183.168 192.992 181.769 196.471 181.769ZM47.2607 167.82V181.619L50.9785 181.987C54.6539 182.35 54.6993 182.431 55.0391 189.101L55.3828 195.847H63.2754V211.098H46.1172V182.941H38.1094V211.098H30.1025V167.82H47.2607ZM117.46 168.872C122.407 168.865 123.522 169.372 127.469 173.418C131.462 177.515 131.91 178.574 131.91 183.937C131.91 188.915 131.332 190.574 128.407 193.989C126.482 196.239 123.85 198.424 122.561 198.844C120.422 199.539 120.7 200.111 125.733 205.353C130.387 210.198 130.873 211.098 128.834 211.098C127.309 211.098 123.525 207.934 118.582 202.527C114.273 197.814 109.975 193.519 109.031 192.982C108.089 192.448 111.422 196.304 116.44 201.553C121.458 206.802 124.818 211.096 123.906 211.098C122.995 211.098 119.017 207.812 115.068 203.799L107.888 196.501V203.799C107.888 207.882 107.385 211.097 106.744 211.098C106.038 211.098 105.61 205.15 105.625 195.553C105.647 182.599 105.98 179.592 107.627 177.506C112.617 171.19 119.112 170.755 124.589 176.372C130.898 182.843 128.881 191.227 119.996 195.456L116.467 197.136L119.898 196.419C130.452 194.216 132.89 179.342 123.646 173.561C117.869 169.948 112.951 170.475 108.346 175.198L104.456 179.188V195.143C104.456 208.978 104.213 211.098 102.628 211.098C101.024 211.097 100.852 209.193 101.224 195.553C101.688 178.506 102.712 175.085 108.522 171.156C110.69 169.692 113.877 168.877 117.46 168.872ZM259.331 182.941C262.859 182.941 265.746 183.2 265.746 183.516C265.745 184.896 260.829 202.46 260.015 203.995C259.194 205.538 256.38 197.623 253.677 186.168L252.915 182.941H259.331ZM271.112 182.615C277.042 181.701 277.436 181.753 276.831 183.368C275.812 186.094 264.378 201.708 263.399 201.712C262.647 201.712 265.367 189.969 267.389 184.492C267.669 183.732 269.345 182.887 271.112 182.615ZM241.725 182.925C241.726 181.626 249.619 182.508 251.009 183.963C252.11 185.116 255.87 200.5 255.215 201.173C254.486 201.921 241.725 184.659 241.725 182.925ZM199.07 172.383C204.912 172.383 209.694 172.744 209.695 173.188C209.695 173.63 208.576 175.214 207.208 176.707C205.173 178.928 203.536 179.422 198.215 179.422H191.708L182.373 189.394L173.039 199.366H162.769C157.123 199.366 152.503 199.005 152.5 198.562C152.5 198.119 153.619 196.535 154.987 195.042C157.029 192.814 158.655 192.327 164.062 192.327H170.649L179.548 182.354L188.446 172.383H199.07ZM123.045 177.982C118.599 173.978 113.109 174.644 109.726 179.599C107.207 183.287 107.417 185.769 110.566 189.524C113.761 193.335 119.263 193.812 122.744 190.581C125.694 187.843 125.869 180.526 123.045 177.982ZM111.319 179.422C116.014 174.607 123.902 177.462 123.902 183.974C123.902 188.778 121.388 191.544 117.023 191.544C110.233 191.544 106.739 184.119 111.319 179.422ZM117.039 179.422C112.488 179.422 111.077 185.53 115.037 188.089C119.001 190.649 123.464 184.88 120.425 181.125C119.666 180.188 118.143 179.422 117.039 179.422ZM259.316 171.21C262.647 171.21 263.221 171.699 264.361 175.51C265.069 177.875 265.382 180.251 265.058 180.789C264.284 182.071 254.621 182.061 253.847 180.778C253.518 180.234 253.768 177.858 254.403 175.499C255.434 171.673 255.965 171.21 259.316 171.21ZM267.6 171.21C270.104 171.21 277.063 177.407 277.152 179.715C277.171 180.198 274.932 180.595 272.178 180.595C267.29 180.595 267.14 180.481 266.007 175.902C264.892 171.398 264.956 171.21 267.6 171.21ZM248.605 167.396C248.619 164.504 248.89 164.009 249.731 165.344C250.341 166.312 250.848 167.984 250.858 169.06C250.868 170.134 251.492 171.226 252.245 171.482C253.25 171.826 253.316 173.025 252.494 175.979C251.472 179.658 250.956 180.041 246.55 180.369C241.234 180.767 240.543 179.709 244.012 176.489C246.969 173.744 246.901 172.665 243.727 172.038C241.865 171.67 242.182 171.485 244.87 171.369C248.266 171.224 248.589 170.88 248.605 167.396ZM95.4277 98.4736C97.8766 98.4736 99.8784 98.6047 99.875 98.7666C99.8692 98.9319 97.1301 106.717 93.7861 116.07L87.7041 133.082L95.8838 133.668L104.063 134.255L102.54 138.067L101.018 141.881H88.4385C81.5205 141.881 75.859 141.43 75.8584 140.88C75.8584 140.079 86.9179 108.91 90.1758 100.526C90.7454 99.0622 92.2534 98.4736 95.4277 98.4736ZM42.4258 94.9717C42.5983 94.9629 46.8456 97.4016 51.8633 100.392L60.9883 105.829V127.663L51.6855 133.027L42.3838 138.393L33.6689 133.233L24.9551 128.073L24.6289 116.938L24.3037 105.802L33.208 100.396C38.1062 97.4225 42.2542 94.9822 42.4258 94.9717ZM169.944 96.9033C176.376 94.5688 176.521 94.5771 176.521 97.2998C176.521 100.188 176.904 100.192 184.827 97.3975C191.482 95.049 192.536 95.2024 192.536 98.5234C192.536 100.335 193.256 100.261 200.01 97.7461C205.756 95.6077 207.613 95.3127 208.048 96.4736C208.359 97.3054 208.471 106.077 208.296 115.967L207.979 133.946L202.546 136.135L197.112 138.322L196.908 130.422C196.727 123.363 196.19 108.695 196.03 106.393C195.996 105.909 195.196 105.513 194.253 105.513C192.823 105.513 192.536 107.864 192.536 119.633V133.752L187.197 136.1C182.942 137.97 181.648 138.14 180.83 136.938C180.266 136.106 180.1 129.018 180.463 121.187C181.001 109.551 180.824 106.828 179.505 106.31C178.616 105.96 177.582 105.99 177.206 106.376C176.83 106.762 176.521 113.241 176.521 120.772V134.47L172.232 135.905C169.874 136.694 167.3 137.614 166.513 137.948C165.402 138.421 165.083 134.109 165.083 118.613V98.6689L169.944 96.9033ZM261.521 113.795C262.658 113.756 266.132 116.293 269.242 119.433C275.838 126.091 276.758 130.503 272.012 132.721C269.572 133.861 268.606 133.675 265.766 131.522C263.919 130.122 262.11 128.977 261.743 128.976C261.377 128.976 259.567 130.122 257.72 131.522C254.879 133.675 253.914 133.861 251.474 132.721C246.805 130.54 247.658 126.121 254.021 119.511C257.01 116.407 260.384 113.834 261.521 113.795ZM38.0449 130.331C41.1389 132.9 42.3242 132.96 46.1172 130.735L48.9766 129.059L44.9736 128.919C42.7716 128.843 39.7245 128.642 38.2031 128.473L35.4375 128.165L38.0449 130.331ZM102.734 99.9395C103.272 98.3816 112.476 97.8261 112.447 99.3535C112.437 99.8408 109.983 106.834 106.994 114.897C101.942 128.531 101.332 129.589 98.335 129.943C91.848 130.709 91.7952 130.038 97.1738 115.276C99.9535 107.647 102.455 100.747 102.734 99.9395ZM115.317 99.9395C115.856 98.3828 125.087 97.8237 124.99 99.3535C124.958 99.8408 122.514 106.834 119.557 114.897C114.54 128.579 113.962 129.588 110.938 129.943C104.429 130.707 104.375 130.045 109.757 115.276C112.537 107.647 115.038 100.747 115.317 99.9395ZM127.881 99.9395C128.438 98.3828 137.67 97.8249 137.574 99.3535C137.542 99.8408 135.085 106.834 132.114 114.897L126.711 129.562L122.446 129.926C120.091 130.128 118.183 129.757 118.183 129.1C118.184 128.171 123.601 111.885 127.881 99.9395ZM28.959 118.893C28.959 124.271 28.9678 124.283 32.9619 124.283C35.1639 124.283 36.9658 124.069 36.9658 123.808C36.965 123.545 35.1634 121.119 32.9619 118.417L28.959 113.503V118.893ZM56.126 113.763C55.9667 113.786 53.873 116.161 51.4707 119.042L47.1006 124.283H56.4121V119.004C56.4121 116.1 56.2838 113.742 56.126 113.763ZM42.5312 100.846C42.3013 100.86 39.4116 102.487 36.1104 104.46L30.1074 108.05L35.9961 114.992C39.2345 118.812 42.2111 121.937 42.6104 121.937C43.5481 121.932 54.124 109.055 54.124 107.917C54.1233 107.444 51.6093 105.654 48.5361 103.939C45.4638 102.225 42.762 100.833 42.5312 100.846ZM272.333 95.8535C274.386 100.496 274.696 102.382 273.801 104.798C272.489 108.337 273.316 108.628 277.055 105.942C279.29 104.336 279.884 104.29 280.725 105.649C283.166 109.603 279.836 117.983 275.368 119.135C270.849 120.297 268.582 118.295 268.736 113.273C268.838 109.973 268.425 109.031 266.875 109.031C265.779 109.031 264.254 108.255 263.485 107.305C262.255 105.784 261.886 105.784 260.403 107.305C259.478 108.255 257.856 109.031 256.8 109.03C255.354 109.03 254.879 110.084 254.879 113.288C254.879 118.308 252.591 120.286 248.117 119.135C243.649 117.983 240.32 109.603 242.761 105.649C243.601 104.29 244.196 104.336 246.431 105.942C250.275 108.704 250.727 108.383 250.069 103.357C249.528 99.2196 252.021 91.4346 253.887 91.4346C254.663 91.4362 258.932 96.7436 260.618 99.8027C261.642 101.66 262.261 101.194 265.756 95.9424L269.729 89.9697L272.333 95.8535ZM206.835 62.1045C203.718 64.2208 201.434 64.4363 181.955 64.4434C170.163 64.448 160.512 64.0045 160.507 63.458C160.507 62.9113 161.665 61.8898 163.081 61.1895C164.644 60.4175 174.416 59.8891 187.961 59.8457L210.267 59.7734L206.835 62.1045ZM114.751 42.1953C119.47 42.1953 124.618 42.8618 126.19 43.6748C128.719 44.9828 129.09 46.0093 129.394 52.5576C129.599 57.0073 129.201 60.6252 128.396 61.6201C127.398 62.8519 124.025 63.2783 115.265 63.2783C100.57 63.2783 99.6325 62.5986 100.115 52.3193C100.412 46.0231 100.801 44.9735 103.312 43.6748C104.885 42.8618 110.033 42.1953 114.751 42.1953ZM263.34 26.6162L265.145 32.7754H277.636L272.745 36.4639C268.894 39.3697 268 40.678 268.543 42.623C268.923 43.9827 269.568 46.6776 269.977 48.6133L270.72 52.1328L266.594 48.9062C264.325 47.1315 262.035 45.6809 261.505 45.6807C260.975 45.6807 256.722 49.6248 252.053 54.4453C247.386 59.2641 243.358 62.9928 243.101 62.7354C242.847 62.4737 245.264 57.4824 248.473 51.6436C251.682 45.8062 254.301 40.6233 254.294 40.1279C254.286 39.6329 252.355 37.908 250.004 36.2949L245.729 33.3623L251.624 33.0117C256.763 32.7055 257.607 32.298 258.21 29.8369C258.59 28.2837 259.494 25.5385 260.218 23.7354L261.534 20.457L263.34 26.6162ZM32.3906 53.1309C38.011 50.9631 54.117 51.6768 57.9688 54.2646C61.5663 56.6826 60.9135 60.4047 57.1123 59.1494C46.4238 55.6194 41.3471 55.6325 30.2881 59.2188C27.9591 59.9743 27.6637 59.7363 28 57.3818C28.2631 55.54 29.6636 54.1832 32.3906 53.1309ZM105.6 49.2002V57.4121H123.902V49.2002H105.6ZM186.75 51.5879C206.544 51.5515 208.744 51.7352 206.768 53.2686C204.986 54.6504 200.018 54.9908 181.67 54.9873C161.265 54.9838 159.1 54.8015 161.651 53.3057C163.854 52.0153 169.629 51.6207 186.75 51.5879ZM43.5322 19.8711C43.88 18.9033 44.8401 22.0233 45.666 26.8037C47.677 38.4357 48.8723 39.3722 52.1016 31.8428C53.5277 28.5152 55.0331 25.7811 55.4453 25.7646C55.8583 25.7494 55.9177 28.8692 55.5791 32.6973C55.2417 36.5251 55.3343 40.6157 55.7861 41.7891C56.4954 43.6309 57.235 43.2029 61.2227 38.6416C63.7598 35.7381 65.5544 34.2328 65.209 35.2969C64.8635 36.361 63.9596 40.4646 63.2012 44.417C62.4439 48.3692 61.4869 51.8162 61.0762 52.0781C59.3809 53.1516 48.0369 48.2892 46.1025 45.6602L44.0215 42.8311L41.8008 45.6426C39.8733 48.0839 27.9834 53.2823 26.8906 52.1621C25.8794 51.125 22.4308 35.1221 23.2178 35.1221C23.7103 35.1233 25.4863 36.9709 27.165 39.2285C28.8442 41.4867 30.7076 43.334 31.3047 43.334C31.9018 43.3339 32.3945 39.2433 32.4014 34.2422L32.4131 25.1504L35.2979 31.5059C38.7032 39.0095 39.861 38.483 41.6387 28.6201C42.3318 24.7759 43.1844 20.8393 43.5322 19.8711ZM177.993 21.8066C179.387 21.4969 183.009 21.3893 186.044 21.5664C192.295 21.9325 196.859 24.8054 199.294 29.9062C200.743 32.9422 200.667 33.7193 198.53 37.7197L196.158 42.1611L203.213 42.1689L210.267 42.1758L206.835 44.5078C203.718 46.6239 201.434 46.8387 181.955 46.8457C170.159 46.8504 160.507 46.41 160.507 45.8691C160.507 44.337 165.959 42.1611 169.796 42.1611H173.256L170.886 39.0693C167.419 34.5492 167.819 29.6897 171.987 25.6963C173.898 23.8662 176.601 22.1164 177.993 21.8066ZM102.424 21.6973C105.986 19.1388 123.518 19.1387 127.079 21.6973C129.257 23.2611 129.622 24.6025 129.622 31.042C129.622 40.4834 128.847 40.9883 114.336 40.9883C100.951 40.9883 99.8809 40.2041 99.8809 30.4121C99.8809 24.6237 100.287 23.2318 102.424 21.6973ZM186.577 27.6758C180.31 23.6202 176.522 24.2959 176.521 29.4707C176.521 33.9498 183.006 40.9879 187.135 40.9883C191.776 40.9883 193.257 38.1052 191.052 33.3633C190.03 31.1672 188.017 28.6085 186.577 27.6758ZM105.6 26.9102V35.1221H123.902V26.9102H105.6Z" fill="white"/>
</g>
<defs>
<clipPath id="clip0_23_14">
<rect width="88" height="88" fill="white"/>
</clipPath>
</defs>
</svg>
