<svg width="88" height="88" viewBox="0 0 88 88" fill="none" xmlns="http://www.w3.org/2000/svg">
<g clip-path="url(#clip0_23_36)">
<path fill-rule="evenodd" clip-rule="evenodd" d="M-155 -93V130H46.5H248V-93V-316H46.5H-155V-93ZM178.212 -94.6317V88.6634H45.5171H-87.178V-94.6317V-277.927H45.5171H178.212V-94.6317ZM-47.1336 -253.995C-47.4324 -253.098 -48.1647 -249.447 -48.7604 -245.882C-50.2878 -236.737 -51.2825 -236.249 -54.2087 -243.206L-56.6877 -249.1L-56.6975 -240.67C-56.7034 -236.032 -57.127 -232.239 -57.6401 -232.239C-58.1532 -232.239 -59.7544 -233.952 -61.1973 -236.046C-62.6403 -238.14 -64.1667 -239.854 -64.5894 -239.854C-65.2657 -239.854 -62.3021 -225.015 -61.4332 -224.053C-60.4945 -223.014 -50.277 -227.834 -48.6208 -230.098L-46.7129 -232.706L-44.925 -230.082C-43.2628 -227.644 -33.5152 -223.136 -32.0585 -224.132C-31.7056 -224.374 -30.8829 -227.57 -30.2322 -231.235C-29.5805 -234.9 -28.804 -238.705 -28.5071 -239.692C-28.2103 -240.678 -29.7525 -239.283 -31.9326 -236.59C-35.3591 -232.361 -35.9941 -231.964 -36.6035 -233.672C-36.9918 -234.759 -37.0714 -238.553 -36.7814 -242.102C-36.4905 -245.652 -36.5416 -248.544 -36.8964 -248.53C-37.2503 -248.516 -38.5438 -245.98 -39.7695 -242.894C-42.5443 -235.913 -43.5715 -236.781 -45.2995 -247.566C-46.0091 -251.999 -46.8348 -254.893 -47.1336 -253.995ZM3.47042 -252.301C1.63431 -250.879 1.28537 -249.588 1.28537 -244.221C1.28537 -235.141 2.20538 -234.415 13.7066 -234.415C26.176 -234.415 26.8415 -234.882 26.8415 -243.637C26.8415 -249.608 26.5279 -250.851 24.6564 -252.301C21.5966 -254.674 6.53027 -254.674 3.47042 -252.301ZM68.4055 -252.2C67.2093 -251.913 64.8866 -250.29 63.2451 -248.593C59.6634 -244.89 59.3193 -240.385 62.2986 -236.193L64.3352 -233.327H61.3619C58.0651 -233.327 53.3805 -231.309 53.3805 -229.888C53.3805 -229.387 61.6744 -228.979 71.8104 -228.983C88.5486 -228.99 90.5106 -229.189 93.189 -231.151L96.1378 -233.313L90.0761 -233.319L84.0144 -233.327L86.053 -237.445C87.8891 -241.155 87.954 -241.875 86.7086 -244.69C84.6159 -249.42 80.6951 -252.084 75.3234 -252.423C72.7157 -252.588 69.6027 -252.487 68.4055 -252.2ZM139.059 -250.412C138.437 -248.74 137.661 -246.194 137.334 -244.754C136.816 -242.472 136.091 -242.095 131.675 -241.811L126.609 -241.485L130.283 -238.766C132.303 -237.27 133.962 -235.671 133.969 -235.212C133.975 -234.753 131.725 -229.947 128.967 -224.534C126.209 -219.12 124.133 -214.493 124.351 -214.25C124.57 -214.008 128.032 -217.467 132.043 -221.936C136.055 -226.406 139.71 -230.063 140.165 -230.063C140.62 -230.063 142.588 -228.718 144.538 -227.072L148.084 -224.08L147.445 -227.344C147.094 -229.139 146.539 -231.637 146.213 -232.898C145.746 -234.702 146.514 -235.915 149.823 -238.609L154.026 -242.029H148.66H143.293L141.742 -247.74L140.191 -253.451L139.059 -250.412ZM75.7814 -246.758C77.0189 -245.893 78.7488 -243.521 79.6266 -241.484C81.5217 -237.087 80.2488 -234.415 76.2611 -234.415C72.7137 -234.415 67.1415 -240.94 67.1415 -245.094C67.1415 -249.892 70.3959 -250.518 75.7814 -246.758ZM21.9268 -243.661V-239.854H14.0634H6.2V-243.661V-247.468H14.0634H21.9268V-243.661ZM4.23415 -231.924C2.07564 -230.719 1.74145 -229.746 1.48687 -223.908C1.07208 -214.376 1.87808 -213.746 14.5048 -213.746C22.032 -213.746 24.9307 -214.141 25.7878 -215.283C26.4797 -216.206 26.8218 -219.561 26.6449 -223.687C26.3844 -229.759 26.0659 -230.711 23.8927 -231.924C22.5412 -232.677 18.118 -233.295 14.0634 -233.295C10.0088 -233.295 5.58567 -232.677 4.23415 -231.924ZM21.9268 -222.993V-219.185H14.0634H6.2V-222.993V-226.8H14.0634H21.9268V-222.993ZM-56.7073 -223.155C-59.0506 -222.179 -60.2537 -220.922 -60.4798 -219.214C-60.7688 -217.03 -60.5152 -216.81 -58.5139 -217.51C-49.011 -220.836 -44.6488 -220.848 -35.4643 -217.574C-32.198 -216.41 -31.6368 -219.862 -34.7281 -222.104C-38.0376 -224.504 -51.8782 -225.165 -56.7073 -223.155ZM54.3634 -222.993C52.1715 -221.606 54.0312 -221.437 71.5646 -221.434C87.3318 -221.431 91.6006 -221.746 93.131 -223.027C94.8295 -224.449 92.9384 -224.62 75.9298 -224.586C61.2174 -224.556 56.2556 -224.189 54.3634 -222.993ZM55.5921 -215.683C54.3752 -215.033 53.3805 -214.087 53.3805 -213.58C53.3805 -213.073 61.6744 -212.662 71.8104 -212.666C88.5486 -212.673 90.5106 -212.872 93.189 -214.834L96.1378 -216.996L76.9707 -216.929C65.3319 -216.889 56.9348 -216.398 55.5921 -215.683ZM143.818 -183.459C140.815 -178.588 140.283 -178.158 139.403 -179.88C137.954 -182.717 134.285 -187.639 133.619 -187.639C132.016 -187.639 129.874 -180.42 130.339 -176.584C130.904 -171.924 130.516 -171.625 127.212 -174.186C125.291 -175.675 124.781 -175.719 124.059 -174.458C121.961 -170.792 124.823 -163.021 128.662 -161.954C132.506 -160.887 134.472 -162.721 134.472 -167.375C134.472 -170.346 134.88 -171.323 136.122 -171.323C137.03 -171.322 138.423 -172.042 139.219 -172.923C140.492 -174.333 140.809 -174.333 141.867 -172.923C142.527 -172.042 143.838 -171.322 144.78 -171.322C146.112 -171.322 146.467 -170.45 146.379 -167.388C146.246 -162.733 148.194 -160.876 152.077 -161.954C155.916 -163.021 158.778 -170.792 156.68 -174.458C155.958 -175.719 155.448 -175.675 153.527 -174.186C150.315 -171.696 149.603 -171.966 150.731 -175.248C151.5 -177.488 151.234 -179.237 149.469 -183.541L147.232 -188.997L143.818 -183.459ZM-56.0045 -179.329L-63.6556 -174.317L-63.3765 -163.991L-63.0963 -153.666L-55.6084 -148.882L-48.1205 -144.097L-40.1273 -149.072L-32.1341 -154.047V-164.17V-174.292L-39.9749 -179.334C-44.287 -182.106 -47.9367 -184.368 -48.0841 -184.359C-48.2315 -184.349 -51.7956 -182.087 -56.0045 -179.329ZM61.4896 -182.568L57.3122 -180.931V-162.438C57.3122 -148.069 57.5864 -144.071 58.5409 -144.51C59.2171 -144.82 61.4287 -145.673 63.4555 -146.404L67.1415 -147.735V-160.435C67.1415 -167.42 67.4059 -173.428 67.7293 -173.785C68.0526 -174.143 68.9412 -174.17 69.7049 -173.846C70.8383 -173.365 70.9896 -170.84 70.5277 -160.051C70.2161 -152.789 70.3586 -146.216 70.8432 -145.446C71.546 -144.331 72.6577 -144.49 76.3141 -146.224L80.9024 -148.401V-161.493C80.9024 -172.405 81.1482 -174.585 82.3768 -174.585C83.1877 -174.585 83.8748 -174.218 83.9043 -173.77C84.0419 -171.636 84.5039 -158.033 84.6592 -151.488L84.8342 -144.163L89.5031 -146.191L94.172 -148.22L94.4442 -164.892C94.5946 -174.062 94.4983 -182.195 94.2309 -182.966C93.8574 -184.043 92.2621 -183.77 87.3239 -181.787C81.5207 -179.454 80.9024 -179.386 80.9024 -181.065C80.9024 -184.145 79.9962 -184.287 74.2775 -182.11C67.4698 -179.519 67.1415 -179.522 67.1415 -182.2C67.1415 -184.725 67.0166 -184.732 61.4896 -182.568ZM-7.05378 -179.209C-9.85315 -171.435 -19.3561 -142.534 -19.3561 -141.791C-19.3561 -141.281 -14.4916 -140.863 -8.54685 -140.863H2.2624L3.57067 -144.399L4.87993 -147.934L-2.14898 -148.478L-9.17789 -149.022L-3.95167 -164.795C-1.07759 -173.47 1.27652 -180.69 1.28045 -180.84C1.2834 -180.99 -0.436725 -181.112 -2.54117 -181.112C-5.26879 -181.112 -6.56428 -180.566 -7.05378 -179.209ZM3.73777 -179.752C3.49793 -179.004 1.34828 -172.606 -1.04023 -165.532C-5.66196 -151.844 -5.61674 -151.221 -0.0425637 -151.932C2.5327 -152.26 3.0566 -153.242 7.39818 -165.883C9.96756 -173.362 12.0759 -179.848 12.0838 -180.296C12.1084 -181.713 4.19974 -181.197 3.73777 -179.752ZM14.55 -179.752C14.3101 -179.004 12.1605 -172.606 9.77196 -165.532C5.14729 -151.837 5.19349 -151.224 10.7863 -151.932C13.3852 -152.261 13.8816 -153.197 18.1927 -165.883C20.7345 -173.362 22.8351 -179.848 22.8616 -180.296C22.9451 -181.715 15.0119 -181.196 14.55 -179.752ZM25.3454 -179.752C21.6673 -168.674 17.0122 -153.571 17.0122 -152.714C17.0122 -152.105 18.6517 -151.761 20.6756 -151.948L24.3399 -152.285L28.9833 -165.883C31.5369 -173.362 33.6482 -179.848 33.6748 -180.296C33.7573 -181.714 25.8241 -181.196 25.3454 -179.752ZM-42.8333 -176.044C-40.1922 -174.454 -38.0317 -172.794 -38.0317 -172.355C-38.0317 -171.3 -47.1228 -159.356 -47.9258 -159.356C-48.2689 -159.356 -50.8265 -162.253 -53.6091 -165.795L-58.6692 -172.232L-53.5108 -175.561C-50.6741 -177.391 -48.1912 -178.9 -47.9937 -178.913C-47.7971 -178.926 -45.4744 -177.634 -42.8333 -176.044ZM-52.7756 -157.621C-52.7756 -157.378 -54.3237 -157.18 -56.2159 -157.18C-59.6482 -157.18 -59.6561 -157.191 -59.6561 -162.179V-167.176L-56.2159 -162.62C-54.3237 -160.113 -52.7756 -157.864 -52.7756 -157.621ZM-36.0659 -162.076V-157.18H-40.0664H-44.0669L-40.3121 -162.04C-38.247 -164.712 -36.4472 -166.915 -36.3116 -166.935C-36.1759 -166.954 -36.0659 -164.768 -36.0659 -162.076ZM133.735 -161.606C128.267 -155.476 127.534 -151.379 131.546 -149.357C133.642 -148.3 134.472 -148.472 136.913 -150.468C138.5 -151.766 140.055 -152.829 140.37 -152.829C140.684 -152.829 142.239 -151.766 143.826 -150.468C146.267 -148.472 147.097 -148.3 149.193 -149.357C153.271 -151.413 152.481 -155.503 146.814 -161.677C144.141 -164.588 141.156 -166.941 140.179 -166.905C139.203 -166.87 136.303 -164.484 133.735 -161.606ZM-45.8951 -152.881L-42.4549 -152.752L-44.9122 -151.198C-48.1716 -149.135 -49.1899 -149.191 -51.8487 -151.573L-54.0888 -153.581L-51.7121 -153.296C-50.4048 -153.139 -47.7873 -152.952 -45.8951 -152.881ZM129.081 -117.204C129.067 -113.974 128.79 -113.655 125.871 -113.52C123.561 -113.413 123.289 -113.242 124.888 -112.9C127.616 -112.319 127.675 -111.319 125.134 -108.773C122.153 -105.787 122.747 -104.807 127.314 -105.176C131.101 -105.48 131.544 -105.834 132.423 -109.245C133.129 -111.985 133.072 -113.097 132.208 -113.416C131.562 -113.654 131.025 -114.666 131.017 -115.662C131.008 -116.66 130.573 -118.21 130.049 -119.107C129.325 -120.345 129.092 -119.886 129.081 -117.204ZM-58.6732 -96.7464V-76.6829H-55.2329H-51.7927V-89.7366V-102.79H-48.3524H-44.9122V-89.7366V-76.6829H-37.5402H-30.1683V-83.7537V-90.8244H-33.5594H-36.9505L-37.2454 -97.0793C-37.5373 -103.263 -37.5766 -103.338 -40.7348 -103.675L-43.9293 -104.016V-110.414V-116.811H-51.3012H-58.6732V-96.7464ZM8.71137 -113.718C3.71811 -110.075 2.83839 -106.903 2.43932 -91.0963C2.11987 -78.4484 2.26829 -76.6829 3.64635 -76.6829C5.00869 -76.6829 5.21708 -78.6486 5.21708 -91.4771V-106.271L8.55902 -109.97C12.5163 -114.349 16.7419 -114.838 21.7057 -111.488C29.6497 -106.128 27.5551 -92.3364 18.4866 -90.2935L15.5378 -89.6289L18.5701 -91.1866C26.2045 -95.1082 27.9384 -102.882 22.5166 -108.882C17.8103 -114.09 12.2293 -113.687 7.94175 -107.83C6.52634 -105.896 6.24031 -103.108 6.22163 -91.0963C6.20885 -82.197 6.57646 -76.6829 7.18293 -76.6829C7.73337 -76.6829 8.16586 -79.6635 8.16586 -83.4501V-90.2174L14.3357 -83.4501C17.7287 -79.7288 21.1464 -76.6829 21.9298 -76.6829C22.7142 -76.6829 19.8273 -80.6654 15.5152 -85.5333C11.2021 -90.4012 8.33787 -93.9768 9.14878 -93.4797C9.9597 -92.9826 13.6526 -89.0001 17.3552 -84.6293C21.6025 -79.6156 24.854 -76.6829 26.1642 -76.6829C27.9168 -76.6829 27.499 -77.5173 23.5005 -82.0099C19.1756 -86.8702 18.9358 -87.4 20.7739 -88.045C21.8816 -88.4345 24.1433 -90.46 25.7976 -92.5464C28.3109 -95.713 28.8073 -97.2511 28.8073 -101.868C28.8073 -106.84 28.423 -107.822 24.9916 -111.621C21.6005 -115.373 20.6421 -115.843 16.391 -115.836C13.3125 -115.832 10.574 -115.076 8.71137 -113.718ZM134.063 -109.691C133.518 -107.504 133.302 -105.301 133.584 -104.796C134.249 -103.606 142.555 -103.597 143.218 -104.786C143.497 -105.286 143.228 -107.488 142.619 -109.681C141.639 -113.215 141.147 -113.668 138.285 -113.668C135.405 -113.668 134.949 -113.239 134.063 -109.691ZM144.034 -109.317C145.008 -105.071 145.136 -104.966 149.336 -104.966C151.703 -104.966 153.626 -105.334 153.611 -105.782C153.535 -107.921 147.554 -113.668 145.402 -113.668C143.131 -113.668 143.076 -113.494 144.034 -109.317ZM69.7413 -103.334L62.0951 -94.0878H56.4344C51.7891 -94.0878 50.3914 -93.6364 48.6369 -91.5706C47.4613 -90.1858 46.5 -88.7173 46.5 -88.3072C46.5 -87.896 50.471 -87.561 55.3237 -87.561H64.1485L72.1691 -96.8073L80.1908 -106.054H85.7817C90.3543 -106.054 91.7608 -106.512 93.5095 -108.571C94.685 -109.956 95.6463 -111.424 95.6463 -111.834C95.6463 -112.245 91.5377 -112.58 86.5169 -112.58H77.3875L69.7413 -103.334ZM21.1896 -107.388C23.6165 -105.03 23.4661 -98.2454 20.9311 -95.7065C17.9401 -92.7106 13.2132 -93.1534 10.4679 -96.6866C7.76187 -100.169 7.58101 -102.469 9.74541 -105.889C12.6529 -110.483 17.369 -111.101 21.1896 -107.388ZM11.1146 -106.054C7.179 -101.698 10.1808 -94.8134 16.0155 -94.8134C19.7664 -94.8134 21.9268 -97.3784 21.9268 -101.833C21.9268 -107.871 15.1486 -110.518 11.1146 -106.054ZM18.9387 -104.474C21.5504 -100.992 17.715 -95.6434 14.3091 -98.0169C10.9063 -100.389 12.1182 -106.054 16.0293 -106.054C16.9778 -106.054 18.2871 -105.343 18.9387 -104.474ZM70.8333 -92.3593C65.2886 -86.025 60.605 -80.3956 60.4251 -79.8495C60.2443 -79.3045 61.7432 -78.8585 63.7543 -78.8585C67.0422 -78.8585 68.1391 -79.7103 74.6068 -87.289L81.8018 -95.7195L81.8431 -87.4924C81.8824 -79.9278 82.1075 -79.0304 84.6425 -76.3424C86.1581 -74.7347 87.5962 -73.4195 87.837 -73.4195C88.5614 -73.4206 88.9733 -99.2668 88.2872 -101.659C87.8095 -103.323 86.8088 -103.878 84.2827 -103.878C81.2936 -103.878 79.779 -102.58 70.8333 -92.3593ZM123.168 -102.805C123.168 -101.198 134.134 -85.1917 134.76 -85.8858C135.323 -86.5091 132.092 -100.773 131.146 -101.843C129.951 -103.192 123.168 -104.01 123.168 -102.805ZM148.421 -103.093C146.902 -102.84 145.462 -102.057 145.221 -101.352C143.484 -96.2743 141.146 -85.3854 141.793 -85.3854C142.631 -85.3854 152.459 -99.8662 153.334 -102.394C153.854 -103.892 153.516 -103.94 148.421 -103.093ZM133.439 -99.7988C135.762 -89.1774 138.18 -81.838 138.884 -83.2685C139.584 -84.6903 143.81 -100.981 143.81 -102.258C143.81 -102.551 141.329 -102.79 138.298 -102.79H132.784L133.439 -99.7988ZM11.149 -43.0328C9.64615 -39.9249 9.81128 -39.6976 13.572 -39.6976C17.0476 -39.6976 17.4997 -40.2893 16.4156 -43.4157C15.587 -45.8045 12.3767 -45.5706 11.149 -43.0328ZM-56.2159 -42.7826C-59.3475 -40.8702 -63.6438 -36.1426 -65.1497 -32.9531C-67.1352 -28.7477 -66.9081 -19.2251 -64.7152 -14.6606C-63.7126 -12.5764 -61.043 -9.4196 -58.7823 -7.64648C-53.5944 -3.57591 -46.5478 -3.2637 -40.3426 -6.82843C-36.9023 -8.80498 -32.1341 -14.8608 -32.1341 -17.254C-32.1341 -19.0053 -41.299 -17.8218 -43.6609 -15.7658C-49.7511 -10.465 -58.6732 -15.9801 -58.6732 -25.0459C-58.6732 -26.5047 -57.3885 -29.2894 -55.8178 -31.2344C-53.443 -34.1748 -52.2959 -34.7513 -49.009 -34.6567C-46.591 -34.586 -44.0217 -33.6417 -42.3939 -32.2243L-39.7322 -29.9073H-45.1186C-52.7491 -29.9073 -56.3092 -25.1841 -51.9608 -20.8296C-49.2066 -18.0709 -31.1355 -18.2189 -28.8463 -21.0189C-27.9518 -22.1132 -27.2195 -23.7503 -27.2195 -24.6576C-27.2195 -26.5329 -30.2499 -29.9073 -31.9346 -29.9073C-32.5509 -29.9073 -32.8192 -30.5883 -32.5303 -31.4204C-31.8117 -33.4938 -37.7801 -40.7799 -41.6705 -42.5791C-45.4803 -44.3403 -53.4804 -44.4523 -56.2159 -42.7826ZM59.7312 -41.0573C59.4196 -39.4125 58.7483 -36.0132 58.2381 -33.5047C56.8994 -26.9104 57.0999 -21.6672 58.7483 -20.1529C59.5375 -19.4274 61.9939 -18.5648 64.2065 -18.2362C67.0422 -17.8153 68.0802 -17.2061 67.7214 -16.1716C67.4413 -15.3644 66.9134 -12.212 66.5488 -9.16505L65.8843 -3.62594L68.6984 -3.98493C71.1449 -4.29713 71.6207 -4.94871 72.3343 -8.96706C73.3998 -14.9696 75.2742 -14.8543 76.7633 -8.69511C77.8328 -4.27101 78.2299 -3.79999 80.8985 -3.79999C84.1844 -3.79999 84.3515 -4.41678 82.7091 -10.4867C81.6957 -14.2299 81.79 -14.9804 83.5455 -17.1397C88.069 -22.7017 86.8767 -28.0548 80.6557 -30.1172L76.8017 -31.3954L77.4563 -36.2296C77.817 -38.8882 78.3449 -41.735 78.6289 -42.5563C79.0064 -43.643 78.2259 -44.0488 75.7588 -44.0488H72.3706L71.1046 -36.1622C69.3137 -25.0089 68.6247 -23.3805 65.6916 -23.3805C62.7714 -23.3805 62.6918 -24.2366 64.6841 -34.2585C66.6038 -43.915 66.5832 -44.0488 63.2284 -44.0488C60.8252 -44.0488 60.1961 -43.5114 59.7312 -41.0573ZM107.114 -43.3232C106.753 -42.9251 106.459 -37.2957 106.459 -30.8135V-19.0293H110.882H115.305V-26.6439V-34.2585H128.574H141.844V-39.1536V-44.0488H124.807C115.436 -44.0488 107.474 -43.7224 107.114 -43.3232ZM9.63435 -37.5121C9.29819 -36.9084 9.30114 -35.4399 9.6432 -34.2487C10.521 -31.1887 16.5217 -31.2116 18.0059 -34.2814C18.5908 -35.4899 18.8011 -36.9585 18.4738 -37.5448C17.6904 -38.9481 10.4217 -38.9219 9.63435 -37.5121ZM23.647 -37.77C21.6123 -37.2881 21.4796 -36.3373 23.1555 -34.2563C24.1866 -32.9771 24.0903 -32.9793 22.5579 -34.2694C20.9478 -35.6259 20.5665 -35.5585 19.3417 -33.7048C18.577 -32.5474 18.1829 -30.9755 18.465 -30.2108C18.7471 -29.445 19.27 -28.0189 19.6258 -27.0399C20.0711 -25.8172 19.8489 -25.4157 18.9161 -25.7606C18.1691 -26.0358 17.3061 -27.4434 16.9975 -28.8891C16.6161 -30.6786 16.1954 -31.0854 15.6813 -30.164C15.2095 -29.3188 13.972 -29.0762 12.3826 -29.5179C10.4453 -30.0563 10.0265 -29.8877 10.6271 -28.813C11.1186 -27.9329 10.747 -26.8604 9.63926 -25.9651C8.02136 -24.6554 8.00859 -24.4672 9.48986 -23.8384C10.3833 -23.4588 11.1146 -22.161 11.1146 -20.9558C11.1146 -19.1293 11.3614 -18.989 12.589 -20.1171C13.7656 -21.1973 14.3612 -21.1973 15.5378 -20.1171C16.7684 -18.9868 17.0122 -19.1381 17.0122 -21.033C17.0122 -23.5437 19.6573 -25.5561 22.9569 -25.5561C24.7528 -25.5561 25.0319 -26.0576 24.6879 -28.6563C24.278 -31.7446 24.2908 -31.7522 28.1458 -30.7939C30.2738 -30.2652 32.1621 -29.9943 32.3409 -30.1923C32.5198 -30.3903 31.8426 -32.0503 30.8371 -33.8811C28.9695 -37.2783 26.7157 -38.4988 23.647 -37.77ZM-2.47531 -35.0048C-5.65508 -31.2573 -5.26289 -29.581 -1.41768 -30.486C0.33881 -30.8994 2.56808 -32.01 3.53626 -32.9553C5.21412 -34.5947 5.22593 -34.5261 3.78791 -31.4748C1.67461 -26.9898 1.89281 -25.5561 4.69121 -25.5561C8.91583 -25.5561 10.4482 -31.18 7.31365 -35.1799C4.84847 -38.3247 0.273933 -38.2432 -2.47531 -35.0048ZM146.759 -22.3547V-14.678H132.944H119.128L119.428 -9.51097L119.728 -4.34389L136.636 -4.04691C156.839 -3.6912 155.816 -2.88842 155.395 -18.7595L155.113 -29.3634L150.936 -29.6974L146.759 -30.0324V-22.3547ZM-47.0275 -26.769C-45.037 -25.3733 -46.0937 -21.7977 -48.6129 -21.4007C-50.9916 -21.0254 -52.3903 -23.3511 -51.4369 -26.1C-50.8088 -27.9134 -49.0415 -28.182 -47.0275 -26.769ZM-50.1335 -25.9412C-51.5253 -24.4019 -50.738 -22.2927 -48.7721 -22.2927C-47.398 -22.2927 -46.8377 -22.8833 -47.052 -24.106C-47.4029 -26.1087 -49.0808 -27.1073 -50.1335 -25.9412ZM80.3225 -23.7862C81.1688 -21.3463 79.1862 -19.0293 76.2542 -19.0293C74.4308 -19.0293 73.963 -19.4655 74.4083 -20.7502C74.7365 -21.6966 75.0049 -23.1651 75.0049 -24.0136C75.0049 -26.1718 79.5627 -25.9771 80.3225 -23.7862ZM2.33711 -23.1085C2.37544 -22.3601 2.7519 -20.7698 3.17358 -19.5743C3.69551 -18.0938 3.45272 -17.0048 2.4118 -16.1629C1.18117 -15.1675 1.06618 -14.1233 1.82205 -10.8055C2.93571 -5.9136 4.87109 -4.7964 6.10565 -8.33177C6.73865 -10.1462 6.54992 -11.6474 5.44118 -13.5902C4.00709 -16.1052 4.01299 -16.1988 5.51196 -14.839C6.92541 -13.5576 7.28417 -13.7327 8.29954 -16.1988C9.94397 -20.1932 8.10786 -24.4683 4.74625 -24.4683C3.38195 -24.4683 2.29976 -23.8569 2.33711 -23.1085ZM19.4587 -21.8826C18.2074 -19.769 18.1416 -18.7747 19.1019 -16.4435C19.7477 -14.8738 20.5979 -13.5902 20.9901 -13.5902C21.9327 -13.5902 24.8756 -20.5119 24.8756 -22.7289C24.8756 -25.394 21.1975 -24.8196 19.4587 -21.8826ZM9.14878 -14.6769C7.79333 -11.0556 8.75266 -8.78214 12.1369 -7.59317C13.8196 -7.00249 19.961 -9.63934 19.961 -10.9523C19.961 -11.2667 19.2857 -12.9669 18.461 -14.7324C17.253 -17.3181 16.3212 -17.9415 13.6663 -17.9415C10.9308 -17.9415 10.1622 -17.3867 9.14878 -14.6769ZM22.5166 -14.1483C19.8912 -9.7133 21.8335 -3.40294 24.6132 -7.33536C26.2861 -9.70242 26.6763 -13.4249 25.4447 -15.2883C24.3753 -16.9059 24.0824 -16.7927 22.5166 -14.1483ZM37.5632 13.9127C33.9431 16.6127 2.00585 65.5574 2.86296 67.0923C3.67977 68.5543 18.4129 68.1648 20.1232 66.6354C20.9596 65.8881 23.7374 61.9709 26.295 57.9329C28.8525 53.895 31.2391 50.5979 31.5969 50.6066C31.9546 50.6164 34.4208 54.266 37.0777 58.7173C39.7345 63.1696 42.5349 67.0781 43.3016 67.4034C45.5977 68.378 60.1027 68.0713 60.6807 67.0357C60.9756 66.507 60.4143 64.9167 59.4324 63.5003C58.4514 62.0829 53.9653 54.9056 49.4635 47.5509C43.8569 38.3883 41.5981 33.8239 42.2901 33.0581C42.9831 32.2912 45.5544 35.646 50.4553 43.7121C59.8246 59.1328 64.3873 66.1807 65.6346 67.1629C67.0058 68.2421 82.6275 68.2181 83.232 67.1358C84.0193 65.7271 52.6944 16.5343 49.319 13.8768C45.3628 10.7625 41.7721 10.7733 37.5632 13.9127Z" fill="white"/>
</g>
<defs>
<clipPath id="clip0_23_36">
<rect width="88" height="88" fill="white"/>
</clipPath>
</defs>
</svg>
