<svg width="88" height="88" viewBox="0 0 88 88" fill="none" xmlns="http://www.w3.org/2000/svg">
<g clip-path="url(#clip0_23_32)">
<path fill-rule="evenodd" clip-rule="evenodd" d="M-183 -37V231H91.5H366V-37V-305H91.5H-183V-37ZM270.929 -38.961V181.322H90.161H-90.6073V-38.961V-259.244H90.161H270.929V-38.961ZM-36.0555 -230.483C-36.4625 -229.404 -37.4601 -225.017 -38.2715 -220.733C-40.3524 -209.742 -41.7075 -209.155 -45.6938 -217.517L-49.0708 -224.6L-49.0842 -214.468C-49.0922 -208.895 -49.6693 -204.337 -50.3683 -204.337C-51.0673 -204.337 -53.2485 -206.396 -55.2142 -208.912C-57.1799 -211.429 -59.2594 -213.488 -59.8352 -213.488C-60.7564 -213.488 -56.7193 -195.655 -55.5356 -194.499C-54.2568 -193.251 -40.3377 -199.043 -38.0814 -201.764L-35.4824 -204.897L-33.0467 -201.744C-30.7824 -198.814 -17.5033 -193.397 -15.5188 -194.593C-15.0381 -194.885 -13.9174 -198.726 -13.0309 -203.13C-12.1432 -207.534 -11.0853 -212.107 -10.6809 -213.293C-10.2766 -214.479 -12.3775 -212.801 -15.3474 -209.566C-20.0153 -204.483 -20.8803 -204.006 -21.7105 -206.058C-22.2394 -207.366 -22.3479 -211.924 -21.9529 -216.19C-21.5565 -220.456 -21.6261 -223.932 -22.1095 -223.915C-22.5916 -223.898 -24.3537 -220.851 -26.0235 -217.142C-29.8036 -208.751 -31.2028 -209.795 -33.5568 -222.757C-34.5236 -228.084 -35.6484 -231.561 -36.0555 -230.483ZM32.8815 -228.447C30.3802 -226.737 29.9049 -225.187 29.9049 -218.737C29.9049 -207.825 31.1582 -206.951 46.8261 -206.951C63.813 -206.951 64.7195 -207.513 64.7195 -218.035C64.7195 -225.211 64.2924 -226.705 61.7429 -228.447C57.5745 -231.299 37.0499 -231.299 32.8815 -228.447ZM121.341 -228.326C119.712 -227.981 116.548 -226.03 114.312 -223.991C109.432 -219.541 108.964 -214.126 113.022 -209.089L115.797 -205.644H111.746C107.255 -205.644 100.873 -203.219 100.873 -201.511C100.873 -200.909 112.172 -200.419 125.98 -200.424C148.782 -200.432 151.455 -200.671 155.104 -203.029L159.121 -205.627L150.863 -205.635L142.605 -205.644L145.382 -210.593C147.884 -215.051 147.972 -215.917 146.275 -219.3C143.425 -224.984 138.083 -228.186 130.766 -228.594C127.213 -228.791 122.972 -228.671 121.341 -228.326ZM217.592 -226.177C216.744 -224.167 215.686 -221.108 215.242 -219.377C214.536 -216.635 213.548 -216.181 207.532 -215.84L200.63 -215.449L205.636 -212.18C208.387 -210.383 210.648 -208.461 210.657 -207.909C210.665 -207.358 207.6 -201.582 203.843 -195.077C200.087 -188.57 197.257 -183.009 197.555 -182.717C197.853 -182.427 202.569 -186.583 208.034 -191.955C213.5 -197.327 218.478 -201.722 219.098 -201.722C219.718 -201.722 222.399 -200.105 225.056 -198.127L229.885 -194.532L229.015 -198.454C228.537 -200.611 227.782 -203.614 227.337 -205.129C226.701 -207.296 227.747 -208.754 232.256 -211.992L237.981 -216.102H230.67H223.359L221.246 -222.966L219.133 -229.829L217.592 -226.177ZM131.39 -221.785C133.075 -220.746 135.432 -217.895 136.628 -215.447C139.209 -210.163 137.475 -206.951 132.043 -206.951C127.21 -206.951 119.62 -214.794 119.62 -219.785C119.62 -225.552 124.053 -226.305 131.39 -221.785ZM58.0244 -218.063V-213.488H47.3122H36.6V-218.063V-222.639H47.3122H58.0244V-218.063ZM33.922 -203.957C30.9815 -202.51 30.5262 -201.34 30.1794 -194.324C29.6143 -182.869 30.7123 -182.112 47.9134 -182.112C58.1677 -182.112 62.1164 -182.587 63.2841 -183.959C64.2267 -185.068 64.6927 -189.1 64.4517 -194.058C64.0969 -201.356 63.663 -202.5 60.7024 -203.957C58.8613 -204.863 52.8357 -205.606 47.3122 -205.606C41.7887 -205.606 35.7631 -204.863 33.922 -203.957ZM58.0244 -193.224V-188.649H47.3122H36.6V-193.224V-197.8H47.3122H58.0244V-193.224ZM-49.0976 -193.419C-52.2898 -192.247 -53.9288 -190.735 -54.2367 -188.683C-54.6304 -186.059 -54.2849 -185.794 -51.5587 -186.636C-38.613 -190.632 -32.6704 -190.646 -20.1586 -186.713C-15.709 -185.314 -14.9444 -189.462 -19.1556 -192.156C-23.6641 -195.04 -42.5189 -195.835 -49.0976 -193.419ZM102.212 -193.224C99.2262 -191.558 101.76 -191.355 125.645 -191.351C147.124 -191.347 152.94 -191.726 155.025 -193.266C157.338 -194.975 154.762 -195.18 131.592 -195.14C111.549 -195.103 104.79 -194.662 102.212 -193.224ZM103.886 -184.439C102.228 -183.659 100.873 -182.521 100.873 -181.912C100.873 -181.303 112.172 -180.809 125.98 -180.814C148.782 -180.822 151.455 -181.061 155.104 -183.42L159.121 -186.017L133.01 -185.937C117.154 -185.889 105.715 -185.299 103.886 -184.439ZM224.074 -145.713C219.983 -139.86 219.259 -139.342 218.061 -141.411C216.087 -144.821 211.088 -150.737 210.18 -150.737C207.996 -150.737 205.079 -142.061 205.712 -137.45C206.482 -131.85 205.953 -131.492 201.453 -134.569C198.836 -136.359 198.141 -136.411 197.157 -134.896C194.3 -130.49 198.197 -121.151 203.428 -119.868C208.665 -118.586 211.343 -120.79 211.343 -126.384C211.343 -129.954 211.898 -131.128 213.591 -131.128C214.827 -131.127 216.726 -131.992 217.809 -133.051C219.544 -134.745 219.975 -134.745 221.416 -133.051C222.316 -131.992 224.102 -131.127 225.385 -131.127C227.199 -131.127 227.683 -130.078 227.564 -126.4C227.383 -120.804 230.035 -118.573 235.326 -119.868C240.556 -121.151 244.454 -130.49 241.597 -134.896C240.612 -136.411 239.917 -136.359 237.301 -134.569C232.925 -131.577 231.956 -131.901 233.491 -135.845C234.54 -138.537 234.177 -140.639 231.774 -145.812L228.726 -152.368L224.074 -145.713ZM-48.1402 -140.75L-58.5631 -134.726L-58.1828 -122.317L-57.8012 -109.908L-47.6005 -104.158L-37.3998 -98.4086L-26.5109 -104.387L-15.6219 -110.365V-122.531V-134.696L-26.3033 -140.755C-32.1776 -144.088 -37.1494 -146.805 -37.3503 -146.795C-37.5511 -146.783 -42.4065 -144.064 -48.1402 -140.75ZM111.92 -144.642L106.229 -142.674V-120.45C106.229 -103.182 106.603 -98.3772 107.903 -98.9041C108.824 -99.2767 111.837 -100.302 114.598 -101.18L119.62 -102.78V-118.043C119.62 -126.437 119.98 -133.658 120.42 -134.087C120.861 -134.517 122.071 -134.549 123.112 -134.16C124.656 -133.582 124.862 -130.548 124.232 -117.582C123.808 -108.854 124.002 -100.955 124.662 -100.03C125.62 -98.6897 127.134 -98.8805 132.115 -100.964L138.366 -103.58V-119.314C138.366 -132.429 138.701 -135.049 140.374 -135.049C141.479 -135.049 142.415 -134.607 142.455 -134.068C142.643 -131.505 143.272 -115.157 143.484 -107.291L143.722 -98.4871L150.082 -100.925L156.443 -103.363L156.814 -123.399C157.018 -134.42 156.887 -144.193 156.523 -145.12C156.014 -146.415 153.841 -146.086 147.114 -143.703C139.208 -140.9 138.366 -140.818 138.366 -142.836C138.366 -146.537 137.131 -146.709 129.341 -144.091C120.067 -140.977 119.62 -140.981 119.62 -144.2C119.62 -147.234 119.449 -147.243 111.92 -144.642ZM18.5446 -140.605C14.7311 -131.263 1.78537 -96.53 1.78537 -95.6371C1.78537 -95.024 8.41219 -94.522 16.5106 -94.522H31.2359L33.0181 -98.7707L34.8017 -103.02L25.2263 -103.673L15.651 -104.327L22.7706 -123.283C26.6859 -133.709 29.8928 -142.385 29.8982 -142.566C29.9022 -142.746 27.5589 -142.893 24.6921 -142.893C20.9763 -142.893 19.2114 -142.236 18.5446 -140.605ZM33.2457 -141.259C32.919 -140.359 29.9906 -132.669 26.7368 -124.168C20.4407 -107.718 20.5023 -106.97 28.0959 -107.824C31.6041 -108.219 32.3178 -109.398 38.2323 -124.59C41.7325 -133.578 44.6047 -141.374 44.6154 -141.912C44.6489 -143.614 33.8751 -142.995 33.2457 -141.259ZM47.975 -141.259C47.6483 -140.359 44.7199 -132.669 41.466 -124.168C35.1659 -107.71 35.2288 -106.973 42.8479 -107.824C46.3883 -108.22 47.0645 -109.344 52.9374 -124.59C56.4002 -133.578 59.2617 -141.374 59.2978 -141.912C59.4116 -143.617 48.6044 -142.993 47.975 -141.259ZM62.6815 -141.259C57.6709 -127.945 51.3293 -109.794 51.3293 -108.764C51.3293 -108.032 53.5628 -107.619 56.3198 -107.844L61.3117 -108.249L67.6373 -124.59C71.116 -133.578 73.9923 -141.374 74.0284 -141.912C74.1409 -143.616 63.3336 -142.993 62.6815 -141.259ZM-30.1972 -136.802C-26.5993 -134.891 -23.6561 -132.896 -23.6561 -132.369C-23.6561 -131.101 -36.0407 -116.746 -37.1347 -116.746C-37.602 -116.746 -41.0862 -120.228 -44.877 -124.484L-51.7703 -132.221L-44.7431 -136.221C-40.8786 -138.42 -37.4963 -140.234 -37.2271 -140.249C-36.9593 -140.265 -33.7952 -138.713 -30.1972 -136.802ZM-43.7415 -114.661C-43.7415 -114.37 -45.8504 -114.132 -48.428 -114.132C-53.1039 -114.132 -53.1146 -114.145 -53.1146 -120.139V-126.145L-48.428 -120.668C-45.8504 -117.656 -43.7415 -114.953 -43.7415 -114.661ZM-20.978 -120.015V-114.132H-26.4279H-31.8777L-26.7626 -119.971C-23.9493 -123.184 -21.4976 -125.831 -21.3128 -125.854C-21.128 -125.878 -20.978 -123.25 -20.978 -120.015ZM210.338 -119.45C202.889 -112.083 201.892 -107.16 207.356 -104.729C210.213 -103.459 211.343 -103.665 214.667 -106.064C216.83 -107.625 218.948 -108.902 219.377 -108.902C219.805 -108.902 221.924 -107.625 224.086 -106.064C227.411 -103.665 228.541 -103.459 231.397 -104.729C236.953 -107.2 235.876 -112.116 228.155 -119.536C224.515 -123.035 220.448 -125.862 219.117 -125.819C217.787 -125.776 213.837 -122.909 210.338 -119.45ZM-34.3683 -108.965L-29.6817 -108.81L-33.0293 -106.941C-37.4695 -104.463 -38.8567 -104.529 -42.4788 -107.392L-45.5304 -109.806L-42.2926 -109.463C-40.5117 -109.275 -36.9459 -109.05 -34.3683 -108.965ZM203.998 -66.0878C203.979 -62.2064 203.602 -61.8233 199.626 -61.6612C196.48 -61.5318 196.109 -61.3266 198.287 -60.9161C202.003 -60.218 202.083 -59.0152 198.622 -55.9561C194.561 -52.3675 195.369 -51.1896 201.592 -51.6328C206.75 -51.9989 207.354 -52.4237 208.551 -56.5235C209.514 -59.8166 209.436 -61.1527 208.259 -61.5357C207.378 -61.822 206.647 -63.0378 206.636 -64.2353C206.624 -65.4341 206.031 -67.2971 205.317 -68.3756C204.332 -69.8633 204.014 -69.3117 203.998 -66.0878ZM-51.7756 -41.5024V-17.3903H-47.089H-42.4024V-33.0781V-48.7659H-37.7158H-33.0293V-33.0781V-17.3903H-22.9866H-12.9439V-25.8878V-34.3854H-17.5635H-22.1832L-22.5849 -41.9025C-22.9826 -49.3345 -23.0361 -49.4248 -27.3384 -49.8287L-31.6902 -50.2392V-57.9275V-65.6159H-41.7329H-51.7756V-41.5024ZM40.0212 -61.8992C33.219 -57.521 32.0205 -53.7088 31.4769 -34.7122C31.0417 -19.512 31.2439 -17.3903 33.1212 -17.3903C34.9771 -17.3903 35.261 -19.7526 35.261 -35.1698V-52.9493L39.8137 -57.3942C45.2046 -62.6574 50.961 -63.2444 57.7231 -59.2192C68.5451 -52.7767 65.6917 -36.2025 53.3378 -33.7474L49.3207 -32.9486L53.4516 -34.8207C63.8518 -39.5336 66.2139 -48.8757 58.8278 -56.0868C52.4166 -62.3463 44.8136 -61.8613 38.9728 -54.8227C37.0446 -52.4982 36.6549 -49.1476 36.6295 -34.7122C36.6121 -24.017 37.1129 -17.3903 37.939 -17.3903C38.6889 -17.3903 39.2781 -20.9723 39.2781 -25.5231V-33.6559L47.6831 -25.5231C52.3054 -21.0507 56.9612 -17.3903 58.0284 -17.3903C59.097 -17.3903 55.1642 -22.1763 49.2899 -28.0266C43.4143 -33.8768 39.5124 -38.174 40.6171 -37.5765C41.7218 -36.9791 46.7525 -32.193 51.7966 -26.9402C57.5825 -20.9148 62.012 -17.3903 63.7969 -17.3903C66.1844 -17.3903 65.6153 -18.393 60.1682 -23.7922C54.2765 -29.6333 53.9497 -30.27 56.4537 -31.0452C57.9628 -31.5132 61.0439 -33.9474 63.2975 -36.4549C66.7214 -40.2605 67.3976 -42.109 67.3976 -47.6573C67.3976 -53.633 66.874 -54.8135 62.1995 -59.3787C57.5798 -63.8876 56.2743 -64.4524 50.483 -64.4445C46.2892 -64.4393 42.5587 -63.5307 40.0212 -61.8992ZM210.786 -57.0595C210.043 -54.4305 209.749 -51.7831 210.134 -51.1765C211.039 -49.7463 222.354 -49.7359 223.257 -51.1648C223.638 -51.7649 223.271 -54.4122 222.442 -57.0477C221.107 -61.2939 220.436 -61.839 216.537 -61.839C212.613 -61.839 211.992 -61.3226 210.786 -57.0595ZM224.369 -56.6098C225.696 -51.5073 225.87 -51.3805 231.591 -51.3805C234.816 -51.3805 237.436 -51.8224 237.415 -52.361C237.312 -54.9325 229.164 -61.839 226.233 -61.839C223.138 -61.839 223.063 -61.6299 224.369 -56.6098ZM123.161 -49.4195L112.745 -38.3073H105.034C98.7053 -38.3073 96.8012 -37.7648 94.411 -35.2822C92.8096 -33.618 91.5 -31.8531 91.5 -31.3603C91.5 -30.8661 96.9097 -30.4634 103.52 -30.4634H115.542L126.469 -41.5756L137.396 -52.6878H145.013C151.242 -52.6878 153.158 -53.2382 155.54 -55.7129C157.142 -57.3772 158.451 -59.142 158.451 -59.6349C158.451 -60.1291 152.854 -60.5317 146.014 -60.5317H133.578L123.161 -49.4195ZM57.0201 -54.2919C60.3262 -51.4576 60.1213 -43.3039 56.668 -40.2526C52.5933 -36.6523 46.1539 -37.1844 42.414 -41.4305C38.7277 -45.6152 38.4813 -48.3802 41.4299 -52.4904C45.3907 -58.0112 51.8153 -58.7538 57.0201 -54.2919ZM43.2951 -52.6878C37.9337 -47.4533 42.023 -39.1793 49.9715 -39.1793C55.0812 -39.1793 58.0244 -42.262 58.0244 -47.6154C58.0244 -54.8723 48.7905 -58.053 43.2951 -52.6878ZM53.9538 -50.7896C57.5116 -46.6049 52.2867 -40.1768 47.647 -43.0294C43.0113 -45.8806 44.6623 -52.6878 49.9902 -52.6878C51.2824 -52.6878 53.066 -51.8341 53.9538 -50.7896ZM124.649 -36.23C117.095 -28.6175 110.715 -21.8521 110.47 -21.1958C110.224 -20.5409 112.266 -20.0049 115.005 -20.0049C119.484 -20.0049 120.979 -21.0285 129.789 -30.1366L139.591 -40.2683L139.647 -30.3811C139.701 -21.29 140.007 -20.2114 143.461 -16.9811C145.526 -15.0488 147.485 -13.4683 147.813 -13.4683C148.8 -13.4696 149.361 -44.5315 148.426 -47.4063C147.775 -49.4065 146.412 -50.0732 142.971 -50.0732C138.899 -50.0732 136.835 -48.5135 124.649 -36.23ZM195.944 -48.7842C195.944 -46.852 210.882 -27.6161 211.735 -28.4502C212.502 -29.1993 208.101 -46.3421 206.811 -47.6272C205.185 -49.2483 195.944 -50.2314 195.944 -48.7842ZM230.345 -49.1293C228.276 -48.826 226.314 -47.8847 225.986 -47.0376C223.62 -40.935 220.435 -27.8488 221.316 -27.8488C222.458 -27.8488 235.846 -45.2518 237.039 -48.29C237.747 -50.0902 237.286 -50.1477 230.345 -49.1293ZM209.935 -45.1707C213.099 -32.4061 216.394 -23.5856 217.354 -25.3048C218.307 -27.0134 224.063 -46.5918 224.063 -48.1266C224.063 -48.4783 220.684 -48.7659 216.554 -48.7659H209.044L209.935 -45.1707ZM43.342 23.0503C41.2946 26.7853 41.5196 27.0585 46.6427 27.0585C51.3775 27.0585 51.9934 26.3473 50.5165 22.5901C49.3877 19.7192 45.0144 20.0003 43.342 23.0503ZM-48.428 23.351C-52.6942 25.6492 -58.547 31.3309 -60.5984 35.1639C-63.3033 40.218 -62.994 51.6622 -60.0066 57.1477C-58.6408 59.6525 -55.004 63.4464 -51.9242 65.5773C-44.8569 70.4693 -35.2574 70.8445 -26.8041 66.5604C-22.1176 64.185 -15.6219 56.9072 -15.6219 54.0311C-15.6219 51.9263 -28.107 53.3487 -31.3247 55.8195C-39.6213 62.1901 -51.7756 55.5619 -51.7756 44.6668C-51.7756 42.9137 -50.0255 39.5669 -47.8857 37.2294C-44.6507 33.6958 -43.088 33.0029 -38.6103 33.1166C-35.3163 33.2016 -31.8161 34.3364 -29.5987 36.0398L-25.9726 38.8244H-33.3105C-43.7053 38.8244 -48.5552 44.5007 -42.6314 49.7339C-38.8795 53.0493 -14.2615 52.8715 -11.1429 49.5065C-9.9244 48.1913 -8.92682 46.2238 -8.92682 45.1335C-8.92682 42.8797 -13.055 38.8244 -15.3501 38.8244C-16.1897 38.8244 -16.5552 38.006 -16.1616 37.0059C-15.1827 34.5142 -23.3133 25.7577 -28.6132 23.5954C-33.8032 21.4789 -44.7015 21.3442 -48.428 23.351ZM109.525 25.4244C109.1 27.401 108.186 31.4864 107.491 34.5011C105.667 42.426 105.94 48.7273 108.186 50.5471C109.261 51.4191 112.607 52.4558 115.621 52.8506C119.484 53.3565 120.898 54.0886 120.41 55.3319C120.028 56.3019 119.309 60.0905 118.812 63.7523L117.907 70.4092L121.741 69.9777C125.073 69.6025 125.721 68.8195 126.694 63.9902C128.145 56.7765 130.699 56.915 132.727 64.3171C134.184 69.6339 134.725 70.2 138.361 70.2C142.837 70.2 143.064 69.4587 140.827 62.1639C139.446 57.6654 139.575 56.7634 141.966 54.1684C148.129 47.484 146.504 41.0507 138.03 38.5721L132.779 37.036L133.671 31.2262C134.163 28.0312 134.882 24.6099 135.269 23.6229C135.783 22.3169 134.72 21.8293 131.359 21.8293H126.743L125.018 31.3073C122.579 44.7112 121.64 46.6683 117.644 46.6683C113.666 46.6683 113.558 45.6394 116.272 33.5951C118.887 21.9901 118.859 21.8293 114.289 21.8293C111.015 21.8293 110.158 22.4751 109.525 25.4244ZM174.074 22.7012C173.582 23.1797 173.18 29.9451 173.18 37.7354V51.8975H179.206H185.232V42.7463V33.5951H203.309H221.385V27.7122V21.8293H198.176C185.41 21.8293 174.564 22.2215 174.074 22.7012ZM41.2786 29.6849C40.8206 30.4105 40.8246 32.1754 41.2906 33.6069C42.4864 37.2844 50.6611 37.2569 52.683 33.5677C53.4797 32.1152 53.7663 30.3504 53.3204 29.6457C52.2532 27.9593 42.3511 27.9906 41.2786 29.6849ZM60.3677 29.3751C57.5959 29.9542 57.4151 31.0968 59.6982 33.5977C61.1028 35.1351 60.9716 35.1325 58.884 33.582C56.6907 31.9518 56.1712 32.0329 54.5028 34.2605C53.461 35.6515 52.924 37.5406 53.3083 38.4596C53.6926 39.38 54.405 41.0939 54.8897 42.2704C55.4963 43.7399 55.1937 44.2223 53.923 43.8079C52.9053 43.4771 51.7296 41.7855 51.3092 40.048C50.7896 37.8975 50.2165 37.4086 49.5162 38.5159C48.8735 39.5316 47.1877 39.8232 45.0225 39.2924C42.3832 38.6453 41.8128 38.8479 42.631 40.1396C43.3005 41.1972 42.7943 42.4862 41.2852 43.5621C39.0812 45.1361 39.0638 45.3623 41.0817 46.1179C42.2989 46.5742 43.2951 48.1338 43.2951 49.5823C43.2951 51.7773 43.6312 51.9459 45.3037 50.5902C46.9065 49.2921 47.7179 49.2921 49.3207 50.5902C50.9972 51.9485 51.3293 51.7668 51.3293 49.4895C51.3293 46.4722 54.9326 44.0536 59.4277 44.0536C61.8741 44.0536 62.2544 43.451 61.7857 40.3278C61.2274 36.6163 61.2447 36.6072 66.4964 37.7589C69.3954 38.3943 71.9677 38.7198 72.2114 38.4819C72.4551 38.2439 71.5325 36.2489 70.1627 34.0487C67.6185 29.966 64.5481 28.4992 60.3677 29.3751ZM24.7818 32.6983C20.45 37.202 20.9843 39.2166 26.2226 38.1289C28.6154 37.6321 31.6523 36.2973 32.9712 35.1613C35.257 33.1911 35.273 33.2735 33.314 36.9405C30.4351 42.3306 30.7324 44.0536 34.5446 44.0536C40.2997 44.0536 42.3873 37.2948 38.1171 32.4878C34.7588 28.7084 28.527 28.8064 24.7818 32.6983ZM228.08 47.9011V57.1268H209.261H190.441L190.849 63.3366L191.257 69.5463L214.291 69.9032C241.814 70.3307 240.42 71.2955 239.845 52.2217L239.462 39.478L233.771 39.0767L228.08 38.674V47.9011ZM-35.9108 42.596C-33.1993 44.2733 -34.6388 48.5704 -38.0707 49.0476C-41.3111 49.4986 -43.2166 46.7036 -41.9177 43.4C-41.0621 41.2207 -38.6545 40.8978 -35.9108 42.596ZM-40.1422 43.5908C-42.0382 45.4407 -40.9657 47.9756 -38.2876 47.9756C-36.4157 47.9756 -35.6524 47.2657 -35.9443 45.7963C-36.4224 43.3895 -38.7081 42.1894 -40.1422 43.5908ZM137.576 46.1807C138.729 49.113 136.028 51.8975 132.034 51.8975C129.55 51.8975 128.912 51.3733 129.519 49.8294C129.966 48.692 130.332 46.9271 130.332 45.9074C130.332 43.3137 136.541 43.5477 137.576 46.1807ZM31.3376 46.9951C31.3899 47.8945 31.9027 49.8058 32.4772 51.2426C33.1882 53.0218 32.8574 54.3305 31.4394 55.3423C29.7629 56.5385 29.6063 57.7935 30.636 61.7809C32.1531 67.6599 34.7897 69.0025 36.4715 64.7537C37.3338 62.5731 37.0767 60.769 35.5663 58.4341C33.6126 55.4116 33.6207 55.2992 35.6627 56.9333C37.5882 58.4733 38.077 58.2629 39.4602 55.2992C41.7004 50.4987 39.199 45.361 34.6196 45.361C32.761 45.361 31.2868 46.0957 31.3376 46.9951ZM54.6621 48.4685C52.9575 51.0086 52.8678 52.2035 54.176 55.0051C55.0558 56.8915 56.214 58.4341 56.7483 58.4341C58.0324 58.4341 62.0415 50.1157 62.0415 47.4514C62.0415 44.2484 57.0308 44.9387 54.6621 48.4685ZM40.6171 57.1281C38.7706 61.4802 40.0774 64.2125 44.6877 65.6414C46.9801 66.3512 55.3463 63.1823 55.3463 61.6044C55.3463 61.2265 54.4264 59.1832 53.303 57.0615C51.6573 53.954 50.3879 53.2049 46.7712 53.2049C43.0447 53.2049 41.9976 53.8716 40.6171 57.1281ZM58.8278 57.7635C55.2513 63.0934 57.8972 70.6772 61.684 65.9512C63.963 63.1065 64.4946 58.6328 62.8168 56.3934C61.3599 54.4494 60.9609 54.5854 58.8278 57.7635ZM79.3256 91.487C74.394 94.7318 30.8864 153.553 32.054 155.398C33.1667 157.155 53.2374 156.687 55.5673 154.849C56.7068 153.951 60.4909 149.243 63.975 144.39C67.4592 139.537 70.7103 135.575 71.1977 135.585C71.6851 135.597 75.0447 139.983 78.6641 145.333C82.2835 150.684 86.0984 155.381 87.1428 155.772C90.2708 156.943 110.031 156.574 110.818 155.33C111.22 154.695 110.455 152.783 109.118 151.081C107.781 149.378 101.67 140.752 95.5372 131.913C87.8994 120.902 84.8223 115.416 85.765 114.496C86.709 113.574 90.2119 117.606 96.8882 127.3C109.652 145.832 115.868 154.302 117.567 155.483C119.435 156.78 140.716 156.751 141.539 155.45C142.612 153.757 99.9385 94.6377 95.3403 91.4439C89.9508 87.701 85.0593 87.7141 79.3256 91.487Z" fill="white"/>
</g>
<defs>
<clipPath id="clip0_23_32">
<rect width="88" height="88" fill="white"/>
</clipPath>
</defs>
</svg>
