<svg width="88" height="88" viewBox="0 0 88 88" fill="none" xmlns="http://www.w3.org/2000/svg">
<g clip-path="url(#clip0_23_34)">
<path fill-rule="evenodd" clip-rule="evenodd" d="M-321 -31V221H-64H193V-31V-283H-64H-321V-31ZM103.99 -32.8439V174.288H-65.2537H-234.498V-32.8439V-239.976H-65.2537H103.99V-32.8439ZM-183.424 -212.932C-183.805 -211.918 -184.739 -207.792 -185.498 -203.764C-187.447 -193.429 -188.715 -192.877 -192.447 -200.74L-195.609 -207.4L-195.622 -197.873C-195.629 -192.633 -196.169 -188.346 -196.824 -188.346C-197.478 -188.346 -199.52 -190.282 -201.361 -192.649C-203.201 -195.015 -205.148 -196.951 -205.687 -196.951C-206.55 -196.951 -202.77 -180.183 -201.662 -179.096C-200.464 -177.922 -187.433 -183.369 -185.32 -185.927L-182.887 -188.874L-180.607 -185.909C-178.487 -183.154 -166.054 -178.06 -164.196 -179.185C-163.746 -179.459 -162.697 -183.07 -161.867 -187.212C-161.036 -191.353 -160.045 -195.653 -159.667 -196.768C-159.288 -197.883 -161.255 -196.306 -164.036 -193.263C-168.406 -188.484 -169.216 -188.035 -169.993 -189.965C-170.488 -191.195 -170.59 -195.481 -170.22 -199.492C-169.849 -203.503 -169.914 -206.772 -170.367 -206.756C-170.818 -206.74 -172.468 -203.874 -174.031 -200.387C-177.57 -192.498 -178.88 -193.479 -181.084 -205.667C-181.989 -210.676 -183.042 -213.946 -183.424 -212.932ZM-118.881 -211.018C-121.223 -209.41 -121.668 -207.952 -121.668 -201.887C-121.668 -191.626 -120.495 -190.805 -105.826 -190.805C-89.9219 -190.805 -89.0732 -191.333 -89.0732 -201.227C-89.0732 -207.974 -89.4731 -209.379 -91.8601 -211.018C-95.7627 -213.699 -114.979 -213.699 -118.881 -211.018ZM-36.061 -210.903C-37.5867 -210.579 -40.5491 -208.745 -42.6427 -206.827C-47.211 -202.643 -47.6498 -197.551 -43.8499 -192.815L-41.2524 -189.576H-45.0447C-49.2495 -189.576 -55.2244 -187.295 -55.2244 -185.69C-55.2244 -185.123 -44.646 -184.662 -31.7183 -184.667C-10.3697 -184.675 -7.86744 -184.899 -4.45122 -187.117L-0.690245 -189.56L-8.42157 -189.567L-16.1529 -189.576L-13.5528 -194.23C-11.2109 -198.421 -11.1282 -199.235 -12.7166 -202.417C-15.3856 -207.761 -20.3865 -210.772 -27.2377 -211.155C-30.5637 -211.341 -34.534 -211.228 -36.061 -210.903ZM54.0533 -208.882C53.2597 -206.993 52.2693 -204.117 51.8531 -202.489C51.1924 -199.91 50.2672 -199.484 44.6345 -199.163L38.1732 -198.795L42.8594 -195.722C45.4356 -194.032 47.5518 -192.225 47.5606 -191.706C47.5681 -191.187 44.6984 -185.756 41.1807 -179.639C37.6642 -173.521 35.0152 -168.292 35.2935 -168.018C35.5731 -167.745 39.9885 -171.653 45.1046 -176.704C50.2221 -181.755 54.8832 -185.888 55.4636 -185.888C56.0441 -185.888 58.5539 -184.367 61.0412 -182.507L65.5631 -179.127L64.7482 -182.815C64.3007 -184.843 63.5936 -187.667 63.1774 -189.091C62.5819 -191.129 63.561 -192.5 67.7821 -195.545L73.1427 -199.41H66.2977H59.4528L57.4745 -205.863L55.4962 -212.317L54.0533 -208.882ZM-26.6535 -204.753C-25.0752 -203.776 -22.8687 -201.095 -21.7492 -198.794C-19.3322 -193.825 -20.9556 -190.805 -26.0417 -190.805C-30.5662 -190.805 -37.6732 -198.179 -37.6732 -202.873C-37.6732 -208.295 -33.5223 -209.003 -26.6535 -204.753ZM-95.3415 -201.254V-196.951H-105.371H-115.4V-201.254V-205.556H-105.371H-95.3415V-201.254ZM-117.907 -187.99C-120.66 -186.629 -121.087 -185.529 -121.411 -178.931C-121.94 -168.161 -120.912 -167.449 -104.808 -167.449C-95.2073 -167.449 -91.5103 -167.895 -90.4171 -169.186C-89.5345 -170.228 -89.0982 -174.019 -89.3239 -178.682C-89.6561 -185.544 -90.0623 -186.619 -92.8341 -187.99C-94.5579 -188.842 -100.199 -189.54 -105.371 -189.54C-110.542 -189.54 -116.184 -188.842 -117.907 -187.99ZM-95.3415 -177.898V-173.595H-105.371H-115.4V-177.898V-182.2H-105.371H-95.3415V-177.898ZM-195.634 -178.081C-198.623 -176.978 -200.157 -175.557 -200.446 -173.627C-200.814 -171.16 -200.491 -170.91 -197.938 -171.702C-185.818 -175.46 -180.254 -175.473 -168.54 -171.775C-164.374 -170.459 -163.658 -174.36 -167.601 -176.893C-171.822 -179.605 -189.475 -180.352 -195.634 -178.081ZM-53.9707 -177.898C-56.7664 -176.33 -54.3945 -176.14 -32.0317 -176.136C-11.9218 -176.132 -6.47714 -176.489 -4.52519 -177.937C-2.35887 -179.544 -4.77091 -179.737 -26.4642 -179.698C-45.229 -179.664 -51.5574 -179.25 -53.9707 -177.898ZM-52.4037 -169.637C-53.9557 -168.903 -55.2244 -167.834 -55.2244 -167.261C-55.2244 -166.688 -44.646 -166.223 -31.7183 -166.228C-10.3697 -166.235 -7.86744 -166.46 -4.45122 -168.678L-0.690245 -171.121L-25.1366 -171.046C-39.9812 -171 -50.6912 -170.446 -52.4037 -169.637ZM60.1222 -133.222C56.2923 -127.719 55.6141 -127.232 54.492 -129.178C52.6441 -132.384 47.9642 -137.946 47.1142 -137.946C45.0695 -137.946 42.3378 -129.789 42.9308 -125.453C43.6517 -120.187 43.1565 -119.85 38.9429 -122.744C36.4933 -124.427 35.8426 -124.476 34.9212 -123.051C32.2459 -118.909 35.8953 -110.127 40.792 -108.921C45.6951 -107.715 48.2024 -109.787 48.2024 -115.048C48.2024 -118.405 48.7227 -119.509 50.3073 -119.509C51.4644 -119.507 53.2422 -120.321 54.2564 -121.317C55.8811 -122.91 56.2848 -122.91 57.6337 -121.317C58.4762 -120.321 60.1485 -119.507 61.3496 -119.507C63.0483 -119.507 63.5009 -118.521 63.3893 -115.062C63.22 -109.801 65.7035 -107.703 70.6567 -108.921C75.5535 -110.127 79.2029 -118.909 76.5276 -123.051C75.6062 -124.476 74.9555 -124.427 72.5058 -122.744C68.4089 -119.93 67.5012 -120.235 68.9392 -123.944C69.9208 -126.475 69.5811 -128.451 67.3308 -133.316L64.4774 -139.48L60.1222 -133.222ZM-194.738 -128.556L-204.496 -122.891L-204.14 -111.223L-203.783 -99.5551L-194.233 -94.1487L-184.682 -88.7424L-174.487 -94.3639L-164.293 -99.9853V-111.425V-122.863L-174.293 -128.561C-179.793 -131.694 -184.448 -134.25 -184.636 -134.24C-184.824 -134.229 -189.37 -131.672 -194.738 -128.556ZM-44.8817 -132.215L-50.2098 -130.365V-109.468C-50.2098 -93.2305 -49.86 -88.7129 -48.6427 -89.2083C-47.7802 -89.5587 -44.9594 -90.5224 -42.3744 -91.3485L-37.6732 -92.8531V-107.205C-37.6732 -115.098 -37.3359 -121.887 -36.9235 -122.29C-36.511 -122.695 -35.3777 -122.726 -34.4036 -122.359C-32.9582 -121.816 -32.7651 -118.963 -33.3543 -106.771C-33.7517 -98.5643 -33.5699 -91.137 -32.9519 -90.2667C-32.0555 -89.0067 -30.6376 -89.1862 -25.974 -91.1456L-20.122 -93.6054V-108.4C-20.122 -120.732 -19.8085 -123.195 -18.2415 -123.195C-17.2072 -123.195 -16.3309 -122.78 -16.2933 -122.273C-16.1178 -119.863 -15.5285 -104.491 -15.3305 -97.0941L-15.1073 -88.8162L-9.15244 -91.1088L-3.19756 -93.4013L-2.85031 -112.241C-2.6585 -122.604 -2.78135 -131.794 -3.12235 -132.665C-3.59874 -133.882 -5.63341 -133.574 -11.9318 -131.333C-19.3334 -128.697 -20.122 -128.62 -20.122 -130.518C-20.122 -133.998 -21.2778 -134.159 -28.5716 -131.698C-37.2545 -128.77 -37.6732 -128.774 -37.6732 -131.8C-37.6732 -134.653 -37.8324 -134.662 -44.8817 -132.215ZM-132.304 -128.42C-135.875 -119.635 -147.995 -86.976 -147.995 -86.1364C-147.995 -85.5598 -141.791 -85.0878 -134.209 -85.0878H-120.422L-118.754 -89.0829L-117.084 -93.078L-126.049 -93.6927L-135.013 -94.3073L-128.348 -112.132C-124.682 -121.935 -121.68 -130.094 -121.675 -130.263C-121.671 -130.433 -123.865 -130.571 -126.549 -130.571C-130.028 -130.571 -131.68 -129.954 -132.304 -128.42ZM-118.54 -129.034C-118.846 -128.188 -121.588 -120.958 -124.634 -112.964C-130.529 -97.496 -130.471 -96.7929 -123.362 -97.5956C-120.077 -97.9668 -119.409 -99.0756 -113.872 -113.361C-110.595 -121.812 -107.906 -129.142 -107.896 -129.649C-107.864 -131.249 -117.951 -130.667 -118.54 -129.034ZM-104.75 -129.034C-105.056 -128.188 -107.798 -120.958 -110.844 -112.964C-116.743 -97.4887 -116.684 -96.7954 -109.55 -97.5956C-106.236 -97.9681 -105.603 -99.0252 -100.104 -113.361C-96.8621 -121.812 -94.1831 -129.142 -94.1492 -129.649C-94.0427 -131.252 -104.161 -130.665 -104.75 -129.034ZM-90.9812 -129.034C-95.6724 -116.515 -101.61 -99.4481 -101.61 -98.4794C-101.61 -97.7911 -99.5186 -97.4026 -96.9374 -97.614L-92.2637 -97.9951L-86.3414 -113.361C-83.0844 -121.812 -80.3916 -129.142 -80.3577 -129.649C-80.2524 -131.251 -90.3707 -130.665 -90.9812 -129.034ZM-177.939 -124.844C-174.57 -123.046 -171.815 -121.171 -171.815 -120.675C-171.815 -119.483 -183.41 -105.985 -184.434 -105.985C-184.871 -105.985 -188.134 -109.259 -191.683 -113.261L-198.136 -120.536L-191.557 -124.298C-187.939 -126.365 -184.772 -128.07 -184.52 -128.085C-184.27 -128.1 -181.307 -126.641 -177.939 -124.844ZM-190.62 -104.025C-190.62 -103.751 -192.594 -103.527 -195.007 -103.527C-199.385 -103.527 -199.395 -103.539 -199.395 -109.175V-114.823L-195.007 -109.673C-192.594 -106.841 -190.62 -104.299 -190.62 -104.025ZM-169.307 -109.059V-103.527H-174.41H-179.512L-174.723 -109.018C-172.089 -112.038 -169.794 -114.528 -169.621 -114.55C-169.448 -114.572 -169.307 -112.101 -169.307 -109.059ZM47.2622 -108.527C40.2881 -101.601 39.3541 -96.9711 44.4703 -94.6859C47.1444 -93.4911 48.2024 -93.6853 51.3153 -95.941C53.3399 -97.4088 55.3232 -98.6098 55.7244 -98.6098C56.1256 -98.6098 58.1088 -97.4088 60.1335 -95.941C63.2463 -93.6853 64.3044 -93.4911 66.9785 -94.6859C72.1799 -97.0092 71.172 -101.631 63.9434 -108.609C60.5347 -111.898 56.7273 -114.557 55.4812 -114.516C54.2363 -114.476 50.538 -111.78 47.2622 -108.527ZM-181.844 -98.6688L-177.456 -98.5225L-180.59 -96.7659C-184.747 -94.4352 -186.046 -94.4979 -189.437 -97.1899L-192.294 -99.4592L-189.263 -99.1371C-187.596 -98.9601 -184.257 -98.7487 -181.844 -98.6688ZM41.3261 -58.3512C41.3086 -54.7015 40.955 -54.3413 37.2329 -54.1889C34.2868 -54.0672 33.9396 -53.8742 35.9793 -53.4882C39.4582 -52.8318 39.5334 -51.7009 36.2927 -48.8244C32.4903 -45.45 33.2475 -44.3425 39.0733 -44.7592C43.9024 -45.1034 44.4678 -45.5029 45.5886 -49.3579C46.49 -52.4544 46.4172 -53.7107 45.3153 -54.0709C44.4903 -54.3401 43.8058 -55.4833 43.7958 -56.6093C43.7845 -57.7366 43.2292 -59.4883 42.561 -60.5024C41.6383 -61.9013 41.3412 -61.3826 41.3261 -58.3512ZM-198.141 -35.2336V-12.561H-193.754H-189.366V-27.3122V-42.0634H-184.978H-180.59V-27.3122V-12.561H-171.188H-161.785V-20.5512V-28.5415H-166.11H-170.436L-170.812 -35.6098C-171.184 -42.5981 -171.234 -42.683 -175.262 -43.0628L-179.337 -43.4488V-50.6781V-57.9075H-188.739H-198.141V-35.2336ZM-112.197 -54.4126C-118.565 -50.2958 -119.688 -46.7113 -120.197 -28.8488C-120.604 -14.5561 -120.415 -12.561 -118.657 -12.561C-116.919 -12.561 -116.654 -14.7823 -116.654 -29.279V-45.9971L-112.391 -50.1766C-107.344 -55.1256 -101.955 -55.6776 -95.6235 -51.8926C-85.4915 -45.8348 -88.163 -30.2501 -99.7293 -27.9416L-103.49 -27.1905L-99.6227 -28.9508C-89.8855 -33.3823 -87.6741 -42.1667 -94.5893 -48.9473C-100.592 -54.8331 -107.71 -54.377 -113.179 -47.7586C-114.984 -45.573 -115.349 -42.4224 -115.372 -28.8488C-115.389 -18.7921 -114.92 -12.561 -114.146 -12.561C-113.444 -12.561 -112.893 -15.9292 -112.893 -20.2082V-27.8555L-105.023 -20.2082C-100.696 -16.0029 -96.3369 -12.561 -95.3377 -12.561C-94.3373 -12.561 -98.0193 -17.0613 -103.519 -22.5623C-109.02 -28.0633 -112.673 -32.1039 -111.639 -31.5421C-110.605 -30.9803 -105.895 -26.48 -101.172 -21.5408C-95.7552 -15.8751 -91.6081 -12.561 -89.9369 -12.561C-87.7017 -12.561 -88.2345 -13.5038 -93.3344 -18.5807C-98.8505 -24.0731 -99.1564 -24.6717 -96.812 -25.4007C-95.3991 -25.8408 -92.5145 -28.1296 -90.4046 -30.4874C-87.1989 -34.0658 -86.5659 -35.804 -86.5659 -41.021C-86.5659 -46.64 -87.056 -47.75 -91.4326 -52.0426C-95.7577 -56.2824 -96.98 -56.8134 -102.402 -56.806C-106.329 -56.8011 -109.821 -55.9468 -112.197 -54.4126ZM47.6809 -49.8619C46.9852 -47.3898 46.7106 -44.9006 47.0704 -44.3302C47.9178 -42.9854 58.5113 -42.9755 59.3575 -44.3191C59.7135 -44.8834 59.37 -47.3726 58.594 -49.8508C57.3441 -53.8435 56.716 -54.3561 53.0654 -54.3561C49.3922 -54.3561 48.8105 -53.8705 47.6809 -49.8619ZM60.398 -49.439C61.6404 -44.6412 61.8034 -44.5219 67.1603 -44.5219C70.1791 -44.5219 72.6325 -44.9374 72.6124 -45.4439C72.5159 -47.8619 64.8874 -54.3561 62.1431 -54.3561C59.2459 -54.3561 59.1757 -54.1594 60.398 -49.439ZM-34.3572 -42.678L-44.1095 -32.2293H-51.3293C-57.2541 -32.2293 -59.0368 -31.7191 -61.2746 -29.3847C-62.7739 -27.8199 -64 -26.1604 -64 -25.6969C-64 -25.2323 -58.9352 -24.8537 -52.7459 -24.8537H-41.4906L-31.2607 -35.3024L-21.0296 -45.7512H-13.8988C-8.06677 -45.7512 -6.27278 -46.2687 -4.04252 -48.5957C-2.54315 -50.1606 -1.31707 -51.8201 -1.31707 -52.2835C-1.31707 -52.7482 -6.55736 -53.1268 -12.961 -53.1268H-24.605L-34.3572 -42.678ZM-96.2817 -47.2595C-93.1864 -44.5945 -93.3782 -36.9275 -96.6114 -34.0584C-100.426 -30.673 -106.455 -31.1733 -109.957 -35.166C-113.408 -39.1009 -113.639 -41.7008 -110.878 -45.5656C-107.17 -50.7568 -101.155 -51.455 -96.2817 -47.2595ZM-109.132 -45.7512C-114.151 -40.8292 -110.323 -33.0492 -102.881 -33.0492C-98.097 -33.0492 -95.3415 -35.9478 -95.3415 -40.9816C-95.3415 -47.8053 -103.987 -50.7961 -109.132 -45.7512ZM-99.1526 -43.9663C-95.8216 -40.0314 -100.713 -33.9871 -105.057 -36.6694C-109.397 -39.3504 -107.852 -45.7512 -102.863 -45.7512C-101.654 -45.7512 -99.9838 -44.9485 -99.1526 -43.9663ZM-32.9644 -30.276C-40.0363 -23.1179 -46.01 -16.7565 -46.2394 -16.1394C-46.4701 -15.5235 -44.5583 -15.0195 -41.9933 -15.0195C-37.7998 -15.0195 -36.4007 -15.982 -28.1516 -24.5463L-18.9749 -34.0732L-18.9222 -24.7762C-18.8721 -16.2279 -18.585 -15.2137 -15.3518 -12.1762C-13.4186 -10.3593 -11.5845 -8.87317 -11.2774 -8.87317C-10.3535 -8.8744 -9.82816 -38.0818 -10.7032 -40.785C-11.3125 -42.6658 -12.5887 -43.2927 -15.8106 -43.2927C-19.623 -43.2927 -21.5549 -41.8262 -32.9644 -30.276ZM33.7854 -42.0806C33.7854 -40.2638 47.7712 -22.1763 48.5698 -22.9606C49.2881 -23.665 45.1673 -39.7843 43.9601 -40.9927C42.4369 -42.517 33.7854 -43.4414 33.7854 -42.0806ZM65.9931 -42.4051C64.0562 -42.12 62.2196 -41.2349 61.9125 -40.4383C59.6972 -34.7001 56.7148 -22.3951 57.5397 -22.3951C58.6091 -22.3951 71.1431 -38.7591 72.2601 -41.616C72.9233 -43.3087 72.4921 -43.3627 65.9931 -42.4051ZM46.8848 -38.6829C49.8472 -26.6803 52.9313 -18.3865 53.8301 -20.003C54.7227 -21.6096 60.1122 -40.0191 60.1122 -41.4623C60.1122 -41.793 56.948 -42.0634 53.0817 -42.0634H46.0499L46.8848 -38.6829ZM-109.088 25.4652C-111.005 28.9772 -110.794 29.2342 -105.998 29.2342C-101.565 29.2342 -100.988 28.5654 -102.371 25.0325C-103.428 22.333 -107.522 22.5973 -109.088 25.4652ZM-195.007 25.7479C-199.001 27.909 -204.481 33.2514 -206.402 36.8556C-208.934 41.608 -208.645 52.369 -205.848 57.527C-204.569 59.8823 -201.164 63.4496 -198.281 65.4533C-191.664 70.0532 -182.676 70.406 -174.762 66.3777C-170.374 64.1441 -164.293 57.3008 -164.293 54.5964C-164.293 52.6173 -175.982 53.9547 -178.994 56.2781C-186.762 62.2683 -198.141 56.0359 -198.141 45.7912C-198.141 44.1427 -196.503 40.9958 -194.5 38.7979C-191.471 35.4751 -190.008 34.8236 -185.815 34.9306C-182.731 35.0105 -179.454 36.0775 -177.378 37.6792L-173.983 40.2976H-180.854C-190.586 40.2976 -195.126 45.6351 -189.58 50.5558C-186.067 53.6732 -163.019 53.506 -160.099 50.3419C-158.958 49.1053 -158.024 47.2552 -158.024 46.23C-158.024 44.1107 -161.889 40.2976 -164.038 40.2976C-164.824 40.2976 -165.166 39.5281 -164.798 38.5877C-163.881 36.2447 -171.494 28.011 -176.456 25.9778C-181.315 23.9876 -191.518 23.861 -195.007 25.7479ZM-47.1245 27.6976C-47.5219 29.5562 -48.3782 33.3977 -49.0288 36.2324C-50.7363 43.6842 -50.4805 49.6093 -48.3782 51.3204C-47.3715 52.1403 -44.2386 53.1152 -41.4166 53.4864C-37.7998 53.9621 -36.4759 54.6505 -36.9335 55.8196C-37.2908 56.7317 -37.964 60.2941 -38.4291 63.7372L-39.2766 69.9967L-35.6874 69.591C-32.567 69.2382 -31.9602 68.5019 -31.0501 63.961C-29.6911 57.1779 -27.3004 57.3082 -25.4011 64.2683C-24.0371 69.2677 -23.5306 69.8 -20.127 69.8C-15.936 69.8 -15.7229 69.103 -17.8177 62.2437C-19.1103 58.0138 -18.9899 57.1656 -16.7509 54.7255C-10.9815 48.4402 -12.5022 42.391 -20.4366 40.0603L-25.3522 38.6159L-24.5173 33.153C-24.0572 30.1487 -23.384 26.9317 -23.0217 26.0036C-22.5403 24.7756 -23.5357 24.3171 -26.6823 24.3171H-31.0037L-32.6184 33.2293C-34.9026 45.833 -35.7814 47.6732 -39.5223 47.6732C-43.2469 47.6732 -43.3485 46.7057 -40.8073 35.3805C-38.3589 24.4683 -38.3853 24.3171 -42.664 24.3171C-45.7292 24.3171 -46.5315 24.9243 -47.1245 27.6976ZM13.3094 25.137C12.8493 25.5869 12.4732 31.9484 12.4732 39.2736V52.5902H18.1146H23.7561V43.9854V35.3805H40.6805H57.6049V29.8488V24.3171H35.8752C23.9228 24.3171 13.7682 24.6859 13.3094 25.137ZM-111.02 31.7038C-111.448 32.386 -111.445 34.0455 -111.008 35.3916C-109.889 38.8495 -102.235 38.8237 -100.342 35.3547C-99.5964 33.989 -99.3281 32.3295 -99.7456 31.6669C-100.745 30.0811 -110.016 30.1106 -111.02 31.7038ZM-93.1476 31.4124C-95.7426 31.957 -95.9119 33.0314 -93.7744 35.383C-92.4593 36.8286 -92.5822 36.8261 -94.5366 35.3682C-96.5901 33.8353 -97.0765 33.9115 -98.6386 36.0062C-99.6139 37.3141 -100.117 39.0904 -99.7569 39.9546C-99.3971 40.82 -98.7301 42.4316 -98.2763 43.5379C-97.7084 44.9196 -97.9917 45.3732 -99.1814 44.9836C-100.134 44.6725 -101.235 43.0819 -101.629 41.4482C-102.115 39.426 -102.652 38.9663 -103.307 40.0075C-103.909 40.9626 -105.487 41.2367 -107.514 40.7376C-109.985 40.1292 -110.52 40.3197 -109.754 41.5342C-109.127 42.5287 -109.601 43.7407 -111.013 44.7524C-113.077 46.2325 -113.093 46.4451 -111.204 47.1557C-110.064 47.5847 -109.132 49.0512 -109.132 50.4132C-109.132 52.4772 -108.817 52.6357 -107.251 51.361C-105.751 50.1403 -104.991 50.1403 -103.49 51.361C-101.921 52.6382 -101.61 52.4673 -101.61 50.3259C-101.61 47.4888 -98.2362 45.2146 -94.0276 45.2146C-91.7372 45.2146 -91.3811 44.6479 -91.8199 41.7112C-92.3427 38.2213 -92.3264 38.2127 -87.4096 39.2957C-84.6954 39.8931 -82.2871 40.1992 -82.059 39.9755C-81.8308 39.7518 -82.6946 37.8759 -83.977 35.807C-86.359 31.968 -89.2336 30.5888 -93.1476 31.4124ZM-126.465 34.5372C-130.52 38.772 -130.02 40.6663 -125.116 39.6436C-122.876 39.1765 -120.032 37.9214 -118.797 36.8532C-116.657 35.0006 -116.642 35.0781 -118.476 38.5262C-121.172 43.5945 -120.894 45.2146 -117.324 45.2146C-111.936 45.2146 -109.982 38.8593 -113.98 34.3393C-117.124 30.7855 -122.958 30.8777 -126.465 34.5372ZM63.8732 48.8324V57.5073H46.253H28.6328L29.0152 63.3463L29.3976 69.1854L50.963 69.521C76.7307 69.9229 75.4256 70.8301 74.8878 52.8951L74.5293 40.9122L69.2012 40.5348L63.8732 40.1562V48.8324ZM-183.288 43.844C-180.749 45.4212 -182.097 49.4618 -185.31 49.9105C-188.344 50.3346 -190.128 47.7064 -188.912 44.6C-188.111 42.5508 -185.857 42.2472 -183.288 43.844ZM-187.25 44.7795C-189.025 46.5189 -188.021 48.9024 -185.513 48.9024C-183.761 48.9024 -183.046 48.235 -183.319 46.8533C-183.767 44.5902 -185.907 43.4617 -187.25 44.7795ZM-20.8616 47.2147C-19.7822 49.9719 -22.3108 52.5902 -26.0505 52.5902C-28.376 52.5902 -28.9728 52.0973 -28.4049 50.6455C-27.9861 49.5761 -27.6439 47.9166 -27.6439 46.9577C-27.6439 44.5189 -21.8307 44.7389 -20.8616 47.2147ZM-120.327 47.9805C-120.278 48.8262 -119.798 50.6234 -119.26 51.9744C-118.594 53.6474 -118.904 54.8779 -120.232 55.8294C-121.801 56.9542 -121.948 58.1342 -120.984 61.8835C-119.563 67.4115 -117.095 68.674 -115.52 64.6789C-114.713 62.6285 -114.954 60.9321 -116.368 58.7366C-118.197 55.8945 -118.189 55.7888 -116.278 57.3254C-114.475 58.7735 -114.017 58.5755 -112.722 55.7888C-110.625 51.2749 -112.967 46.4439 -117.254 46.4439C-118.994 46.4439 -120.375 47.1348 -120.327 47.9805ZM-98.4894 49.3659C-100.085 51.7544 -100.169 52.8779 -98.9445 55.5122C-98.1208 57.2861 -97.0364 58.7366 -96.5362 58.7366C-95.3339 58.7366 -91.5805 50.9148 -91.5805 48.4095C-91.5805 45.3978 -96.2717 46.0469 -98.4894 49.3659ZM-111.639 57.5086C-113.368 61.6008 -112.144 64.17 -107.828 65.5135C-105.682 66.181 -97.8488 63.2013 -97.8488 61.7176C-97.8488 61.3623 -98.71 59.441 -99.7619 57.4459C-101.303 54.5239 -102.491 53.8195 -105.877 53.8195C-109.366 53.8195 -110.347 54.4465 -111.639 57.5086ZM-94.5893 58.106C-97.9378 63.1177 -95.4606 70.2487 -91.9152 65.8049C-89.7815 63.13 -89.2838 58.9234 -90.8546 56.8177C-92.2186 54.9898 -92.5922 55.1176 -94.5893 58.106ZM-75.3983 89.8162C-80.0155 92.8672 -120.749 148.177 -119.656 149.911C-118.614 151.564 -99.8233 151.123 -97.6419 149.395C-96.5751 148.551 -93.0322 144.124 -89.7702 139.561C-86.5082 134.998 -83.4643 131.272 -83.008 131.282C-82.5516 131.293 -79.4062 135.417 -76.0176 140.447C-72.6289 145.479 -69.0573 149.895 -68.0794 150.263C-65.1509 151.364 -46.6506 151.018 -45.9135 149.848C-45.5374 149.25 -46.2532 147.453 -47.5056 145.852C-48.7568 144.251 -54.4785 136.14 -60.2202 127.829C-67.3711 117.475 -70.252 112.317 -69.3694 111.451C-68.4856 110.585 -65.206 114.376 -58.9553 123.491C-47.0054 140.917 -41.1859 148.881 -39.595 149.991C-37.8462 151.211 -17.9218 151.184 -17.1508 149.961C-16.1466 148.369 -56.0994 92.7787 -60.4045 89.7756C-65.4505 86.2562 -70.0301 86.2685 -75.3983 89.8162Z" fill="white"/>
</g>
<defs>
<clipPath id="clip0_23_34">
<rect width="88" height="88" fill="white"/>
</clipPath>
</defs>
</svg>
