<svg width="88" height="88" viewBox="0 0 88 88" fill="none" xmlns="http://www.w3.org/2000/svg">
<g clip-path="url(#clip0_23_27)">
<path fill-rule="evenodd" clip-rule="evenodd" d="M-214 44V335H96.5H407V44V-247H96.5H-214V44ZM299.461 41.8707V281.059H94.9854H-109.49V41.8707V-197.317H94.9854H299.461V41.8707ZM-47.7841 -166.088C-48.2445 -164.917 -49.3729 -160.153 -50.2908 -155.501C-52.6445 -143.567 -54.1773 -142.93 -58.6864 -152.009L-62.5063 -159.7L-62.5214 -148.699C-62.5305 -142.647 -63.1833 -137.698 -63.974 -137.698C-64.7646 -137.698 -67.232 -139.933 -69.4554 -142.666C-71.6789 -145.398 -74.0311 -147.634 -74.6824 -147.634C-75.7245 -147.634 -71.1579 -128.271 -69.8189 -127.016C-68.3725 -125.66 -52.6279 -131.95 -50.0757 -134.904L-47.1358 -138.307L-44.3807 -134.883C-41.8194 -131.702 -26.7988 -125.819 -24.5541 -127.118C-24.0103 -127.434 -22.7426 -131.605 -21.7399 -136.387C-20.7357 -141.17 -19.5391 -146.135 -19.0817 -147.423C-18.6243 -148.71 -21.0008 -146.889 -24.3602 -143.376C-29.6402 -137.857 -30.6187 -137.338 -31.5578 -139.567C-32.1561 -140.987 -32.2787 -145.936 -31.8319 -150.568C-31.3836 -155.2 -31.4624 -158.975 -32.0091 -158.956C-32.5544 -158.938 -34.5477 -155.629 -36.4364 -151.602C-40.7122 -142.491 -42.295 -143.624 -44.9577 -157.698C-46.0513 -163.483 -47.3236 -167.259 -47.7841 -166.088ZM30.1939 -163.878C27.3645 -162.021 26.8268 -160.337 26.8268 -153.333C26.8268 -141.485 28.2445 -140.537 45.9672 -140.537C65.1819 -140.537 66.2073 -141.147 66.2073 -152.571C66.2073 -160.363 65.7241 -161.985 62.8403 -163.878C58.1252 -166.974 34.9089 -166.974 30.1939 -163.878ZM130.255 -163.746C128.412 -163.371 124.833 -161.253 122.303 -159.039C116.784 -154.206 116.254 -148.327 120.845 -142.857L123.983 -139.117H119.401C114.321 -139.117 107.102 -136.484 107.102 -134.63C107.102 -133.976 119.883 -133.443 135.502 -133.449C161.295 -133.457 164.318 -133.717 168.445 -136.278L172.989 -139.099L163.648 -139.107L154.308 -139.117L157.449 -144.491C160.278 -149.332 160.378 -150.272 158.459 -153.945C155.234 -160.117 149.193 -163.594 140.915 -164.037C136.897 -164.251 132.1 -164.12 130.255 -163.746ZM239.129 -161.412C238.17 -159.23 236.973 -155.908 236.47 -154.029C235.672 -151.051 234.554 -150.558 227.749 -150.188L219.943 -149.763L225.604 -146.215C228.717 -144.263 231.274 -142.176 231.284 -141.577C231.293 -140.978 227.826 -134.707 223.576 -127.643C219.328 -120.578 216.127 -114.54 216.464 -114.223C216.801 -113.908 222.136 -118.421 228.317 -124.253C234.5 -130.086 240.131 -134.859 240.833 -134.859C241.534 -134.859 244.566 -133.103 247.571 -130.955L253.034 -127.051L252.05 -131.31C251.509 -133.652 250.655 -136.913 250.152 -138.558C249.433 -140.911 250.616 -142.494 255.715 -146.01L262.192 -150.473H253.922H245.652L243.262 -157.926L240.872 -165.378L239.129 -161.412ZM141.621 -156.644C143.528 -155.515 146.194 -152.419 147.546 -149.762C150.466 -144.024 148.505 -140.537 142.36 -140.537C136.894 -140.537 128.307 -149.052 128.307 -154.472C128.307 -160.733 133.322 -161.551 141.621 -156.644ZM58.6341 -152.602V-147.634H46.5171H34.4V-152.602V-157.571H46.5171H58.6341V-152.602ZM31.3707 -137.286C28.0446 -135.715 27.5296 -134.444 27.1373 -126.826C26.4982 -114.388 27.7402 -113.566 47.1971 -113.566C58.7962 -113.566 63.2629 -114.081 64.5836 -115.572C65.6499 -116.775 66.177 -121.153 65.9044 -126.537C65.503 -134.461 65.0123 -135.703 61.6634 -137.286C59.5808 -138.27 52.7649 -139.076 46.5171 -139.076C40.2692 -139.076 33.4534 -138.27 31.3707 -137.286ZM58.6341 -125.632V-120.663H46.5171H34.4V-125.632V-130.6H46.5171H58.6341V-125.632ZM-62.5366 -125.843C-66.1475 -124.57 -68.0014 -122.929 -68.3497 -120.7C-68.7951 -117.851 -68.4043 -117.563 -65.3205 -118.477C-50.677 -122.817 -43.9551 -122.832 -29.8023 -118.561C-24.7692 -117.042 -23.9043 -121.546 -28.6679 -124.472C-33.7676 -127.603 -55.0952 -128.466 -62.5366 -125.843ZM108.617 -125.632C105.239 -123.822 108.105 -123.602 135.123 -123.598C159.419 -123.593 165.997 -124.005 168.356 -125.677C170.973 -127.532 168.059 -127.755 141.85 -127.711C119.179 -127.672 111.533 -127.193 108.617 -125.632ZM110.51 -116.093C108.635 -115.245 107.102 -114.01 107.102 -113.349C107.102 -112.687 119.883 -112.151 135.502 -112.156C161.295 -112.165 164.318 -112.425 168.445 -114.985L172.989 -117.806L143.454 -117.719C125.519 -117.667 112.579 -117.027 110.51 -116.093ZM246.461 -74.0424C241.834 -67.6872 241.014 -67.1251 239.659 -69.3722C237.426 -73.0743 231.772 -79.4976 230.745 -79.4976C228.275 -79.4976 224.974 -70.0777 225.691 -65.0711C226.562 -58.9899 225.963 -58.6009 220.873 -61.9425C217.913 -63.8858 217.127 -63.9425 216.014 -62.2973C212.781 -57.5136 217.191 -47.3726 223.107 -45.98C229.03 -44.5875 232.06 -46.9808 232.06 -53.0549C232.06 -56.9316 232.688 -58.2063 234.603 -58.2063C236.001 -58.2049 238.149 -59.1446 239.374 -60.2944C241.337 -62.1341 241.825 -62.1341 243.454 -60.2944C244.472 -59.1446 246.493 -58.2049 247.944 -58.2049C249.996 -58.2049 250.543 -57.0664 250.408 -53.0719C250.204 -46.9964 253.204 -44.5733 259.188 -45.98C265.105 -47.3726 269.514 -57.5136 266.281 -62.2973C265.168 -63.9425 264.382 -63.8858 261.422 -61.9425C256.473 -58.6932 255.376 -59.0452 257.113 -63.3279C258.299 -66.2507 257.889 -68.5333 255.17 -74.1503L251.723 -81.2691L246.461 -74.0424ZM-61.4536 -68.6539L-73.2435 -62.1128L-72.8134 -48.6388L-72.3817 -35.1648L-60.8432 -28.9218L-49.3047 -22.6788L-36.9877 -29.1702L-24.6707 -35.6616V-48.8716V-62.0801L-36.753 -68.6596C-43.3977 -72.2779 -49.0215 -75.2291 -49.2487 -75.2177C-49.4759 -75.205 -54.968 -72.2524 -61.4536 -68.6539ZM119.598 -72.8798L113.161 -70.7434V-46.6117C113.161 -27.8614 113.584 -22.6447 115.054 -23.2168C116.096 -23.6213 119.504 -24.7342 122.627 -25.6881L128.307 -27.4256V-43.9984C128.307 -53.1131 128.715 -60.9531 129.213 -61.4187C129.711 -61.8857 131.081 -61.9212 132.257 -61.4982C134.004 -60.8707 134.237 -57.5761 133.525 -43.4973C133.045 -34.0207 133.265 -25.444 134.011 -24.4389C135.094 -22.9839 136.807 -23.1912 142.442 -25.4539L149.512 -28.2943V-45.3782C149.512 -59.6187 149.891 -62.4634 151.784 -62.4634C153.034 -62.4634 154.092 -61.9836 154.138 -61.3988C154.35 -58.6151 155.062 -40.8641 155.301 -32.3229L155.571 -22.7639L162.765 -25.4113L169.96 -28.0587L170.379 -49.8142C170.611 -61.7806 170.463 -72.3929 170.051 -73.3993C169.475 -74.8047 167.017 -74.4484 159.407 -71.8606C150.465 -68.8172 149.512 -68.7277 149.512 -70.9195C149.512 -74.9381 148.116 -75.124 139.304 -72.2822C128.813 -68.9009 128.307 -68.9052 128.307 -72.4C128.307 -75.6947 128.115 -75.7046 119.598 -72.8798ZM13.9767 -68.4963C9.663 -58.3525 -4.98049 -20.6389 -4.98049 -19.6694C-4.98049 -19.0036 2.51543 -18.4585 11.6759 -18.4585H28.3324L30.3483 -23.072L32.3658 -27.6854L21.5347 -28.3951L10.7035 -29.1049L18.7569 -49.6878C23.1856 -61.0084 26.8132 -70.4297 26.8192 -70.6256C26.8238 -70.8215 24.1732 -70.9805 20.9303 -70.9805C16.7272 -70.9805 14.731 -70.2679 13.9767 -68.4963ZM30.6058 -69.2061C30.2363 -68.2295 26.9238 -59.8799 23.2432 -50.6488C16.1214 -32.7871 16.1911 -31.9751 24.7806 -32.9021C28.7489 -33.3308 29.5562 -34.6112 36.2463 -51.1073C40.2056 -60.8665 43.4545 -69.331 43.4666 -69.9159C43.5045 -71.7641 31.3177 -71.0912 30.6058 -69.2061ZM47.2668 -69.2061C46.8972 -68.2295 43.5847 -59.8799 39.9042 -50.6488C32.7778 -32.7786 32.849 -31.978 41.4673 -32.9021C45.472 -33.3322 46.2369 -34.553 52.8801 -51.1073C56.7969 -60.8665 60.0337 -69.331 60.0746 -69.9159C60.2033 -71.7669 47.9787 -71.0898 47.2668 -69.2061ZM63.902 -69.2061C58.2343 -54.7498 51.061 -35.0413 51.061 -33.9227C51.061 -33.1278 53.5874 -32.6792 56.706 -32.9234L62.3526 -33.3634L69.5077 -51.1073C73.4427 -60.8665 76.6961 -69.331 76.737 -69.9159C76.8643 -71.7655 64.6397 -71.0898 63.902 -69.2061ZM-41.1575 -64.367C-37.0877 -62.2917 -33.7585 -60.1255 -33.7585 -59.5534C-33.7585 -58.1765 -47.7674 -42.5903 -49.0048 -42.5903C-49.5335 -42.5903 -53.4745 -46.3704 -57.7625 -50.9924L-65.5598 -59.393L-57.611 -63.7367C-53.2398 -66.1243 -49.4138 -68.0932 -49.1094 -68.1102C-48.8064 -68.1273 -45.2274 -66.4423 -41.1575 -64.367ZM-56.4781 -40.3261C-56.4781 -40.0096 -58.8636 -39.7512 -61.7793 -39.7512C-67.0684 -39.7512 -67.0805 -39.7654 -67.0805 -46.2739V-52.7951L-61.7793 -46.8488C-58.8636 -43.5782 -56.4781 -40.6427 -56.4781 -40.3261ZM-30.7293 -46.139V-39.7512H-36.8938H-43.0584L-37.2725 -46.0922C-34.0902 -49.5799 -31.3169 -52.4544 -31.1079 -52.48C-30.8989 -52.5055 -30.7293 -49.6523 -30.7293 -46.139ZM230.924 -45.5258C222.498 -37.5268 221.369 -32.181 227.551 -29.5421C230.781 -28.1623 232.06 -28.3866 235.821 -30.9914C238.267 -32.6863 240.663 -34.0732 241.148 -34.0732C241.632 -34.0732 244.028 -32.6863 246.475 -30.9914C250.235 -28.3866 251.514 -28.1623 254.744 -29.5421C261.029 -32.225 259.811 -37.5623 251.077 -45.6195C246.959 -49.4181 242.359 -52.4885 240.854 -52.4417C239.35 -52.3948 234.882 -49.2818 230.924 -45.5258ZM-45.8756 -34.1413L-40.5744 -33.9724L-44.361 -31.9439C-49.3835 -29.2525 -50.9527 -29.3249 -55.0497 -32.4336L-58.5016 -35.0541L-54.8392 -34.6821C-52.8248 -34.4777 -48.7913 -34.2336 -45.8756 -34.1413ZM223.752 12.4158C223.731 16.6304 223.304 17.0463 218.807 17.2223C215.247 17.3628 214.828 17.5857 217.292 18.0314C221.495 18.7894 221.586 20.0954 217.671 23.4171C213.077 27.3136 213.992 28.5926 221.03 28.1114C226.865 27.7139 227.548 27.2526 228.902 22.801C229.991 19.2252 229.903 17.7745 228.572 17.3586C227.575 17.0477 226.748 15.7276 226.736 14.4273C226.722 13.1256 226.051 11.1028 225.244 9.9317C224.129 8.31629 223.77 8.91533 223.752 12.4158ZM-65.5659 39.1112V65.2927H-60.2646H-54.9634V48.2585V31.2244H-49.6622H-44.361V48.2585V65.2927H-33.0012H-21.6415V56.0658V46.839H-26.8669H-32.0924L-32.5468 38.6768C-32.9967 30.6069 -33.0573 30.5089 -37.9238 30.0703L-42.8463 29.6246V21.2764V12.9283H-54.2061H-65.5659V39.1112ZM38.2699 16.964C30.5755 21.7179 29.2199 25.8572 28.605 46.4841C28.1127 62.9888 28.3415 65.2927 30.465 65.2927C32.5643 65.2927 32.8854 62.7276 32.8854 45.9873V26.6819L38.0351 21.8556C44.133 16.1406 50.6444 15.5033 58.2933 19.874C70.5346 26.8693 67.3069 44.8659 53.3329 47.5317L48.789 48.3991L53.4617 46.3663C65.2258 41.249 67.8977 31.1051 59.5429 23.2751C52.2909 16.4785 43.6908 17.0051 37.0839 24.6478C34.9029 27.1717 34.4621 30.8099 34.4333 46.4841C34.4136 58.0972 34.9801 65.2927 35.9146 65.2927C36.7628 65.2927 37.4293 61.4032 37.4293 56.4619V47.6311L46.9366 56.4619C52.1651 61.318 57.4315 65.2927 58.6387 65.2927C59.8474 65.2927 55.3989 60.0958 48.7542 53.7435C42.108 47.3912 37.6943 42.7253 38.9439 43.374C40.1935 44.0227 45.884 49.2195 51.5896 54.9231C58.1343 61.4657 63.1447 65.2927 65.1637 65.2927C67.8643 65.2927 67.2206 64.2039 61.0591 58.3413C54.3947 51.9989 54.0251 51.3076 56.8575 50.4659C58.5645 49.9577 62.0496 47.3146 64.5988 44.5919C68.4717 40.4597 69.2366 38.4525 69.2366 32.4281C69.2366 25.9395 68.6444 24.6577 63.3568 19.7008C58.1313 14.8049 56.6545 14.1917 50.1037 14.2002C45.3599 14.2059 41.1401 15.1924 38.2699 16.964ZM231.43 22.219C230.589 25.0736 230.257 27.9482 230.692 28.6068C231.716 30.1598 244.515 30.1711 245.537 28.6196C245.967 27.968 245.552 25.0935 244.615 22.2318C243.104 17.6212 242.346 17.0293 237.935 17.0293C233.497 17.0293 232.794 17.59 231.43 22.219ZM246.794 22.7073C248.295 28.2477 248.492 28.3854 254.964 28.3854C258.611 28.3854 261.575 27.9056 261.551 27.3207C261.435 24.5285 252.218 17.0293 248.902 17.0293C245.402 17.0293 245.317 17.2564 246.794 22.7073ZM132.314 30.5146L120.531 42.5805H111.808C104.65 42.5805 102.496 43.1696 99.7928 45.8652C97.9813 47.6723 96.5 49.5886 96.5 50.1238C96.5 50.6603 102.619 51.0976 110.097 51.0976H123.695L136.055 39.0317L148.416 26.9658H157.031C164.077 26.9658 166.244 26.3682 168.939 23.6811C170.75 21.8741 172.232 19.9577 172.232 19.4226C172.232 18.886 165.901 18.4488 158.164 18.4488H144.096L132.314 30.5146ZM57.4982 25.2241C61.2378 28.3016 61.0061 37.1551 57.0998 40.4682C52.4908 44.3776 45.2069 43.7998 40.9765 39.1893C36.8067 34.6454 36.5281 31.6431 39.8633 27.1802C44.3436 21.1856 51.6108 20.3793 57.4982 25.2241ZM41.9732 26.9658C35.9086 32.6496 40.5343 41.6337 49.5251 41.6337C55.305 41.6337 58.6341 38.2865 58.6341 32.4736C58.6341 24.5938 48.1892 21.1402 41.9732 26.9658ZM54.0297 29.027C58.054 33.5708 52.1439 40.5506 46.8957 37.4532C41.6521 34.3572 43.5196 26.9658 49.5463 26.9658C51.008 26.9658 53.0255 27.8928 54.0297 29.027ZM133.996 44.8361C125.452 53.1019 118.235 60.4479 117.958 61.1605C117.679 61.8717 119.989 62.4536 123.088 62.4536C128.154 62.4536 129.845 61.3422 139.811 51.4524L150.898 40.4512L150.962 51.187C151.022 61.0583 151.369 62.2294 155.275 65.737C157.611 67.835 159.827 69.5512 160.198 69.5512C161.314 69.5498 161.949 35.8222 160.892 32.7007C160.156 30.5288 158.614 29.8049 154.721 29.8049C150.115 29.8049 147.781 31.4984 133.996 44.8361ZM214.641 31.2045C214.641 33.3025 231.539 54.1892 232.504 53.2836C233.371 52.4702 228.393 33.8562 226.934 32.4608C225.094 30.7006 214.641 29.6331 214.641 31.2045ZM253.554 30.8298C251.214 31.1591 248.995 32.1811 248.624 33.101C245.947 39.7273 242.344 53.9366 243.341 53.9366C244.633 53.9366 259.776 35.04 261.126 31.7411C261.927 29.7864 261.406 29.724 253.554 30.8298ZM230.468 35.128C234.047 48.9882 237.773 58.5656 238.859 56.6989C239.937 54.8436 246.449 33.585 246.449 31.9185C246.449 31.5367 242.626 31.2244 237.955 31.2244H229.459L230.468 35.128ZM42.0262 109.204C39.7103 113.259 39.9648 113.556 45.7598 113.556C51.1155 113.556 51.8122 112.784 50.1416 108.704C48.8648 105.587 43.918 105.892 42.0262 109.204ZM-61.7793 109.53C-66.6049 112.026 -73.2254 118.195 -75.5458 122.357C-78.6053 127.845 -78.2555 140.271 -74.8763 146.228C-73.3314 148.947 -69.2176 153.067 -65.734 155.381C-57.7397 160.692 -46.8813 161.1 -37.3194 156.448C-32.0182 153.869 -24.6707 145.966 -24.6707 142.843C-24.6707 140.558 -38.7932 142.102 -42.4328 144.785C-51.8175 151.703 -65.5659 144.506 -65.5659 132.675C-65.5659 130.772 -63.5862 127.138 -61.1658 124.6C-57.5065 120.763 -55.7389 120.011 -50.674 120.134C-46.948 120.226 -42.9887 121.459 -40.4805 123.308L-36.3789 126.332H-44.679C-56.4372 126.332 -61.9232 132.495 -55.2224 138.178C-50.9784 141.777 -23.1319 141.584 -19.6043 137.931C-18.226 136.502 -17.0976 134.366 -17.0976 133.182C-17.0976 130.735 -21.7672 126.332 -24.3633 126.332C-25.3129 126.332 -25.7264 125.443 -25.2811 124.357C-24.1739 121.652 -33.3708 112.144 -39.3657 109.796C-45.2364 107.498 -57.564 107.351 -61.7793 109.53ZM116.888 111.782C116.408 113.928 115.374 118.364 114.588 121.637C112.525 130.242 112.834 137.085 115.374 139.06C116.59 140.007 120.375 141.133 123.785 141.562C128.154 142.111 129.754 142.906 129.201 144.256C128.769 145.309 127.956 149.423 127.394 153.399L126.37 160.627L130.706 160.159C134.476 159.751 135.21 158.901 136.309 153.657C137.951 145.824 140.839 145.975 143.134 154.012C144.782 159.785 145.394 160.4 149.506 160.4C154.57 160.4 154.827 159.595 152.296 151.674C150.734 146.79 150.88 145.81 153.585 142.993C160.555 135.735 158.718 128.749 149.132 126.058L143.193 124.39L144.202 118.081C144.758 114.612 145.571 110.897 146.009 109.826C146.59 108.408 145.388 107.878 141.586 107.878H136.365L134.414 118.17C131.655 132.724 130.593 134.849 126.073 134.849C121.573 134.849 121.451 133.732 124.521 120.654C127.479 108.053 127.447 107.878 122.278 107.878C118.574 107.878 117.605 108.579 116.888 111.782ZM189.903 108.825C189.347 109.344 188.893 116.69 188.893 125.149V140.527H195.709H202.524V130.59V120.654H222.972H243.42V114.266V107.878H217.166C202.726 107.878 190.457 108.304 189.903 108.825ZM39.6921 116.408C39.1741 117.196 39.1787 119.112 39.7058 120.666C41.0583 124.66 50.3052 124.63 52.5923 120.624C53.4935 119.047 53.8176 117.13 53.3132 116.365C52.1061 114.534 40.9054 114.568 39.6921 116.408ZM61.2848 116.071C58.1495 116.7 57.945 117.941 60.5274 120.657C62.1163 122.326 61.9679 122.323 59.6065 120.639C57.1256 118.869 56.5379 118.957 54.6506 121.376C53.4723 122.887 52.8649 124.938 53.2996 125.936C53.7343 126.935 54.5401 128.796 55.0884 130.074C55.7745 131.669 55.4322 132.193 53.9948 131.743C52.8437 131.384 51.5138 129.547 51.0383 127.66C50.4506 125.325 49.8023 124.794 49.0102 125.997C48.2831 127.1 46.3762 127.416 43.927 126.84C40.9417 126.137 40.2965 126.357 41.2219 127.76C41.9792 128.908 41.4067 130.308 39.6997 131.476C37.2066 133.185 37.1869 133.431 39.4695 134.251C40.8463 134.747 41.9732 136.44 41.9732 138.013C41.9732 140.396 42.3533 140.579 44.2451 139.107C46.0581 137.698 46.976 137.698 48.789 139.107C50.6853 140.582 51.061 140.385 51.061 137.912C51.061 134.636 55.1369 132.01 60.2215 132.01C62.9887 132.01 63.4189 131.355 62.8888 127.964C62.2572 123.934 62.2768 123.924 68.2172 125.175C71.4964 125.865 74.406 126.218 74.6817 125.96C74.9574 125.701 73.9138 123.535 72.3643 121.146C69.4865 116.713 66.0134 115.12 61.2848 116.071ZM21.0318 119.68C16.132 124.57 16.7363 126.758 22.6616 125.576C25.3682 125.037 28.8034 123.588 30.2953 122.354C32.8808 120.215 32.899 120.304 30.6831 124.286C27.4266 130.139 27.7629 132.01 32.075 132.01C38.5849 132.01 40.9462 124.671 36.1161 119.451C32.3174 115.348 25.2683 115.454 21.0318 119.68ZM250.993 136.187V146.205H229.705H208.416L208.878 152.948L209.34 159.69L235.395 160.078C266.527 160.542 264.95 161.59 264.3 140.879L263.867 127.041L257.43 126.606L250.993 126.168V136.187ZM-47.6205 130.427C-44.5533 132.248 -46.1816 136.914 -50.0636 137.432C-53.729 137.922 -55.8843 134.887 -54.4151 131.3C-53.4473 128.934 -50.724 128.583 -47.6205 130.427ZM-52.4067 131.507C-54.5514 133.516 -53.3382 136.268 -50.3089 136.268C-48.1915 136.268 -47.3281 135.497 -47.6583 133.902C-48.1991 131.289 -50.7845 129.986 -52.4067 131.507ZM148.619 134.319C149.923 137.503 146.868 140.527 142.349 140.527C139.54 140.527 138.819 139.958 139.505 138.281C140.011 137.046 140.424 135.13 140.424 134.023C140.424 131.206 147.448 131.46 148.619 134.319ZM28.4475 135.204C28.5066 136.18 29.0867 138.256 29.7364 139.816C30.5407 141.748 30.1666 143.169 28.5626 144.267C26.6663 145.566 26.4891 146.929 27.6538 151.258C29.3699 157.642 32.3522 159.1 34.2546 154.486C35.23 152.119 34.9392 150.16 33.2307 147.624C31.0208 144.342 31.0299 144.22 33.3398 145.995C35.5178 147.667 36.0706 147.438 37.6353 144.22C40.1692 139.008 37.3399 133.429 32.1598 133.429C30.0575 133.429 28.3899 134.227 28.4475 135.204ZM54.8309 136.803C52.9028 139.562 52.8013 140.859 54.2811 143.901C55.2762 145.949 56.5864 147.624 57.1907 147.624C58.6432 147.624 63.178 138.592 63.178 135.699C63.178 132.221 57.5103 132.971 54.8309 136.803ZM38.9439 146.206C36.8552 150.932 38.3335 153.899 43.5484 155.45C46.1414 156.221 55.6049 152.78 55.6049 151.067C55.6049 150.656 54.5643 148.438 53.2935 146.134C51.4321 142.76 49.9962 141.946 45.9051 141.946C41.6899 141.946 40.5055 142.67 38.9439 146.206ZM59.5429 146.896C55.4973 152.684 58.4903 160.918 62.7736 155.787C65.3515 152.698 65.9528 147.84 64.055 145.409C62.4071 143.298 61.9557 143.445 59.5429 146.896ZM82.729 183.514C77.1506 187.037 27.937 250.907 29.2578 252.91C30.5165 254.817 53.2193 254.309 55.8548 252.313C57.1437 251.338 61.4241 246.227 65.3652 240.957C69.3063 235.688 72.9838 231.386 73.5351 231.397C74.0864 231.41 77.8867 236.172 81.9807 241.981C86.0748 247.791 90.39 252.891 91.5714 253.316C95.1096 254.587 117.461 254.187 118.352 252.836C118.806 252.146 117.941 250.071 116.428 248.222C114.916 246.373 108.004 237.007 101.067 227.409C92.4271 215.453 88.9465 209.497 90.0128 208.497C91.0806 207.497 95.0429 211.874 102.595 222.4C117.032 242.523 124.063 251.72 125.985 253.002C128.098 254.41 152.17 254.379 153.102 252.966C154.315 251.128 106.045 186.935 100.844 183.467C94.7476 179.403 89.2146 179.417 82.729 183.514Z" fill="white"/>
</g>
<defs>
<clipPath id="clip0_23_27">
<rect width="88" height="88" fill="white"/>
</clipPath>
</defs>
</svg>
