<svg width="88" height="88" viewBox="0 0 88 88" fill="none" xmlns="http://www.w3.org/2000/svg">
<g clip-path="url(#clip0_23_22)">
<path fill-rule="evenodd" clip-rule="evenodd" d="M-162 121V373H95H352V121V-131H95H-162V121ZM262.99 119.156V326.288H93.7463H-75.4976V119.156V-87.9756H93.7463H262.99V119.156ZM-24.4235 -60.9317C-24.8046 -59.9176 -25.7386 -55.7921 -26.4983 -51.7638C-28.4465 -41.4294 -29.7152 -40.8774 -33.4473 -48.7398L-36.6091 -55.4L-36.6216 -45.8732C-36.6291 -40.6328 -37.1695 -36.3463 -37.8239 -36.3463C-38.4783 -36.3463 -40.5205 -38.2824 -42.3609 -40.6488C-44.2012 -43.0151 -46.1482 -44.9512 -46.6872 -44.9512C-47.5497 -44.9512 -43.77 -28.1828 -42.6617 -27.0961C-41.4645 -25.9221 -28.4327 -31.369 -26.3203 -33.9271L-23.8869 -36.8737L-21.6065 -33.9087C-19.4866 -31.1539 -7.05407 -26.0598 -5.19615 -27.1846C-4.74608 -27.4587 -3.69678 -31.0703 -2.86686 -35.2117C-2.03568 -39.3531 -1.04529 -43.6531 -0.66668 -44.7681C-0.288075 -45.883 -2.25507 -44.3059 -5.03568 -41.2634C-9.40593 -36.484 -10.2158 -36.0353 -10.9931 -37.9653C-11.4883 -39.1946 -11.5898 -43.481 -11.22 -47.4921C-10.8489 -51.5032 -10.9141 -54.7718 -11.3667 -54.7559C-11.818 -54.7399 -13.4678 -51.8745 -15.0311 -48.387C-18.5702 -40.4976 -19.8803 -41.4785 -22.0842 -53.6667C-22.9893 -58.676 -24.0424 -61.9459 -24.4235 -60.9317ZM40.1186 -59.0177C37.7768 -57.4099 37.3317 -55.9519 37.3317 -49.8867C37.3317 -39.626 38.5051 -38.8049 53.1742 -38.8049C69.0781 -38.8049 69.9268 -39.3335 69.9268 -49.2266C69.9268 -55.9741 69.5269 -57.3791 67.1399 -59.0177C63.2373 -61.6988 44.0212 -61.6988 40.1186 -59.0177ZM122.939 -58.9034C121.413 -58.5789 118.451 -56.7448 116.357 -54.8272C111.789 -50.6427 111.35 -45.5511 115.15 -40.8147L117.748 -37.5756H113.955C109.751 -37.5756 103.776 -35.2953 103.776 -33.6899C103.776 -33.1232 114.354 -32.6622 127.282 -32.6671C148.63 -32.6745 151.133 -32.8995 154.549 -35.1171L158.31 -37.5596L150.578 -37.567L142.847 -37.5756L145.447 -42.2296C147.789 -46.4214 147.872 -47.2352 146.283 -50.4165C143.614 -55.7614 138.614 -58.7719 131.762 -59.1554C128.436 -59.341 124.466 -59.2279 122.939 -58.9034ZM213.053 -56.8825C212.26 -54.9931 211.269 -52.1166 210.853 -50.4891C210.192 -47.9101 209.267 -47.4835 203.635 -47.1627L197.173 -46.7951L201.859 -43.7219C204.436 -42.0317 206.552 -40.2247 206.561 -39.7059C206.568 -39.1872 203.698 -33.7563 200.181 -27.6394C196.664 -21.5214 194.015 -16.2921 194.294 -16.0179C194.573 -15.745 198.988 -19.6529 204.105 -24.7039C209.222 -29.755 213.883 -33.8878 214.464 -33.8878C215.044 -33.8878 217.554 -32.3672 220.041 -30.5073L224.563 -27.1268L223.748 -30.8146C223.301 -32.8429 222.594 -35.6666 222.177 -37.0913C221.582 -39.1294 222.561 -40.5 226.782 -43.5449L232.143 -47.4098H225.298H218.453L216.474 -53.8634L214.496 -60.3171L213.053 -56.8825ZM132.346 -52.7534C133.925 -51.7761 136.131 -49.0951 137.251 -46.7939C139.668 -41.8252 138.044 -38.8049 132.958 -38.8049C128.434 -38.8049 121.327 -46.1793 121.327 -50.8726C121.327 -56.2949 125.478 -57.003 132.346 -52.7534ZM63.6585 -49.2537V-44.9512H53.6293H43.6V-49.2537V-53.5561H53.6293H63.6585V-49.2537ZM41.0927 -35.9899C38.3396 -34.6291 37.9134 -33.5289 37.5887 -26.9314C37.0597 -16.1605 38.0877 -15.4488 54.1922 -15.4488C63.7927 -15.4488 67.4897 -15.895 68.5829 -17.1857C69.4655 -18.2282 69.9018 -22.0192 69.6761 -26.6818C69.3439 -33.5436 68.9377 -34.6192 66.1659 -35.9899C64.4421 -36.8417 58.8006 -37.54 53.6293 -37.54C48.4579 -37.54 42.8165 -36.8417 41.0927 -35.9899ZM63.6585 -25.8976V-21.5951H53.6293H43.6V-25.8976V-30.2H53.6293H63.6585V-25.8976ZM-36.6341 -26.0807C-39.6229 -24.9781 -41.1573 -23.557 -41.4457 -21.6271C-41.8143 -19.1599 -41.4908 -18.9104 -38.9384 -19.702C-26.818 -23.4599 -21.2543 -23.4734 -9.54008 -19.7746C-5.37417 -18.4593 -4.65833 -22.3597 -8.60109 -24.8932C-12.8222 -27.605 -30.4749 -28.3524 -36.6341 -26.0807ZM105.029 -25.8976C102.234 -24.3302 104.606 -24.1397 126.968 -24.136C147.078 -24.1323 152.523 -24.4888 154.475 -25.9369C156.641 -27.5435 154.229 -27.7365 132.536 -27.6984C113.771 -27.664 107.443 -27.2498 105.029 -25.8976ZM106.596 -17.6369C105.044 -16.903 103.776 -15.8335 103.776 -15.2607C103.776 -14.6879 114.354 -14.2232 127.282 -14.2281C148.63 -14.2355 151.133 -14.4604 154.549 -16.678L158.31 -19.1206L133.863 -19.0456C119.019 -19.0001 108.309 -18.4457 106.596 -17.6369ZM219.122 18.7777C215.292 24.2812 214.614 24.768 213.492 22.822C211.644 19.6161 206.964 14.0537 206.114 14.0537C204.07 14.0537 201.338 22.2111 201.931 26.5467C202.652 31.8129 202.156 32.1497 197.943 29.256C195.493 27.5732 194.843 27.524 193.921 28.9487C191.246 33.0913 194.895 41.8732 199.792 43.0791C204.695 44.2851 207.202 42.2125 207.202 36.9525C207.202 33.5953 207.723 32.4914 209.307 32.4914C210.464 32.4927 212.242 31.6789 213.256 30.6832C214.881 29.0901 215.285 29.0901 216.634 30.6832C217.476 31.6789 219.149 32.4927 220.35 32.4927C222.048 32.4927 222.501 33.4786 222.389 36.9377C222.22 42.199 224.704 44.2973 229.657 43.0791C234.554 41.8732 238.203 33.0913 235.528 28.9487C234.606 27.524 233.955 27.5732 231.506 29.256C227.409 32.0698 226.501 31.765 227.939 28.0563C228.921 25.5252 228.581 23.5485 226.331 18.6843L223.477 12.5195L219.122 18.7777ZM-35.7378 23.444L-45.4963 29.1085L-45.1402 40.7767L-44.7829 52.4449L-35.2326 57.8513L-25.6822 63.2576L-15.4874 57.6361L-5.29268 52.0147V40.5751V29.1368L-15.2931 23.4391C-20.7929 20.3057 -25.4477 17.7501 -25.6358 17.7599C-25.8238 17.771 -30.3696 20.3278 -35.7378 23.444ZM114.118 19.7845L108.79 21.6346V42.5321C108.79 58.7695 109.14 63.2871 110.357 62.7917C111.22 62.4413 114.041 61.4776 116.626 60.6515L121.327 59.1469V44.7952C121.327 36.9021 121.664 30.1128 122.077 29.7096C122.489 29.3052 123.622 29.2745 124.596 29.6408C126.042 30.1841 126.235 33.0372 125.646 45.2291C125.248 53.4357 125.43 60.863 126.048 61.7333C126.944 62.9933 128.362 62.8138 133.026 60.8544L138.878 58.3946V43.6003C138.878 31.2683 139.191 28.8049 140.759 28.8049C141.793 28.8049 142.669 29.2204 142.707 29.7268C142.882 32.1374 143.471 47.5094 143.67 54.9059L143.893 63.1838L149.848 60.8912L155.802 58.5987L156.15 39.7589C156.342 29.3962 156.219 20.2061 155.878 19.3346C155.401 18.1176 153.367 18.4262 147.068 20.6671C139.667 23.3027 138.878 23.3801 138.878 21.4821C138.878 18.0021 137.722 17.841 130.428 20.302C121.746 23.2301 121.327 23.2265 121.327 20.2C121.327 17.3469 121.168 17.3383 114.118 19.7845ZM26.6957 23.5805C23.1253 32.3648 11.0049 65.024 11.0049 65.8636C11.0049 66.4402 17.2092 66.9122 24.7914 66.9122H38.5778L40.2465 62.9171L41.9163 58.922L32.9514 58.3073L23.9865 57.6927L30.6522 39.8683C34.3179 30.0649 37.3204 21.9062 37.3254 21.7366C37.3292 21.5669 35.1353 21.4293 32.4512 21.4293C28.9723 21.4293 27.32 22.0464 26.6957 23.5805ZM40.4596 22.9659C40.1537 23.8116 37.4119 31.0421 34.3656 39.0361C28.4709 54.504 28.5285 55.2071 35.638 54.4044C38.9226 54.0332 39.5908 52.9244 45.1282 38.639C48.4053 30.1878 51.0944 22.8577 51.1044 22.3512C51.1357 20.7507 41.0488 21.3334 40.4596 22.9659ZM54.2498 22.9659C53.9439 23.8116 51.2022 31.0421 48.1558 39.0361C42.2573 54.5113 42.3163 55.2046 49.4496 54.4044C52.7642 54.0319 53.3973 52.9748 58.8959 38.639C62.1379 30.1878 64.8169 22.8577 64.8508 22.3512C64.9573 20.7483 54.839 21.3346 54.2498 22.9659ZM68.0188 22.9659C63.3276 35.4847 57.3902 52.5519 57.3902 53.5206C57.3902 54.2089 59.4814 54.5974 62.0626 54.386L66.7363 54.0049L72.6586 38.639C75.9156 30.1878 78.6084 22.8577 78.6423 22.3512C78.7476 20.7495 68.6293 21.3346 68.0188 22.9659ZM-18.9388 27.1564C-15.5702 28.9536 -12.8146 30.8295 -12.8146 31.3249C-12.8146 32.5173 -24.4097 46.0146 -25.434 46.0146C-25.8715 46.0146 -29.1335 42.7411 -32.6826 38.7386L-39.1365 31.4638L-32.5573 27.7022C-28.9392 25.6346 -25.7725 23.9296 -25.5205 23.9149C-25.2697 23.9001 -22.3073 25.3592 -18.9388 27.1564ZM-31.6195 47.9753C-31.6195 48.2494 -33.594 48.4732 -36.0073 48.4732C-40.3851 48.4732 -40.3951 48.4609 -40.3951 42.8247V37.1774L-36.0073 42.3268C-33.594 45.1591 -31.6195 47.7012 -31.6195 47.9753ZM-10.3073 42.9415V48.4732H-15.4097H-20.5121L-15.7231 42.982C-13.0892 39.9617 -10.7937 37.4725 -10.6207 37.4503C-10.4477 37.4282 -10.3073 39.899 -10.3073 42.9415ZM206.262 43.4725C199.288 50.3994 198.354 55.0289 203.47 57.3141C206.144 58.5089 207.202 58.3147 210.315 56.059C212.34 54.5912 214.323 53.3902 214.724 53.3902C215.126 53.3902 217.109 54.5912 219.134 56.059C222.246 58.3147 223.304 58.5089 225.978 57.3141C231.18 54.9908 230.172 50.3687 222.943 43.3914C219.535 40.1019 215.727 37.4429 214.481 37.4835C213.236 37.5241 209.538 40.2199 206.262 43.4725ZM-22.8439 53.3312L-18.4561 53.4775L-21.5902 55.2341C-25.7474 57.5648 -27.0462 57.5021 -30.4373 54.8101L-33.2944 52.5408L-30.2631 52.8629C-28.5957 53.0399 -25.2572 53.2513 -22.8439 53.3312ZM200.326 93.6488C200.309 97.2985 199.955 97.6587 196.233 97.8111C193.287 97.9328 192.94 98.1258 194.979 98.5118C198.458 99.1682 198.533 100.299 195.293 103.176C191.49 106.55 192.248 107.658 198.073 107.241C202.902 106.897 203.468 106.497 204.589 102.642C205.49 99.5456 205.417 98.2893 204.315 97.9291C203.49 97.6599 202.806 96.5167 202.796 95.3907C202.785 94.2634 202.229 92.5117 201.561 91.4976C200.638 90.0987 200.341 90.6174 200.326 93.6488ZM-39.1415 116.766V139.439H-34.7537H-30.3659V124.688V109.937H-25.978H-21.5902V124.688V139.439H-12.1878H-2.78537V131.449V123.459H-7.11048H-11.4356L-11.8117 116.39C-12.184 109.402 -12.2342 109.317 -16.2622 108.937L-20.3366 108.551V101.322V94.0925H-29.739H-39.1415V116.766ZM46.8031 97.5874C40.4345 101.704 39.3125 105.289 38.8035 123.151C38.3961 137.444 38.5854 139.439 40.343 139.439C42.0806 139.439 42.3463 137.218 42.3463 122.721V106.003L46.6088 101.823C51.656 96.8744 57.0455 96.3224 63.3765 100.107C73.5085 106.165 70.837 121.75 59.2707 124.058L55.5098 124.81L59.3773 123.049C69.1145 118.618 71.3259 109.833 64.4107 103.053C58.4082 97.1669 51.2899 97.623 45.8215 104.241C44.0162 106.427 43.6514 109.578 43.6276 123.151C43.6113 133.208 44.0802 139.439 44.8537 139.439C45.5557 139.439 46.1073 136.071 46.1073 131.792V124.144L53.9765 131.792C58.3042 135.997 62.6631 139.439 63.6623 139.439C64.6627 139.439 60.9807 134.939 55.4809 129.438C49.9799 123.937 46.3267 119.896 47.361 120.458C48.3952 121.02 53.1052 125.52 57.8278 130.459C63.2448 136.125 67.3919 139.439 69.0631 139.439C71.2983 139.439 70.7655 138.496 65.6656 133.419C60.1495 127.927 59.8436 127.328 62.188 126.599C63.6009 126.159 66.4855 123.87 68.5954 121.513C71.8011 117.934 72.4341 116.196 72.4341 110.979C72.4341 105.36 71.944 104.25 67.5674 99.9574C63.2423 95.7176 62.02 95.1866 56.5979 95.194C52.6715 95.1989 49.1788 96.0532 46.8031 97.5874ZM206.681 102.138C205.985 104.61 205.711 107.099 206.07 107.67C206.918 109.015 217.511 109.024 218.358 107.681C218.714 107.117 218.37 104.627 217.594 102.149C216.344 98.1565 215.716 97.6439 212.065 97.6439C208.392 97.6439 207.81 98.1295 206.681 102.138ZM219.398 102.561C220.64 107.359 220.803 107.478 226.16 107.478C229.179 107.478 231.632 107.063 231.612 106.556C231.516 104.138 223.887 97.6439 221.143 97.6439C218.246 97.6439 218.176 97.8406 219.398 102.561ZM124.643 109.322L114.891 119.771H107.671C101.746 119.771 99.9632 120.281 97.7254 122.615C96.2261 124.18 95 125.84 95 126.303C95 126.768 100.065 127.146 106.254 127.146H117.509L127.739 116.698L137.97 106.249H145.101C150.933 106.249 152.727 105.731 154.957 103.404C156.457 101.839 157.683 100.18 157.683 99.7165C157.683 99.2518 152.443 98.8732 146.039 98.8732H134.395L124.643 109.322ZM62.7183 104.74C65.8136 107.406 65.6218 115.072 62.3886 117.942C58.5737 121.327 52.5448 120.827 49.0434 116.834C45.5921 112.899 45.3614 110.299 48.1219 106.434C51.8303 101.243 57.8453 100.545 62.7183 104.74ZM49.8683 106.249C44.8486 111.171 48.6773 118.951 56.119 118.951C60.903 118.951 63.6585 116.052 63.6585 111.018C63.6585 104.195 55.0133 101.204 49.8683 106.249ZM59.8474 108.034C63.1784 111.969 58.2866 118.013 53.9427 115.331C49.6025 112.65 51.1483 106.249 56.1366 106.249C57.3464 106.249 59.0162 107.051 59.8474 108.034ZM126.036 121.724C118.964 128.882 112.99 135.244 112.761 135.861C112.53 136.476 114.442 136.98 117.007 136.98C121.2 136.98 122.599 136.018 130.848 127.454L140.025 117.927L140.078 127.224C140.128 135.772 140.415 136.786 143.648 139.824C145.581 141.641 147.415 143.127 147.723 143.127C148.647 143.126 149.172 113.918 148.297 111.215C147.688 109.334 146.411 108.707 143.189 108.707C139.377 108.707 137.445 110.174 126.036 121.724ZM192.785 109.919C192.785 111.736 206.771 129.824 207.57 129.039C208.288 128.335 204.167 112.216 202.96 111.007C201.437 109.483 192.785 108.559 192.785 109.919ZM224.993 109.595C223.056 109.88 221.22 110.765 220.912 111.562C218.697 117.3 215.715 129.605 216.54 129.605C217.609 129.605 230.143 113.241 231.26 110.384C231.923 108.691 231.492 108.637 224.993 109.595ZM205.885 113.317C208.847 125.32 211.931 133.614 212.83 131.997C213.723 130.39 219.112 111.981 219.112 110.538C219.112 110.207 215.948 109.937 212.082 109.937H205.05L205.885 113.317ZM49.9122 177.465C47.9953 180.977 48.2059 181.234 53.0024 181.234C57.4354 181.234 58.0121 180.565 56.6293 177.033C55.5724 174.333 51.478 174.597 49.9122 177.465ZM-36.0073 177.748C-40.0015 179.909 -45.4812 185.251 -47.4018 188.856C-49.9342 193.608 -49.6446 204.369 -46.8477 209.527C-45.569 211.882 -42.164 215.45 -39.2806 217.453C-32.6638 222.053 -23.6763 222.406 -15.762 218.378C-11.3742 216.144 -5.29268 209.301 -5.29268 206.596C-5.29268 204.617 -16.9818 205.955 -19.9943 208.278C-27.762 214.268 -39.1415 208.036 -39.1415 197.791C-39.1415 196.143 -37.5029 192.996 -35.4996 190.798C-32.4707 187.475 -31.0077 186.824 -26.8155 186.931C-23.7315 187.01 -20.4544 188.077 -18.3784 189.679L-14.9835 192.298H-21.8535C-31.5857 192.298 -36.1264 197.635 -30.5802 202.556C-27.0675 205.673 -4.01896 205.506 -1.09919 202.342C0.0416353 201.105 0.975609 199.255 0.975609 198.23C0.975609 196.111 -2.88942 192.298 -5.03819 192.298C-5.82423 192.298 -6.16648 191.528 -5.79791 190.588C-4.88148 188.245 -12.4937 180.011 -17.4557 177.978C-22.3149 175.988 -32.5184 175.861 -36.0073 177.748ZM111.875 179.698C111.478 181.556 110.622 185.398 109.971 188.232C108.264 195.684 108.519 201.609 110.622 203.32C111.629 204.14 114.761 205.115 117.583 205.486C121.2 205.962 122.524 206.651 122.066 207.82C121.709 208.732 121.036 212.294 120.571 215.737L119.723 221.997L123.313 221.591C126.433 221.238 127.04 220.502 127.95 215.961C129.309 209.178 131.7 209.308 133.599 216.268C134.963 221.268 135.469 221.8 138.873 221.8C143.064 221.8 143.277 221.103 141.182 214.244C139.89 210.014 140.01 209.166 142.249 206.725C148.018 200.44 146.498 194.391 138.563 192.06L133.648 190.616L134.483 185.153C134.943 182.149 135.616 178.932 135.978 178.004C136.46 176.776 135.464 176.317 132.318 176.317H127.996L126.382 185.229C124.097 197.833 123.219 199.673 119.478 199.673C115.753 199.673 115.652 198.706 118.193 187.38C120.641 176.468 120.615 176.317 116.336 176.317C113.271 176.317 112.468 176.924 111.875 179.698ZM172.309 177.137C171.849 177.587 171.473 183.948 171.473 191.274V204.59H177.115H182.756V195.985V187.38H199.68H216.605V181.849V176.317H194.875C182.923 176.317 172.768 176.686 172.309 177.137ZM47.9803 183.704C47.5515 184.386 47.5553 186.046 47.9916 187.392C49.1111 190.849 56.7647 190.824 58.6577 187.355C59.4036 185.989 59.6719 184.329 59.2544 183.667C58.2553 182.081 48.9845 182.111 47.9803 183.704ZM65.8524 183.412C63.2574 183.957 63.0881 185.031 65.2256 187.383C66.5407 188.829 66.4178 188.826 64.4634 187.368C62.4099 185.835 61.9235 185.912 60.3614 188.006C59.3861 189.314 58.8833 191.09 59.2431 191.955C59.6029 192.82 60.2699 194.432 60.7237 195.538C61.2916 196.92 61.0083 197.373 59.8186 196.984C58.8658 196.673 57.7651 195.082 57.3714 193.448C56.885 191.426 56.3484 190.966 55.6928 192.007C55.091 192.963 53.5127 193.237 51.4855 192.738C49.0145 192.129 48.4805 192.32 49.2465 193.534C49.8733 194.529 49.3994 195.741 47.9865 196.752C45.923 198.232 45.9067 198.445 47.796 199.156C48.9356 199.585 49.8683 201.051 49.8683 202.413C49.8683 204.477 50.183 204.636 51.7488 203.361C53.2494 202.14 54.0091 202.14 55.5098 203.361C57.0793 204.638 57.3902 204.467 57.3902 202.326C57.3902 199.489 60.7638 197.215 64.9724 197.215C67.2628 197.215 67.6189 196.648 67.1801 193.711C66.6573 190.221 66.6736 190.213 71.5904 191.296C74.3046 191.893 76.7129 192.199 76.941 191.976C77.1692 191.752 76.3054 189.876 75.023 187.807C72.641 183.968 69.7664 182.589 65.8524 183.412ZM32.5352 186.537C28.4796 190.772 28.9798 192.666 33.8841 191.644C36.1244 191.176 38.9677 189.921 40.2026 188.853C42.3426 187.001 42.3576 187.078 40.5235 190.526C37.8282 195.594 38.1065 197.215 41.6756 197.215C47.0639 197.215 49.0183 190.859 45.0204 186.339C41.8762 182.786 36.0417 182.878 32.5352 186.537ZM222.873 200.832V209.507H205.253H187.633L188.015 215.346L188.398 221.185L209.963 221.521C235.731 221.923 234.426 222.83 233.888 204.895L233.529 192.912L228.201 192.535L222.873 192.156V200.832ZM-24.2881 195.844C-21.7495 197.421 -23.0971 201.462 -26.3103 201.91C-29.3441 202.335 -31.1281 199.706 -29.912 196.6C-29.1109 194.551 -26.8569 194.247 -24.2881 195.844ZM-28.2497 196.779C-30.0249 198.519 -29.0207 200.902 -26.5134 200.902C-24.7607 200.902 -24.0462 200.235 -24.3195 198.853C-24.767 196.59 -26.907 195.462 -28.2497 196.779ZM138.138 199.215C139.218 201.972 136.689 204.59 132.949 204.59C130.624 204.59 130.027 204.097 130.595 202.646C131.014 201.576 131.356 199.917 131.356 198.958C131.356 196.519 137.169 196.739 138.138 199.215ZM38.6731 199.98C38.722 200.826 39.2022 202.623 39.74 203.974C40.4057 205.647 40.096 206.878 38.7684 207.829C37.1988 208.954 37.0521 210.134 38.0162 213.884C39.4366 219.412 41.9051 220.674 43.4797 216.679C44.287 214.628 44.0463 212.932 42.6322 210.737C40.8031 207.895 40.8106 207.789 42.7224 209.325C44.5252 210.773 44.9828 210.576 46.2778 207.789C48.3752 203.275 46.0333 198.444 41.7458 198.444C40.0058 198.444 38.6255 199.135 38.6731 199.98ZM60.5106 201.366C58.9147 203.754 58.8307 204.878 60.0555 207.512C60.8792 209.286 61.9636 210.737 62.4638 210.737C63.6661 210.737 67.4195 202.915 67.4195 200.41C67.4195 197.398 62.7283 198.047 60.5106 201.366ZM47.361 209.509C45.6322 213.601 46.8557 216.17 51.1721 217.514C53.3184 218.181 61.1512 215.201 61.1512 213.718C61.1512 213.362 60.29 211.441 59.2381 209.446C57.6974 206.524 56.5089 205.82 53.1228 205.82C49.6338 205.82 48.6535 206.446 47.361 209.509ZM64.4107 210.106C61.0622 215.118 63.5394 222.249 67.0848 217.805C69.2185 215.13 69.7162 210.923 68.1454 208.818C66.7814 206.99 66.4078 207.118 64.4107 210.106ZM83.6017 241.816C78.9845 244.867 38.2506 300.177 39.3438 301.911C40.3856 303.564 59.1767 303.123 61.3581 301.395C62.4249 300.551 65.9678 296.124 69.2298 291.561C72.4918 286.998 75.5357 283.272 75.992 283.282C76.4484 283.293 79.5938 287.417 82.9824 292.447C86.3711 297.479 89.9427 301.895 90.9206 302.263C93.8491 303.364 112.349 303.018 113.087 301.848C113.463 301.25 112.747 299.453 111.494 297.852C110.243 296.251 104.522 288.14 98.7798 279.829C91.6289 269.475 88.748 264.317 89.6306 263.451C90.5144 262.585 93.794 266.376 100.045 275.491C111.995 292.917 117.814 300.881 119.405 301.991C121.154 303.211 141.078 303.184 141.849 301.961C142.853 300.369 102.901 244.779 98.5955 241.776C93.5495 238.256 88.9699 238.269 83.6017 241.816Z" fill="white"/>
</g>
<defs>
<clipPath id="clip0_23_22">
<rect width="88" height="88" fill="white"/>
</clipPath>
</defs>
</svg>
