<svg width="88" height="88" viewBox="0 0 88 88" fill="none" xmlns="http://www.w3.org/2000/svg">
<g clip-path="url(#clip0_23_29)">
<path fill-rule="evenodd" clip-rule="evenodd" d="M-328 53V305H-71H186V53V-199H-71H-328V53ZM96.9902 51.1561V258.288H-72.2537H-241.498V51.1561V-155.976H-72.2537H96.9902V51.1561ZM-190.424 -128.932C-190.805 -127.918 -191.739 -123.792 -192.498 -119.764C-194.447 -109.429 -195.715 -108.877 -199.447 -116.74L-202.609 -123.4L-202.622 -113.873C-202.629 -108.633 -203.169 -104.346 -203.824 -104.346C-204.478 -104.346 -206.52 -106.282 -208.361 -108.649C-210.201 -111.015 -212.148 -112.951 -212.687 -112.951C-213.55 -112.951 -209.77 -96.1828 -208.662 -95.0961C-207.464 -93.9221 -194.433 -99.369 -192.32 -101.927L-189.887 -104.874L-187.607 -101.909C-185.487 -99.1539 -173.054 -94.0598 -171.196 -95.1846C-170.746 -95.4587 -169.697 -99.0703 -168.867 -103.212C-168.036 -107.353 -167.045 -111.653 -166.667 -112.768C-166.288 -113.883 -168.255 -112.306 -171.036 -109.263C-175.406 -104.484 -176.216 -104.035 -176.993 -105.965C-177.488 -107.195 -177.59 -111.481 -177.22 -115.492C-176.849 -119.503 -176.914 -122.772 -177.367 -122.756C-177.818 -122.74 -179.468 -119.874 -181.031 -116.387C-184.57 -108.498 -185.88 -109.479 -188.084 -121.667C-188.989 -126.676 -190.042 -129.946 -190.424 -128.932ZM-125.881 -127.018C-128.223 -125.41 -128.668 -123.952 -128.668 -117.887C-128.668 -107.626 -127.495 -106.805 -112.826 -106.805C-96.9219 -106.805 -96.0732 -107.333 -96.0732 -117.227C-96.0732 -123.974 -96.4731 -125.379 -98.8601 -127.018C-102.763 -129.699 -121.979 -129.699 -125.881 -127.018ZM-43.061 -126.903C-44.5867 -126.579 -47.5491 -124.745 -49.6427 -122.827C-54.211 -118.643 -54.6498 -113.551 -50.8499 -108.815L-48.2524 -105.576H-52.0447C-56.2495 -105.576 -62.2244 -103.295 -62.2244 -101.69C-62.2244 -101.123 -51.646 -100.662 -38.7183 -100.667C-17.3697 -100.675 -14.8674 -100.899 -11.4512 -103.117L-7.69024 -105.56L-15.4216 -105.567L-23.1529 -105.576L-20.5528 -110.23C-18.2109 -114.421 -18.1282 -115.235 -19.7166 -118.417C-22.3856 -123.761 -27.3865 -126.772 -34.2377 -127.155C-37.5637 -127.341 -41.534 -127.228 -43.061 -126.903ZM47.0533 -124.882C46.2597 -122.993 45.2693 -120.117 44.8531 -118.489C44.1924 -115.91 43.2672 -115.484 37.6345 -115.163L31.1732 -114.795L35.8594 -111.722C38.4356 -110.032 40.5518 -108.225 40.5606 -107.706C40.5681 -107.187 37.6984 -101.756 34.1807 -95.6394C30.6642 -89.5214 28.0152 -84.2921 28.2935 -84.0179C28.5731 -83.745 32.9885 -87.6529 38.1046 -92.7039C43.2221 -97.755 47.8832 -101.888 48.4636 -101.888C49.0441 -101.888 51.5539 -100.367 54.0412 -98.5073L58.5631 -95.1268L57.7482 -98.8146C57.3007 -100.843 56.5936 -103.667 56.1774 -105.091C55.5819 -107.129 56.561 -108.5 60.7821 -111.545L66.1427 -115.41H59.2977H52.4528L50.4745 -121.863L48.4962 -128.317L47.0533 -124.882ZM-33.6535 -120.753C-32.0752 -119.776 -29.8687 -117.095 -28.7492 -114.794C-26.3322 -109.825 -27.9556 -106.805 -33.0417 -106.805C-37.5662 -106.805 -44.6732 -114.179 -44.6732 -118.873C-44.6732 -124.295 -40.5223 -125.003 -33.6535 -120.753ZM-102.341 -117.254V-112.951H-112.371H-122.4V-117.254V-121.556H-112.371H-102.341V-117.254ZM-124.907 -103.99C-127.66 -102.629 -128.087 -101.529 -128.411 -94.9314C-128.94 -84.1605 -127.912 -83.4488 -111.808 -83.4488C-102.207 -83.4488 -98.5103 -83.895 -97.4171 -85.1857C-96.5345 -86.2282 -96.0982 -90.0192 -96.3239 -94.6818C-96.6561 -101.544 -97.0623 -102.619 -99.8341 -103.99C-101.558 -104.842 -107.199 -105.54 -112.371 -105.54C-117.542 -105.54 -123.184 -104.842 -124.907 -103.99ZM-102.341 -93.8976V-89.5951H-112.371H-122.4V-93.8976V-98.2H-112.371H-102.341V-93.8976ZM-202.634 -94.0807C-205.623 -92.9781 -207.157 -91.557 -207.446 -89.6271C-207.814 -87.1599 -207.491 -86.9104 -204.938 -87.702C-192.818 -91.4599 -187.254 -91.4734 -175.54 -87.7746C-171.374 -86.4593 -170.658 -90.3597 -174.601 -92.8932C-178.822 -95.605 -196.475 -96.3524 -202.634 -94.0807ZM-60.9707 -93.8976C-63.7664 -92.3302 -61.3945 -92.1397 -39.0317 -92.136C-18.9218 -92.1323 -13.4771 -92.4888 -11.5252 -93.9369C-9.35887 -95.5435 -11.7709 -95.7365 -33.4642 -95.6984C-52.229 -95.664 -58.5574 -95.2498 -60.9707 -93.8976ZM-59.4037 -85.6369C-60.9557 -84.903 -62.2244 -83.8335 -62.2244 -83.2607C-62.2244 -82.6879 -51.646 -82.2232 -38.7183 -82.2281C-17.3697 -82.2355 -14.8674 -82.4604 -11.4512 -84.678L-7.69024 -87.1206L-32.1366 -87.0456C-46.9812 -87.0001 -57.6912 -86.4457 -59.4037 -85.6369ZM53.1222 -49.2223C49.2923 -43.7188 48.6141 -43.232 47.492 -45.178C45.6441 -48.3839 40.9642 -53.9463 40.1142 -53.9463C38.0695 -53.9463 35.3378 -45.7889 35.9308 -41.4533C36.6517 -36.1871 36.1565 -35.8503 31.9429 -38.744C29.4933 -40.4268 28.8426 -40.476 27.9212 -39.0513C25.2459 -34.9087 28.8953 -26.1268 33.792 -24.9209C38.6951 -23.7149 41.2024 -25.7875 41.2024 -31.0475C41.2024 -34.4047 41.7227 -35.5086 43.3073 -35.5086C44.4644 -35.5073 46.2422 -36.3211 47.2564 -37.3168C48.8811 -38.9099 49.2848 -38.9099 50.6337 -37.3168C51.4762 -36.3211 53.1485 -35.5073 54.3496 -35.5073C56.0483 -35.5073 56.5009 -34.5214 56.3893 -31.0623C56.22 -25.801 58.7035 -23.7027 63.6567 -24.9209C68.5535 -26.1268 72.2029 -34.9087 69.5276 -39.0513C68.6062 -40.476 67.9555 -40.4268 65.5058 -38.744C61.4089 -35.9302 60.5012 -36.235 61.9392 -39.9437C62.9208 -42.4748 62.5811 -44.4515 60.3308 -49.3157L57.4774 -55.4805L53.1222 -49.2223ZM-201.738 -44.556L-211.496 -38.8915L-211.14 -27.2233L-210.783 -15.5551L-201.233 -10.1487L-191.682 -4.74243L-181.487 -10.3639L-171.293 -15.9853V-27.4249V-38.8632L-181.293 -44.5609C-186.793 -47.6943 -191.448 -50.2499 -191.636 -50.2401C-191.824 -50.229 -196.37 -47.6722 -201.738 -44.556ZM-51.8817 -48.2155L-57.2098 -46.3654V-25.4679C-57.2098 -9.23047 -56.86 -4.71292 -55.6427 -5.20832C-54.7802 -5.55866 -51.9594 -6.5224 -49.3744 -7.34847L-44.6732 -8.85309V-23.2048C-44.6732 -31.0979 -44.3359 -37.8872 -43.9235 -38.2904C-43.511 -38.6948 -42.3777 -38.7255 -41.4036 -38.3592C-39.9582 -37.8159 -39.7651 -34.9628 -40.3543 -22.7709C-40.7517 -14.5643 -40.5699 -7.13703 -39.9519 -6.26671C-39.0555 -5.00671 -37.6376 -5.18617 -32.974 -7.14563L-27.122 -9.6054V-24.3997C-27.122 -36.7317 -26.8085 -39.1951 -25.2415 -39.1951C-24.2072 -39.1951 -23.3309 -38.7796 -23.2933 -38.2732C-23.1178 -35.8626 -22.5285 -20.4906 -22.3305 -13.0941L-22.1073 -4.81618L-16.1524 -7.10875L-10.1976 -9.40134L-9.85031 -28.2411C-9.6585 -38.6038 -9.78135 -47.7939 -10.1223 -48.6654C-10.5987 -49.8824 -12.6334 -49.5738 -18.9318 -47.3329C-26.3334 -44.6973 -27.122 -44.6199 -27.122 -46.5179C-27.122 -49.9979 -28.2778 -50.159 -35.5716 -47.698C-44.2545 -44.7699 -44.6732 -44.7735 -44.6732 -47.8C-44.6732 -50.6531 -44.8324 -50.6617 -51.8817 -48.2155ZM-139.304 -44.4195C-142.875 -35.6352 -154.995 -2.97595 -154.995 -2.13636C-154.995 -1.55984 -148.791 -1.0878 -141.209 -1.0878H-127.422L-125.754 -5.08292L-124.084 -9.07805L-133.049 -9.69268L-142.013 -10.3073L-135.348 -28.1317C-131.682 -37.9351 -128.68 -46.0938 -128.675 -46.2634C-128.671 -46.4331 -130.865 -46.5707 -133.549 -46.5707C-137.028 -46.5707 -138.68 -45.9536 -139.304 -44.4195ZM-125.54 -45.0341C-125.846 -44.1884 -128.588 -36.9579 -131.634 -28.9639C-137.529 -13.496 -137.471 -12.7929 -130.362 -13.5956C-127.077 -13.9668 -126.409 -15.0756 -120.872 -29.361C-117.595 -37.8122 -114.906 -45.1423 -114.896 -45.6488C-114.864 -47.2493 -124.951 -46.6666 -125.54 -45.0341ZM-111.75 -45.0341C-112.056 -44.1884 -114.798 -36.9579 -117.844 -28.9639C-123.743 -13.4887 -123.684 -12.7954 -116.55 -13.5956C-113.236 -13.9681 -112.603 -15.0252 -107.104 -29.361C-103.862 -37.8122 -101.183 -45.1423 -101.149 -45.6488C-101.043 -47.2517 -111.161 -46.6654 -111.75 -45.0341ZM-97.9812 -45.0341C-102.672 -32.5153 -108.61 -15.4481 -108.61 -14.4794C-108.61 -13.7911 -106.519 -13.4026 -103.937 -13.614L-99.2637 -13.9951L-93.3414 -29.361C-90.0844 -37.8122 -87.3916 -45.1423 -87.3577 -45.6488C-87.2524 -47.2505 -97.3707 -46.6654 -97.9812 -45.0341ZM-184.939 -40.8436C-181.57 -39.0464 -178.815 -37.1705 -178.815 -36.6751C-178.815 -35.4827 -190.41 -21.9854 -191.434 -21.9854C-191.871 -21.9854 -195.134 -25.2589 -198.683 -29.2614L-205.136 -36.5362L-198.557 -40.2978C-194.939 -42.3654 -191.772 -44.0704 -191.52 -44.0851C-191.27 -44.0999 -188.307 -42.6408 -184.939 -40.8436ZM-197.62 -20.0247C-197.62 -19.7506 -199.594 -19.5268 -202.007 -19.5268C-206.385 -19.5268 -206.395 -19.5391 -206.395 -25.1753V-30.8226L-202.007 -25.6732C-199.594 -22.8409 -197.62 -20.2988 -197.62 -20.0247ZM-176.307 -25.0585V-19.5268H-181.41H-186.512L-181.723 -25.018C-179.089 -28.0383 -176.794 -30.5275 -176.621 -30.5497C-176.448 -30.5718 -176.307 -28.101 -176.307 -25.0585ZM40.2622 -24.5275C33.2881 -17.6006 32.3541 -12.9711 37.4703 -10.6859C40.1444 -9.49108 41.2024 -9.6853 44.3153 -11.941C46.3399 -13.4088 48.3232 -14.6098 48.7244 -14.6098C49.1256 -14.6098 51.1088 -13.4088 53.1335 -11.941C56.2463 -9.6853 57.3044 -9.49108 59.9785 -10.6859C65.1799 -13.0092 64.172 -17.6313 56.9434 -24.6086C53.5347 -27.8981 49.7273 -30.5571 48.4812 -30.5165C47.2363 -30.4759 43.538 -27.7801 40.2622 -24.5275ZM-188.844 -14.6688L-184.456 -14.5225L-187.59 -12.7659C-191.747 -10.4352 -193.046 -10.4979 -196.437 -13.1899L-199.294 -15.4592L-196.263 -15.1371C-194.596 -14.9601 -191.257 -14.7487 -188.844 -14.6688ZM34.3261 25.6488C34.3086 29.2985 33.955 29.6587 30.2329 29.8111C27.2868 29.9328 26.9396 30.1258 28.9793 30.5118C32.4582 31.1682 32.5334 32.2991 29.2927 35.1756C25.4903 38.55 26.2475 39.6575 32.0733 39.2408C36.9024 38.8966 37.4678 38.4971 38.5886 34.6421C39.49 31.5456 39.4172 30.2893 38.3153 29.9291C37.4903 29.6599 36.8058 28.5167 36.7958 27.3907C36.7845 26.2634 36.2292 24.5117 35.561 23.4976C34.6383 22.0987 34.3412 22.6174 34.3261 25.6488ZM-205.141 48.7664V71.439H-200.754H-196.366V56.6878V41.9366H-191.978H-187.59V56.6878V71.439H-178.188H-168.785V63.4488V55.4585H-173.11H-177.436L-177.812 48.3902C-178.184 41.4019 -178.234 41.317 -182.262 40.9372L-186.337 40.5512V33.3219V26.0925H-195.739H-205.141V48.7664ZM-119.197 29.5874C-125.565 33.7042 -126.688 37.2887 -127.197 55.1512C-127.604 69.4439 -127.415 71.439 -125.657 71.439C-123.919 71.439 -123.654 69.2177 -123.654 54.721V38.0029L-119.391 33.8234C-114.344 28.8744 -108.955 28.3224 -102.624 32.1074C-92.4915 38.1652 -95.163 53.7499 -106.729 56.0584L-110.49 56.8095L-106.623 55.0492C-96.8855 50.6177 -94.6741 41.8333 -101.589 35.0527C-107.592 29.1669 -114.71 29.623 -120.179 36.2414C-121.984 38.427 -122.349 41.5776 -122.372 55.1512C-122.389 65.2079 -121.92 71.439 -121.146 71.439C-120.444 71.439 -119.893 68.0708 -119.893 63.7918V56.1445L-112.023 63.7918C-107.696 67.9971 -103.337 71.439 -102.338 71.439C-101.337 71.439 -105.019 66.9387 -110.519 61.4377C-116.02 55.9367 -119.673 51.8961 -118.639 52.4579C-117.605 53.0197 -112.895 57.52 -108.172 62.4592C-102.755 68.1249 -98.6081 71.439 -96.9369 71.439C-94.7017 71.439 -95.2345 70.4962 -100.334 65.4193C-105.85 59.9269 -106.156 59.3283 -103.812 58.5993C-102.399 58.1592 -99.5145 55.8704 -97.4046 53.5126C-94.1989 49.9342 -93.5659 48.196 -93.5659 42.979C-93.5659 37.36 -94.056 36.25 -98.4326 31.9574C-102.758 27.7176 -103.98 27.1866 -109.402 27.194C-113.329 27.1989 -116.821 28.0532 -119.197 29.5874ZM40.6809 34.1381C39.9852 36.6102 39.7106 39.0994 40.0704 39.6698C40.9178 41.0146 51.5113 41.0245 52.3575 39.6809C52.7135 39.1166 52.37 36.6274 51.594 34.1492C50.3441 30.1565 49.716 29.6439 46.0654 29.6439C42.3922 29.6439 41.8105 30.1295 40.6809 34.1381ZM53.398 34.561C54.6404 39.3588 54.8034 39.4781 60.1603 39.4781C63.1791 39.4781 65.6325 39.0626 65.6124 38.5561C65.5159 36.1381 57.8874 29.6439 55.1431 29.6439C52.2459 29.6439 52.1757 29.8406 53.398 34.561ZM-41.3572 41.322L-51.1095 51.7707H-58.3293C-64.2541 51.7707 -66.0368 52.2809 -68.2746 54.6153C-69.7739 56.1801 -71 57.8396 -71 58.3031C-71 58.7677 -65.9352 59.1463 -59.7459 59.1463H-48.4906L-38.2607 48.6976L-28.0296 38.2488H-20.8988C-15.0668 38.2488 -13.2728 37.7313 -11.0425 35.4043C-9.54315 33.8394 -8.31707 32.1799 -8.31707 31.7165C-8.31707 31.2518 -13.5574 30.8732 -19.961 30.8732H-31.605L-41.3572 41.322ZM-103.282 36.7405C-100.186 39.4055 -100.378 47.0725 -103.611 49.9416C-107.426 53.327 -113.455 52.8267 -116.957 48.834C-120.408 44.8991 -120.639 42.2992 -117.878 38.4344C-114.17 33.2432 -108.155 32.545 -103.282 36.7405ZM-116.132 38.2488C-121.151 43.1708 -117.323 50.9508 -109.881 50.9508C-105.097 50.9508 -102.341 48.0522 -102.341 43.0184C-102.341 36.1947 -110.987 33.2039 -116.132 38.2488ZM-106.153 40.0337C-102.822 43.9686 -107.713 50.0129 -112.057 47.3306C-116.397 44.6496 -114.852 38.2488 -109.863 38.2488C-108.654 38.2488 -106.984 39.0515 -106.153 40.0337ZM-39.9644 53.724C-47.0363 60.8821 -53.01 67.2435 -53.2394 67.8606C-53.4701 68.4765 -51.5583 68.9805 -48.9933 68.9805C-44.7998 68.9805 -43.4007 68.018 -35.1516 59.4537L-25.9749 49.9268L-25.9222 59.2238C-25.8721 67.7721 -25.585 68.7863 -22.3518 71.8238C-20.4186 73.6407 -18.5845 75.1268 -18.2774 75.1268C-17.3535 75.1256 -16.8282 45.9182 -17.7032 43.215C-18.3125 41.3342 -19.5887 40.7073 -22.8106 40.7073C-26.623 40.7073 -28.5549 42.1738 -39.9644 53.724ZM26.7854 41.9194C26.7854 43.7362 40.7712 61.8237 41.5698 61.0394C42.2881 60.335 38.1673 44.2157 36.9601 43.0073C35.4369 41.483 26.7854 40.5586 26.7854 41.9194ZM58.9931 41.5949C57.0562 41.88 55.2196 42.7651 54.9125 43.5617C52.6972 49.2999 49.7148 61.6049 50.5397 61.6049C51.6091 61.6049 64.1431 45.2409 65.2601 42.384C65.9233 40.6913 65.4921 40.6373 58.9931 41.5949ZM39.8848 45.3171C42.8472 57.3197 45.9313 65.6135 46.8301 63.997C47.7227 62.3904 53.1122 43.9809 53.1122 42.5377C53.1122 42.207 49.948 41.9366 46.0817 41.9366H39.0499L39.8848 45.3171ZM-116.088 109.465C-118.005 112.977 -117.794 113.234 -112.998 113.234C-108.565 113.234 -107.988 112.565 -109.371 109.033C-110.428 106.333 -114.522 106.597 -116.088 109.465ZM-202.007 109.748C-206.001 111.909 -211.481 117.251 -213.402 120.856C-215.934 125.608 -215.645 136.369 -212.848 141.527C-211.569 143.882 -208.164 147.45 -205.281 149.453C-198.664 154.053 -189.676 154.406 -181.762 150.378C-177.374 148.144 -171.293 141.301 -171.293 138.596C-171.293 136.617 -182.982 137.955 -185.994 140.278C-193.762 146.268 -205.141 140.036 -205.141 129.791C-205.141 128.143 -203.503 124.996 -201.5 122.798C-198.471 119.475 -197.008 118.824 -192.815 118.931C-189.731 119.01 -186.454 120.077 -184.378 121.679L-180.983 124.298H-187.854C-197.586 124.298 -202.126 129.635 -196.58 134.556C-193.067 137.673 -170.019 137.506 -167.099 134.342C-165.958 133.105 -165.024 131.255 -165.024 130.23C-165.024 128.111 -168.889 124.298 -171.038 124.298C-171.824 124.298 -172.166 123.528 -171.798 122.588C-170.881 120.245 -178.494 112.011 -183.456 109.978C-188.315 107.988 -198.518 107.861 -202.007 109.748ZM-54.1245 111.698C-54.5219 113.556 -55.3782 117.398 -56.0288 120.232C-57.7363 127.684 -57.4805 133.609 -55.3782 135.32C-54.3715 136.14 -51.2386 137.115 -48.4166 137.486C-44.7998 137.962 -43.4759 138.651 -43.9335 139.82C-44.2908 140.732 -44.964 144.294 -45.4291 147.737L-46.2766 153.997L-42.6874 153.591C-39.567 153.238 -38.9602 152.502 -38.0501 147.961C-36.6911 141.178 -34.3004 141.308 -32.4011 148.268C-31.0371 153.268 -30.5306 153.8 -27.127 153.8C-22.936 153.8 -22.7229 153.103 -24.8177 146.244C-26.1103 142.014 -25.9899 141.166 -23.7509 138.725C-17.9815 132.44 -19.5022 126.391 -27.4366 124.06L-32.3522 122.616L-31.5173 117.153C-31.0572 114.149 -30.384 110.932 -30.0217 110.004C-29.5403 108.776 -30.5357 108.317 -33.6823 108.317H-38.0037L-39.6184 117.229C-41.9026 129.833 -42.7814 131.673 -46.5223 131.673C-50.2469 131.673 -50.3485 130.706 -47.8073 119.38C-45.3589 108.468 -45.3853 108.317 -49.664 108.317C-52.7292 108.317 -53.5315 108.924 -54.1245 111.698ZM6.30935 109.137C5.84926 109.587 5.47317 115.948 5.47317 123.274V136.59H11.1146H16.7561V127.985V119.38H33.6805H50.6049V113.849V108.317H28.8752C16.9228 108.317 6.76819 108.686 6.30935 109.137ZM-118.02 115.704C-118.448 116.386 -118.445 118.046 -118.008 119.392C-116.889 122.849 -109.235 122.824 -107.342 119.355C-106.596 117.989 -106.328 116.329 -106.746 115.667C-107.745 114.081 -117.016 114.111 -118.02 115.704ZM-100.148 115.412C-102.743 115.957 -102.912 117.031 -100.774 119.383C-99.4593 120.829 -99.5822 120.826 -101.537 119.368C-103.59 117.835 -104.077 117.912 -105.639 120.006C-106.614 121.314 -107.117 123.09 -106.757 123.955C-106.397 124.82 -105.73 126.432 -105.276 127.538C-104.708 128.92 -104.992 129.373 -106.181 128.984C-107.134 128.673 -108.235 127.082 -108.629 125.448C-109.115 123.426 -109.652 122.966 -110.307 124.007C-110.909 124.963 -112.487 125.237 -114.514 124.738C-116.985 124.129 -117.52 124.32 -116.754 125.534C-116.127 126.529 -116.601 127.741 -118.013 128.752C-120.077 130.232 -120.093 130.445 -118.204 131.156C-117.064 131.585 -116.132 133.051 -116.132 134.413C-116.132 136.477 -115.817 136.636 -114.251 135.361C-112.751 134.14 -111.991 134.14 -110.49 135.361C-108.921 136.638 -108.61 136.467 -108.61 134.326C-108.61 131.489 -105.236 129.215 -101.028 129.215C-98.7372 129.215 -98.3811 128.648 -98.8199 125.711C-99.3427 122.221 -99.3264 122.213 -94.4096 123.296C-91.6954 123.893 -89.2871 124.199 -89.059 123.976C-88.8308 123.752 -89.6946 121.876 -90.977 119.807C-93.359 115.968 -96.2336 114.589 -100.148 115.412ZM-133.465 118.537C-137.52 122.772 -137.02 124.666 -132.116 123.644C-129.876 123.176 -127.032 121.921 -125.797 120.853C-123.657 119.001 -123.642 119.078 -125.476 122.526C-128.172 127.594 -127.894 129.215 -124.324 129.215C-118.936 129.215 -116.982 122.859 -120.98 118.339C-124.124 114.786 -129.958 114.878 -133.465 118.537ZM56.8732 132.832V141.507H39.253H21.6328L22.0152 147.346L22.3976 153.185L43.963 153.521C69.7307 153.923 68.4256 154.83 67.8878 136.895L67.5293 124.912L62.2012 124.535L56.8732 124.156V132.832ZM-190.288 127.844C-187.749 129.421 -189.097 133.462 -192.31 133.91C-195.344 134.335 -197.128 131.706 -195.912 128.6C-195.111 126.551 -192.857 126.247 -190.288 127.844ZM-194.25 128.779C-196.025 130.519 -195.021 132.902 -192.513 132.902C-190.761 132.902 -190.046 132.235 -190.319 130.853C-190.767 128.59 -192.907 127.462 -194.25 128.779ZM-27.8616 131.215C-26.7822 133.972 -29.3108 136.59 -33.0505 136.59C-35.376 136.59 -35.9728 136.097 -35.4049 134.646C-34.9861 133.576 -34.6439 131.917 -34.6439 130.958C-34.6439 128.519 -28.8307 128.739 -27.8616 131.215ZM-127.327 131.98C-127.278 132.826 -126.798 134.623 -126.26 135.974C-125.594 137.647 -125.904 138.878 -127.232 139.829C-128.801 140.954 -128.948 142.134 -127.984 145.884C-126.563 151.412 -124.095 152.674 -122.52 148.679C-121.713 146.628 -121.954 144.932 -123.368 142.737C-125.197 139.895 -125.189 139.789 -123.278 141.325C-121.475 142.773 -121.017 142.576 -119.722 139.789C-117.625 135.275 -119.967 130.444 -124.254 130.444C-125.994 130.444 -127.375 131.135 -127.327 131.98ZM-105.489 133.366C-107.085 135.754 -107.169 136.878 -105.944 139.512C-105.121 141.286 -104.036 142.737 -103.536 142.737C-102.334 142.737 -98.5805 134.915 -98.5805 132.41C-98.5805 129.398 -103.272 130.047 -105.489 133.366ZM-118.639 141.509C-120.368 145.601 -119.144 148.17 -114.828 149.514C-112.682 150.181 -104.849 147.201 -104.849 145.718C-104.849 145.362 -105.71 143.441 -106.762 141.446C-108.303 138.524 -109.491 137.82 -112.877 137.82C-116.366 137.82 -117.347 138.446 -118.639 141.509ZM-101.589 142.106C-104.938 147.118 -102.461 154.249 -98.9152 149.805C-96.7815 147.13 -96.2838 142.923 -97.8546 140.818C-99.2186 138.99 -99.5922 139.118 -101.589 142.106ZM-82.3983 173.816C-87.0155 176.867 -127.749 232.177 -126.656 233.911C-125.614 235.564 -106.823 235.123 -104.642 233.395C-103.575 232.551 -100.032 228.124 -96.7702 223.561C-93.5082 218.998 -90.4643 215.272 -90.008 215.282C-89.5516 215.293 -86.4062 219.417 -83.0176 224.447C-79.6289 229.479 -76.0573 233.895 -75.0794 234.263C-72.1509 235.364 -53.6506 235.018 -52.9135 233.848C-52.5374 233.25 -53.2532 231.453 -54.5056 229.852C-55.7568 228.251 -61.4785 220.14 -67.2202 211.829C-74.3711 201.475 -77.252 196.317 -76.3694 195.451C-75.4856 194.585 -72.206 198.376 -65.9553 207.491C-54.0054 224.917 -48.1859 232.881 -46.595 233.991C-44.8462 235.211 -24.9218 235.184 -24.1508 233.961C-23.1466 232.369 -63.0994 176.779 -67.4045 173.776C-72.4505 170.256 -77.0301 170.269 -82.3983 173.816Z" fill="white"/>
</g>
<defs>
<clipPath id="clip0_23_29">
<rect width="88" height="88" fill="white"/>
</clipPath>
</defs>
</svg>
