<svg width="88" height="88" viewBox="0 0 88 88" fill="none" xmlns="http://www.w3.org/2000/svg">
<g clip-path="url(#clip0_23_33)">
<path fill-rule="evenodd" clip-rule="evenodd" d="M-288 -42.5V238H7.50001H303V-42.5V-323H7.50001H-288V-42.5ZM200.656 -44.5524V186.005H6.05855H-188.539V-44.5524V-275.11H6.05855H200.656V-44.5524ZM-129.814 -245.007C-130.252 -243.878 -131.326 -239.286 -132.199 -234.803C-134.439 -223.299 -135.898 -222.685 -140.189 -231.437L-143.825 -238.85L-143.839 -228.246C-143.848 -222.413 -144.469 -217.641 -145.222 -217.641C-145.974 -217.641 -148.322 -219.797 -150.438 -222.43C-152.554 -225.064 -154.793 -227.22 -155.413 -227.22C-156.404 -227.22 -152.058 -208.555 -150.784 -207.345C-149.408 -206.038 -134.424 -212.101 -131.995 -214.949L-129.197 -218.228L-126.575 -214.928C-124.137 -211.862 -109.842 -206.192 -107.706 -207.444C-107.189 -207.749 -105.982 -211.769 -105.028 -216.379C-104.072 -220.988 -102.933 -225.775 -102.498 -227.016C-102.063 -228.257 -104.324 -226.501 -107.522 -223.115C-112.547 -217.795 -113.478 -217.295 -114.371 -219.444C-114.941 -220.812 -115.058 -225.583 -114.632 -230.048C-114.206 -234.513 -114.281 -238.151 -114.801 -238.133C-115.32 -238.115 -117.217 -234.926 -119.014 -231.044C-123.084 -222.262 -124.59 -223.354 -127.124 -236.921C-128.165 -242.496 -129.376 -246.136 -129.814 -245.007ZM-55.6029 -242.877C-58.2956 -241.087 -58.8073 -239.464 -58.8073 -232.713C-58.8073 -221.292 -57.4581 -220.378 -40.5915 -220.378C-22.3051 -220.378 -21.3293 -220.966 -21.3293 -231.978C-21.3293 -239.489 -21.7891 -241.053 -24.5336 -242.877C-29.0209 -245.861 -51.1156 -245.861 -55.6029 -242.877ZM39.6245 -242.75C37.8702 -242.388 34.464 -240.347 32.0568 -238.212C26.8041 -233.555 26.2996 -227.887 30.6687 -222.615L33.6554 -219.01H29.2949C24.4603 -219.01 17.5903 -216.472 17.5903 -214.685C17.5903 -214.054 29.7533 -213.541 44.6177 -213.546C69.1644 -213.554 72.0415 -213.805 75.9695 -216.273L80.2939 -218.992L71.4044 -219L62.5149 -219.01L65.5045 -224.19C68.1972 -228.856 68.2923 -229.762 66.466 -233.303C63.3971 -239.252 57.6471 -242.603 49.7695 -243.03C45.9453 -243.237 41.3802 -243.111 39.6245 -242.75ZM143.238 -240.5C142.326 -238.397 141.187 -235.195 140.709 -233.384C139.949 -230.513 138.885 -230.038 132.409 -229.681L124.979 -229.272L130.367 -225.851C133.33 -223.97 135.763 -221.958 135.773 -221.381C135.782 -220.804 132.482 -214.758 128.437 -207.95C124.394 -201.14 121.348 -195.319 121.668 -195.014C121.99 -194.71 127.067 -199.06 132.949 -204.682C138.833 -210.305 144.193 -214.905 144.86 -214.905C145.527 -214.905 148.413 -213.212 151.273 -211.142L156.472 -207.379L155.535 -211.484C155.021 -213.742 154.208 -216.885 153.729 -218.471C153.045 -220.739 154.17 -222.265 159.024 -225.654L165.187 -229.956H157.317H149.447L147.172 -237.14L144.897 -244.323L143.238 -240.5ZM50.4412 -235.904C52.256 -234.816 54.793 -231.832 56.0802 -229.271C58.8593 -223.74 56.9927 -220.378 51.1446 -220.378C45.9424 -220.378 37.7707 -228.586 37.7707 -233.811C37.7707 -239.846 42.5434 -240.634 50.4412 -235.904ZM-28.5366 -232.009V-227.22H-40.0683H-51.6V-232.009V-236.798H-40.0683H-28.5366V-232.009ZM-54.4829 -217.245C-57.6484 -215.73 -58.1385 -214.505 -58.5118 -207.162C-59.1201 -195.173 -57.9381 -194.38 -39.4211 -194.38C-28.3823 -194.38 -24.1315 -194.877 -22.8745 -196.314C-21.8597 -197.474 -21.3581 -201.694 -21.6175 -206.884C-21.9995 -214.522 -22.4666 -215.719 -25.6536 -217.245C-27.6357 -218.193 -34.1222 -218.97 -40.0683 -218.97C-46.0143 -218.97 -52.5009 -218.193 -54.4829 -217.245ZM-28.5366 -206.011V-201.222H-40.0683H-51.6V-206.011V-210.8H-40.0683H-28.5366V-206.011ZM-143.854 -206.215C-147.29 -204.987 -149.054 -203.406 -149.386 -201.258C-149.81 -198.511 -149.438 -198.234 -146.503 -199.115C-132.567 -203.298 -126.17 -203.313 -112.701 -199.196C-107.911 -197.731 -107.088 -202.073 -111.621 -204.893C-116.474 -207.912 -136.772 -208.743 -143.854 -206.215ZM19.0317 -206.011C15.8173 -204.266 18.5445 -204.054 44.2573 -204.05C67.3798 -204.046 73.6401 -204.443 75.8845 -206.055C78.3753 -207.843 75.6019 -208.058 50.6589 -208.016C29.083 -207.977 21.8065 -207.516 19.0317 -206.011ZM20.8335 -196.816C19.049 -195.999 17.5903 -194.809 17.5903 -194.171C17.5903 -193.534 29.7533 -193.016 44.6177 -193.022C69.1644 -193.03 72.0415 -193.28 75.9695 -195.749L80.2939 -198.468L52.1854 -198.384C35.117 -198.333 22.8026 -197.716 20.8335 -196.816ZM150.216 -156.283C145.813 -150.157 145.033 -149.615 143.743 -151.781C141.618 -155.35 136.237 -161.541 135.26 -161.541C132.909 -161.541 129.768 -152.461 130.45 -147.636C131.278 -141.774 130.709 -141.399 125.864 -144.62C123.048 -146.493 122.3 -146.548 121.24 -144.962C118.164 -140.351 122.36 -130.576 127.99 -129.233C133.628 -127.891 136.511 -130.198 136.511 -136.053C136.511 -139.79 137.109 -141.018 138.931 -141.018C140.262 -141.017 142.306 -141.923 143.472 -143.031C145.34 -144.805 145.804 -144.805 147.355 -143.031C148.324 -141.923 150.247 -141.017 151.628 -141.017C153.581 -141.017 154.101 -139.92 153.973 -136.069C153.778 -130.213 156.634 -127.877 162.329 -129.233C167.959 -130.576 172.155 -140.351 169.079 -144.962C168.02 -146.548 167.272 -146.493 164.455 -144.62C159.744 -141.488 158.701 -141.827 160.354 -145.955C161.483 -148.773 161.092 -150.973 158.505 -156.387L155.224 -163.249L150.216 -156.283ZM-142.823 -151.089L-154.043 -144.784L-153.634 -131.796L-153.223 -118.808L-142.242 -112.791L-131.261 -106.773L-119.539 -113.03L-107.817 -119.287V-132.021V-144.753L-119.316 -151.095C-125.639 -154.582 -130.991 -157.427 -131.208 -157.416C-131.424 -157.404 -136.651 -154.558 -142.823 -151.089ZM29.4823 -155.162L23.3561 -153.103V-129.842C23.3561 -111.768 23.7583 -106.74 25.1579 -107.291C26.1497 -107.681 29.393 -108.754 32.3653 -109.674L37.7707 -111.348V-127.323C37.7707 -136.109 38.1585 -143.666 38.6327 -144.115C39.107 -144.565 40.4101 -144.599 41.5301 -144.192C43.1921 -143.587 43.4141 -140.411 42.7366 -126.84C42.2797 -117.705 42.4887 -109.438 43.1993 -108.469C44.23 -107.067 45.8602 -107.267 51.2225 -109.448L57.9512 -112.186V-128.653C57.9512 -142.38 58.3116 -145.122 60.1134 -145.122C61.3026 -145.122 62.3102 -144.659 62.3535 -144.096C62.5553 -141.413 63.2328 -124.302 63.4605 -116.069L63.7171 -106.855L70.564 -109.407L77.411 -111.959L77.8103 -132.929C78.0308 -144.464 77.8896 -154.693 77.4975 -155.663C76.9497 -157.018 74.6102 -156.674 67.3683 -154.18C58.8579 -151.246 57.9512 -151.16 57.9512 -153.273C57.9512 -157.147 56.6222 -157.326 48.2358 -154.586C38.2522 -151.327 37.7707 -151.331 37.7707 -154.7C37.7707 -157.876 37.5877 -157.885 29.4823 -155.162ZM-71.0367 -150.937C-75.142 -141.159 -89.078 -104.807 -89.078 -103.872C-89.078 -103.23 -81.9442 -102.705 -73.2263 -102.705H-57.3745L-55.4559 -107.152L-53.5359 -111.599L-63.8438 -112.283L-74.1517 -112.967L-66.4874 -132.807C-62.2726 -143.719 -58.8203 -152.801 -58.8145 -152.99C-58.8102 -153.178 -61.3328 -153.332 -64.4189 -153.332C-68.419 -153.332 -70.3188 -152.645 -71.0367 -150.937ZM-55.2109 -151.621C-55.5626 -150.68 -58.7151 -142.632 -62.2178 -133.734C-68.9956 -116.516 -68.9293 -115.734 -60.7547 -116.627C-56.9781 -117.04 -56.2098 -118.275 -49.8429 -134.176C-46.0749 -143.583 -42.9829 -151.742 -42.9714 -152.305C-42.9354 -154.087 -54.5334 -153.438 -55.2109 -151.621ZM-39.3548 -151.621C-39.7065 -150.68 -42.859 -142.632 -46.3617 -133.734C-53.1438 -116.508 -53.076 -115.737 -44.8741 -116.627C-41.0629 -117.042 -40.3349 -118.219 -34.0127 -134.176C-30.2851 -143.583 -27.2047 -151.742 -27.1657 -152.305C-27.0432 -154.09 -38.6773 -153.437 -39.3548 -151.621ZM-23.5232 -151.621C-28.9171 -137.687 -35.7439 -118.689 -35.7439 -117.611C-35.7439 -116.845 -33.3395 -116.412 -30.3716 -116.648L-24.9978 -117.072L-18.1883 -134.176C-14.4434 -143.583 -11.3471 -151.742 -11.3082 -152.305C-11.1871 -154.088 -22.8212 -153.437 -23.5232 -151.621ZM-123.507 -146.957C-119.634 -144.956 -116.466 -142.868 -116.466 -142.317C-116.466 -140.99 -129.798 -125.966 -130.976 -125.966C-131.479 -125.966 -135.229 -129.61 -139.31 -134.065L-146.731 -142.162L-139.166 -146.349C-135.006 -148.651 -131.365 -150.549 -131.075 -150.565C-130.787 -150.581 -127.381 -148.957 -123.507 -146.957ZM-138.088 -123.783C-138.088 -123.478 -140.358 -123.229 -143.133 -123.229C-148.167 -123.229 -148.178 -123.243 -148.178 -129.517V-135.803L-143.133 -130.071C-140.358 -126.918 -138.088 -124.089 -138.088 -123.783ZM-113.583 -129.387V-123.229H-119.45H-125.316L-119.81 -129.341C-116.782 -132.703 -114.142 -135.474 -113.943 -135.499C-113.744 -135.523 -113.583 -132.773 -113.583 -129.387ZM135.43 -128.795C127.411 -121.085 126.337 -115.932 132.22 -113.389C135.294 -112.059 136.511 -112.275 140.09 -114.786C142.418 -116.419 144.699 -117.756 145.16 -117.756C145.621 -117.756 147.901 -116.419 150.229 -114.786C153.809 -112.275 155.025 -112.059 158.1 -113.389C164.08 -115.975 162.921 -121.119 154.61 -128.886C150.691 -132.547 146.313 -135.507 144.88 -135.462C143.449 -135.417 139.196 -132.416 135.43 -128.795ZM-127.998 -117.822L-122.952 -117.659L-126.556 -115.704C-131.336 -113.109 -132.829 -113.179 -136.728 -116.176L-140.014 -118.702L-136.528 -118.343C-134.611 -118.146 -130.772 -117.911 -127.998 -117.822ZM128.605 -72.9445C128.584 -68.882 128.178 -68.4811 123.898 -68.3115C120.511 -68.176 120.111 -67.9612 122.457 -67.5316C126.457 -66.8009 126.543 -65.542 122.817 -62.3402C118.445 -58.5843 119.316 -57.3514 126.014 -57.8153C131.567 -58.1984 132.217 -58.6431 133.506 -62.9341C134.542 -66.3808 134.458 -67.7792 133.191 -68.1801C132.243 -68.4798 131.456 -69.7523 131.444 -71.0056C131.431 -72.2604 130.793 -74.2102 130.024 -75.339C128.963 -76.8961 128.622 -76.3187 128.605 -72.9445ZM-146.737 -47.2124V-21.9756H-141.691H-136.646V-38.3951V-54.8146H-131.601H-126.556V-38.3951V-21.9756H-115.745H-104.934V-30.8695V-39.7634H-109.907H-114.88L-115.313 -47.6311C-115.741 -55.4098 -115.798 -55.5043 -120.43 -55.9271L-125.115 -56.3567V-64.4036V-72.4506H-135.926H-146.737V-47.2124ZM-47.9171 -68.5605C-55.2397 -63.9781 -56.5298 -59.9881 -57.115 -40.1055C-57.5835 -24.1963 -57.3659 -21.9756 -55.3449 -21.9756C-53.3471 -21.9756 -53.0415 -24.4481 -53.0415 -40.5844V-59.1932L-48.1405 -63.8454C-42.3372 -69.3541 -36.1403 -69.9685 -28.8609 -65.7555C-17.211 -59.0126 -20.2828 -41.6653 -33.5817 -39.0957L-37.9061 -38.2597L-33.4592 -40.219C-22.2633 -45.1517 -19.7206 -54.9296 -27.6717 -62.4771C-34.5734 -69.0285 -42.758 -68.5208 -49.0457 -61.1539C-51.1214 -58.7211 -51.5409 -55.2142 -51.5683 -40.1055C-51.587 -28.9115 -51.0479 -21.9756 -50.1585 -21.9756C-49.3513 -21.9756 -48.7171 -25.7247 -48.7171 -30.4877V-38.9999L-39.669 -30.4877C-34.6931 -25.8068 -29.6811 -21.9756 -28.5322 -21.9756C-27.382 -21.9756 -31.6155 -26.9849 -37.9392 -33.108C-44.2644 -39.2311 -48.4648 -43.7287 -47.2756 -43.1034C-46.0864 -42.4781 -40.6708 -37.4688 -35.2408 -31.971C-29.0123 -25.6645 -24.2439 -21.9756 -22.3224 -21.9756C-19.7523 -21.9756 -20.3649 -23.0251 -26.2288 -28.6761C-32.5712 -34.7897 -32.923 -35.456 -30.2274 -36.2674C-28.6029 -36.7573 -25.2861 -39.305 -22.8601 -41.9294C-19.1743 -45.9125 -18.4463 -47.8473 -18.4463 -53.6543C-18.4463 -59.9088 -19.0099 -61.1443 -24.0421 -65.9224C-29.0151 -70.6417 -30.4206 -71.2328 -36.6549 -71.2246C-41.1696 -71.2191 -45.1855 -70.2681 -47.9171 -68.5605ZM135.911 -63.4951C135.111 -60.7434 134.796 -57.9726 135.209 -57.3378C136.184 -55.8408 148.364 -55.8299 149.337 -57.3255C149.747 -57.9535 149.352 -60.7243 148.459 -63.4828C147.022 -67.927 146.3 -68.4976 142.102 -68.4976C137.879 -68.4976 137.21 -67.9571 135.911 -63.4951ZM150.534 -63.0244C151.962 -57.6839 152.149 -57.5512 158.309 -57.5512C161.78 -57.5512 164.601 -58.0137 164.578 -58.5774C164.467 -61.2689 155.695 -68.4976 152.54 -68.4976C149.209 -68.4976 149.128 -68.2786 150.534 -63.0244ZM41.5834 -55.4988L30.3703 -43.8683H22.0689C15.2565 -43.8683 13.2068 -43.3005 10.6337 -40.7021C8.90976 -38.9602 7.50001 -37.113 7.50001 -36.5972C7.50001 -36.08 13.3235 -35.6585 20.44 -35.6585H33.3815L45.1438 -47.289L56.9076 -58.9195H65.1067C71.8124 -58.9195 73.8751 -59.4956 76.4394 -62.0857C78.1634 -63.8276 79.5732 -65.6748 79.5732 -66.1906C79.5732 -66.7078 73.5479 -67.1293 66.1849 -67.1293H52.7966L41.5834 -55.4988ZM-29.6177 -60.5984C-26.0587 -57.632 -26.2792 -49.0979 -29.9968 -45.9043C-34.3832 -42.136 -41.3152 -42.6929 -45.3412 -47.1372C-49.3095 -51.5171 -49.5747 -54.411 -46.4006 -58.7129C-42.1368 -64.4912 -35.2206 -65.2684 -29.6177 -60.5984ZM-44.3927 -58.9195C-50.1643 -53.4409 -45.7621 -44.781 -37.2055 -44.781C-31.7049 -44.781 -28.5366 -48.0074 -28.5366 -53.6105C-28.5366 -61.2059 -38.4769 -64.535 -44.3927 -58.9195ZM-32.9186 -56.9328C-29.0886 -52.5529 -34.7132 -45.8249 -39.7079 -48.8106C-44.6983 -51.7948 -42.9209 -58.9195 -37.1854 -58.9195C-35.7943 -58.9195 -33.8743 -58.026 -32.9186 -56.9328ZM43.1849 -41.6941C35.0536 -33.7265 28.185 -26.6456 27.9212 -25.9587C27.656 -25.2732 29.8542 -24.7122 32.8035 -24.7122C37.6252 -24.7122 39.2338 -25.7836 48.7187 -35.3165L59.2702 -45.9207L59.3307 -35.5723C59.3884 -26.0572 59.7185 -24.9284 63.436 -21.5473C65.6587 -19.525 67.7676 -17.8707 68.1207 -17.8707C69.1831 -17.8721 69.7871 -50.3827 68.7809 -53.3916C68.0804 -55.4851 66.613 -56.1829 62.9084 -56.1829C58.5249 -56.1829 56.3036 -54.5505 43.1849 -41.6941ZM119.934 -54.8338C119.934 -52.8115 136.015 -32.6784 136.933 -33.5514C137.759 -34.3354 133.021 -52.2778 131.633 -53.6228C129.882 -55.3195 119.934 -56.3485 119.934 -54.8338ZM156.967 -55.195C154.74 -54.8776 152.628 -53.8924 152.275 -53.0057C149.728 -46.6186 146.299 -32.9219 147.247 -32.9219C148.477 -32.9219 162.888 -51.1367 164.173 -54.3166C164.935 -56.2007 164.439 -56.2609 156.967 -55.195ZM134.996 -51.0518C138.402 -37.6918 141.948 -28.4599 142.982 -30.2593C144.008 -32.0476 150.205 -52.5392 150.205 -54.1455C150.205 -54.5136 146.567 -54.8146 142.121 -54.8146H134.036L134.996 -51.0518ZM-44.3422 20.3512C-46.5462 24.2604 -46.3041 24.5463 -40.789 24.5463C-35.692 24.5463 -35.0289 23.802 -36.6189 19.8695C-37.834 16.8647 -42.5418 17.1589 -44.3422 20.3512ZM-143.133 20.6659C-147.725 23.0713 -154.026 29.0179 -156.234 33.0298C-159.146 38.3196 -158.813 50.2976 -155.597 56.039C-154.127 58.6606 -150.212 62.6314 -146.897 64.8617C-139.289 69.9819 -128.955 70.3746 -119.855 65.8907C-114.81 63.4045 -107.817 55.7872 -107.817 52.7769C-107.817 50.574 -121.257 52.0627 -124.721 54.6488C-133.652 61.3165 -146.737 54.3792 -146.737 42.9759C-146.737 41.141 -144.853 37.6382 -142.549 35.1917C-139.067 31.4932 -137.384 30.768 -132.564 30.887C-129.018 30.976 -125.25 32.1636 -122.863 33.9465L-118.96 36.861H-126.859C-138.049 36.861 -143.27 42.8021 -136.893 48.2794C-132.854 51.7494 -106.353 51.5633 -102.995 48.0413C-101.684 46.6648 -100.61 44.6055 -100.61 43.4643C-100.61 41.1054 -105.054 36.861 -107.524 36.861C-108.428 36.861 -108.822 36.0044 -108.398 34.9577C-107.344 32.3497 -116.097 23.1849 -121.802 20.9217C-127.389 18.7065 -139.121 18.5655 -143.133 20.6659ZM26.9035 22.836C26.4466 24.9048 25.4621 29.1807 24.714 32.336C22.7507 40.6306 23.0448 47.2258 25.4621 49.1305C26.6196 50.0431 30.2218 51.1282 33.4665 51.5414C37.6252 52.0709 39.1473 52.8372 38.6212 54.1384C38.2104 55.1537 37.4363 59.119 36.9015 62.9516L35.9271 69.9189L40.054 69.4674C43.6418 69.0747 44.3395 68.2551 45.386 63.2006C46.9485 55.6504 49.6974 55.7954 51.8812 63.5427C53.4495 69.1075 54.0319 69.7 57.9455 69.7C62.7643 69.7 63.0093 68.9242 60.6006 61.2891C59.1145 56.5808 59.2529 55.6367 61.8273 52.9206C68.4609 45.9245 66.7124 39.1912 57.5894 36.5969L51.9375 34.9891L52.8975 28.9084C53.4265 25.5643 54.2005 21.9835 54.6171 20.9505C55.1706 19.5835 54.0261 19.0732 50.4081 19.0732H45.4393L43.5827 28.9933C40.9564 43.0224 39.9459 45.0707 35.6446 45.0707C31.362 45.0707 31.2452 43.9939 34.1671 31.3878C36.9823 19.2415 36.952 19.0732 32.0323 19.0732C28.5079 19.0732 27.5854 19.7491 26.9035 22.836ZM96.3907 19.9858C95.8617 20.4866 95.4293 27.5675 95.4293 35.7212V50.5439H101.916H108.402V40.9659V31.3878H127.862H147.322V25.2305V19.0732H122.337C108.594 19.0732 96.9183 19.4837 96.3907 19.9858ZM-46.5635 27.2952C-47.0565 28.0546 -47.0522 29.9018 -46.5505 31.4001C-45.2633 35.2491 -36.4632 35.2204 -34.2866 31.3591C-33.4289 29.8389 -33.1204 27.9917 -33.6004 27.2542C-34.7493 25.4891 -45.4089 25.5219 -46.5635 27.2952ZM-26.014 26.971C-28.9978 27.5771 -29.1924 28.773 -26.7347 31.3906C-25.2227 32.9997 -25.3639 32.9969 -27.6112 31.3741C-29.9723 29.6678 -30.5316 29.7527 -32.3276 32.0843C-33.4491 33.5401 -34.0271 35.5173 -33.6134 36.4792C-33.1997 37.4425 -32.4329 39.2363 -31.911 40.4678C-31.2581 42.0057 -31.5838 42.5107 -32.9518 42.0769C-34.0473 41.7307 -35.3129 39.9602 -35.7655 38.1417C-36.3248 35.8909 -36.9418 35.3791 -37.6956 36.5381C-38.3875 37.6012 -40.2023 37.9064 -42.5332 37.3508C-45.3743 36.6735 -45.9884 36.8856 -45.1076 38.2375C-44.3869 39.3444 -44.9318 40.6936 -46.5563 41.8197C-48.929 43.4671 -48.9477 43.7038 -46.7754 44.4947C-45.4651 44.9722 -44.3927 46.6046 -44.3927 48.1207C-44.3927 50.418 -44.0309 50.5945 -42.2305 49.1756C-40.505 47.8169 -39.6315 47.8169 -37.9061 49.1756C-36.1014 50.5973 -35.7439 50.4071 -35.7439 48.0235C-35.7439 44.8655 -31.8649 42.3341 -27.0259 42.3341C-24.3924 42.3341 -23.983 41.7034 -24.4875 38.4345C-25.0886 34.5499 -25.0699 34.5403 -19.4164 35.7458C-16.2957 36.4108 -13.5266 36.7515 -13.2643 36.5025C-13.0019 36.2535 -13.9951 34.1654 -15.4697 31.8626C-18.2085 27.5894 -21.5138 26.0542 -26.014 26.971ZM-64.3224 30.4492C-68.9855 35.1629 -68.4103 37.2714 -62.7713 36.133C-60.1954 35.6131 -56.9262 34.2161 -55.5064 33.027C-53.0458 30.965 -53.0285 31.0512 -55.1373 34.8893C-58.2365 40.5307 -57.9165 42.3341 -53.8126 42.3341C-47.6172 42.3341 -45.37 35.2601 -49.9668 30.2289C-53.582 26.2731 -60.2906 26.3757 -64.3224 30.4492ZM154.529 46.361V56.0171H134.27H114.01L114.449 62.5165L114.889 69.0159L139.685 69.3894C169.313 69.8368 167.812 70.8466 167.194 50.8832L166.782 37.5451L160.656 37.125L154.529 36.7036V46.361ZM-129.658 40.8085C-126.739 42.564 -128.289 47.0616 -131.983 47.561C-135.472 48.0331 -137.523 45.1077 -136.125 41.65C-135.203 39.3691 -132.612 39.0311 -129.658 40.8085ZM-134.213 41.8498C-136.254 43.7859 -135.1 46.439 -132.217 46.439C-130.202 46.439 -129.38 45.6961 -129.694 44.1581C-130.209 41.6391 -132.669 40.383 -134.213 41.8498ZM57.1008 44.5604C58.3419 47.6295 55.4344 50.5439 51.1345 50.5439C48.4606 50.5439 47.7745 49.9952 48.4275 48.3793C48.9089 47.1888 49.3025 45.3417 49.3025 44.2744C49.3025 41.5597 55.9865 41.8046 57.1008 44.5604ZM-57.2649 45.4128C-57.2087 46.3542 -56.6566 48.3546 -56.0382 49.8584C-55.2728 51.7206 -55.6289 53.0903 -57.1554 54.1494C-58.9601 55.4014 -59.1287 56.7149 -58.0203 60.8882C-56.3871 67.0414 -53.5488 68.4467 -51.7384 63.9997C-50.8101 61.7174 -51.0868 59.8291 -52.7128 57.3854C-54.8159 54.2219 -54.8072 54.1042 -52.609 55.8146C-50.5362 57.4264 -50.0101 57.2061 -48.521 54.1042C-46.1095 49.0798 -48.8021 43.7024 -53.7319 43.7024C-55.7327 43.7024 -57.3197 44.4714 -57.2649 45.4128ZM-32.1561 46.9549C-33.9911 49.6135 -34.0876 50.8641 -32.6793 53.7964C-31.7323 55.7708 -30.4854 57.3854 -29.9103 57.3854C-28.5279 57.3854 -24.2122 48.6789 -24.2122 45.8903C-24.2122 42.538 -29.6061 43.2605 -32.1561 46.9549ZM-47.2756 56.0185C-49.2634 60.5735 -47.8565 63.4332 -42.8936 64.9288C-40.4258 65.6717 -31.4195 62.355 -31.4195 60.7035C-31.4195 60.308 -32.4098 58.1694 -33.6192 55.9487C-35.3907 52.6962 -36.7573 51.9122 -40.6506 51.9122C-44.6622 51.9122 -45.7895 52.61 -47.2756 56.0185ZM-27.6717 56.6834C-31.5218 62.262 -28.6735 70.1994 -24.5971 65.2531C-22.1437 62.2756 -21.5714 57.5933 -23.3776 55.2495C-24.9459 53.2148 -25.3754 53.3571 -27.6717 56.6834ZM-5.60577 91.9799C-10.9147 95.376 -57.7507 156.941 -56.4938 158.872C-55.2959 160.711 -33.6898 160.221 -31.1817 158.297C-29.955 157.357 -25.8814 152.43 -22.1307 147.351C-18.38 142.272 -14.8802 138.124 -14.3555 138.135C-13.8308 138.147 -10.2141 142.738 -6.31786 148.337C-2.42158 153.938 1.68515 158.854 2.80949 159.263C6.17675 160.489 27.4484 160.103 28.296 158.801C28.7284 158.136 27.9054 156.135 26.4653 154.354C25.0268 152.571 18.4479 143.543 11.846 134.292C3.62392 122.766 0.311426 117.025 1.32622 116.062C2.34245 115.097 6.11333 119.317 13.3005 129.463C27.0405 148.86 33.7318 157.725 35.561 158.961C37.5718 160.318 60.481 160.288 61.3675 158.926C62.5221 157.154 16.5841 95.2775 11.6341 91.9348C5.83223 88.0173 0.566579 88.031 -5.60577 91.9799Z" fill="white"/>
</g>
<defs>
<clipPath id="clip0_23_33">
<rect width="88" height="88" fill="white"/>
</clipPath>
</defs>
</svg>
