<svg width="88" height="88" viewBox="0 0 88 88" fill="none" xmlns="http://www.w3.org/2000/svg">
<g clip-path="url(#clip0_23_26)">
<path fill-rule="evenodd" clip-rule="evenodd" d="M-96 44V296H161H418V44V-208H161H-96V44ZM328.99 42.1561V249.288H159.746H-9.49756V42.1561V-164.976H159.746H328.99V42.1561ZM41.5765 -137.932C41.1954 -136.918 40.2614 -132.792 39.5017 -128.764C37.5535 -118.429 36.2848 -117.877 32.5527 -125.74L29.3909 -132.4L29.3784 -122.873C29.3709 -117.633 28.8305 -113.346 28.1761 -113.346C27.5217 -113.346 25.4795 -115.282 23.6391 -117.649C21.7988 -120.015 19.8518 -121.951 19.3128 -121.951C18.4503 -121.951 22.23 -105.183 23.3383 -104.096C24.5355 -102.922 37.5673 -108.369 39.6797 -110.927L42.1131 -113.874L44.3935 -110.909C46.5134 -108.154 58.9459 -103.06 60.8039 -104.185C61.2539 -104.459 62.3032 -108.07 63.1331 -112.212C63.9643 -116.353 64.9547 -120.653 65.3333 -121.768C65.7119 -122.883 63.7449 -121.306 60.9643 -118.263C56.5941 -113.484 55.7842 -113.035 55.0069 -114.965C54.5117 -116.195 54.4102 -120.481 54.78 -124.492C55.1511 -128.503 55.0859 -131.772 54.6333 -131.756C54.182 -131.74 52.5322 -128.874 50.9689 -125.387C47.4298 -117.498 46.1197 -118.479 43.9158 -130.667C43.0107 -135.676 41.9576 -138.946 41.5765 -137.932ZM106.119 -136.018C103.777 -134.41 103.332 -132.952 103.332 -126.887C103.332 -116.626 104.505 -115.805 119.174 -115.805C135.078 -115.805 135.927 -116.333 135.927 -126.227C135.927 -132.974 135.527 -134.379 133.14 -136.018C129.237 -138.699 110.021 -138.699 106.119 -136.018ZM188.939 -135.903C187.413 -135.579 184.451 -133.745 182.357 -131.827C177.789 -127.643 177.35 -122.551 181.15 -117.815L183.748 -114.576H179.955C175.751 -114.576 169.776 -112.295 169.776 -110.69C169.776 -110.123 180.354 -109.662 193.282 -109.667C214.63 -109.675 217.133 -109.899 220.549 -112.117L224.31 -114.56L216.578 -114.567L208.847 -114.576L211.447 -119.23C213.789 -123.421 213.872 -124.235 212.283 -127.417C209.614 -132.761 204.614 -135.772 197.762 -136.155C194.436 -136.341 190.466 -136.228 188.939 -135.903ZM279.053 -133.882C278.26 -131.993 277.269 -129.117 276.853 -127.489C276.192 -124.91 275.267 -124.484 269.635 -124.163L263.173 -123.795L267.859 -120.722C270.436 -119.032 272.552 -117.225 272.561 -116.706C272.568 -116.187 269.698 -110.756 266.181 -104.639C262.664 -98.5214 260.015 -93.2921 260.294 -93.0179C260.573 -92.745 264.988 -96.6529 270.105 -101.704C275.222 -106.755 279.883 -110.888 280.464 -110.888C281.044 -110.888 283.554 -109.367 286.041 -107.507L290.563 -104.127L289.748 -107.815C289.301 -109.843 288.594 -112.667 288.177 -114.091C287.582 -116.129 288.561 -117.5 292.782 -120.545L298.143 -124.41H291.298H284.453L282.474 -130.863L280.496 -137.317L279.053 -133.882ZM198.346 -129.753C199.925 -128.776 202.131 -126.095 203.251 -123.794C205.668 -118.825 204.044 -115.805 198.958 -115.805C194.434 -115.805 187.327 -123.179 187.327 -127.873C187.327 -133.295 191.478 -134.003 198.346 -129.753ZM129.659 -126.254V-121.951H119.629H109.6V-126.254V-130.556H119.629H129.659V-126.254ZM107.093 -112.99C104.34 -111.629 103.913 -110.529 103.589 -103.931C103.06 -93.1605 104.088 -92.4488 120.192 -92.4488C129.793 -92.4488 133.49 -92.895 134.583 -94.1857C135.465 -95.2282 135.902 -99.0192 135.676 -103.682C135.344 -110.544 134.938 -111.619 132.166 -112.99C130.442 -113.842 124.801 -114.54 119.629 -114.54C114.458 -114.54 108.816 -113.842 107.093 -112.99ZM129.659 -102.898V-98.5951H119.629H109.6V-102.898V-107.2H119.629H129.659V-102.898ZM29.3659 -103.081C26.3771 -101.978 24.8427 -100.557 24.5543 -98.6271C24.1857 -96.1599 24.5092 -95.9104 27.0616 -96.702C39.182 -100.46 44.7457 -100.473 56.4599 -96.7746C60.6258 -95.4593 61.3417 -99.3597 57.3989 -101.893C53.1778 -104.605 35.5251 -105.352 29.3659 -103.081ZM171.029 -102.898C168.234 -101.33 170.606 -101.14 192.968 -101.136C213.078 -101.132 218.523 -101.489 220.475 -102.937C222.641 -104.544 220.229 -104.737 198.536 -104.698C179.771 -104.664 173.443 -104.25 171.029 -102.898ZM172.596 -94.6369C171.044 -93.903 169.776 -92.8335 169.776 -92.2607C169.776 -91.6879 180.354 -91.2232 193.282 -91.2281C214.63 -91.2355 217.133 -91.4604 220.549 -93.678L224.31 -96.1206L199.863 -96.0456C185.019 -96.0001 174.309 -95.4457 172.596 -94.6369ZM285.122 -58.2223C281.292 -52.7188 280.614 -52.232 279.492 -54.178C277.644 -57.3839 272.964 -62.9463 272.114 -62.9463C270.07 -62.9463 267.338 -54.7889 267.931 -50.4533C268.652 -45.1871 268.156 -44.8503 263.943 -47.744C261.493 -49.4268 260.843 -49.476 259.921 -48.0513C257.246 -43.9087 260.895 -35.1268 265.792 -33.9209C270.695 -32.7149 273.202 -34.7875 273.202 -40.0475C273.202 -43.4047 273.723 -44.5086 275.307 -44.5086C276.464 -44.5073 278.242 -45.3211 279.256 -46.3168C280.881 -47.9099 281.285 -47.9099 282.634 -46.3168C283.476 -45.3211 285.149 -44.5073 286.35 -44.5073C288.048 -44.5073 288.501 -43.5214 288.389 -40.0623C288.22 -34.801 290.704 -32.7027 295.657 -33.9209C300.554 -35.1268 304.203 -43.9087 301.528 -48.0513C300.606 -49.476 299.955 -49.4268 297.506 -47.744C293.409 -44.9302 292.501 -45.235 293.939 -48.9437C294.921 -51.4748 294.581 -53.4515 292.331 -58.3157L289.477 -64.4805L285.122 -58.2223ZM30.2622 -53.556L20.5037 -47.8915L20.8598 -36.2233L21.2171 -24.5551L30.7674 -19.1487L40.3178 -13.7424L50.5126 -19.3639L60.7073 -24.9853V-36.4249V-47.8632L50.7069 -53.5609C45.2071 -56.6943 40.5523 -59.2499 40.3642 -59.2401C40.1762 -59.229 35.6304 -56.6722 30.2622 -53.556ZM180.118 -57.2155L174.79 -55.3654V-34.4679C174.79 -18.2305 175.14 -13.7129 176.357 -14.2083C177.22 -14.5587 180.041 -15.5224 182.626 -16.3485L187.327 -17.8531V-32.2048C187.327 -40.0979 187.664 -46.8872 188.077 -47.2904C188.489 -47.6948 189.622 -47.7255 190.596 -47.3592C192.042 -46.8159 192.235 -43.9628 191.646 -31.7709C191.248 -23.5643 191.43 -16.137 192.048 -15.2667C192.944 -14.0067 194.362 -14.1862 199.026 -16.1456L204.878 -18.6054V-33.3997C204.878 -45.7317 205.191 -48.1951 206.759 -48.1951C207.793 -48.1951 208.669 -47.7796 208.707 -47.2732C208.882 -44.8626 209.471 -29.4906 209.67 -22.0941L209.893 -13.8162L215.848 -16.1088L221.802 -18.4013L222.15 -37.2411C222.342 -47.6038 222.219 -56.7939 221.878 -57.6654C221.401 -58.8824 219.367 -58.5738 213.068 -56.3329C205.667 -53.6973 204.878 -53.6199 204.878 -55.5179C204.878 -58.9979 203.722 -59.159 196.428 -56.698C187.746 -53.7699 187.327 -53.7735 187.327 -56.8C187.327 -59.6531 187.168 -59.6617 180.118 -57.2155ZM92.6957 -53.4195C89.1253 -44.6352 77.0049 -11.976 77.0049 -11.1364C77.0049 -10.5598 83.2092 -10.0878 90.7914 -10.0878H104.578L106.246 -14.0829L107.916 -18.078L98.9514 -18.6927L89.9865 -19.3073L96.6522 -37.1317C100.318 -46.9351 103.32 -55.0938 103.325 -55.2634C103.329 -55.4331 101.135 -55.5707 98.4512 -55.5707C94.9723 -55.5707 93.32 -54.9536 92.6957 -53.4195ZM106.46 -54.0341C106.154 -53.1884 103.412 -45.9579 100.366 -37.9639C94.4709 -22.496 94.5285 -21.7929 101.638 -22.5956C104.923 -22.9668 105.591 -24.0756 111.128 -38.361C114.405 -46.8122 117.094 -54.1423 117.104 -54.6488C117.136 -56.2493 107.049 -55.6666 106.46 -54.0341ZM120.25 -54.0341C119.944 -53.1884 117.202 -45.9579 114.156 -37.9639C108.257 -22.4887 108.316 -21.7954 115.45 -22.5956C118.764 -22.9681 119.397 -24.0252 124.896 -38.361C128.138 -46.8122 130.817 -54.1423 130.851 -54.6488C130.957 -56.2517 120.839 -55.6654 120.25 -54.0341ZM134.019 -54.0341C129.328 -41.5153 123.39 -24.4481 123.39 -23.4794C123.39 -22.7911 125.481 -22.4026 128.063 -22.614L132.736 -22.9951L138.659 -38.361C141.916 -46.8122 144.608 -54.1423 144.642 -54.6488C144.748 -56.2505 134.629 -55.6654 134.019 -54.0341ZM47.0612 -49.8436C50.4298 -48.0464 53.1854 -46.1705 53.1854 -45.6751C53.1854 -44.4827 41.5903 -30.9854 40.566 -30.9854C40.1285 -30.9854 36.8665 -34.2589 33.3174 -38.2614L26.8635 -45.5362L33.4427 -49.2978C37.0608 -51.3654 40.2275 -53.0704 40.4795 -53.0851C40.7303 -53.0999 43.6927 -51.6408 47.0612 -49.8436ZM34.3805 -29.0247C34.3805 -28.7506 32.406 -28.5268 29.9927 -28.5268C25.6149 -28.5268 25.6049 -28.5391 25.6049 -34.1753V-39.8226L29.9927 -34.6732C32.406 -31.8409 34.3805 -29.2988 34.3805 -29.0247ZM55.6927 -34.0585V-28.5268H50.5903H45.4879L50.2769 -34.018C52.9108 -37.0383 55.2063 -39.5275 55.3793 -39.5497C55.5523 -39.5718 55.6927 -37.101 55.6927 -34.0585ZM272.262 -33.5275C265.288 -26.6006 264.354 -21.9711 269.47 -19.6859C272.144 -18.4911 273.202 -18.6853 276.315 -20.941C278.34 -22.4088 280.323 -23.6098 280.724 -23.6098C281.126 -23.6098 283.109 -22.4088 285.134 -20.941C288.246 -18.6853 289.304 -18.4911 291.978 -19.6859C297.18 -22.0092 296.172 -26.6313 288.943 -33.6086C285.535 -36.8981 281.727 -39.5571 280.481 -39.5165C279.236 -39.4759 275.538 -36.7801 272.262 -33.5275ZM43.1561 -23.6688L47.5439 -23.5225L44.4098 -21.7659C40.2526 -19.4352 38.9538 -19.4979 35.5627 -22.1899L32.7056 -24.4592L35.7369 -24.1371C37.4043 -23.9601 40.7428 -23.7487 43.1561 -23.6688ZM266.326 16.6488C266.309 20.2985 265.955 20.6587 262.233 20.8111C259.287 20.9328 258.94 21.1258 260.979 21.5118C264.458 22.1682 264.533 23.2991 261.293 26.1756C257.49 29.55 258.248 30.6575 264.073 30.2408C268.902 29.8966 269.468 29.4971 270.589 25.6421C271.49 22.5456 271.417 21.2893 270.315 20.9291C269.49 20.6599 268.806 19.5167 268.796 18.3907C268.785 17.2634 268.229 15.5117 267.561 14.4976C266.638 13.0987 266.341 13.6174 266.326 16.6488ZM26.8585 39.7664V62.439H31.2463H35.6341V47.6878V32.9366H40.022H44.4098V47.6878V62.439H53.8122H63.2146V54.4488V46.4585H58.8895H54.5644L54.1883 39.3902C53.816 32.4019 53.7658 32.317 49.7378 31.9372L45.6634 31.5512V24.3219V17.0925H36.261H26.8585V39.7664ZM112.803 20.5874C106.435 24.7042 105.312 28.2887 104.803 46.1512C104.396 60.4439 104.585 62.439 106.343 62.439C108.081 62.439 108.346 60.2177 108.346 45.721V29.0029L112.609 24.8234C117.656 19.8744 123.045 19.3224 129.376 23.1074C139.509 29.1652 136.837 44.7499 125.271 47.0584L121.51 47.8095L125.377 46.0492C135.114 41.6177 137.326 32.8333 130.411 26.0527C124.408 20.1669 117.29 20.623 111.821 27.2414C110.016 29.427 109.651 32.5776 109.628 46.1512C109.611 56.2079 110.08 62.439 110.854 62.439C111.556 62.439 112.107 59.0708 112.107 54.7918V47.1445L119.977 54.7918C124.304 58.9971 128.663 62.439 129.662 62.439C130.663 62.439 126.981 57.9387 121.481 52.4377C115.98 46.9367 112.327 42.8961 113.361 43.4579C114.395 44.0197 119.105 48.52 123.828 53.4592C129.245 59.1249 133.392 62.439 135.063 62.439C137.298 62.439 136.766 61.4962 131.666 56.4193C126.15 50.9269 125.844 50.3283 128.188 49.5993C129.601 49.1592 132.486 46.8704 134.595 44.5126C137.801 40.9342 138.434 39.196 138.434 33.979C138.434 28.36 137.944 27.25 133.567 22.9574C129.242 18.7176 128.02 18.1866 122.598 18.194C118.671 18.1989 115.179 19.0532 112.803 20.5874ZM272.681 25.1381C271.985 27.6102 271.711 30.0994 272.07 30.6698C272.918 32.0146 283.511 32.0245 284.358 30.6809C284.714 30.1166 284.37 27.6274 283.594 25.1492C282.344 21.1565 281.716 20.6439 278.065 20.6439C274.392 20.6439 273.81 21.1295 272.681 25.1381ZM285.398 25.561C286.64 30.3588 286.803 30.4781 292.16 30.4781C295.179 30.4781 297.632 30.0626 297.612 29.5561C297.516 27.1381 289.887 20.6439 287.143 20.6439C284.246 20.6439 284.176 20.8406 285.398 25.561ZM190.643 32.322L180.891 42.7707H173.671C167.746 42.7707 165.963 43.2809 163.725 45.6153C162.226 47.1801 161 48.8396 161 49.3031C161 49.7677 166.065 50.1463 172.254 50.1463H183.509L193.739 39.6976L203.97 29.2488H211.101C216.933 29.2488 218.727 28.7313 220.957 26.4043C222.457 24.8394 223.683 23.1799 223.683 22.7165C223.683 22.2518 218.443 21.8732 212.039 21.8732H200.395L190.643 32.322ZM128.718 27.7405C131.814 30.4055 131.622 38.0725 128.389 40.9416C124.574 44.327 118.545 43.8267 115.043 39.834C111.592 35.8991 111.361 33.2992 114.122 29.4344C117.83 24.2432 123.845 23.545 128.718 27.7405ZM115.868 29.2488C110.849 34.1708 114.677 41.9508 122.119 41.9508C126.903 41.9508 129.659 39.0522 129.659 34.0184C129.659 27.1947 121.013 24.2039 115.868 29.2488ZM125.847 31.0337C129.178 34.9686 124.287 41.0129 119.943 38.3306C115.603 35.6496 117.148 29.2488 122.137 29.2488C123.346 29.2488 125.016 30.0515 125.847 31.0337ZM192.036 44.724C184.964 51.8821 178.99 58.2435 178.761 58.8606C178.53 59.4765 180.442 59.9805 183.007 59.9805C187.2 59.9805 188.599 59.018 196.848 50.4537L206.025 40.9268L206.078 50.2238C206.128 58.7721 206.415 59.7863 209.648 62.8238C211.581 64.6407 213.415 66.1268 213.723 66.1268C214.647 66.1256 215.172 36.9182 214.297 34.215C213.688 32.3342 212.411 31.7073 209.189 31.7073C205.377 31.7073 203.445 33.1738 192.036 44.724ZM258.785 32.9194C258.785 34.7362 272.771 52.8237 273.57 52.0394C274.288 51.335 270.167 35.2157 268.96 34.0073C267.437 32.483 258.785 31.5586 258.785 32.9194ZM290.993 32.5949C289.056 32.88 287.22 33.7651 286.912 34.5617C284.697 40.2999 281.715 52.6049 282.54 52.6049C283.609 52.6049 296.143 36.2409 297.26 33.384C297.923 31.6913 297.492 31.6373 290.993 32.5949ZM271.885 36.3171C274.847 48.3197 277.931 56.6135 278.83 54.997C279.723 53.3904 285.112 34.9809 285.112 33.5377C285.112 33.207 281.948 32.9366 278.082 32.9366H271.05L271.885 36.3171ZM115.912 100.465C113.995 103.977 114.206 104.234 119.002 104.234C123.435 104.234 124.012 103.565 122.629 100.033C121.572 97.333 117.478 97.5973 115.912 100.465ZM29.9927 100.748C25.9985 102.909 20.5188 108.251 18.5982 111.856C16.0658 116.608 16.3554 127.369 19.1523 132.527C20.431 134.882 23.836 138.45 26.7194 140.453C33.3362 145.053 42.3237 145.406 50.238 141.378C54.6258 139.144 60.7073 132.301 60.7073 129.596C60.7073 127.617 49.0182 128.955 46.0057 131.278C38.238 137.268 26.8585 131.036 26.8585 120.791C26.8585 119.143 28.4971 115.996 30.5004 113.798C33.5293 110.475 34.9923 109.824 39.1845 109.931C42.2685 110.01 45.5456 111.077 47.6216 112.679L51.0165 115.298H44.1465C34.4143 115.298 29.8736 120.635 35.4198 125.556C38.9325 128.673 61.981 128.506 64.9008 125.342C66.0416 124.105 66.9756 122.255 66.9756 121.23C66.9756 119.111 63.1106 115.298 60.9618 115.298C60.1758 115.298 59.8335 114.528 60.2021 113.588C61.1185 111.245 53.5063 103.011 48.5443 100.978C43.6851 98.9876 33.4816 98.861 29.9927 100.748ZM177.875 102.698C177.478 104.556 176.622 108.398 175.971 111.232C174.264 118.684 174.519 124.609 176.622 126.32C177.629 127.14 180.761 128.115 183.583 128.486C187.2 128.962 188.524 129.651 188.066 130.82C187.709 131.732 187.036 135.294 186.571 138.737L185.723 144.997L189.313 144.591C192.433 144.238 193.04 143.502 193.95 138.961C195.309 132.178 197.7 132.308 199.599 139.268C200.963 144.268 201.469 144.8 204.873 144.8C209.064 144.8 209.277 144.103 207.182 137.244C205.89 133.014 206.01 132.166 208.249 129.725C214.018 123.44 212.498 117.391 204.563 115.06L199.648 113.616L200.483 108.153C200.943 105.149 201.616 101.932 201.978 101.004C202.46 99.7756 201.464 99.3171 198.318 99.3171H193.996L192.382 108.229C190.097 120.833 189.219 122.673 185.478 122.673C181.753 122.673 181.652 121.706 184.193 110.38C186.641 99.4683 186.615 99.3171 182.336 99.3171C179.271 99.3171 178.468 99.9243 177.875 102.698ZM238.309 100.137C237.849 100.587 237.473 106.948 237.473 114.274V127.59H243.115H248.756V118.985V110.38H265.68H282.605V104.849V99.3171H260.875C248.923 99.3171 238.768 99.6859 238.309 100.137ZM113.98 106.704C113.552 107.386 113.555 109.046 113.992 110.392C115.111 113.849 122.765 113.824 124.658 110.355C125.404 108.989 125.672 107.329 125.254 106.667C124.255 105.081 114.984 105.111 113.98 106.704ZM131.852 106.412C129.257 106.957 129.088 108.031 131.226 110.383C132.541 111.829 132.418 111.826 130.463 110.368C128.41 108.835 127.923 108.912 126.361 111.006C125.386 112.314 124.883 114.09 125.243 114.955C125.603 115.82 126.27 117.432 126.724 118.538C127.292 119.92 127.008 120.373 125.819 119.984C124.866 119.673 123.765 118.082 123.371 116.448C122.885 114.426 122.348 113.966 121.693 115.007C121.091 115.963 119.513 116.237 117.486 115.738C115.015 115.129 114.48 115.32 115.246 116.534C115.873 117.529 115.399 118.741 113.987 119.752C111.923 121.232 111.907 121.445 113.796 122.156C114.936 122.585 115.868 124.051 115.868 125.413C115.868 127.477 116.183 127.636 117.749 126.361C119.249 125.14 120.009 125.14 121.51 126.361C123.079 127.638 123.39 127.467 123.39 125.326C123.39 122.489 126.764 120.215 130.972 120.215C133.263 120.215 133.619 119.648 133.18 116.711C132.657 113.221 132.674 113.213 137.59 114.296C140.305 114.893 142.713 115.199 142.941 114.976C143.169 114.752 142.305 112.876 141.023 110.807C138.641 106.968 135.766 105.589 131.852 106.412ZM98.5352 109.537C94.4796 113.772 94.9798 115.666 99.8841 114.644C102.124 114.176 104.968 112.921 106.203 111.853C108.343 110.001 108.358 110.078 106.524 113.526C103.828 118.594 104.106 120.215 107.676 120.215C113.064 120.215 115.018 113.859 111.02 109.339C107.876 105.786 102.042 105.878 98.5352 109.537ZM288.873 123.832V132.507H271.253H253.633L254.015 138.346L254.398 144.185L275.963 144.521C301.731 144.923 300.426 145.83 299.888 127.895L299.529 115.912L294.201 115.535L288.873 115.156V123.832ZM41.7119 118.844C44.2505 120.421 42.9029 124.462 39.6897 124.91C36.6559 125.335 34.8719 122.706 36.088 119.6C36.8891 117.551 39.1431 117.247 41.7119 118.844ZM37.7503 119.779C35.9751 121.519 36.9793 123.902 39.4866 123.902C41.2393 123.902 41.9538 123.235 41.6805 121.853C41.233 119.59 39.093 118.462 37.7503 119.779ZM204.138 122.215C205.218 124.972 202.689 127.59 198.949 127.59C196.624 127.59 196.027 127.097 196.595 125.646C197.014 124.576 197.356 122.917 197.356 121.958C197.356 119.519 203.169 119.739 204.138 122.215ZM104.673 122.98C104.722 123.826 105.202 125.623 105.74 126.974C106.406 128.647 106.096 129.878 104.768 130.829C103.199 131.954 103.052 133.134 104.016 136.884C105.437 142.412 107.905 143.674 109.48 139.679C110.287 137.628 110.046 135.932 108.632 133.737C106.803 130.895 106.811 130.789 108.722 132.325C110.525 133.773 110.983 133.576 112.278 130.789C114.375 126.275 112.033 121.444 107.746 121.444C106.006 121.444 104.625 122.135 104.673 122.98ZM126.511 124.366C124.915 126.754 124.831 127.878 126.056 130.512C126.879 132.286 127.964 133.737 128.464 133.737C129.666 133.737 133.42 125.915 133.42 123.41C133.42 120.398 128.728 121.047 126.511 124.366ZM113.361 132.509C111.632 136.601 112.856 139.17 117.172 140.514C119.318 141.181 127.151 138.201 127.151 136.718C127.151 136.362 126.29 134.441 125.238 132.446C123.697 129.524 122.509 128.82 119.123 128.82C115.634 128.82 114.653 129.446 113.361 132.509ZM130.411 133.106C127.062 138.118 129.539 145.249 133.085 140.805C135.219 138.13 135.716 133.923 134.145 131.818C132.781 129.99 132.408 130.118 130.411 133.106ZM149.602 164.816C144.985 167.867 104.251 223.177 105.344 224.911C106.386 226.564 125.177 226.123 127.358 224.395C128.425 223.551 131.968 219.124 135.23 214.561C138.492 209.998 141.536 206.272 141.992 206.282C142.448 206.293 145.594 210.417 148.982 215.447C152.371 220.479 155.943 224.895 156.921 225.263C159.849 226.364 178.349 226.018 179.087 224.848C179.463 224.25 178.747 222.453 177.494 220.852C176.243 219.251 170.522 211.14 164.78 202.829C157.629 192.475 154.748 187.317 155.631 186.451C156.514 185.585 159.794 189.376 166.045 198.491C177.995 215.917 183.814 223.881 185.405 224.991C187.154 226.211 207.078 226.184 207.849 224.961C208.853 223.369 168.901 167.779 164.595 164.776C159.55 161.256 154.97 161.269 149.602 164.816Z" fill="white"/>
</g>
<defs>
<clipPath id="clip0_23_26">
<rect width="88" height="88" fill="white"/>
</clipPath>
</defs>
</svg>
