<svg width="88" height="88" viewBox="0 0 88 88" fill="none" xmlns="http://www.w3.org/2000/svg">
<g clip-path="url(#clip0_23_28)">
<path fill-rule="evenodd" clip-rule="evenodd" d="M-247 49V301H10H267V49V-203H10H-247V49ZM177.99 47.1561V254.288H8.74634H-160.498V47.1561V-159.976H8.74634H177.99V47.1561ZM-109.424 -132.932C-109.805 -131.918 -110.739 -127.792 -111.498 -123.764C-113.447 -113.429 -114.715 -112.877 -118.447 -120.74L-121.609 -127.4L-121.622 -117.873C-121.629 -112.633 -122.169 -108.346 -122.824 -108.346C-123.478 -108.346 -125.52 -110.282 -127.361 -112.649C-129.201 -115.015 -131.148 -116.951 -131.687 -116.951C-132.55 -116.951 -128.77 -100.183 -127.662 -99.0961C-126.464 -97.9221 -113.433 -103.369 -111.32 -105.927L-108.887 -108.874L-106.607 -105.909C-104.487 -103.154 -92.0541 -98.0598 -90.1961 -99.1846C-89.7461 -99.4587 -88.6968 -103.07 -87.8669 -107.212C-87.0357 -111.353 -86.0453 -115.653 -85.6667 -116.768C-85.2881 -117.883 -87.2551 -116.306 -90.0357 -113.263C-94.4059 -108.484 -95.2158 -108.035 -95.9931 -109.965C-96.4883 -111.195 -96.5898 -115.481 -96.22 -119.492C-95.8489 -123.503 -95.9141 -126.772 -96.3667 -126.756C-96.818 -126.74 -98.4678 -123.874 -100.031 -120.387C-103.57 -112.498 -104.88 -113.479 -107.084 -125.667C-107.989 -130.676 -109.042 -133.946 -109.424 -132.932ZM-44.8814 -131.018C-47.2232 -129.41 -47.6683 -127.952 -47.6683 -121.887C-47.6683 -111.626 -46.4949 -110.805 -31.8258 -110.805C-15.9219 -110.805 -15.0732 -111.333 -15.0732 -121.227C-15.0732 -127.974 -15.4731 -129.379 -17.8601 -131.018C-21.7627 -133.699 -40.9788 -133.699 -44.8814 -131.018ZM37.939 -130.903C36.4133 -130.579 33.4509 -128.745 31.3573 -126.827C26.789 -122.643 26.3502 -117.551 30.1501 -112.815L32.7476 -109.576H28.9553C24.7505 -109.576 18.7756 -107.295 18.7756 -105.69C18.7756 -105.123 29.354 -104.662 42.2817 -104.667C63.6303 -104.675 66.1326 -104.899 69.5488 -107.117L73.3098 -109.56L65.5784 -109.567L57.8471 -109.576L60.4472 -114.23C62.7891 -118.421 62.8718 -119.235 61.2834 -122.417C58.6144 -127.761 53.6135 -130.772 46.7623 -131.155C43.4363 -131.341 39.466 -131.228 37.939 -130.903ZM128.053 -128.882C127.26 -126.993 126.269 -124.117 125.853 -122.489C125.192 -119.91 124.267 -119.484 118.635 -119.163L112.173 -118.795L116.859 -115.722C119.436 -114.032 121.552 -112.225 121.561 -111.706C121.568 -111.187 118.698 -105.756 115.181 -99.6394C111.664 -93.5214 109.015 -88.2921 109.294 -88.0179C109.573 -87.745 113.988 -91.6529 119.105 -96.7039C124.222 -101.755 128.883 -105.888 129.464 -105.888C130.044 -105.888 132.554 -104.367 135.041 -102.507L139.563 -99.1268L138.748 -102.815C138.301 -104.843 137.594 -107.667 137.177 -109.091C136.582 -111.129 137.561 -112.5 141.782 -115.545L147.143 -119.41H140.298H133.453L131.474 -125.863L129.496 -132.317L128.053 -128.882ZM47.3465 -124.753C48.9248 -123.776 51.1313 -121.095 52.2508 -118.794C54.6678 -113.825 53.0444 -110.805 47.9583 -110.805C43.4338 -110.805 36.3268 -118.179 36.3268 -122.873C36.3268 -128.295 40.4777 -129.003 47.3465 -124.753ZM-21.3415 -121.254V-116.951H-31.3707H-41.4V-121.254V-125.556H-31.3707H-21.3415V-121.254ZM-43.9073 -107.99C-46.6604 -106.629 -47.0866 -105.529 -47.4113 -98.9314C-47.9403 -88.1605 -46.9123 -87.4488 -30.8078 -87.4488C-21.2073 -87.4488 -17.5103 -87.895 -16.4171 -89.1857C-15.5345 -90.2282 -15.0982 -94.0192 -15.3239 -98.6818C-15.6561 -105.544 -16.0623 -106.619 -18.8341 -107.99C-20.5579 -108.842 -26.1994 -109.54 -31.3707 -109.54C-36.5421 -109.54 -42.1835 -108.842 -43.9073 -107.99ZM-21.3415 -97.8976V-93.5951H-31.3707H-41.4V-97.8976V-102.2H-31.3707H-21.3415V-97.8976ZM-121.634 -98.0807C-124.623 -96.9781 -126.157 -95.557 -126.446 -93.6271C-126.814 -91.1599 -126.491 -90.9104 -123.938 -91.702C-111.818 -95.4599 -106.254 -95.4734 -94.5401 -91.7746C-90.3742 -90.4593 -89.6583 -94.3597 -93.6011 -96.8932C-97.8222 -99.605 -115.475 -100.352 -121.634 -98.0807ZM20.0293 -97.8976C17.2336 -96.3302 19.6055 -96.1397 41.9683 -96.136C62.0782 -96.1323 67.5229 -96.4888 69.4748 -97.9369C71.6411 -99.5435 69.2291 -99.7365 47.5358 -99.6984C28.771 -99.664 22.4426 -99.2498 20.0293 -97.8976ZM21.5963 -89.6369C20.0443 -88.903 18.7756 -87.8335 18.7756 -87.2607C18.7756 -86.6879 29.354 -86.2232 42.2817 -86.2281C63.6303 -86.2355 66.1326 -86.4604 69.5488 -88.678L73.3098 -91.1206L48.8634 -91.0456C34.0188 -91.0001 23.3088 -90.4457 21.5963 -89.6369ZM134.122 -53.2223C130.292 -47.7188 129.614 -47.232 128.492 -49.178C126.644 -52.3839 121.964 -57.9463 121.114 -57.9463C119.07 -57.9463 116.338 -49.7889 116.931 -45.4533C117.652 -40.1871 117.156 -39.8503 112.943 -42.744C110.493 -44.4268 109.843 -44.476 108.921 -43.0513C106.246 -38.9087 109.895 -30.1268 114.792 -28.9209C119.695 -27.7149 122.202 -29.7875 122.202 -35.0475C122.202 -38.4047 122.723 -39.5086 124.307 -39.5086C125.464 -39.5073 127.242 -40.3211 128.256 -41.3168C129.881 -42.9099 130.285 -42.9099 131.634 -41.3168C132.476 -40.3211 134.149 -39.5073 135.35 -39.5073C137.048 -39.5073 137.501 -38.5214 137.389 -35.0623C137.22 -29.801 139.704 -27.7027 144.657 -28.9209C149.554 -30.1268 153.203 -38.9087 150.528 -43.0513C149.606 -44.476 148.955 -44.4268 146.506 -42.744C142.409 -39.9302 141.501 -40.235 142.939 -43.9437C143.921 -46.4748 143.581 -48.4515 141.331 -53.3157L138.477 -59.4805L134.122 -53.2223ZM-120.738 -48.556L-130.496 -42.8915L-130.14 -31.2233L-129.783 -19.5551L-120.233 -14.1487L-110.682 -8.74243L-100.487 -14.3639L-90.2927 -19.9853V-31.4249V-42.8632L-100.293 -48.5609C-105.793 -51.6943 -110.448 -54.2499 -110.636 -54.2401C-110.824 -54.229 -115.37 -51.6722 -120.738 -48.556ZM29.1183 -52.2155L23.7902 -50.3654V-29.4679C23.7902 -13.2305 24.14 -8.71292 25.3573 -9.20832C26.2198 -9.55866 29.0406 -10.5224 31.6256 -11.3485L36.3268 -12.8531V-27.2048C36.3268 -35.0979 36.6641 -41.8872 37.0765 -42.2904C37.489 -42.6948 38.6223 -42.7255 39.5964 -42.3592C41.0418 -41.8159 41.2349 -38.9628 40.6457 -26.7709C40.2483 -18.5643 40.4301 -11.137 41.0481 -10.2667C41.9445 -9.00671 43.3624 -9.18617 48.026 -11.1456L53.878 -13.6054V-28.3997C53.878 -40.7317 54.1915 -43.1951 55.7585 -43.1951C56.7928 -43.1951 57.6691 -42.7796 57.7067 -42.2732C57.8822 -39.8626 58.4715 -24.4906 58.6695 -17.0941L58.8927 -8.81618L64.8476 -11.1088L70.8024 -13.4013L71.1497 -32.2411C71.3415 -42.6038 71.2186 -51.7939 70.8777 -52.6654C70.4013 -53.8824 68.3666 -53.5738 62.0682 -51.3329C54.6666 -48.6973 53.878 -48.6199 53.878 -50.5179C53.878 -53.9979 52.7222 -54.159 45.4284 -51.698C36.7455 -48.7699 36.3268 -48.7735 36.3268 -51.8C36.3268 -54.6531 36.1676 -54.6617 29.1183 -52.2155ZM-58.3043 -48.4195C-61.8747 -39.6352 -73.9951 -6.97595 -73.9951 -6.13636C-73.9951 -5.55984 -67.7908 -5.0878 -60.2086 -5.0878H-46.4222L-44.7535 -9.08292L-43.0837 -13.078L-52.0486 -13.6927L-61.0135 -14.3073L-54.3478 -32.1317C-50.6821 -41.9351 -47.6796 -50.0938 -47.6746 -50.2634C-47.6708 -50.4331 -49.8647 -50.5707 -52.5488 -50.5707C-56.0277 -50.5707 -57.68 -49.9536 -58.3043 -48.4195ZM-44.5404 -49.0341C-44.8463 -48.1884 -47.5881 -40.9579 -50.6344 -32.9639C-56.5291 -17.496 -56.4715 -16.7929 -49.362 -17.5956C-46.0774 -17.9668 -45.4092 -19.0756 -39.8718 -33.361C-36.5947 -41.8122 -33.9056 -49.1423 -33.8956 -49.6488C-33.8643 -51.2493 -43.9512 -50.6666 -44.5404 -49.0341ZM-30.7502 -49.0341C-31.0561 -48.1884 -33.7978 -40.9579 -36.8442 -32.9639C-42.7427 -17.4887 -42.6837 -16.7954 -35.5504 -17.5956C-32.2358 -17.9681 -31.6027 -19.0252 -26.1041 -33.361C-22.8621 -41.8122 -20.1831 -49.1423 -20.1492 -49.6488C-20.0427 -51.2517 -30.161 -50.6654 -30.7502 -49.0341ZM-16.9812 -49.0341C-21.6724 -36.5153 -27.6098 -19.4481 -27.6098 -18.4794C-27.6098 -17.7911 -25.5186 -17.4026 -22.9374 -17.614L-18.2637 -17.9951L-12.3414 -33.361C-9.08444 -41.8122 -6.39159 -49.1423 -6.35774 -49.6488C-6.25244 -51.2505 -16.3707 -50.6654 -16.9812 -49.0341ZM-103.939 -44.8436C-100.57 -43.0464 -97.8146 -41.1705 -97.8146 -40.6751C-97.8146 -39.4827 -109.41 -25.9854 -110.434 -25.9854C-110.871 -25.9854 -114.134 -29.2589 -117.683 -33.2614L-124.136 -40.5362L-117.557 -44.2978C-113.939 -46.3654 -110.772 -48.0704 -110.52 -48.0851C-110.27 -48.0999 -107.307 -46.6408 -103.939 -44.8436ZM-116.62 -24.0247C-116.62 -23.7506 -118.594 -23.5268 -121.007 -23.5268C-125.385 -23.5268 -125.395 -23.5391 -125.395 -29.1753V-34.8226L-121.007 -29.6732C-118.594 -26.8409 -116.62 -24.2988 -116.62 -24.0247ZM-95.3073 -29.0585V-23.5268H-100.41H-105.512L-100.723 -29.018C-98.0892 -32.0383 -95.7937 -34.5275 -95.6207 -34.5497C-95.4477 -34.5718 -95.3073 -32.101 -95.3073 -29.0585ZM121.262 -28.5275C114.288 -21.6006 113.354 -16.9711 118.47 -14.6859C121.144 -13.4911 122.202 -13.6853 125.315 -15.941C127.34 -17.4088 129.323 -18.6098 129.724 -18.6098C130.126 -18.6098 132.109 -17.4088 134.134 -15.941C137.246 -13.6853 138.304 -13.4911 140.978 -14.6859C146.18 -17.0092 145.172 -21.6313 137.943 -28.6086C134.535 -31.8981 130.727 -34.5571 129.481 -34.5165C128.236 -34.4759 124.538 -31.7801 121.262 -28.5275ZM-107.844 -18.6688L-103.456 -18.5225L-106.59 -16.7659C-110.747 -14.4352 -112.046 -14.4979 -115.437 -17.1899L-118.294 -19.4592L-115.263 -19.1371C-113.596 -18.9601 -110.257 -18.7487 -107.844 -18.6688ZM115.326 21.6488C115.309 25.2985 114.955 25.6587 111.233 25.8111C108.287 25.9328 107.94 26.1258 109.979 26.5118C113.458 27.1682 113.533 28.2991 110.293 31.1756C106.49 34.55 107.248 35.6575 113.073 35.2408C117.902 34.8966 118.468 34.4971 119.589 30.6421C120.49 27.5456 120.417 26.2893 119.315 25.9291C118.49 25.6599 117.806 24.5167 117.796 23.3907C117.785 22.2634 117.229 20.5117 116.561 19.4976C115.638 18.0987 115.341 18.6174 115.326 21.6488ZM-124.141 44.7664V67.439H-119.754H-115.366V52.6878V37.9366H-110.978H-106.59V52.6878V67.439H-97.1878H-87.7854V59.4488V51.4585H-92.1105H-96.4356L-96.8117 44.3902C-97.184 37.4019 -97.2342 37.317 -101.262 36.9372L-105.337 36.5512V29.3219V22.0925H-114.739H-124.141V44.7664ZM-38.1969 25.5874C-44.5655 29.7042 -45.6875 33.2887 -46.1965 51.1512C-46.6039 65.4439 -46.4146 67.439 -44.657 67.439C-42.9194 67.439 -42.6537 65.2177 -42.6537 50.721V34.0029L-38.3912 29.8234C-33.344 24.8744 -27.9545 24.3224 -21.6235 28.1074C-11.4915 34.1652 -14.163 49.7499 -25.7293 52.0584L-29.4902 52.8095L-25.6227 51.0492C-15.8855 46.6177 -13.6741 37.8333 -20.5893 31.0527C-26.5918 25.1669 -33.7101 25.623 -39.1785 32.2414C-40.9838 34.427 -41.3486 37.5776 -41.3724 51.1512C-41.3887 61.2079 -40.9198 67.439 -40.1463 67.439C-39.4443 67.439 -38.8927 64.0708 -38.8927 59.7918V52.1445L-31.0235 59.7918C-26.6958 63.9971 -22.3369 67.439 -21.3377 67.439C-20.3373 67.439 -24.0193 62.9387 -29.5191 57.4377C-35.0201 51.9367 -38.6733 47.8961 -37.639 48.4579C-36.6048 49.0197 -31.8948 53.52 -27.1722 58.4592C-21.7552 64.1249 -17.6081 67.439 -15.9369 67.439C-13.7017 67.439 -14.2345 66.4962 -19.3344 61.4193C-24.8505 55.9269 -25.1564 55.3283 -22.812 54.5993C-21.3991 54.1592 -18.5145 51.8704 -16.4046 49.5126C-13.1989 45.9342 -12.5659 44.196 -12.5659 38.979C-12.5659 33.36 -13.056 32.25 -17.4326 27.9574C-21.7577 23.7176 -22.98 23.1866 -28.4021 23.194C-32.3285 23.1989 -35.8212 24.0532 -38.1969 25.5874ZM121.681 30.1381C120.985 32.6102 120.711 35.0994 121.07 35.6698C121.918 37.0146 132.511 37.0245 133.358 35.6809C133.714 35.1166 133.37 32.6274 132.594 30.1492C131.344 26.1565 130.716 25.6439 127.065 25.6439C123.392 25.6439 122.81 26.1295 121.681 30.1381ZM134.398 30.561C135.64 35.3588 135.803 35.4781 141.16 35.4781C144.179 35.4781 146.632 35.0626 146.612 34.5561C146.516 32.1381 138.887 25.6439 136.143 25.6439C133.246 25.6439 133.176 25.8406 134.398 30.561ZM39.6428 37.322L29.8905 47.7707H22.6707C16.7459 47.7707 14.9632 48.2809 12.7254 50.6153C11.2261 52.1801 10 53.8396 10 54.3031C10 54.7677 15.0648 55.1463 21.2541 55.1463H32.5094L42.7393 44.6976L52.9704 34.2488H60.1012C65.9332 34.2488 67.7272 33.7313 69.9575 31.4043C71.4569 29.8394 72.6829 28.1799 72.6829 27.7165C72.6829 27.2518 67.4426 26.8732 61.039 26.8732H49.395L39.6428 37.322ZM-22.2817 32.7405C-19.1864 35.4055 -19.3782 43.0725 -22.6114 45.9416C-26.4263 49.327 -32.4552 48.8267 -35.9566 44.834C-39.4079 40.8991 -39.6386 38.2992 -36.8781 34.4344C-33.1697 29.2432 -27.1547 28.545 -22.2817 32.7405ZM-35.1317 34.2488C-40.1514 39.1708 -36.3227 46.9508 -28.881 46.9508C-24.097 46.9508 -21.3415 44.0522 -21.3415 39.0184C-21.3415 32.1947 -29.9867 29.2039 -35.1317 34.2488ZM-25.1526 36.0337C-21.8216 39.9686 -26.7134 46.0129 -31.0573 43.3306C-35.3975 40.6496 -33.8517 34.2488 -28.8634 34.2488C-27.6536 34.2488 -25.9838 35.0515 -25.1526 36.0337ZM41.0356 49.724C33.9637 56.8821 27.99 63.2435 27.7606 63.8606C27.5299 64.4765 29.4417 64.9805 32.0067 64.9805C36.2002 64.9805 37.5993 64.018 45.8484 55.4537L55.0251 45.9268L55.0778 55.2238C55.1279 63.7721 55.415 64.7863 58.6482 67.8238C60.5814 69.6407 62.4155 71.1268 62.7226 71.1268C63.6465 71.1256 64.1718 41.9182 63.2968 39.215C62.6875 37.3342 61.4113 36.7073 58.1894 36.7073C54.377 36.7073 52.4451 38.1738 41.0356 49.724ZM107.785 37.9194C107.785 39.7362 121.771 57.8237 122.57 57.0394C123.288 56.335 119.167 40.2157 117.96 39.0073C116.437 37.483 107.785 36.5586 107.785 37.9194ZM139.993 37.5949C138.056 37.88 136.22 38.7651 135.912 39.5617C133.697 45.2999 130.715 57.6049 131.54 57.6049C132.609 57.6049 145.143 41.2409 146.26 38.384C146.923 36.6913 146.492 36.6373 139.993 37.5949ZM120.885 41.3171C123.847 53.3197 126.931 61.6135 127.83 59.997C128.723 58.3904 134.112 39.9809 134.112 38.5377C134.112 38.207 130.948 37.9366 127.082 37.9366H120.05L120.885 41.3171ZM-35.0878 105.465C-37.0047 108.977 -36.7941 109.234 -31.9976 109.234C-27.5646 109.234 -26.9879 108.565 -28.3707 105.033C-29.4276 102.333 -33.522 102.597 -35.0878 105.465ZM-121.007 105.748C-125.001 107.909 -130.481 113.251 -132.402 116.856C-134.934 121.608 -134.645 132.369 -131.848 137.527C-130.569 139.882 -127.164 143.45 -124.281 145.453C-117.664 150.053 -108.676 150.406 -100.762 146.378C-96.3742 144.144 -90.2927 137.301 -90.2927 134.596C-90.2927 132.617 -101.982 133.955 -104.994 136.278C-112.762 142.268 -124.141 136.036 -124.141 125.791C-124.141 124.143 -122.503 120.996 -120.5 118.798C-117.471 115.475 -116.008 114.824 -111.815 114.931C-108.731 115.01 -105.454 116.077 -103.378 117.679L-99.9835 120.298H-106.854C-116.586 120.298 -121.126 125.635 -115.58 130.556C-112.067 133.673 -89.019 133.506 -86.0992 130.342C-84.9584 129.105 -84.0244 127.255 -84.0244 126.23C-84.0244 124.111 -87.8894 120.298 -90.0382 120.298C-90.8242 120.298 -91.1665 119.528 -90.7979 118.588C-89.8815 116.245 -97.4937 108.011 -102.456 105.978C-107.315 103.988 -117.518 103.861 -121.007 105.748ZM26.8755 107.698C26.4781 109.556 25.6218 113.398 24.9712 116.232C23.2637 123.684 23.5195 129.609 25.6218 131.32C26.6285 132.14 29.7614 133.115 32.5834 133.486C36.2002 133.962 37.5241 134.651 37.0665 135.82C36.7092 136.732 36.036 140.294 35.5709 143.737L34.7234 149.997L38.3126 149.591C41.433 149.238 42.0398 148.502 42.9499 143.961C44.3089 137.178 46.6996 137.308 48.5989 144.268C49.9629 149.268 50.4694 149.8 53.873 149.8C58.064 149.8 58.2771 149.103 56.1823 142.244C54.8897 138.014 55.0101 137.166 57.2491 134.725C63.0185 128.44 61.4978 122.391 53.5634 120.06L48.6478 118.616L49.4827 113.153C49.9428 110.149 50.616 106.932 50.9783 106.004C51.4597 104.776 50.4643 104.317 47.3177 104.317H42.9963L41.3816 113.229C39.0974 125.833 38.2186 127.673 34.4777 127.673C30.7531 127.673 30.6515 126.706 33.1927 115.38C35.6411 104.468 35.6147 104.317 31.336 104.317C28.2708 104.317 27.4685 104.924 26.8755 107.698ZM87.3094 105.137C86.8493 105.587 86.4732 111.948 86.4732 119.274V132.59H92.1146H97.7561V123.985V115.38H114.68H131.605V109.849V104.317H109.875C97.9228 104.317 87.7682 104.686 87.3094 105.137ZM-37.0197 111.704C-37.4485 112.386 -37.4447 114.046 -37.0084 115.392C-35.8889 118.849 -28.2353 118.824 -26.3423 115.355C-25.5964 113.989 -25.3281 112.329 -25.7456 111.667C-26.7447 110.081 -36.0155 110.111 -37.0197 111.704ZM-19.1476 111.412C-21.7426 111.957 -21.9119 113.031 -19.7744 115.383C-18.4593 116.829 -18.5822 116.826 -20.5366 115.368C-22.5901 113.835 -23.0765 113.912 -24.6386 116.006C-25.6139 117.314 -26.1167 119.09 -25.7569 119.955C-25.3971 120.82 -24.7301 122.432 -24.2763 123.538C-23.7084 124.92 -23.9917 125.373 -25.1814 124.984C-26.1342 124.673 -27.2349 123.082 -27.6286 121.448C-28.115 119.426 -28.6516 118.966 -29.3072 120.007C-29.909 120.963 -31.4873 121.237 -33.5145 120.738C-35.9855 120.129 -36.5195 120.32 -35.7535 121.534C-35.1267 122.529 -35.6006 123.741 -37.0135 124.752C-39.077 126.232 -39.0933 126.445 -37.204 127.156C-36.0644 127.585 -35.1317 129.051 -35.1317 130.413C-35.1317 132.477 -34.817 132.636 -33.2512 131.361C-31.7506 130.14 -30.9909 130.14 -29.4902 131.361C-27.9207 132.638 -27.6098 132.467 -27.6098 130.326C-27.6098 127.489 -24.2362 125.215 -20.0276 125.215C-17.7372 125.215 -17.3811 124.648 -17.8199 121.711C-18.3427 118.221 -18.3264 118.213 -13.4096 119.296C-10.6954 119.893 -8.28712 120.199 -8.05895 119.976C-7.83078 119.752 -8.69455 117.876 -9.97705 115.807C-12.359 111.968 -15.2336 110.589 -19.1476 111.412ZM-52.4648 114.537C-56.5204 118.772 -56.0202 120.666 -51.1159 119.644C-48.8756 119.176 -46.0323 117.921 -44.7974 116.853C-42.6574 115.001 -42.6424 115.078 -44.4765 118.526C-47.1718 123.594 -46.8935 125.215 -43.3244 125.215C-37.9361 125.215 -35.9817 118.859 -39.9796 114.339C-43.1238 110.786 -48.9583 110.878 -52.4648 114.537ZM137.873 128.832V137.507H120.253H102.633L103.015 143.346L103.398 149.185L124.963 149.521C150.731 149.923 149.426 150.83 148.888 132.895L148.529 120.912L143.201 120.535L137.873 120.156V128.832ZM-109.288 123.844C-106.749 125.421 -108.097 129.462 -111.31 129.91C-114.344 130.335 -116.128 127.706 -114.912 124.6C-114.111 122.551 -111.857 122.247 -109.288 123.844ZM-113.25 124.779C-115.025 126.519 -114.021 128.902 -111.513 128.902C-109.761 128.902 -109.046 128.235 -109.319 126.853C-109.767 124.59 -111.907 123.462 -113.25 124.779ZM53.1384 127.215C54.2178 129.972 51.6892 132.59 47.9495 132.59C45.624 132.59 45.0272 132.097 45.5951 130.646C46.0139 129.576 46.3561 127.917 46.3561 126.958C46.3561 124.519 52.1693 124.739 53.1384 127.215ZM-46.3269 127.98C-46.278 128.826 -45.7978 130.623 -45.26 131.974C-44.5943 133.647 -44.904 134.878 -46.2316 135.829C-47.8012 136.954 -47.9479 138.134 -46.9838 141.884C-45.5634 147.412 -43.0949 148.674 -41.5203 144.679C-40.713 142.628 -40.9537 140.932 -42.3678 138.737C-44.1969 135.895 -44.1894 135.789 -42.2776 137.325C-40.4748 138.773 -40.0172 138.576 -38.7222 135.789C-36.6248 131.275 -38.9667 126.444 -43.2542 126.444C-44.9942 126.444 -46.3745 127.135 -46.3269 127.98ZM-24.4894 129.366C-26.0853 131.754 -26.1693 132.878 -24.9445 135.512C-24.1208 137.286 -23.0364 138.737 -22.5362 138.737C-21.3339 138.737 -17.5805 130.915 -17.5805 128.41C-17.5805 125.398 -22.2717 126.047 -24.4894 129.366ZM-37.639 137.509C-39.3678 141.601 -38.1443 144.17 -33.8279 145.514C-31.6816 146.181 -23.8488 143.201 -23.8488 141.718C-23.8488 141.362 -24.71 139.441 -25.7619 137.446C-27.3026 134.524 -28.4911 133.82 -31.8772 133.82C-35.3662 133.82 -36.3465 134.446 -37.639 137.509ZM-20.5893 138.106C-23.9378 143.118 -21.4606 150.249 -17.9152 145.805C-15.7815 143.13 -15.2838 138.923 -16.8546 136.818C-18.2186 134.99 -18.5922 135.118 -20.5893 138.106ZM-1.39826 169.816C-6.01548 172.867 -46.7494 228.177 -45.6562 229.911C-44.6144 231.564 -25.8233 231.123 -23.6419 229.395C-22.5751 228.551 -19.0322 224.124 -15.7702 219.561C-12.5082 214.998 -9.46431 211.272 -9.00797 211.282C-8.55164 211.293 -5.40621 215.417 -2.01757 220.447C1.37107 225.479 4.94274 229.895 5.9206 230.263C8.84914 231.364 27.3494 231.018 28.0865 229.848C28.4626 229.25 27.7468 227.453 26.4944 225.852C25.2432 224.251 19.5215 216.14 13.7798 207.829C6.62891 197.475 3.748 192.317 4.63057 191.451C5.5144 190.585 8.79398 194.376 15.0447 203.491C26.9946 220.917 32.8141 228.881 34.405 229.991C36.1538 231.211 56.0782 231.184 56.8492 229.961C57.8534 228.369 17.9006 172.779 13.5955 169.776C8.54951 166.256 3.96991 166.269 -1.39826 169.816Z" fill="white"/>
</g>
<defs>
<clipPath id="clip0_23_28">
<rect width="88" height="88" fill="white"/>
</clipPath>
</defs>
</svg>
