<svg width="88" height="88" viewBox="0 0 88 88" fill="none" xmlns="http://www.w3.org/2000/svg">
<g clip-path="url(#clip0_23_17)">
<path fill-rule="evenodd" clip-rule="evenodd" d="M-160 196.5V439H82H324V196.5V-46H82H-160V196.5ZM240.185 194.726V394.049H80.8195H-78.5463V194.726V-4.59756H80.8195H240.185V194.726ZM-30.4533 21.4268C-30.8121 22.4027 -31.6916 26.3726 -32.407 30.2491C-34.2415 40.194 -35.4361 40.7251 -38.9504 33.1591L-41.9276 26.75L-41.9394 35.9177C-41.9465 40.9605 -42.4553 45.0854 -43.0715 45.0854C-43.6877 45.0854 -45.6107 43.2223 -47.3437 40.9451C-49.0766 38.668 -50.9099 36.8049 -51.4176 36.8049C-52.2297 36.8049 -48.6706 52.9412 -47.627 53.9869C-46.4996 55.1166 -34.2285 49.875 -32.2394 47.4134L-29.948 44.5779L-27.8007 47.4311C-25.8045 50.082 -14.0976 54.9841 -12.3481 53.9017C-11.9243 53.6379 -10.9363 50.1625 -10.1548 46.1772C-9.37213 42.1919 -8.43954 38.054 -8.08303 36.9811C-7.72652 35.9082 -9.57871 37.4259 -12.197 40.3537C-16.3122 44.9529 -17.0748 45.3846 -17.8067 43.5274C-18.273 42.3445 -18.3686 38.2197 -18.0204 34.3598C-17.6709 30.4999 -17.7323 27.3545 -18.1585 27.3698C-18.5835 27.3852 -20.137 30.1426 -21.6091 33.4986C-24.9416 41.0906 -26.1752 40.1466 -28.2505 28.4179C-29.1028 23.5975 -30.0944 20.4509 -30.4533 21.4268ZM30.3218 23.2686C28.1166 24.8159 27.6976 26.2189 27.6976 32.0554C27.6976 41.9293 28.8025 42.7195 42.6154 42.7195C57.591 42.7195 58.3902 42.2109 58.3902 32.6907C58.3902 26.1976 58.0137 24.8455 55.766 23.2686C52.0911 20.6887 33.9966 20.6887 30.3218 23.2686ZM108.308 23.3787C106.872 23.6909 104.082 25.4559 102.111 27.3012C97.8091 31.3279 97.3959 36.2276 100.974 40.7854L103.42 43.9024H99.849C95.8896 43.9024 90.2634 46.0968 90.2634 47.6417C90.2634 48.187 100.224 48.6306 112.398 48.6259C132.5 48.6188 134.856 48.4023 138.073 46.2683L141.615 43.9178L134.335 43.9107L127.054 43.9024L129.503 39.4239C131.708 35.3901 131.786 34.607 130.29 31.5456C127.777 26.4022 123.068 23.5052 116.617 23.1362C113.485 22.9575 109.746 23.0664 108.308 23.3787ZM193.163 25.3234C192.416 27.1415 191.483 29.9096 191.091 31.4758C190.469 33.9576 189.598 34.368 184.294 34.6768L178.21 35.0305L182.622 37.9878C185.048 39.6143 187.041 41.3532 187.049 41.8524C187.056 42.3516 184.354 47.5778 181.042 53.464C177.73 59.3515 175.236 64.3836 175.498 64.6474C175.761 64.91 179.919 61.1495 184.737 56.2889C189.555 51.4282 193.944 47.4512 194.491 47.4512C195.038 47.4512 197.401 48.9145 199.743 50.7043L204.001 53.9573L203.234 50.4085C202.812 48.4567 202.146 45.7395 201.755 44.3685C201.194 42.4072 202.116 41.0882 206.091 38.1581L211.138 34.439H204.693H198.247L196.385 28.2287L194.522 22.0183L193.163 25.3234ZM117.167 29.2968C118.653 30.2373 120.731 32.8172 121.785 35.0317C124.061 39.8131 122.532 42.7195 117.743 42.7195C113.482 42.7195 106.79 35.6231 106.79 31.1067C106.79 25.8888 110.699 25.2075 117.167 29.2968ZM52.4878 32.6646V36.8049H43.0439H33.6V32.6646V28.5244H43.0439H52.4878V32.6646ZM31.239 45.4284C28.6467 46.7379 28.2453 47.7966 27.9396 54.1454C27.4414 64.5102 28.4094 65.1951 43.5739 65.1951C52.6141 65.1951 56.0954 64.7657 57.1247 63.5236C57.9558 62.5205 58.3666 58.8724 58.1541 54.3855C57.8413 47.7824 57.4588 46.7474 54.8488 45.4284C53.2256 44.6086 47.9134 43.9367 43.0439 43.9367C38.1744 43.9367 32.8622 44.6086 31.239 45.4284ZM52.4878 55.1402V59.2805H43.0439H33.6V55.1402V51H43.0439H52.4878V55.1402ZM-41.9512 54.964C-44.7655 56.0251 -46.2104 57.3925 -46.4819 59.2497C-46.829 61.6239 -46.5244 61.864 -44.121 61.1022C-32.708 57.486 -27.469 57.473 -16.4385 61.0324C-12.5158 62.2981 -11.8417 58.5447 -15.5543 56.1067C-19.529 53.4972 -36.1515 52.7779 -41.9512 54.964ZM91.4439 55.1402C88.8114 56.6485 91.0449 56.8318 112.102 56.8354C131.039 56.8389 136.165 56.4959 138.004 55.1024C140.043 53.5563 137.772 53.3706 117.345 53.4073C99.6754 53.4404 93.7163 53.839 91.4439 55.1402ZM92.9195 63.0895C91.4581 63.7957 90.2634 64.8249 90.2634 65.3761C90.2634 65.9273 100.224 66.3745 112.398 66.3698C132.5 66.3627 134.856 66.1462 138.073 64.0122L141.615 61.6617L118.595 61.7339C104.617 61.7776 94.532 62.3111 92.9195 63.0895ZM198.878 98.1313C195.271 103.427 194.633 103.896 193.576 102.023C191.836 98.9381 187.429 93.5854 186.629 93.5854C184.704 93.5854 182.131 101.435 182.69 105.607C183.368 110.675 182.902 110.999 178.935 108.215C176.628 106.595 176.015 106.548 175.148 107.919C172.628 111.905 176.065 120.356 180.676 121.517C185.293 122.677 187.654 120.683 187.654 115.621C187.654 112.39 188.144 111.328 189.636 111.328C190.725 111.329 192.399 110.546 193.354 109.588C194.884 108.055 195.264 108.055 196.534 109.588C197.328 110.546 198.903 111.329 200.033 111.329C201.633 111.329 202.059 112.278 201.954 115.607C201.795 120.67 204.133 122.689 208.797 121.517C213.408 120.356 216.845 111.905 214.326 107.919C213.458 106.548 212.845 106.595 210.539 108.215C206.681 110.922 205.826 110.629 207.18 107.06C208.104 104.624 207.784 102.722 205.666 98.0414L202.979 92.1091L198.878 98.1313ZM-41.1072 102.622L-50.2961 108.073L-49.9608 119.301L-49.6244 130.529L-40.6314 135.732L-31.6385 140.934L-22.0388 135.525L-12.439 130.115V119.107V108.1L-21.8558 102.617C-27.0346 99.6017 -31.4177 97.1424 -31.5948 97.1519C-31.7719 97.1625 -36.0523 99.623 -41.1072 102.622ZM100.002 99.1002L94.9854 100.88V120.99C94.9854 136.616 95.3147 140.963 96.461 140.486C97.2731 140.149 99.9292 139.221 102.363 138.427L106.79 136.979V123.168C106.79 115.572 107.108 109.039 107.496 108.651C107.885 108.262 108.952 108.232 109.869 108.585C111.23 109.108 111.412 111.853 110.857 123.586C110.483 131.483 110.654 138.63 111.236 139.468C112.08 140.68 113.415 140.507 117.807 138.622L123.317 136.255V122.018C123.317 110.151 123.612 107.78 125.088 107.78C126.062 107.78 126.887 108.18 126.922 108.668C127.088 110.987 127.642 125.78 127.829 132.898L128.039 140.863L133.646 138.657L139.254 136.451L139.581 118.322C139.761 108.349 139.646 99.5059 139.324 98.6672C138.876 97.4961 136.96 97.793 131.029 99.9495C124.06 102.486 123.317 102.56 123.317 100.734C123.317 97.3849 122.229 97.23 115.361 99.5982C107.185 102.416 106.79 102.412 106.79 99.5C106.79 96.7544 106.64 96.7461 100.002 99.1002ZM17.6823 102.753C14.3203 111.206 2.90731 142.634 2.90731 143.442C2.90731 143.997 8.74954 144.451 15.8891 144.451H28.871L30.4422 140.607L32.0146 136.762L23.5729 136.171L15.1313 135.579L21.4079 118.427C24.8597 108.993 27.6869 101.142 27.6916 100.979C27.6952 100.815 25.6293 100.683 23.1019 100.683C19.8261 100.683 18.2702 101.277 17.6823 102.753ZM30.6429 102.162C30.3548 102.975 27.7731 109.933 24.9045 117.626C19.3539 132.511 19.4082 133.187 26.1027 132.415C29.1956 132.058 29.8248 130.991 35.039 117.244C38.1248 109.111 40.6569 102.057 40.6664 101.57C40.6959 100.03 31.1977 100.591 30.6429 102.162ZM43.6282 102.162C43.3402 102.975 40.7585 109.933 37.8899 117.626C32.3357 132.518 32.3912 133.185 39.1081 132.415C42.2294 132.057 42.8255 131.039 48.0031 117.244C51.0559 109.111 53.5786 102.057 53.6104 101.57C53.7108 100.028 44.1831 100.592 43.6282 102.162ZM56.5935 102.162C52.1761 114.209 46.5854 130.632 46.5854 131.564C46.5854 132.227 48.5544 132.601 50.985 132.397L55.3859 132.03L60.9625 117.244C64.0294 109.111 66.5651 102.057 66.597 101.57C66.6961 100.029 57.1684 100.592 56.5935 102.162ZM-25.2886 106.194C-22.1167 107.924 -19.522 109.729 -19.522 110.205C-19.522 111.353 -30.4403 124.341 -31.4047 124.341C-31.8167 124.341 -34.8884 121.191 -38.2303 117.34L-44.3075 110.339L-38.1123 106.719C-34.7054 104.73 -31.7235 103.089 -31.4862 103.075C-31.2501 103.061 -28.4606 104.465 -25.2886 106.194ZM-37.2293 126.228C-37.2293 126.492 -39.0885 126.707 -41.361 126.707C-45.4832 126.707 -45.4927 126.695 -45.4927 121.272V115.837L-41.361 120.793C-39.0885 123.518 -37.2293 125.964 -37.2293 126.228ZM-17.161 121.384V126.707H-21.9656H-26.7702L-22.2607 121.423C-19.7805 118.517 -17.619 116.121 -17.4561 116.1C-17.2932 116.079 -17.161 118.456 -17.161 121.384ZM186.768 121.895C180.201 128.561 179.322 133.016 184.139 135.215C186.657 136.365 187.654 136.178 190.585 134.007C192.491 132.595 194.359 131.439 194.737 131.439C195.114 131.439 196.982 132.595 198.888 134.007C201.819 136.178 202.816 136.365 205.334 135.215C210.232 132.979 209.283 128.531 202.476 121.817C199.266 118.652 195.681 116.093 194.508 116.132C193.335 116.171 189.853 118.765 186.768 121.895ZM-28.9659 131.382L-24.8342 131.523L-27.7854 133.213C-31.6999 135.456 -32.9229 135.396 -36.1161 132.805L-38.8064 130.622L-35.952 130.932C-34.3819 131.102 -31.2383 131.305 -28.9659 131.382ZM181.179 170.18C181.162 173.692 180.829 174.039 177.324 174.185C174.55 174.302 174.223 174.488 176.144 174.86C179.42 175.491 179.491 176.58 176.439 179.348C172.859 182.595 173.572 183.661 179.057 183.259C183.605 182.928 184.137 182.544 185.192 178.834C186.041 175.854 185.973 174.645 184.935 174.299C184.158 174.04 183.514 172.94 183.504 171.856C183.494 170.771 182.971 169.086 182.341 168.11C181.473 166.764 181.193 167.263 181.179 170.18ZM-44.3122 192.426V214.244H-40.1805H-36.0488V200.049V185.854H-31.9171H-27.7854V200.049V214.244H-18.9317H-10.0781V206.555V198.866H-14.1507H-18.2234L-18.5776 192.064C-18.9282 185.339 -18.9754 185.257 -22.7683 184.892L-26.6049 184.52V177.564V170.607H-35.4585H-44.3122V192.426ZM36.6161 173.97C30.6193 177.932 29.5627 181.381 29.0834 198.57C28.6998 212.324 28.878 214.244 30.5331 214.244C32.1692 214.244 32.4195 212.106 32.4195 198.156V182.068L36.4332 178.046C41.1858 173.284 46.2607 172.753 52.2222 176.395C61.7629 182.224 59.2473 197.222 48.3561 199.443L44.8146 200.166L48.4564 198.472C57.6253 194.207 59.7077 185.754 53.1961 179.229C47.5439 173.565 40.8411 174.004 35.6918 180.373C33.9919 182.476 33.6484 185.508 33.626 198.57C33.6106 208.248 34.0521 214.244 34.7805 214.244C35.4416 214.244 35.961 211.003 35.961 206.885V199.526L43.3709 206.885C47.4459 210.932 51.5505 214.244 52.4913 214.244C53.4334 214.244 49.9663 209.913 44.7875 204.62C39.6075 199.326 36.1676 195.438 37.1415 195.978C38.1154 196.519 42.5504 200.85 46.9973 205.603C52.0982 211.055 56.0033 214.244 57.5769 214.244C59.6817 214.244 59.18 213.337 54.3778 208.451C49.1836 203.166 48.8956 202.59 51.1031 201.888C52.4335 201.465 55.1498 199.262 57.1366 196.993C60.1551 193.55 60.7512 191.877 60.7512 186.857C60.7512 181.45 60.2896 180.381 56.1686 176.251C52.0959 172.171 50.9449 171.66 45.8393 171.667C42.142 171.672 38.8532 172.494 36.6161 173.97ZM187.163 178.349C186.507 180.728 186.249 183.123 186.588 183.672C187.386 184.966 197.361 184.976 198.158 183.683C198.493 183.14 198.169 180.745 197.439 178.36C196.262 174.518 195.67 174.024 192.233 174.024C188.774 174.024 188.226 174.492 187.163 178.349ZM199.137 178.756C200.307 183.373 200.461 183.488 205.505 183.488C208.348 183.488 210.658 183.088 210.639 182.601C210.548 180.274 203.365 174.024 200.781 174.024C198.053 174.024 197.986 174.214 199.137 178.756ZM109.913 185.262L100.73 195.317H93.9312C88.3522 195.317 86.6735 195.808 84.5664 198.054C83.1545 199.56 82 201.157 82 201.603C82 202.05 86.7692 202.415 92.5972 202.415H103.196L112.828 192.36L122.462 182.305H129.177C134.669 182.305 136.358 181.807 138.458 179.568C139.87 178.062 141.024 176.465 141.024 176.019C141.024 175.572 136.09 175.207 130.06 175.207H119.096L109.913 185.262ZM51.6024 180.853C54.5171 183.418 54.3364 190.796 51.292 193.557C47.6997 196.815 42.0228 196.333 38.7257 192.491C35.4758 188.704 35.2586 186.203 37.858 182.483C41.3499 177.488 47.0139 176.816 51.6024 180.853ZM39.5024 182.305C34.7758 187.041 38.381 194.528 45.3883 194.528C49.8931 194.528 52.4878 191.739 52.4878 186.895C52.4878 180.328 44.3472 177.45 39.5024 182.305ZM48.8991 184.022C52.0357 187.809 47.4294 193.625 43.339 191.044C39.2522 188.464 40.7077 182.305 45.4049 182.305C46.544 182.305 48.1165 183.077 48.8991 184.022ZM111.224 197.197C104.565 204.085 98.94 210.207 98.724 210.8C98.5068 211.393 100.307 211.878 102.722 211.878C106.671 211.878 107.988 210.952 115.756 202.71L124.397 193.543L124.447 202.489C124.494 210.715 124.764 211.691 127.809 214.614C129.629 216.363 131.356 217.793 131.645 217.793C132.515 217.791 133.01 189.685 132.186 187.084C131.612 185.274 130.411 184.671 127.377 184.671C123.787 184.671 121.968 186.082 111.224 197.197ZM174.078 185.837C174.078 187.585 187.248 204.991 188 204.236C188.676 203.559 184.796 188.047 183.659 186.884C182.225 185.417 174.078 184.528 174.078 185.837ZM204.406 185.525C202.582 185.799 200.853 186.651 200.563 187.417C198.478 192.939 195.669 204.78 196.446 204.78C197.453 204.78 209.255 189.033 210.307 186.284C210.932 184.655 210.526 184.603 204.406 185.525ZM186.413 189.107C189.202 200.657 192.106 208.638 192.953 207.082C193.793 205.536 198.868 187.821 198.868 186.432C198.868 186.114 195.889 185.854 192.248 185.854H185.627L186.413 189.107ZM39.5438 250.837C37.7388 254.216 37.9371 254.463 42.4536 254.463C46.6279 254.463 47.1709 253.82 45.8688 250.42C44.8737 247.822 41.0182 248.077 39.5438 250.837ZM-41.361 251.109C-45.122 253.188 -50.2819 258.329 -52.0904 261.798C-54.475 266.371 -54.2023 276.726 -51.5687 281.69C-50.3646 283.956 -47.1584 287.389 -44.4432 289.317C-38.2126 293.744 -29.7497 294.083 -22.2973 290.207C-18.1656 288.057 -12.439 281.472 -12.439 278.87C-12.439 276.965 -23.4459 278.252 -26.2826 280.488C-33.5969 286.252 -44.3122 280.255 -44.3122 270.396C-44.3122 268.81 -42.7693 265.782 -40.8829 263.667C-38.0308 260.469 -36.6532 259.842 -32.7056 259.945C-29.8016 260.022 -26.7159 261.049 -24.761 262.59L-21.5642 265.11H-28.0333C-37.1974 265.11 -41.4731 270.246 -36.2506 274.981C-32.9429 277.981 -11.2397 277.82 -8.4903 274.775C-7.41605 273.585 -6.53659 271.805 -6.53659 270.819C-6.53659 268.779 -10.176 265.11 -12.1994 265.11C-12.9396 265.11 -13.2618 264.369 -12.9148 263.464C-12.0518 261.21 -19.2198 253.286 -23.8921 251.33C-28.4677 249.415 -38.0757 249.293 -41.361 251.109ZM97.8905 252.985C97.5163 254.773 96.71 258.47 96.0974 261.198C94.4896 268.369 94.7304 274.07 96.71 275.717C97.658 276.506 100.608 277.444 103.265 277.801C106.671 278.259 107.918 278.922 107.487 280.047C107.15 280.924 106.516 284.352 106.078 287.666L105.28 293.689L108.66 293.299C111.598 292.959 112.17 292.251 113.027 287.881C114.306 281.354 116.558 281.479 118.346 288.177C119.63 292.988 120.107 293.5 123.312 293.5C127.259 293.5 127.459 292.829 125.487 286.229C124.27 282.158 124.383 281.342 126.491 278.994C131.924 272.945 130.492 267.124 123.021 264.881L118.392 263.491L119.178 258.235C119.612 255.343 120.245 252.248 120.587 251.355C121.04 250.173 120.103 249.732 117.14 249.732H113.07L111.55 258.308C109.399 270.436 108.572 272.207 105.049 272.207C101.542 272.207 101.446 271.276 103.839 260.378C106.145 249.877 106.12 249.732 102.091 249.732C99.2044 249.732 98.4489 250.316 97.8905 252.985ZM154.797 250.521C154.364 250.954 154.01 257.075 154.01 264.124V276.939H159.322H164.634V268.659V260.378H180.571H196.507V255.055V249.732H176.046C164.791 249.732 155.229 250.087 154.797 250.521ZM37.7246 256.84C37.3209 257.496 37.3244 259.093 37.7352 260.389C38.7894 263.716 45.9963 263.691 47.7788 260.353C48.4812 259.039 48.7338 257.442 48.3407 256.804C47.3999 255.278 38.6702 255.307 37.7246 256.84ZM54.5536 256.56C52.11 257.084 51.9507 258.117 53.9634 260.38C55.2017 261.772 55.086 261.769 53.2457 260.366C51.312 258.891 50.854 258.964 49.3831 260.98C48.4647 262.239 47.9913 263.948 48.3301 264.78C48.6689 265.612 49.2969 267.163 49.7243 268.228C50.259 269.558 49.9922 269.994 48.872 269.619C47.9748 269.32 46.9383 267.789 46.5676 266.217C46.1096 264.271 45.6044 263.829 44.987 264.831C44.4203 265.75 42.9341 266.013 41.0253 265.533C38.6985 264.948 38.1956 265.131 38.9169 266.3C39.5071 267.257 39.0609 268.423 37.7305 269.397C35.7874 270.821 35.7721 271.026 37.5511 271.709C38.6241 272.122 39.5024 273.533 39.5024 274.844C39.5024 276.83 39.7987 276.983 41.2732 275.756C42.6862 274.581 43.4016 274.581 44.8146 275.756C46.2926 276.985 46.5854 276.821 46.5854 274.76C46.5854 272.03 49.7621 269.841 53.725 269.841C55.8817 269.841 56.217 269.296 55.8038 266.47C55.3115 263.112 55.3269 263.103 59.9567 264.146C62.5125 264.721 64.7802 265.015 64.9951 264.8C65.2099 264.585 64.3966 262.779 63.1889 260.788C60.946 257.094 58.2391 255.767 54.5536 256.56ZM23.181 259.567C19.3621 263.642 19.8331 265.465 24.4512 264.48C26.5607 264.031 29.2381 262.823 30.4009 261.795C32.416 260.013 32.4301 260.087 30.7031 263.405C28.165 268.282 28.4271 269.841 31.7879 269.841C36.8617 269.841 38.7021 263.726 34.9375 259.376C31.9768 255.956 26.4828 256.045 23.181 259.567ZM202.41 273.323V281.671H185.818H169.226L169.586 287.29L169.946 292.909L190.253 293.231C214.517 293.618 213.288 294.491 212.782 277.232L212.444 265.701L207.427 265.338L202.41 264.974V273.323ZM-30.3258 268.522C-27.9353 270.04 -29.2043 273.928 -32.2299 274.36C-35.0867 274.768 -36.7665 272.239 -35.6215 269.25C-34.8671 267.278 -32.7446 266.986 -30.3258 268.522ZM-34.0561 269.423C-35.7277 271.097 -34.7821 273.39 -32.4211 273.39C-30.7708 273.39 -30.0979 272.748 -30.3553 271.418C-30.7767 269.241 -32.7918 268.155 -34.0561 269.423ZM122.621 271.766C123.637 274.419 121.256 276.939 117.735 276.939C115.545 276.939 114.983 276.465 115.518 275.068C115.912 274.038 116.234 272.442 116.234 271.519C116.234 269.172 121.708 269.384 122.621 271.766ZM28.9607 272.503C29.0067 273.317 29.4588 275.046 29.9653 276.346C30.5921 277.956 30.3005 279.14 29.0504 280.056C27.5724 281.138 27.4343 282.274 28.3421 285.882C29.6796 291.202 32.004 292.416 33.4867 288.572C34.2469 286.599 34.0202 284.966 32.6887 282.854C30.9663 280.119 30.9734 280.017 32.7737 281.496C34.4712 282.889 34.9021 282.699 36.1215 280.017C38.0965 275.673 35.8913 271.024 31.854 271.024C30.2155 271.024 28.9158 271.689 28.9607 272.503ZM49.5236 273.836C48.0208 276.135 47.9417 277.216 49.0951 279.751C49.8707 281.458 50.8918 282.854 51.3628 282.854C52.4949 282.854 56.0293 275.327 56.0293 272.916C56.0293 270.018 51.6119 270.642 49.5236 273.836ZM37.1415 281.672C35.5136 285.61 36.6657 288.082 40.7301 289.375C42.7511 290.017 50.1268 287.15 50.1268 285.722C50.1268 285.38 49.3158 283.531 48.3254 281.612C46.8746 278.8 45.7555 278.122 42.567 278.122C39.2817 278.122 38.3585 278.725 37.1415 281.672ZM53.1961 282.247C50.043 287.07 52.3757 293.932 55.7141 289.655C57.7233 287.081 58.1919 283.033 56.7128 281.007C55.4284 279.248 55.0766 279.371 53.1961 282.247ZM71.267 312.762C66.9193 315.698 28.5628 368.922 29.5922 370.591C30.5732 372.181 48.2675 371.758 50.3216 370.094C51.3262 369.282 54.6623 365.022 57.7339 360.631C60.8055 356.24 63.6717 352.655 64.1014 352.664C64.5311 352.675 67.493 356.643 70.6838 361.484C73.8747 366.326 77.2379 370.576 78.1587 370.93C80.9163 371.99 98.3368 371.656 99.0309 370.53C99.385 369.955 98.711 368.225 97.5317 366.685C96.3535 365.144 90.9658 357.339 85.5592 349.341C78.8257 339.377 76.1129 334.414 76.944 333.581C77.7762 332.747 80.8644 336.395 86.7503 345.167C98.0027 361.936 103.482 369.6 104.981 370.668C106.627 371.842 125.389 371.816 126.115 370.639C127.06 369.107 89.4394 315.612 85.3856 312.723C80.6342 309.336 76.3218 309.348 71.267 312.762Z" fill="white"/>
</g>
<defs>
<clipPath id="clip0_23_17">
<rect width="88" height="88" fill="white"/>
</clipPath>
</defs>
</svg>
