<svg width="88" height="88" viewBox="0 0 88 88" fill="none" xmlns="http://www.w3.org/2000/svg">
<g clip-path="url(#clip0_23_21)">
<path fill-rule="evenodd" clip-rule="evenodd" d="M-120 137.5V430H191.5H503V137.5V-155H191.5H-120V137.5ZM395.115 135.36V375.78H189.98H-15.1537V135.36V-105.061H189.98H395.115V135.36ZM46.7513 -73.6707C46.2893 -72.4936 45.1573 -67.7052 44.2365 -63.0294C41.8752 -51.0341 40.3374 -50.3934 35.8138 -59.5194L31.9816 -67.25L31.9664 -56.1921C31.9573 -50.1095 31.3024 -45.1342 30.5092 -45.1342C29.716 -45.1342 27.2407 -47.3814 25.0101 -50.1281C22.7794 -52.8747 20.4196 -55.122 19.7663 -55.122C18.7208 -55.122 23.3022 -35.6586 24.6454 -34.3973C26.0965 -33.0346 41.8919 -39.3569 44.4522 -42.3261L47.4016 -45.7463L50.1656 -42.3047C52.7351 -39.1072 67.8041 -33.1944 70.056 -34.5C70.6015 -34.8182 71.8734 -39.0102 72.8793 -43.8172C73.8867 -48.6242 75.0871 -53.6152 75.546 -54.9094C76.0049 -56.2035 73.6208 -54.3729 70.2505 -50.8415C64.9535 -45.294 63.9719 -44.7732 63.0298 -47.0133C62.4296 -48.4401 62.3065 -53.4155 62.7548 -58.0712C63.2045 -62.727 63.1255 -66.5209 62.577 -66.5023C62.03 -66.4838 60.0303 -63.1579 58.1355 -59.1099C53.8459 -49.9525 52.258 -51.0912 49.5867 -65.2382C48.4896 -71.0525 47.2132 -74.8479 46.7513 -73.6707ZM124.98 -71.4492C122.142 -69.5829 121.602 -67.8906 121.602 -60.8507C121.602 -48.9409 123.025 -47.9878 140.805 -47.9878C160.081 -47.9878 161.11 -48.6013 161.11 -60.0845C161.11 -67.9163 160.625 -69.5472 157.732 -71.4492C153.002 -74.5611 129.711 -74.5611 124.98 -71.4492ZM225.364 -71.3165C223.515 -70.9398 219.924 -68.811 217.386 -66.5851C211.849 -61.7282 211.317 -55.8183 215.923 -50.3207L219.072 -46.561H214.475C209.379 -46.561 202.137 -43.9142 202.137 -42.0508C202.137 -41.393 214.958 -40.8579 230.627 -40.8637C256.503 -40.8722 259.536 -41.1333 263.677 -43.7073L268.235 -46.5424L258.865 -46.551L249.494 -46.561L252.645 -51.963C255.484 -56.8284 255.584 -57.773 253.659 -61.4656C250.424 -67.6695 244.362 -71.1638 236.058 -71.609C232.027 -71.8244 227.215 -71.6931 225.364 -71.3165ZM334.588 -68.9708C333.626 -66.7777 332.426 -63.4389 331.921 -61.5498C331.12 -58.5563 329.999 -58.0612 323.172 -57.6888L315.34 -57.2622L321.02 -53.6951C324.143 -51.7332 326.708 -49.6358 326.718 -49.0337C326.727 -48.4316 323.249 -42.1278 318.986 -35.0279C314.723 -27.9266 311.513 -21.8569 311.85 -21.5387C312.189 -21.2219 317.54 -25.7578 323.742 -31.6206C329.944 -37.4835 335.594 -42.2805 336.297 -42.2805C337.001 -42.2805 340.043 -40.5155 343.058 -38.3567L348.539 -34.4329L347.551 -38.7134C347.008 -41.0677 346.151 -44.3451 345.647 -45.9988C344.925 -48.3645 346.112 -49.9554 351.228 -53.4897L357.726 -57.9756H349.429H341.132L338.735 -65.4665L336.337 -72.9573L334.588 -68.9708ZM236.766 -64.178C238.679 -63.0437 241.354 -59.9318 242.711 -57.2608C245.64 -51.4935 243.672 -47.9878 237.508 -47.9878C232.024 -47.9878 223.41 -56.5474 223.41 -61.995C223.41 -68.2887 228.441 -69.1106 236.766 -64.178ZM153.512 -60.1159V-55.122H141.356H129.2V-60.1159V-65.1098H141.356H153.512V-60.1159ZM126.161 -44.7204C122.824 -43.1409 122.307 -41.8639 121.914 -34.2061C121.273 -21.7042 122.519 -20.8781 142.038 -20.8781C153.675 -20.8781 158.156 -21.396 159.481 -22.8942C160.551 -24.1041 161.079 -28.5045 160.806 -33.9164C160.403 -41.881 159.911 -43.1295 156.551 -44.7204C154.462 -45.7092 147.624 -46.5196 141.356 -46.5196C135.088 -46.5196 128.25 -45.7092 126.161 -44.7204ZM153.512 -33.0061V-28.0122H141.356H129.2V-33.0061V-38H141.356H153.512V-33.0061ZM31.9512 -33.2187C28.3287 -31.9388 26.4688 -30.2894 26.1193 -28.0493C25.6726 -25.1857 26.0646 -24.896 29.1584 -25.8149C43.849 -30.1767 50.5926 -30.1924 64.7909 -25.8991C69.8403 -24.3724 70.7079 -28.8997 65.929 -31.8404C60.8128 -34.988 39.4166 -35.8555 31.9512 -33.2187ZM203.656 -33.0061C200.268 -31.1869 203.142 -30.9657 230.248 -30.9615C254.622 -30.9572 261.221 -31.371 263.587 -33.0518C266.213 -34.9166 263.289 -35.1406 236.996 -35.0964C214.252 -35.0565 206.581 -34.5756 203.656 -33.0061ZM205.555 -23.4178C203.674 -22.566 202.137 -21.3247 202.137 -20.6597C202.137 -19.9948 214.958 -19.4555 230.627 -19.4612C256.503 -19.4698 259.536 -19.7309 263.677 -22.3049L268.235 -25.14L238.605 -25.053C220.612 -25.0002 207.631 -24.3567 205.555 -23.4178ZM341.944 18.8492C337.302 25.2371 336.48 25.8021 335.12 23.5434C332.88 19.8223 327.208 13.3658 326.177 13.3658C323.699 13.3658 320.388 22.8343 321.107 27.8667C321.981 33.9792 321.38 34.3702 316.273 31.0115C313.304 29.0581 312.515 29.001 311.399 30.6547C308.156 35.4632 312.579 45.6564 318.514 47.0561C324.457 48.4559 327.496 46.0502 327.496 39.9448C327.496 36.0482 328.127 34.7668 330.048 34.7668C331.45 34.7683 333.605 33.8237 334.834 32.668C336.803 30.8188 337.293 30.8188 338.928 32.668C339.949 33.8237 341.976 34.7683 343.431 34.7683C345.49 34.7683 346.039 35.9126 345.904 39.9277C345.699 46.0345 348.709 48.4701 354.712 47.0561C360.648 45.6564 365.071 35.4632 361.828 30.6547C360.711 29.001 359.923 29.0581 356.954 31.0115C351.988 34.2775 350.888 33.9236 352.631 29.6189C353.82 26.681 353.409 24.3867 350.681 18.7407L347.223 11.5852L341.944 18.8492ZM33.0377 24.2654L21.2098 30.8402L21.6413 44.3837L22.0744 57.9272L33.65 64.2023L45.2257 70.4775L57.5823 63.9526L69.939 57.4278V44.1497V30.873L57.8179 24.2597C51.1518 20.6227 45.5098 17.6563 45.2819 17.6677C45.054 17.6806 39.5442 20.6484 33.0377 24.2654ZM214.673 20.0177L208.215 22.1651V46.4212C208.215 65.2682 208.639 70.5118 210.114 69.9368C211.159 69.5301 214.578 68.4115 217.712 67.4527L223.41 65.7062V49.048C223.41 39.8863 223.819 32.0059 224.318 31.5379C224.818 31.0685 226.192 31.0328 227.373 31.458C229.125 32.0887 229.359 35.4004 228.644 49.5517C228.163 59.0772 228.383 67.6981 229.132 68.7083C230.219 70.1708 231.937 69.9625 237.59 67.6881L244.683 64.833V47.6611C244.683 33.3472 245.063 30.4878 246.962 30.4878C248.216 30.4878 249.278 30.9701 249.324 31.5579C249.536 34.3559 250.25 52.1984 250.491 60.7837L250.761 70.3919L257.979 67.7309L265.196 65.0699L265.617 43.2023C265.85 31.1741 265.701 20.5071 265.288 19.4955C264.71 18.0829 262.244 18.4411 254.61 21.0422C245.639 24.1013 244.683 24.1912 244.683 21.9882C244.683 17.9488 243.282 17.7619 234.441 20.6184C223.917 24.0171 223.41 24.0128 223.41 20.5C223.41 17.1883 223.217 17.1783 214.673 20.0177ZM108.711 24.4238C104.383 34.6199 89.6927 72.5279 89.6927 73.5024C89.6927 74.1716 97.2127 74.7195 106.403 74.7195H123.113L125.135 70.0823L127.159 65.4451L116.293 64.7317L105.427 64.0183L113.506 43.3293C117.95 31.9503 121.589 22.4804 121.595 22.2835C121.599 22.0866 118.94 21.9268 115.687 21.9268C111.47 21.9268 109.468 22.6431 108.711 24.4238ZM125.394 23.7104C125.023 24.692 121.7 33.0846 118.007 42.3633C110.863 60.3171 110.932 61.1332 119.55 60.2015C123.531 59.7706 124.341 58.4836 131.052 41.9024C135.024 32.093 138.284 23.5848 138.296 22.9969C138.334 21.1392 126.108 21.8155 125.394 23.7104ZM142.108 23.7104C141.737 24.692 138.414 33.0846 134.722 42.3633C127.573 60.3256 127.644 61.1304 136.29 60.2015C140.308 59.7692 141.075 58.5421 147.74 41.9024C151.669 32.093 154.916 23.5848 154.957 22.9969C155.086 21.1364 142.822 21.817 142.108 23.7104ZM158.797 23.7104C153.111 38.2412 145.915 58.0513 145.915 59.1756C145.915 59.9747 148.449 60.4255 151.578 60.1801L157.243 59.7378L164.421 41.9024C168.368 32.093 171.632 23.5848 171.673 22.9969C171.801 21.1378 159.537 21.817 158.797 23.7104ZM53.3991 28.5744C57.4821 30.6604 60.8219 32.8378 60.8219 33.4128C60.8219 34.7968 46.768 50.4634 45.5265 50.4634C44.9962 50.4634 41.0425 46.6638 36.7407 42.018L28.9183 33.574L36.8927 29.2079C41.278 26.808 45.1163 24.829 45.4217 24.8119C45.7256 24.7948 49.3162 26.4884 53.3991 28.5744ZM38.0293 52.7392C38.0293 53.0574 35.636 53.3171 32.711 53.3171C27.4048 53.3171 27.3927 53.3028 27.3927 46.7608V40.2059L32.711 46.1829C35.636 49.4703 38.0293 52.421 38.0293 52.7392ZM63.861 46.8963V53.3171H57.6766H51.4921L57.2967 46.9434C60.4892 43.4377 63.2714 40.5484 63.4811 40.5227C63.6908 40.497 63.861 43.3649 63.861 46.8963ZM326.357 47.5127C317.904 55.5529 316.772 60.9263 322.973 63.5788C326.214 64.9657 327.496 64.7403 331.269 62.122C333.723 60.4184 336.127 59.0244 336.613 59.0244C337.1 59.0244 339.504 60.4184 341.958 62.122C345.73 64.7403 347.013 64.9657 350.254 63.5788C356.559 60.8821 355.337 55.5172 346.575 47.4186C342.444 43.6004 337.829 40.5141 336.319 40.5612C334.81 40.6083 330.327 43.7373 326.357 47.5127ZM48.6659 58.9559L53.9841 59.1257L50.1854 61.1646C45.1467 63.8699 43.5724 63.7971 39.4622 60.6724L35.9992 58.0385L39.6734 58.4123C41.6943 58.6177 45.7408 58.8631 48.6659 58.9559ZM319.162 105.753C319.141 109.989 318.712 110.407 314.201 110.584C310.63 110.726 310.209 110.95 312.681 111.398C316.898 112.159 316.989 113.472 313.061 116.811C308.452 120.728 309.37 122.013 316.431 121.53C322.284 121.13 322.97 120.666 324.328 116.192C325.421 112.598 325.333 111.139 323.997 110.721C322.997 110.409 322.167 109.082 322.155 107.775C322.142 106.466 321.468 104.433 320.659 103.256C319.54 101.632 319.18 102.234 319.162 105.753ZM28.9122 132.586V158.902H34.2305H39.5488V141.78V124.659H44.8671H50.1854V141.78V158.902H61.5817H72.978V149.628V140.354H67.7357H62.4934L62.0376 132.149C61.5863 124.038 61.5255 123.939 56.6433 123.499L51.7049 123.05V114.659V106.268H40.3085H28.9122V132.586ZM133.082 110.325C125.363 115.103 124.003 119.264 123.386 139.997C122.892 156.587 123.122 158.902 125.252 158.902C127.358 158.902 127.68 156.324 127.68 139.498V120.093L132.847 115.241C138.964 109.497 145.497 108.856 153.17 113.25C165.451 120.281 162.213 138.37 148.194 141.05L143.635 141.922L148.323 139.879C160.125 134.735 162.806 124.539 154.424 116.668C147.148 109.837 138.521 110.366 131.893 118.048C129.704 120.585 129.262 124.242 129.233 139.997C129.214 151.67 129.782 158.902 130.72 158.902C131.57 158.902 132.239 154.993 132.239 150.026V141.15L141.777 150.026C147.022 154.907 152.306 158.902 153.517 158.902C154.729 158.902 150.267 153.679 143.6 147.294C136.933 140.909 132.505 136.219 133.759 136.871C135.012 137.523 140.721 142.746 146.445 148.479C153.011 155.056 158.037 158.902 160.063 158.902C162.772 158.902 162.126 157.808 155.945 151.915C149.259 145.54 148.888 144.845 151.73 143.999C153.442 143.488 156.939 140.832 159.496 138.095C163.381 133.941 164.149 131.924 164.149 125.868C164.149 119.346 163.555 118.058 158.25 113.076C153.008 108.154 151.526 107.538 144.954 107.547C140.195 107.552 135.962 108.544 133.082 110.325ZM326.864 115.607C326.021 118.476 325.688 121.365 326.124 122.027C327.151 123.588 339.991 123.6 341.017 122.04C341.449 121.385 341.032 118.496 340.092 115.62C338.577 110.985 337.815 110.39 333.391 110.39C328.938 110.39 328.233 110.954 326.864 115.607ZM342.278 116.098C343.784 121.666 343.982 121.805 350.474 121.805C354.133 121.805 357.107 121.323 357.083 120.735C356.966 117.928 347.72 110.39 344.393 110.39C340.882 110.39 340.797 110.619 342.278 116.098ZM227.429 123.945L215.609 136.073H206.858C199.676 136.073 197.516 136.665 194.803 139.375C192.986 141.191 191.5 143.117 191.5 143.655C191.5 144.195 197.639 144.634 205.141 144.634H218.783L231.182 132.506L243.583 120.378H252.226C259.295 120.378 261.469 119.777 264.172 117.076C265.99 115.26 267.476 113.334 267.476 112.796C267.476 112.257 261.124 111.817 253.362 111.817H239.249L227.429 123.945ZM152.373 118.627C156.124 121.721 155.892 130.62 151.973 133.95C147.349 137.88 140.042 137.299 135.798 132.664C131.614 128.097 131.335 125.079 134.681 120.593C139.176 114.568 146.466 113.758 152.373 118.627ZM136.798 120.378C130.713 126.091 135.354 135.121 144.374 135.121C150.172 135.121 153.512 131.757 153.512 125.914C153.512 117.994 143.034 114.522 136.798 120.378ZM148.893 122.45C152.93 127.017 147.001 134.033 141.736 130.919C136.475 127.808 138.349 120.378 144.395 120.378C145.861 120.378 147.885 121.31 148.893 122.45ZM229.117 138.34C220.545 146.649 213.305 154.033 213.027 154.749C212.747 155.464 215.065 156.049 218.174 156.049C223.256 156.049 224.952 154.932 234.95 144.991L246.073 133.933L246.137 144.724C246.198 154.646 246.546 155.823 250.465 159.349C252.808 161.458 255.031 163.183 255.403 163.183C256.523 163.181 257.16 129.28 256.099 126.142C255.361 123.959 253.814 123.232 249.909 123.232C245.288 123.232 242.946 124.934 229.117 138.34ZM310.022 124.639C310.022 126.747 326.974 147.742 327.942 146.831C328.812 146.014 323.818 127.304 322.354 125.901C320.508 124.132 310.022 123.059 310.022 124.639ZM349.06 124.262C346.712 124.593 344.486 125.62 344.114 126.545C341.429 133.205 337.814 147.488 338.814 147.488C340.11 147.488 355.302 128.494 356.656 125.178C357.46 123.213 356.937 123.15 349.06 124.262ZM325.899 128.582C329.49 142.514 333.228 152.141 334.317 150.264C335.399 148.4 341.932 127.031 341.932 125.356C341.932 124.972 338.096 124.659 333.41 124.659H324.887L325.899 128.582ZM136.851 203.04C134.527 207.116 134.783 207.415 140.596 207.415C145.969 207.415 146.668 206.638 144.992 202.538C143.711 199.404 138.749 199.711 136.851 203.04ZM32.711 203.368C27.8698 205.877 21.228 212.078 18.9001 216.261C15.8307 221.777 16.1817 234.268 19.5717 240.255C21.1216 242.988 25.2486 247.129 28.7435 249.455C36.7635 254.794 47.6569 255.203 57.2496 250.528C62.5679 247.935 69.939 239.992 69.939 236.853C69.939 234.556 55.7711 236.108 52.1197 238.805C42.7048 245.758 28.9122 238.524 28.9122 226.633C28.9122 224.719 30.8982 221.067 33.3264 218.515C36.9975 214.659 38.7708 213.902 43.852 214.027C47.59 214.119 51.562 215.358 54.0783 217.217L58.1932 220.256H49.8663C38.0703 220.256 32.5666 226.451 39.2889 232.163C43.5466 235.781 71.4828 235.587 75.0218 231.915C76.4045 230.479 77.5366 228.332 77.5366 227.142C77.5366 224.682 72.8519 220.256 70.2475 220.256C69.2948 220.256 68.8799 219.363 69.3267 218.271C70.4374 215.552 61.2109 205.995 55.1967 203.635C49.3071 201.325 36.9398 201.178 32.711 203.368ZM211.954 205.631C211.472 207.788 210.435 212.247 209.646 215.538C207.576 224.187 207.886 231.064 210.435 233.05C211.655 234.002 215.452 235.134 218.873 235.565C223.256 236.117 224.861 236.916 224.306 238.273C223.873 239.331 223.057 243.466 222.493 247.463L221.466 254.728L225.817 254.257C229.599 253.848 230.334 252.993 231.437 247.723C233.084 239.849 235.982 240.001 238.284 248.079C239.937 253.882 240.551 254.5 244.677 254.5C249.757 254.5 250.015 253.691 247.476 245.729C245.909 240.82 246.055 239.835 248.769 237.003C255.762 229.707 253.919 222.686 244.302 219.981L238.344 218.304L239.356 211.963C239.913 208.476 240.729 204.742 241.168 203.665C241.752 202.24 240.545 201.707 236.731 201.707H231.494L229.536 212.052C226.768 226.681 225.703 228.817 221.168 228.817C216.654 228.817 216.531 227.694 219.611 214.549C222.579 201.883 222.547 201.707 217.361 201.707C213.645 201.707 212.673 202.412 211.954 205.631ZM285.204 202.659C284.646 203.181 284.19 210.565 284.19 219.068V234.524H291.028H297.866V224.537V214.549H318.379H338.893V208.128V201.707H312.555C298.068 201.707 285.76 202.135 285.204 202.659ZM134.509 210.281C133.99 211.073 133.994 212.999 134.523 214.562C135.88 218.575 145.156 218.545 147.451 214.519C148.355 212.934 148.68 211.007 148.174 210.238C146.963 208.398 135.726 208.432 134.509 210.281ZM156.171 209.943C153.026 210.575 152.821 211.822 155.412 214.552C157.006 216.23 156.857 216.227 154.488 214.534C151.999 212.755 151.409 212.844 149.516 215.275C148.334 216.793 147.724 218.855 148.16 219.858C148.597 220.862 149.405 222.733 149.955 224.017C150.643 225.621 150.3 226.147 148.858 225.695C147.703 225.334 146.369 223.488 145.892 221.592C145.302 219.244 144.652 218.711 143.857 219.919C143.128 221.028 141.215 221.346 138.758 220.767C135.763 220.061 135.115 220.282 136.044 221.691C136.804 222.846 136.229 224.253 134.517 225.427C132.016 227.145 131.996 227.392 134.286 228.216C135.667 228.714 136.798 230.417 136.798 231.997C136.798 234.393 137.179 234.577 139.077 233.098C140.896 231.681 141.817 231.681 143.635 233.098C145.538 234.58 145.915 234.382 145.915 231.896C145.915 228.603 150.004 225.963 155.105 225.963C157.881 225.963 158.312 225.306 157.781 221.897C157.147 217.846 157.167 217.836 163.126 219.093C166.416 219.787 169.335 220.142 169.611 219.882C169.888 219.623 168.841 217.445 167.287 215.044C164.4 210.588 160.915 208.987 156.171 209.943ZM115.789 213.57C110.873 218.485 111.479 220.684 117.424 219.497C120.139 218.955 123.585 217.498 125.082 216.258C127.676 214.108 127.694 214.198 125.471 218.2C122.204 224.083 122.541 225.963 126.868 225.963C133.398 225.963 135.767 218.587 130.922 213.34C127.111 209.215 120.039 209.322 115.789 213.57ZM346.49 230.163V240.232H325.134H303.777L304.24 247.009L304.704 253.787L330.842 254.176C362.074 254.643 360.493 255.696 359.841 234.878L359.406 220.969L352.948 220.531L346.49 220.092V230.163ZM46.9154 224.373C49.9924 226.203 48.3589 230.893 44.4644 231.414C40.7872 231.906 38.6249 228.856 40.0988 225.25C41.0698 222.871 43.8019 222.519 46.9154 224.373ZM42.1137 225.458C39.9621 227.477 41.1792 230.244 44.2182 230.244C46.3425 230.244 47.2086 229.469 46.8774 227.865C46.3349 225.239 43.7411 223.929 42.1137 225.458ZM243.786 228.285C245.095 231.485 242.03 234.524 237.497 234.524C234.678 234.524 233.955 233.952 234.644 232.267C235.151 231.026 235.566 229.1 235.566 227.987C235.566 225.156 242.612 225.411 243.786 228.285ZM123.228 229.174C123.288 230.155 123.87 232.241 124.521 233.81C125.328 235.751 124.953 237.18 123.344 238.284C121.441 239.59 121.264 240.959 122.432 245.311C124.154 251.728 127.146 253.193 129.054 248.556C130.033 246.176 129.741 244.207 128.027 241.659C125.81 238.36 125.819 238.237 128.136 240.021C130.321 241.701 130.876 241.472 132.446 238.237C134.988 232.998 132.149 227.39 126.953 227.39C124.844 227.39 123.171 228.192 123.228 229.174ZM149.697 230.782C147.762 233.554 147.661 234.858 149.145 237.916C150.143 239.975 151.458 241.659 152.064 241.659C153.521 241.659 158.071 232.58 158.071 229.672C158.071 226.176 152.385 226.929 149.697 230.782ZM133.759 240.233C131.663 244.983 133.146 247.965 138.378 249.525C140.979 250.299 150.473 246.841 150.473 245.119C150.473 244.706 149.429 242.476 148.154 240.16C146.287 236.769 144.846 235.951 140.742 235.951C136.513 235.951 135.325 236.679 133.759 240.233ZM154.424 240.927C150.365 246.744 153.368 255.021 157.665 249.863C160.251 246.758 160.854 241.875 158.951 239.431C157.297 237.31 156.844 237.458 154.424 240.927ZM177.685 277.733C172.088 281.274 122.716 345.473 124.041 347.486C125.304 349.404 148.08 348.893 150.724 346.887C152.017 345.907 156.311 340.769 160.265 335.473C164.219 330.176 167.908 325.851 168.461 325.863C169.014 325.876 172.827 330.663 176.934 336.501C181.041 342.341 185.37 347.468 186.556 347.895C190.105 349.173 212.529 348.771 213.422 347.412C213.878 346.719 213.01 344.633 211.492 342.775C209.976 340.916 203.041 331.502 196.081 321.855C187.414 309.837 183.922 303.85 184.992 302.845C186.063 301.839 190.038 306.24 197.615 316.82C212.099 337.046 219.152 346.291 221.08 347.579C223.2 348.995 247.35 348.963 248.284 347.544C249.501 345.696 201.076 281.172 195.858 277.686C189.742 273.601 184.191 273.615 177.685 277.733Z" fill="white"/>
</g>
<defs>
<clipPath id="clip0_23_21">
<rect width="88" height="88" fill="white"/>
</clipPath>
</defs>
</svg>
