<svg width="88" height="88" viewBox="0 0 88 88" fill="none" xmlns="http://www.w3.org/2000/svg">
<g clip-path="url(#clip0_23_18)">
<path fill-rule="evenodd" clip-rule="evenodd" d="M-247 201V453H10H267V201V-51H10H-247V201ZM177.99 199.156V406.288H8.74634H-160.498V199.156V-7.97561H8.74634H177.99V199.156ZM-109.424 19.0683C-109.805 20.0824 -110.739 24.2079 -111.498 28.2362C-113.447 38.5706 -114.715 39.1226 -118.447 31.2602L-121.609 24.6L-121.622 34.1268C-121.629 39.3672 -122.169 43.6537 -122.824 43.6537C-123.478 43.6537 -125.52 41.7176 -127.361 39.3512C-129.201 36.9849 -131.148 35.0488 -131.687 35.0488C-132.55 35.0488 -128.77 51.8172 -127.662 52.9039C-126.464 54.0779 -113.433 48.631 -111.32 46.0729L-108.887 43.1263L-106.607 46.0913C-104.487 48.8461 -92.0541 53.9402 -90.1961 52.8154C-89.7461 52.5413 -88.6968 48.9297 -87.8669 44.7883C-87.0357 40.6469 -86.0453 36.3469 -85.6667 35.2319C-85.2881 34.117 -87.2551 35.6941 -90.0357 38.7366C-94.4059 43.516 -95.2158 43.9647 -95.9931 42.0347C-96.4883 40.8054 -96.5898 36.519 -96.22 32.5079C-95.8489 28.4968 -95.9141 25.2282 -96.3667 25.2441C-96.818 25.2601 -98.4678 28.1255 -100.031 31.613C-103.57 39.5024 -104.88 38.5215 -107.084 26.3333C-107.989 21.324 -109.042 18.0541 -109.424 19.0683ZM-44.8814 20.9823C-47.2232 22.5901 -47.6683 24.0481 -47.6683 30.1133C-47.6683 40.374 -46.4949 41.1951 -31.8258 41.1951C-15.9219 41.1951 -15.0732 40.6665 -15.0732 30.7734C-15.0732 24.0259 -15.4731 22.6209 -17.8601 20.9823C-21.7627 18.3012 -40.9788 18.3012 -44.8814 20.9823ZM37.939 21.0966C36.4133 21.4211 33.4509 23.2552 31.3573 25.1728C26.789 29.3573 26.3502 34.4489 30.1501 39.1853L32.7476 42.4244H28.9553C24.7505 42.4244 18.7756 44.7047 18.7756 46.3101C18.7756 46.8768 29.354 47.3378 42.2817 47.3329C63.6303 47.3255 66.1326 47.1005 69.5488 44.8829L73.3098 42.4404L65.5784 42.433L57.8471 42.4244L60.4472 37.7704C62.7891 33.5786 62.8718 32.7648 61.2834 29.5835C58.6144 24.2386 53.6135 21.2281 46.7623 20.8446C43.4363 20.659 39.466 20.7721 37.939 21.0966ZM128.053 23.1175C127.26 25.0069 126.269 27.8834 125.853 29.5109C125.192 32.0899 124.267 32.5165 118.635 32.8373L112.173 33.2049L116.859 36.2781C119.436 37.9683 121.552 39.7753 121.561 40.2941C121.568 40.8128 118.698 46.2437 115.181 52.3606C111.664 58.4786 109.015 63.7079 109.294 63.9821C109.573 64.255 113.988 60.3471 119.105 55.2961C124.222 50.245 128.883 46.1122 129.464 46.1122C130.044 46.1122 132.554 47.6328 135.041 49.4927L139.563 52.8732L138.748 49.1854C138.301 47.1571 137.594 44.3334 137.177 42.9087C136.582 40.8706 137.561 39.5 141.782 36.4551L147.143 32.5902H140.298H133.453L131.474 26.1366L129.496 19.6829L128.053 23.1175ZM47.3465 27.2466C48.9248 28.2239 51.1313 30.9049 52.2508 33.2061C54.6678 38.1748 53.0444 41.1951 47.9583 41.1951C43.4338 41.1951 36.3268 33.8207 36.3268 29.1274C36.3268 23.7051 40.4777 22.997 47.3465 27.2466ZM-21.3415 30.7463V35.0488H-31.3707H-41.4V30.7463V26.4439H-31.3707H-21.3415V30.7463ZM-43.9073 44.0101C-46.6604 45.3709 -47.0866 46.4711 -47.4113 53.0686C-47.9403 63.8395 -46.9123 64.5512 -30.8078 64.5512C-21.2073 64.5512 -17.5103 64.105 -16.4171 62.8143C-15.5345 61.7718 -15.0982 57.9808 -15.3239 53.3182C-15.6561 46.4564 -16.0623 45.3808 -18.8341 44.0101C-20.5579 43.1583 -26.1994 42.46 -31.3707 42.46C-36.5421 42.46 -42.1835 43.1583 -43.9073 44.0101ZM-21.3415 54.1024V58.4049H-31.3707H-41.4V54.1024V49.8H-31.3707H-21.3415V54.1024ZM-121.634 53.9193C-124.623 55.0219 -126.157 56.443 -126.446 58.3729C-126.814 60.8401 -126.491 61.0896 -123.938 60.298C-111.818 56.5401 -106.254 56.5266 -94.5401 60.2254C-90.3742 61.5407 -89.6583 57.6403 -93.6011 55.1068C-97.8222 52.395 -115.475 51.6476 -121.634 53.9193ZM20.0293 54.1024C17.2336 55.6698 19.6055 55.8603 41.9683 55.864C62.0782 55.8677 67.5229 55.5112 69.4748 54.0631C71.6411 52.4565 69.2291 52.2635 47.5358 52.3016C28.771 52.336 22.4426 52.7502 20.0293 54.1024ZM21.5963 62.3631C20.0443 63.097 18.7756 64.1665 18.7756 64.7393C18.7756 65.3121 29.354 65.7768 42.2817 65.7719C63.6303 65.7645 66.1326 65.5396 69.5488 63.322L73.3098 60.8794L48.8634 60.9544C34.0188 60.9999 23.3088 61.5543 21.5963 62.3631ZM134.122 98.7777C130.292 104.281 129.614 104.768 128.492 102.822C126.644 99.6161 121.964 94.0537 121.114 94.0537C119.07 94.0537 116.338 102.211 116.931 106.547C117.652 111.813 117.156 112.15 112.943 109.256C110.493 107.573 109.843 107.524 108.921 108.949C106.246 113.091 109.895 121.873 114.792 123.079C119.695 124.285 122.202 122.213 122.202 116.952C122.202 113.595 122.723 112.491 124.307 112.491C125.464 112.493 127.242 111.679 128.256 110.683C129.881 109.09 130.285 109.09 131.634 110.683C132.476 111.679 134.149 112.493 135.35 112.493C137.048 112.493 137.501 113.479 137.389 116.938C137.22 122.199 139.704 124.297 144.657 123.079C149.554 121.873 153.203 113.091 150.528 108.949C149.606 107.524 148.955 107.573 146.506 109.256C142.409 112.07 141.501 111.765 142.939 108.056C143.921 105.525 143.581 103.549 141.331 98.6843L138.477 92.5195L134.122 98.7777ZM-120.738 103.444L-130.496 109.109L-130.14 120.777L-129.783 132.445L-120.233 137.851L-110.682 143.258L-100.487 137.636L-90.2927 132.015V120.575V109.137L-100.293 103.439C-105.793 100.306 -110.448 97.7501 -110.636 97.7599C-110.824 97.771 -115.37 100.328 -120.738 103.444ZM29.1183 99.7845L23.7902 101.635V122.532C23.7902 138.77 24.14 143.287 25.3573 142.792C26.2198 142.441 29.0406 141.478 31.6256 140.652L36.3268 139.147V124.795C36.3268 116.902 36.6641 110.113 37.0765 109.71C37.489 109.305 38.6223 109.274 39.5964 109.641C41.0418 110.184 41.2349 113.037 40.6457 125.229C40.2483 133.436 40.4301 140.863 41.0481 141.733C41.9445 142.993 43.3624 142.814 48.026 140.854L53.878 138.395V123.6C53.878 111.268 54.1915 108.805 55.7585 108.805C56.7928 108.805 57.6691 109.22 57.7067 109.727C57.8822 112.137 58.4715 127.509 58.6695 134.906L58.8927 143.184L64.8476 140.891L70.8024 138.599L71.1497 119.759C71.3415 109.396 71.2186 100.206 70.8777 99.3346C70.4013 98.1176 68.3666 98.4262 62.0682 100.667C54.6666 103.303 53.878 103.38 53.878 101.482C53.878 98.0021 52.7222 97.841 45.4284 100.302C36.7455 103.23 36.3268 103.226 36.3268 100.2C36.3268 97.3469 36.1676 97.3383 29.1183 99.7845ZM-58.3043 103.58C-61.8747 112.365 -73.9951 145.024 -73.9951 145.864C-73.9951 146.44 -67.7908 146.912 -60.2086 146.912H-46.4222L-44.7535 142.917L-43.0837 138.922L-52.0486 138.307L-61.0135 137.693L-54.3478 119.868C-50.6821 110.065 -47.6796 101.906 -47.6746 101.737C-47.6708 101.567 -49.8647 101.429 -52.5488 101.429C-56.0277 101.429 -57.68 102.046 -58.3043 103.58ZM-44.5404 102.966C-44.8463 103.812 -47.5881 111.042 -50.6344 119.036C-56.5291 134.504 -56.4715 135.207 -49.362 134.404C-46.0774 134.033 -45.4092 132.924 -39.8718 118.639C-36.5947 110.188 -33.9056 102.858 -33.8956 102.351C-33.8643 100.751 -43.9512 101.333 -44.5404 102.966ZM-30.7502 102.966C-31.0561 103.812 -33.7978 111.042 -36.8442 119.036C-42.7427 134.511 -42.6837 135.205 -35.5504 134.404C-32.2358 134.032 -31.6027 132.975 -26.1041 118.639C-22.8621 110.188 -20.1831 102.858 -20.1492 102.351C-20.0427 100.748 -30.161 101.335 -30.7502 102.966ZM-16.9812 102.966C-21.6724 115.485 -27.6098 132.552 -27.6098 133.521C-27.6098 134.209 -25.5186 134.597 -22.9374 134.386L-18.2637 134.005L-12.3414 118.639C-9.08444 110.188 -6.39159 102.858 -6.35774 102.351C-6.25244 100.749 -16.3707 101.335 -16.9812 102.966ZM-103.939 107.156C-100.57 108.954 -97.8146 110.829 -97.8146 111.325C-97.8146 112.517 -109.41 126.015 -110.434 126.015C-110.871 126.015 -114.134 122.741 -117.683 118.739L-124.136 111.464L-117.557 107.702C-113.939 105.635 -110.772 103.93 -110.52 103.915C-110.27 103.9 -107.307 105.359 -103.939 107.156ZM-116.62 127.975C-116.62 128.249 -118.594 128.473 -121.007 128.473C-125.385 128.473 -125.395 128.461 -125.395 122.825V117.177L-121.007 122.327C-118.594 125.159 -116.62 127.701 -116.62 127.975ZM-95.3073 122.941V128.473H-100.41H-105.512L-100.723 122.982C-98.0892 119.962 -95.7937 117.472 -95.6207 117.45C-95.4477 117.428 -95.3073 119.899 -95.3073 122.941ZM121.262 123.473C114.288 130.399 113.354 135.029 118.47 137.314C121.144 138.509 122.202 138.315 125.315 136.059C127.34 134.591 129.323 133.39 129.724 133.39C130.126 133.39 132.109 134.591 134.134 136.059C137.246 138.315 138.304 138.509 140.978 137.314C146.18 134.991 145.172 130.369 137.943 123.391C134.535 120.102 130.727 117.443 129.481 117.484C128.236 117.524 124.538 120.22 121.262 123.473ZM-107.844 133.331L-103.456 133.478L-106.59 135.234C-110.747 137.565 -112.046 137.502 -115.437 134.81L-118.294 132.541L-115.263 132.863C-113.596 133.04 -110.257 133.251 -107.844 133.331ZM115.326 173.649C115.309 177.298 114.955 177.659 111.233 177.811C108.287 177.933 107.94 178.126 109.979 178.512C113.458 179.168 113.533 180.299 110.293 183.176C106.49 186.55 107.248 187.658 113.073 187.241C117.902 186.897 118.468 186.497 119.589 182.642C120.49 179.546 120.417 178.289 119.315 177.929C118.49 177.66 117.806 176.517 117.796 175.391C117.785 174.263 117.229 172.512 116.561 171.498C115.638 170.099 115.341 170.617 115.326 173.649ZM-124.141 196.766V219.439H-119.754H-115.366V204.688V189.937H-110.978H-106.59V204.688V219.439H-97.1878H-87.7854V211.449V203.459H-92.1105H-96.4356L-96.8117 196.39C-97.184 189.402 -97.2342 189.317 -101.262 188.937L-105.337 188.551V181.322V174.093H-114.739H-124.141V196.766ZM-38.1969 177.587C-44.5655 181.704 -45.6875 185.289 -46.1965 203.151C-46.6039 217.444 -46.4146 219.439 -44.657 219.439C-42.9194 219.439 -42.6537 217.218 -42.6537 202.721V186.003L-38.3912 181.823C-33.344 176.874 -27.9545 176.322 -21.6235 180.107C-11.4915 186.165 -14.163 201.75 -25.7293 204.058L-29.4902 204.81L-25.6227 203.049C-15.8855 198.618 -13.6741 189.833 -20.5893 183.053C-26.5918 177.167 -33.7101 177.623 -39.1785 184.241C-40.9838 186.427 -41.3486 189.578 -41.3724 203.151C-41.3887 213.208 -40.9198 219.439 -40.1463 219.439C-39.4443 219.439 -38.8927 216.071 -38.8927 211.792V204.144L-31.0235 211.792C-26.6958 215.997 -22.3369 219.439 -21.3377 219.439C-20.3373 219.439 -24.0193 214.939 -29.5191 209.438C-35.0201 203.937 -38.6733 199.896 -37.639 200.458C-36.6048 201.02 -31.8948 205.52 -27.1722 210.459C-21.7552 216.125 -17.6081 219.439 -15.9369 219.439C-13.7017 219.439 -14.2345 218.496 -19.3344 213.419C-24.8505 207.927 -25.1564 207.328 -22.812 206.599C-21.3991 206.159 -18.5145 203.87 -16.4046 201.513C-13.1989 197.934 -12.5659 196.196 -12.5659 190.979C-12.5659 185.36 -13.056 184.25 -17.4326 179.957C-21.7577 175.718 -22.98 175.187 -28.4021 175.194C-32.3285 175.199 -35.8212 176.053 -38.1969 177.587ZM121.681 182.138C120.985 184.61 120.711 187.099 121.07 187.67C121.918 189.015 132.511 189.024 133.358 187.681C133.714 187.117 133.37 184.627 132.594 182.149C131.344 178.157 130.716 177.644 127.065 177.644C123.392 177.644 122.81 178.129 121.681 182.138ZM134.398 182.561C135.64 187.359 135.803 187.478 141.16 187.478C144.179 187.478 146.632 187.063 146.612 186.556C146.516 184.138 138.887 177.644 136.143 177.644C133.246 177.644 133.176 177.841 134.398 182.561ZM39.6428 189.322L29.8905 199.771H22.6707C16.7459 199.771 14.9632 200.281 12.7254 202.615C11.2261 204.18 10 205.84 10 206.303C10 206.768 15.0648 207.146 21.2541 207.146H32.5094L42.7393 196.698L52.9704 186.249H60.1012C65.9332 186.249 67.7272 185.731 69.9575 183.404C71.4569 181.839 72.6829 180.18 72.6829 179.716C72.6829 179.252 67.4426 178.873 61.039 178.873H49.395L39.6428 189.322ZM-22.2817 184.74C-19.1864 187.406 -19.3782 195.072 -22.6114 197.942C-26.4263 201.327 -32.4552 200.827 -35.9566 196.834C-39.4079 192.899 -39.6386 190.299 -36.8781 186.434C-33.1697 181.243 -27.1547 180.545 -22.2817 184.74ZM-35.1317 186.249C-40.1514 191.171 -36.3227 198.951 -28.881 198.951C-24.097 198.951 -21.3415 196.052 -21.3415 191.018C-21.3415 184.195 -29.9867 181.204 -35.1317 186.249ZM-25.1526 188.034C-21.8216 191.969 -26.7134 198.013 -31.0573 195.331C-35.3975 192.65 -33.8517 186.249 -28.8634 186.249C-27.6536 186.249 -25.9838 187.051 -25.1526 188.034ZM41.0356 201.724C33.9637 208.882 27.99 215.244 27.7606 215.861C27.5299 216.476 29.4417 216.98 32.0067 216.98C36.2002 216.98 37.5993 216.018 45.8484 207.454L55.0251 197.927L55.0778 207.224C55.1279 215.772 55.415 216.786 58.6482 219.824C60.5814 221.641 62.4155 223.127 62.7226 223.127C63.6465 223.126 64.1718 193.918 63.2968 191.215C62.6875 189.334 61.4113 188.707 58.1894 188.707C54.377 188.707 52.4451 190.174 41.0356 201.724ZM107.785 189.919C107.785 191.736 121.771 209.824 122.57 209.039C123.288 208.335 119.167 192.216 117.96 191.007C116.437 189.483 107.785 188.559 107.785 189.919ZM139.993 189.595C138.056 189.88 136.22 190.765 135.912 191.562C133.697 197.3 130.715 209.605 131.54 209.605C132.609 209.605 145.143 193.241 146.26 190.384C146.923 188.691 146.492 188.637 139.993 189.595ZM120.885 193.317C123.847 205.32 126.931 213.614 127.83 211.997C128.723 210.39 134.112 191.981 134.112 190.538C134.112 190.207 130.948 189.937 127.082 189.937H120.05L120.885 193.317ZM-35.0878 257.465C-37.0047 260.977 -36.7941 261.234 -31.9976 261.234C-27.5646 261.234 -26.9879 260.565 -28.3707 257.033C-29.4276 254.333 -33.522 254.597 -35.0878 257.465ZM-121.007 257.748C-125.001 259.909 -130.481 265.251 -132.402 268.856C-134.934 273.608 -134.645 284.369 -131.848 289.527C-130.569 291.882 -127.164 295.45 -124.281 297.453C-117.664 302.053 -108.676 302.406 -100.762 298.378C-96.3742 296.144 -90.2927 289.301 -90.2927 286.596C-90.2927 284.617 -101.982 285.955 -104.994 288.278C-112.762 294.268 -124.141 288.036 -124.141 277.791C-124.141 276.143 -122.503 272.996 -120.5 270.798C-117.471 267.475 -116.008 266.824 -111.815 266.931C-108.731 267.01 -105.454 268.077 -103.378 269.679L-99.9835 272.298H-106.854C-116.586 272.298 -121.126 277.635 -115.58 282.556C-112.067 285.673 -89.019 285.506 -86.0992 282.342C-84.9584 281.105 -84.0244 279.255 -84.0244 278.23C-84.0244 276.111 -87.8894 272.298 -90.0382 272.298C-90.8242 272.298 -91.1665 271.528 -90.7979 270.588C-89.8815 268.245 -97.4937 260.011 -102.456 257.978C-107.315 255.988 -117.518 255.861 -121.007 257.748ZM26.8755 259.698C26.4781 261.556 25.6218 265.398 24.9712 268.232C23.2637 275.684 23.5195 281.609 25.6218 283.32C26.6285 284.14 29.7614 285.115 32.5834 285.486C36.2002 285.962 37.5241 286.651 37.0665 287.82C36.7092 288.732 36.036 292.294 35.5709 295.737L34.7234 301.997L38.3126 301.591C41.433 301.238 42.0398 300.502 42.9499 295.961C44.3089 289.178 46.6996 289.308 48.5989 296.268C49.9629 301.268 50.4694 301.8 53.873 301.8C58.064 301.8 58.2771 301.103 56.1823 294.244C54.8897 290.014 55.0101 289.166 57.2491 286.725C63.0185 280.44 61.4978 274.391 53.5634 272.06L48.6478 270.616L49.4827 265.153C49.9428 262.149 50.616 258.932 50.9783 258.004C51.4597 256.776 50.4643 256.317 47.3177 256.317H42.9963L41.3816 265.229C39.0974 277.833 38.2186 279.673 34.4777 279.673C30.7531 279.673 30.6515 278.706 33.1927 267.38C35.6411 256.468 35.6147 256.317 31.336 256.317C28.2708 256.317 27.4685 256.924 26.8755 259.698ZM87.3094 257.137C86.8493 257.587 86.4732 263.948 86.4732 271.274V284.59H92.1146H97.7561V275.985V267.38H114.68H131.605V261.849V256.317H109.875C97.9228 256.317 87.7682 256.686 87.3094 257.137ZM-37.0197 263.704C-37.4485 264.386 -37.4447 266.046 -37.0084 267.392C-35.8889 270.849 -28.2353 270.824 -26.3423 267.355C-25.5964 265.989 -25.3281 264.329 -25.7456 263.667C-26.7447 262.081 -36.0155 262.111 -37.0197 263.704ZM-19.1476 263.412C-21.7426 263.957 -21.9119 265.031 -19.7744 267.383C-18.4593 268.829 -18.5822 268.826 -20.5366 267.368C-22.5901 265.835 -23.0765 265.912 -24.6386 268.006C-25.6139 269.314 -26.1167 271.09 -25.7569 271.955C-25.3971 272.82 -24.7301 274.432 -24.2763 275.538C-23.7084 276.92 -23.9917 277.373 -25.1814 276.984C-26.1342 276.673 -27.2349 275.082 -27.6286 273.448C-28.115 271.426 -28.6516 270.966 -29.3072 272.007C-29.909 272.963 -31.4873 273.237 -33.5145 272.738C-35.9855 272.129 -36.5195 272.32 -35.7535 273.534C-35.1267 274.529 -35.6006 275.741 -37.0135 276.752C-39.077 278.232 -39.0933 278.445 -37.204 279.156C-36.0644 279.585 -35.1317 281.051 -35.1317 282.413C-35.1317 284.477 -34.817 284.636 -33.2512 283.361C-31.7506 282.14 -30.9909 282.14 -29.4902 283.361C-27.9207 284.638 -27.6098 284.467 -27.6098 282.326C-27.6098 279.489 -24.2362 277.215 -20.0276 277.215C-17.7372 277.215 -17.3811 276.648 -17.8199 273.711C-18.3427 270.221 -18.3264 270.213 -13.4096 271.296C-10.6954 271.893 -8.28712 272.199 -8.05895 271.976C-7.83078 271.752 -8.69455 269.876 -9.97705 267.807C-12.359 263.968 -15.2336 262.589 -19.1476 263.412ZM-52.4648 266.537C-56.5204 270.772 -56.0202 272.666 -51.1159 271.644C-48.8756 271.176 -46.0323 269.921 -44.7974 268.853C-42.6574 267.001 -42.6424 267.078 -44.4765 270.526C-47.1718 275.594 -46.8935 277.215 -43.3244 277.215C-37.9361 277.215 -35.9817 270.859 -39.9796 266.339C-43.1238 262.786 -48.9583 262.878 -52.4648 266.537ZM137.873 280.832V289.507H120.253H102.633L103.015 295.346L103.398 301.185L124.963 301.521C150.731 301.923 149.426 302.83 148.888 284.895L148.529 272.912L143.201 272.535L137.873 272.156V280.832ZM-109.288 275.844C-106.749 277.421 -108.097 281.462 -111.31 281.91C-114.344 282.335 -116.128 279.706 -114.912 276.6C-114.111 274.551 -111.857 274.247 -109.288 275.844ZM-113.25 276.779C-115.025 278.519 -114.021 280.902 -111.513 280.902C-109.761 280.902 -109.046 280.235 -109.319 278.853C-109.767 276.59 -111.907 275.462 -113.25 276.779ZM53.1384 279.215C54.2178 281.972 51.6892 284.59 47.9495 284.59C45.624 284.59 45.0272 284.097 45.5951 282.646C46.0139 281.576 46.3561 279.917 46.3561 278.958C46.3561 276.519 52.1693 276.739 53.1384 279.215ZM-46.3269 279.98C-46.278 280.826 -45.7978 282.623 -45.26 283.974C-44.5943 285.647 -44.904 286.878 -46.2316 287.829C-47.8012 288.954 -47.9479 290.134 -46.9838 293.884C-45.5634 299.412 -43.0949 300.674 -41.5203 296.679C-40.713 294.628 -40.9537 292.932 -42.3678 290.737C-44.1969 287.895 -44.1894 287.789 -42.2776 289.325C-40.4748 290.773 -40.0172 290.576 -38.7222 287.789C-36.6248 283.275 -38.9667 278.444 -43.2542 278.444C-44.9942 278.444 -46.3745 279.135 -46.3269 279.98ZM-24.4894 281.366C-26.0853 283.754 -26.1693 284.878 -24.9445 287.512C-24.1208 289.286 -23.0364 290.737 -22.5362 290.737C-21.3339 290.737 -17.5805 282.915 -17.5805 280.41C-17.5805 277.398 -22.2717 278.047 -24.4894 281.366ZM-37.639 289.509C-39.3678 293.601 -38.1443 296.17 -33.8279 297.514C-31.6816 298.181 -23.8488 295.201 -23.8488 293.718C-23.8488 293.362 -24.71 291.441 -25.7619 289.446C-27.3026 286.524 -28.4911 285.82 -31.8772 285.82C-35.3662 285.82 -36.3465 286.446 -37.639 289.509ZM-20.5893 290.106C-23.9378 295.118 -21.4606 302.249 -17.9152 297.805C-15.7815 295.13 -15.2838 290.923 -16.8546 288.818C-18.2186 286.99 -18.5922 287.118 -20.5893 290.106ZM-1.39826 321.816C-6.01548 324.867 -46.7494 380.177 -45.6562 381.911C-44.6144 383.564 -25.8233 383.123 -23.6419 381.395C-22.5751 380.551 -19.0322 376.124 -15.7702 371.561C-12.5082 366.998 -9.46431 363.272 -9.00797 363.282C-8.55164 363.293 -5.40621 367.417 -2.01757 372.447C1.37107 377.479 4.94274 381.895 5.9206 382.263C8.84914 383.364 27.3494 383.018 28.0865 381.848C28.4626 381.25 27.7468 379.453 26.4944 377.852C25.2432 376.251 19.5215 368.14 13.7798 359.829C6.62891 349.475 3.748 344.317 4.63057 343.451C5.5144 342.585 8.79398 346.376 15.0447 355.491C26.9946 372.917 32.8141 380.881 34.405 381.991C36.1538 383.211 56.0782 383.184 56.8492 381.961C57.8534 380.369 17.9006 324.779 13.5955 321.776C8.54951 318.256 3.96991 318.269 -1.39826 321.816Z" fill="white"/>
</g>
<defs>
<clipPath id="clip0_23_18">
<rect width="88" height="88" fill="white"/>
</clipPath>
</defs>
</svg>
