<svg width="88" height="88" viewBox="0 0 88 88" fill="none" xmlns="http://www.w3.org/2000/svg">
<g clip-path="url(#clip0_23_31)">
<path fill-rule="evenodd" clip-rule="evenodd" d="M-92 -33V219H165H422V-33V-285H165H-92V-33ZM332.99 -34.8439V172.288H163.746H-5.49756V-34.8439V-241.976H163.746H332.99V-34.8439ZM45.5765 -214.932C45.1954 -213.918 44.2614 -209.792 43.5017 -205.764C41.5535 -195.429 40.2848 -194.877 36.5527 -202.74L33.3909 -209.4L33.3784 -199.873C33.3709 -194.633 32.8305 -190.346 32.1761 -190.346C31.5217 -190.346 29.4795 -192.282 27.6391 -194.649C25.7988 -197.015 23.8518 -198.951 23.3128 -198.951C22.4503 -198.951 26.23 -182.183 27.3383 -181.096C28.5355 -179.922 41.5673 -185.369 43.6797 -187.927L46.1131 -190.874L48.3935 -187.909C50.5134 -185.154 62.9459 -180.06 64.8039 -181.185C65.2539 -181.459 66.3032 -185.07 67.1331 -189.212C67.9643 -193.353 68.9547 -197.653 69.3333 -198.768C69.7119 -199.883 67.7449 -198.306 64.9643 -195.263C60.5941 -190.484 59.7842 -190.035 59.0069 -191.965C58.5117 -193.195 58.4102 -197.481 58.78 -201.492C59.1511 -205.503 59.0859 -208.772 58.6333 -208.756C58.182 -208.74 56.5322 -205.874 54.9689 -202.387C51.4298 -194.498 50.1197 -195.479 47.9158 -207.667C47.0107 -212.676 45.9576 -215.946 45.5765 -214.932ZM110.119 -213.018C107.777 -211.41 107.332 -209.952 107.332 -203.887C107.332 -193.626 108.505 -192.805 123.174 -192.805C139.078 -192.805 139.927 -193.333 139.927 -203.227C139.927 -209.974 139.527 -211.379 137.14 -213.018C133.237 -215.699 114.021 -215.699 110.119 -213.018ZM192.939 -212.903C191.413 -212.579 188.451 -210.745 186.357 -208.827C181.789 -204.643 181.35 -199.551 185.15 -194.815L187.748 -191.576H183.955C179.751 -191.576 173.776 -189.295 173.776 -187.69C173.776 -187.123 184.354 -186.662 197.282 -186.667C218.63 -186.675 221.133 -186.899 224.549 -189.117L228.31 -191.56L220.578 -191.567L212.847 -191.576L215.447 -196.23C217.789 -200.421 217.872 -201.235 216.283 -204.417C213.614 -209.761 208.614 -212.772 201.762 -213.155C198.436 -213.341 194.466 -213.228 192.939 -212.903ZM283.053 -210.882C282.26 -208.993 281.269 -206.117 280.853 -204.489C280.192 -201.91 279.267 -201.484 273.635 -201.163L267.173 -200.795L271.859 -197.722C274.436 -196.032 276.552 -194.225 276.561 -193.706C276.568 -193.187 273.698 -187.756 270.181 -181.639C266.664 -175.521 264.015 -170.292 264.294 -170.018C264.573 -169.745 268.988 -173.653 274.105 -178.704C279.222 -183.755 283.883 -187.888 284.464 -187.888C285.044 -187.888 287.554 -186.367 290.041 -184.507L294.563 -181.127L293.748 -184.815C293.301 -186.843 292.594 -189.667 292.177 -191.091C291.582 -193.129 292.561 -194.5 296.782 -197.545L302.143 -201.41H295.298H288.453L286.474 -207.863L284.496 -214.317L283.053 -210.882ZM202.346 -206.753C203.925 -205.776 206.131 -203.095 207.251 -200.794C209.668 -195.825 208.044 -192.805 202.958 -192.805C198.434 -192.805 191.327 -200.179 191.327 -204.873C191.327 -210.295 195.478 -211.003 202.346 -206.753ZM133.659 -203.254V-198.951H123.629H113.6V-203.254V-207.556H123.629H133.659V-203.254ZM111.093 -189.99C108.34 -188.629 107.913 -187.529 107.589 -180.931C107.06 -170.161 108.088 -169.449 124.192 -169.449C133.793 -169.449 137.49 -169.895 138.583 -171.186C139.465 -172.228 139.902 -176.019 139.676 -180.682C139.344 -187.544 138.938 -188.619 136.166 -189.99C134.442 -190.842 128.801 -191.54 123.629 -191.54C118.458 -191.54 112.816 -190.842 111.093 -189.99ZM133.659 -179.898V-175.595H123.629H113.6V-179.898V-184.2H123.629H133.659V-179.898ZM33.3659 -180.081C30.3771 -178.978 28.8427 -177.557 28.5543 -175.627C28.1857 -173.16 28.5092 -172.91 31.0616 -173.702C43.182 -177.46 48.7457 -177.473 60.4599 -173.775C64.6258 -172.459 65.3417 -176.36 61.3989 -178.893C57.1778 -181.605 39.5251 -182.352 33.3659 -180.081ZM175.029 -179.898C172.234 -178.33 174.606 -178.14 196.968 -178.136C217.078 -178.132 222.523 -178.489 224.475 -179.937C226.641 -181.544 224.229 -181.737 202.536 -181.698C183.771 -181.664 177.443 -181.25 175.029 -179.898ZM176.596 -171.637C175.044 -170.903 173.776 -169.834 173.776 -169.261C173.776 -168.688 184.354 -168.223 197.282 -168.228C218.63 -168.235 221.133 -168.46 224.549 -170.678L228.31 -173.121L203.863 -173.046C189.019 -173 178.309 -172.446 176.596 -171.637ZM289.122 -135.222C285.292 -129.719 284.614 -129.232 283.492 -131.178C281.644 -134.384 276.964 -139.946 276.114 -139.946C274.07 -139.946 271.338 -131.789 271.931 -127.453C272.652 -122.187 272.156 -121.85 267.943 -124.744C265.493 -126.427 264.843 -126.476 263.921 -125.051C261.246 -120.909 264.895 -112.127 269.792 -110.921C274.695 -109.715 277.202 -111.787 277.202 -117.048C277.202 -120.405 277.723 -121.509 279.307 -121.509C280.464 -121.507 282.242 -122.321 283.256 -123.317C284.881 -124.91 285.285 -124.91 286.634 -123.317C287.476 -122.321 289.149 -121.507 290.35 -121.507C292.048 -121.507 292.501 -120.521 292.389 -117.062C292.22 -111.801 294.704 -109.703 299.657 -110.921C304.554 -112.127 308.203 -120.909 305.528 -125.051C304.606 -126.476 303.955 -126.427 301.506 -124.744C297.409 -121.93 296.501 -122.235 297.939 -125.944C298.921 -128.475 298.581 -130.451 296.331 -135.316L293.477 -141.48L289.122 -135.222ZM34.2622 -130.556L24.5037 -124.891L24.8598 -113.223L25.2171 -101.555L34.7674 -96.1487L44.3178 -90.7424L54.5126 -96.3639L64.7073 -101.985V-113.425V-124.863L54.7069 -130.561C49.2071 -133.694 44.5523 -136.25 44.3642 -136.24C44.1762 -136.229 39.6304 -133.672 34.2622 -130.556ZM184.118 -134.215L178.79 -132.365V-111.468C178.79 -95.2305 179.14 -90.7129 180.357 -91.2083C181.22 -91.5587 184.041 -92.5224 186.626 -93.3485L191.327 -94.8531V-109.205C191.327 -117.098 191.664 -123.887 192.077 -124.29C192.489 -124.695 193.622 -124.726 194.596 -124.359C196.042 -123.816 196.235 -120.963 195.646 -108.771C195.248 -100.564 195.43 -93.137 196.048 -92.2667C196.944 -91.0067 198.362 -91.1862 203.026 -93.1456L208.878 -95.6054V-110.4C208.878 -122.732 209.191 -125.195 210.759 -125.195C211.793 -125.195 212.669 -124.78 212.707 -124.273C212.882 -121.863 213.471 -106.491 213.67 -99.0941L213.893 -90.8162L219.848 -93.1088L225.802 -95.4013L226.15 -114.241C226.342 -124.604 226.219 -133.794 225.878 -134.665C225.401 -135.882 223.367 -135.574 217.068 -133.333C209.667 -130.697 208.878 -130.62 208.878 -132.518C208.878 -135.998 207.722 -136.159 200.428 -133.698C191.746 -130.77 191.327 -130.774 191.327 -133.8C191.327 -136.653 191.168 -136.662 184.118 -134.215ZM96.6957 -130.42C93.1253 -121.635 81.0049 -88.976 81.0049 -88.1364C81.0049 -87.5598 87.2092 -87.0878 94.7914 -87.0878H108.578L110.246 -91.0829L111.916 -95.078L102.951 -95.6927L93.9865 -96.3073L100.652 -114.132C104.318 -123.935 107.32 -132.094 107.325 -132.263C107.329 -132.433 105.135 -132.571 102.451 -132.571C98.9723 -132.571 97.32 -131.954 96.6957 -130.42ZM110.46 -131.034C110.154 -130.188 107.412 -122.958 104.366 -114.964C98.4709 -99.496 98.5285 -98.7929 105.638 -99.5956C108.923 -99.9668 109.591 -101.076 115.128 -115.361C118.405 -123.812 121.094 -131.142 121.104 -131.649C121.136 -133.249 111.049 -132.667 110.46 -131.034ZM124.25 -131.034C123.944 -130.188 121.202 -122.958 118.156 -114.964C112.257 -99.4887 112.316 -98.7954 119.45 -99.5956C122.764 -99.9681 123.397 -101.025 128.896 -115.361C132.138 -123.812 134.817 -131.142 134.851 -131.649C134.957 -133.252 124.839 -132.665 124.25 -131.034ZM138.019 -131.034C133.328 -118.515 127.39 -101.448 127.39 -100.479C127.39 -99.7911 129.481 -99.4026 132.063 -99.614L136.736 -99.9951L142.659 -115.361C145.916 -123.812 148.608 -131.142 148.642 -131.649C148.748 -133.251 138.629 -132.665 138.019 -131.034ZM51.0612 -126.844C54.4298 -125.046 57.1854 -123.171 57.1854 -122.675C57.1854 -121.483 45.5903 -107.985 44.566 -107.985C44.1285 -107.985 40.8665 -111.259 37.3174 -115.261L30.8635 -122.536L37.4427 -126.298C41.0608 -128.365 44.2275 -130.07 44.4795 -130.085C44.7303 -130.1 47.6927 -128.641 51.0612 -126.844ZM38.3805 -106.025C38.3805 -105.751 36.406 -105.527 33.9927 -105.527C29.6149 -105.527 29.6049 -105.539 29.6049 -111.175V-116.823L33.9927 -111.673C36.406 -108.841 38.3805 -106.299 38.3805 -106.025ZM59.6927 -111.059V-105.527H54.5903H49.4879L54.2769 -111.018C56.9108 -114.038 59.2063 -116.528 59.3793 -116.55C59.5523 -116.572 59.6927 -114.101 59.6927 -111.059ZM276.262 -110.527C269.288 -103.601 268.354 -98.9711 273.47 -96.6859C276.144 -95.4911 277.202 -95.6853 280.315 -97.941C282.34 -99.4088 284.323 -100.61 284.724 -100.61C285.126 -100.61 287.109 -99.4088 289.134 -97.941C292.246 -95.6853 293.304 -95.4911 295.978 -96.6859C301.18 -99.0092 300.172 -103.631 292.943 -110.609C289.535 -113.898 285.727 -116.557 284.481 -116.516C283.236 -116.476 279.538 -113.78 276.262 -110.527ZM47.1561 -100.669L51.5439 -100.522L48.4098 -98.7659C44.2526 -96.4352 42.9538 -96.4979 39.5627 -99.1899L36.7056 -101.459L39.7369 -101.137C41.4043 -100.96 44.7428 -100.749 47.1561 -100.669ZM270.326 -60.3512C270.309 -56.7015 269.955 -56.3413 266.233 -56.1889C263.287 -56.0672 262.94 -55.8742 264.979 -55.4882C268.458 -54.8318 268.533 -53.7009 265.293 -50.8244C261.49 -47.45 262.248 -46.3425 268.073 -46.7592C272.902 -47.1034 273.468 -47.5029 274.589 -51.3579C275.49 -54.4544 275.417 -55.7107 274.315 -56.0709C273.49 -56.3401 272.806 -57.4833 272.796 -58.6093C272.785 -59.7366 272.229 -61.4883 271.561 -62.5024C270.638 -63.9013 270.341 -63.3826 270.326 -60.3512ZM30.8585 -37.2336V-14.561H35.2463H39.6341V-29.3122V-44.0634H44.022H48.4098V-29.3122V-14.561H57.8122H67.2146V-22.5512V-30.5415H62.8895H58.5644L58.1883 -37.6098C57.816 -44.5981 57.7658 -44.683 53.7378 -45.0628L49.6634 -45.4488V-52.6781V-59.9075H40.261H30.8585V-37.2336ZM116.803 -56.4126C110.435 -52.2958 109.312 -48.7113 108.803 -30.8488C108.396 -16.5561 108.585 -14.561 110.343 -14.561C112.081 -14.561 112.346 -16.7823 112.346 -31.279V-47.9971L116.609 -52.1766C121.656 -57.1256 127.045 -57.6776 133.376 -53.8926C143.509 -47.8348 140.837 -32.2501 129.271 -29.9416L125.51 -29.1905L129.377 -30.9508C139.114 -35.3823 141.326 -44.1667 134.411 -50.9473C128.408 -56.8331 121.29 -56.377 115.821 -49.7586C114.016 -47.573 113.651 -44.4224 113.628 -30.8488C113.611 -20.7921 114.08 -14.561 114.854 -14.561C115.556 -14.561 116.107 -17.9292 116.107 -22.2082V-29.8555L123.977 -22.2082C128.304 -18.0029 132.663 -14.561 133.662 -14.561C134.663 -14.561 130.981 -19.0613 125.481 -24.5623C119.98 -30.0633 116.327 -34.1039 117.361 -33.5421C118.395 -32.9803 123.105 -28.48 127.828 -23.5408C133.245 -17.8751 137.392 -14.561 139.063 -14.561C141.298 -14.561 140.766 -15.5038 135.666 -20.5807C130.15 -26.0731 129.844 -26.6717 132.188 -27.4007C133.601 -27.8408 136.486 -30.1296 138.595 -32.4874C141.801 -36.0658 142.434 -37.804 142.434 -43.021C142.434 -48.64 141.944 -49.75 137.567 -54.0426C133.242 -58.2824 132.02 -58.8134 126.598 -58.806C122.671 -58.8011 119.179 -57.9468 116.803 -56.4126ZM276.681 -51.8619C275.985 -49.3898 275.711 -46.9006 276.07 -46.3302C276.918 -44.9854 287.511 -44.9755 288.358 -46.3191C288.714 -46.8834 288.37 -49.3726 287.594 -51.8508C286.344 -55.8435 285.716 -56.3561 282.065 -56.3561C278.392 -56.3561 277.81 -55.8705 276.681 -51.8619ZM289.398 -51.439C290.64 -46.6412 290.803 -46.5219 296.16 -46.5219C299.179 -46.5219 301.632 -46.9374 301.612 -47.4439C301.516 -49.8619 293.887 -56.3561 291.143 -56.3561C288.246 -56.3561 288.176 -56.1594 289.398 -51.439ZM194.643 -44.678L184.891 -34.2293H177.671C171.746 -34.2293 169.963 -33.7191 167.725 -31.3847C166.226 -29.8199 165 -28.1604 165 -27.6969C165 -27.2323 170.065 -26.8537 176.254 -26.8537H187.509L197.739 -37.3024L207.97 -47.7512H215.101C220.933 -47.7512 222.727 -48.2687 224.957 -50.5957C226.457 -52.1606 227.683 -53.8201 227.683 -54.2835C227.683 -54.7482 222.443 -55.1268 216.039 -55.1268H204.395L194.643 -44.678ZM132.718 -49.2595C135.814 -46.5945 135.622 -38.9275 132.389 -36.0584C128.574 -32.673 122.545 -33.1733 119.043 -37.166C115.592 -41.1009 115.361 -43.7008 118.122 -47.5656C121.83 -52.7568 127.845 -53.455 132.718 -49.2595ZM119.868 -47.7512C114.849 -42.8292 118.677 -35.0492 126.119 -35.0492C130.903 -35.0492 133.659 -37.9478 133.659 -42.9816C133.659 -49.8053 125.013 -52.7961 119.868 -47.7512ZM129.847 -45.9663C133.178 -42.0314 128.287 -35.9871 123.943 -38.6694C119.603 -41.3504 121.148 -47.7512 126.137 -47.7512C127.346 -47.7512 129.016 -46.9485 129.847 -45.9663ZM196.036 -32.276C188.964 -25.1179 182.99 -18.7565 182.761 -18.1394C182.53 -17.5235 184.442 -17.0195 187.007 -17.0195C191.2 -17.0195 192.599 -17.982 200.848 -26.5463L210.025 -36.0732L210.078 -26.7762C210.128 -18.2279 210.415 -17.2137 213.648 -14.1762C215.581 -12.3593 217.415 -10.8732 217.723 -10.8732C218.647 -10.8744 219.172 -40.0818 218.297 -42.785C217.688 -44.6658 216.411 -45.2927 213.189 -45.2927C209.377 -45.2927 207.445 -43.8262 196.036 -32.276ZM262.785 -44.0806C262.785 -42.2638 276.771 -24.1763 277.57 -24.9606C278.288 -25.665 274.167 -41.7843 272.96 -42.9927C271.437 -44.517 262.785 -45.4414 262.785 -44.0806ZM294.993 -44.4051C293.056 -44.12 291.22 -43.2349 290.912 -42.4383C288.697 -36.7001 285.715 -24.3951 286.54 -24.3951C287.609 -24.3951 300.143 -40.7591 301.26 -43.616C301.923 -45.3087 301.492 -45.3627 294.993 -44.4051ZM275.885 -40.6829C278.847 -28.6803 281.931 -20.3865 282.83 -22.003C283.723 -23.6096 289.112 -42.0191 289.112 -43.4623C289.112 -43.793 285.948 -44.0634 282.082 -44.0634H275.05L275.885 -40.6829ZM119.912 23.4652C117.995 26.9772 118.206 27.2342 123.002 27.2342C127.435 27.2342 128.012 26.5654 126.629 23.0325C125.572 20.333 121.478 20.5973 119.912 23.4652ZM33.9927 23.7479C29.9985 25.909 24.5188 31.2514 22.5982 34.8556C20.0658 39.608 20.3554 50.369 23.1523 55.527C24.431 57.8823 27.836 61.4496 30.7194 63.4533C37.3362 68.0532 46.3237 68.406 54.238 64.3777C58.6258 62.1441 64.7073 55.3008 64.7073 52.5964C64.7073 50.6173 53.0182 51.9547 50.0057 54.2781C42.238 60.2683 30.8585 54.0359 30.8585 43.7912C30.8585 42.1427 32.4971 38.9958 34.5004 36.7979C37.5293 33.4751 38.9923 32.8236 43.1845 32.9306C46.2685 33.0105 49.5456 34.0775 51.6216 35.6792L55.0165 38.2976H48.1465C38.4143 38.2976 33.8736 43.6351 39.4198 48.5558C42.9325 51.6732 65.981 51.506 68.9008 48.3419C70.0416 47.1053 70.9756 45.2552 70.9756 44.23C70.9756 42.1107 67.1106 38.2976 64.9618 38.2976C64.1758 38.2976 63.8335 37.5281 64.2021 36.5877C65.1185 34.2447 57.5063 26.011 52.5443 23.9778C47.6851 21.9876 37.4816 21.861 33.9927 23.7479ZM181.875 25.6976C181.478 27.5562 180.622 31.3977 179.971 34.2324C178.264 41.6842 178.519 47.6093 180.622 49.3204C181.629 50.1403 184.761 51.1152 187.583 51.4864C191.2 51.9621 192.524 52.6505 192.066 53.8196C191.709 54.7317 191.036 58.2941 190.571 61.7372L189.723 67.9967L193.313 67.591C196.433 67.2382 197.04 66.5019 197.95 61.961C199.309 55.1779 201.7 55.3082 203.599 62.2683C204.963 67.2677 205.469 67.8 208.873 67.8C213.064 67.8 213.277 67.103 211.182 60.2437C209.89 56.0138 210.01 55.1656 212.249 52.7255C218.018 46.4402 216.498 40.391 208.563 38.0603L203.648 36.6159L204.483 31.153C204.943 28.1487 205.616 24.9317 205.978 24.0036C206.46 22.7756 205.464 22.3171 202.318 22.3171H197.996L196.382 31.2293C194.097 43.833 193.219 45.6732 189.478 45.6732C185.753 45.6732 185.652 44.7057 188.193 33.3805C190.641 22.4683 190.615 22.3171 186.336 22.3171C183.271 22.3171 182.468 22.9243 181.875 25.6976ZM242.309 23.137C241.849 23.5869 241.473 29.9484 241.473 37.2736V50.5902H247.115H252.756V41.9854V33.3805H269.68H286.605V27.8488V22.3171H264.875C252.923 22.3171 242.768 22.6859 242.309 23.137ZM117.98 29.7038C117.552 30.386 117.555 32.0455 117.992 33.3916C119.111 36.8495 126.765 36.8237 128.658 33.3547C129.404 31.989 129.672 30.3295 129.254 29.6669C128.255 28.0811 118.984 28.1106 117.98 29.7038ZM135.852 29.4124C133.257 29.957 133.088 31.0314 135.226 33.383C136.541 34.8286 136.418 34.8261 134.463 33.3682C132.41 31.8353 131.923 31.9115 130.361 34.0062C129.386 35.3141 128.883 37.0904 129.243 37.9546C129.603 38.82 130.27 40.4316 130.724 41.5379C131.292 42.9196 131.008 43.3732 129.819 42.9836C128.866 42.6725 127.765 41.0819 127.371 39.4482C126.885 37.426 126.348 36.9663 125.693 38.0075C125.091 38.9626 123.513 39.2367 121.486 38.7376C119.015 38.1292 118.48 38.3197 119.246 39.5342C119.873 40.5287 119.399 41.7407 117.987 42.7524C115.923 44.2325 115.907 44.4451 117.796 45.1557C118.936 45.5847 119.868 47.0512 119.868 48.4132C119.868 50.4772 120.183 50.6357 121.749 49.361C123.249 48.1403 124.009 48.1403 125.51 49.361C127.079 50.6382 127.39 50.4673 127.39 48.3259C127.39 45.4888 130.764 43.2146 134.972 43.2146C137.263 43.2146 137.619 42.6479 137.18 39.7112C136.657 36.2213 136.674 36.2127 141.59 37.2957C144.305 37.8931 146.713 38.1992 146.941 37.9755C147.169 37.7518 146.305 35.8759 145.023 33.807C142.641 29.968 139.766 28.5888 135.852 29.4124ZM102.535 32.5372C98.4796 36.772 98.9798 38.6663 103.884 37.6436C106.124 37.1765 108.968 35.9214 110.203 34.8532C112.343 33.0006 112.358 33.0781 110.524 36.5262C107.828 41.5945 108.106 43.2146 111.676 43.2146C117.064 43.2146 119.018 36.8593 115.02 32.3393C111.876 28.7855 106.042 28.8777 102.535 32.5372ZM292.873 46.8324V55.5073H275.253H257.633L258.015 61.3463L258.398 67.1854L279.963 67.521C305.731 67.9229 304.426 68.8301 303.888 50.8951L303.529 38.9122L298.201 38.5348L292.873 38.1562V46.8324ZM45.7119 41.844C48.2505 43.4212 46.9029 47.4618 43.6897 47.9105C40.6559 48.3346 38.8719 45.7064 40.088 42.6C40.8891 40.5508 43.1431 40.2472 45.7119 41.844ZM41.7503 42.7795C39.9751 44.5189 40.9793 46.9024 43.4866 46.9024C45.2393 46.9024 45.9538 46.235 45.6805 44.8533C45.233 42.5902 43.093 41.4617 41.7503 42.7795ZM208.138 45.2147C209.218 47.9719 206.689 50.5902 202.949 50.5902C200.624 50.5902 200.027 50.0973 200.595 48.6455C201.014 47.5761 201.356 45.9166 201.356 44.9577C201.356 42.5189 207.169 42.7389 208.138 45.2147ZM108.673 45.9805C108.722 46.8262 109.202 48.6234 109.74 49.9744C110.406 51.6474 110.096 52.8779 108.768 53.8294C107.199 54.9542 107.052 56.1342 108.016 59.8835C109.437 65.4115 111.905 66.674 113.48 62.6789C114.287 60.6285 114.046 58.9321 112.632 56.7366C110.803 53.8945 110.811 53.7888 112.722 55.3254C114.525 56.7735 114.983 56.5755 116.278 53.7888C118.375 49.2749 116.033 44.4439 111.746 44.4439C110.006 44.4439 108.625 45.1348 108.673 45.9805ZM130.511 47.3659C128.915 49.7544 128.831 50.8779 130.056 53.5122C130.879 55.2861 131.964 56.7366 132.464 56.7366C133.666 56.7366 137.42 48.9148 137.42 46.4095C137.42 43.3978 132.728 44.0469 130.511 47.3659ZM117.361 55.5086C115.632 59.6008 116.856 62.17 121.172 63.5135C123.318 64.181 131.151 61.2013 131.151 59.7176C131.151 59.3623 130.29 57.441 129.238 55.4459C127.697 52.5239 126.509 51.8195 123.123 51.8195C119.634 51.8195 118.653 52.4465 117.361 55.5086ZM134.411 56.106C131.062 61.1177 133.539 68.2487 137.085 63.8049C139.219 61.13 139.716 56.9234 138.145 54.8177C136.781 52.9898 136.408 53.1176 134.411 56.106ZM153.602 87.8162C148.985 90.8672 108.251 146.177 109.344 147.911C110.386 149.564 129.177 149.123 131.358 147.395C132.425 146.551 135.968 142.124 139.23 137.561C142.492 132.998 145.536 129.272 145.992 129.282C146.448 129.293 149.594 133.417 152.982 138.447C156.371 143.479 159.943 147.895 160.921 148.263C163.849 149.364 182.349 149.018 183.087 147.848C183.463 147.25 182.747 145.453 181.494 143.852C180.243 142.251 174.522 134.14 168.78 125.829C161.629 115.475 158.748 110.317 159.631 109.451C160.514 108.585 163.794 112.376 170.045 121.491C181.995 138.917 187.814 146.881 189.405 147.991C191.154 149.211 211.078 149.184 211.849 147.961C212.853 146.369 172.901 90.7787 168.595 87.7756C163.55 84.2562 158.97 84.2685 153.602 87.8162Z" fill="white"/>
</g>
<defs>
<clipPath id="clip0_23_31">
<rect width="88" height="88" fill="white"/>
</clipPath>
</defs>
</svg>
