<svg width="88" height="88" viewBox="0 0 88 88" fill="none" xmlns="http://www.w3.org/2000/svg">
<g clip-path="url(#clip0_23_19)">
<path fill-rule="evenodd" clip-rule="evenodd" d="M-331 202V454H-74H183V202V-50H-74H-331V202ZM93.9902 200.156V407.288H-75.2537H-244.498V200.156V-6.97561H-75.2537H93.9902V200.156ZM-193.424 20.0683C-193.805 21.0824 -194.739 25.2079 -195.498 29.2362C-197.447 39.5706 -198.715 40.1226 -202.447 32.2602L-205.609 25.6L-205.622 35.1268C-205.629 40.3672 -206.169 44.6537 -206.824 44.6537C-207.478 44.6537 -209.52 42.7176 -211.361 40.3512C-213.201 37.9849 -215.148 36.0488 -215.687 36.0488C-216.55 36.0488 -212.77 52.8172 -211.662 53.9039C-210.464 55.0779 -197.433 49.631 -195.32 47.0729L-192.887 44.1263L-190.607 47.0913C-188.487 49.8461 -176.054 54.9402 -174.196 53.8154C-173.746 53.5413 -172.697 49.9297 -171.867 45.7883C-171.036 41.6469 -170.045 37.3469 -169.667 36.2319C-169.288 35.117 -171.255 36.6941 -174.036 39.7366C-178.406 44.516 -179.216 44.9647 -179.993 43.0347C-180.488 41.8054 -180.59 37.519 -180.22 33.5079C-179.849 29.4968 -179.914 26.2282 -180.367 26.2441C-180.818 26.2601 -182.468 29.1255 -184.031 32.613C-187.57 40.5024 -188.88 39.5215 -191.084 27.3333C-191.989 22.324 -193.042 19.0541 -193.424 20.0683ZM-128.881 21.9823C-131.223 23.5901 -131.668 25.0481 -131.668 31.1133C-131.668 41.374 -130.495 42.1951 -115.826 42.1951C-99.9219 42.1951 -99.0732 41.6665 -99.0732 31.7734C-99.0732 25.0259 -99.4731 23.6209 -101.86 21.9823C-105.763 19.3012 -124.979 19.3012 -128.881 21.9823ZM-46.061 22.0966C-47.5867 22.4211 -50.5491 24.2552 -52.6427 26.1728C-57.211 30.3573 -57.6498 35.4489 -53.8499 40.1853L-51.2524 43.4244H-55.0447C-59.2495 43.4244 -65.2244 45.7047 -65.2244 47.3101C-65.2244 47.8768 -54.646 48.3378 -41.7183 48.3329C-20.3697 48.3255 -17.8674 48.1005 -14.4512 45.8829L-10.6902 43.4404L-18.4216 43.433L-26.1529 43.4244L-23.5528 38.7704C-21.2109 34.5786 -21.1282 33.7648 -22.7166 30.5835C-25.3856 25.2386 -30.3865 22.2281 -37.2377 21.8446C-40.5637 21.659 -44.534 21.7721 -46.061 22.0966ZM44.0533 24.1175C43.2597 26.0069 42.2693 28.8834 41.8531 30.5109C41.1924 33.0899 40.2672 33.5165 34.6345 33.8373L28.1732 34.2049L32.8594 37.2781C35.4356 38.9683 37.5518 40.7753 37.5606 41.2941C37.5681 41.8128 34.6984 47.2437 31.1807 53.3606C27.6642 59.4786 25.0152 64.7079 25.2935 64.9821C25.5731 65.255 29.9885 61.3471 35.1046 56.2961C40.2221 51.245 44.8832 47.1122 45.4636 47.1122C46.0441 47.1122 48.5539 48.6328 51.0412 50.4927L55.5631 53.8732L54.7482 50.1854C54.3007 48.1571 53.5936 45.3334 53.1774 43.9087C52.5819 41.8706 53.561 40.5 57.7821 37.4551L63.1427 33.5902H56.2977H49.4528L47.4745 27.1366L45.4962 20.6829L44.0533 24.1175ZM-36.6535 28.2466C-35.0752 29.2239 -32.8687 31.9049 -31.7492 34.2061C-29.3322 39.1748 -30.9556 42.1951 -36.0417 42.1951C-40.5662 42.1951 -47.6732 34.8207 -47.6732 30.1274C-47.6732 24.7051 -43.5223 23.997 -36.6535 28.2466ZM-105.341 31.7463V36.0488H-115.371H-125.4V31.7463V27.4439H-115.371H-105.341V31.7463ZM-127.907 45.0101C-130.66 46.3709 -131.087 47.4711 -131.411 54.0686C-131.94 64.8395 -130.912 65.5512 -114.808 65.5512C-105.207 65.5512 -101.51 65.105 -100.417 63.8143C-99.5345 62.7718 -99.0982 58.9808 -99.3239 54.3182C-99.6561 47.4564 -100.062 46.3808 -102.834 45.0101C-104.558 44.1583 -110.199 43.46 -115.371 43.46C-120.542 43.46 -126.184 44.1583 -127.907 45.0101ZM-105.341 55.1024V59.4049H-115.371H-125.4V55.1024V50.8H-115.371H-105.341V55.1024ZM-205.634 54.9193C-208.623 56.0219 -210.157 57.443 -210.446 59.3729C-210.814 61.8401 -210.491 62.0896 -207.938 61.298C-195.818 57.5401 -190.254 57.5266 -178.54 61.2254C-174.374 62.5407 -173.658 58.6403 -177.601 56.1068C-181.822 53.395 -199.475 52.6476 -205.634 54.9193ZM-63.9707 55.1024C-66.7664 56.6698 -64.3945 56.8603 -42.0317 56.864C-21.9218 56.8677 -16.4771 56.5112 -14.5252 55.0631C-12.3589 53.4565 -14.7709 53.2635 -36.4642 53.3016C-55.229 53.336 -61.5574 53.7502 -63.9707 55.1024ZM-62.4037 63.3631C-63.9557 64.097 -65.2244 65.1665 -65.2244 65.7393C-65.2244 66.3121 -54.646 66.7768 -41.7183 66.7719C-20.3697 66.7645 -17.8674 66.5396 -14.4512 64.322L-10.6902 61.8794L-35.1366 61.9544C-49.9812 61.9999 -60.6912 62.5543 -62.4037 63.3631ZM50.1222 99.7777C46.2923 105.281 45.6141 105.768 44.492 103.822C42.6441 100.616 37.9642 95.0537 37.1142 95.0537C35.0695 95.0537 32.3378 103.211 32.9308 107.547C33.6517 112.813 33.1565 113.15 28.9429 110.256C26.4933 108.573 25.8426 108.524 24.9212 109.949C22.2459 114.091 25.8953 122.873 30.792 124.079C35.6951 125.285 38.2024 123.213 38.2024 117.952C38.2024 114.595 38.7227 113.491 40.3073 113.491C41.4644 113.493 43.2422 112.679 44.2564 111.683C45.8811 110.09 46.2848 110.09 47.6337 111.683C48.4762 112.679 50.1485 113.493 51.3496 113.493C53.0483 113.493 53.5009 114.479 53.3893 117.938C53.22 123.199 55.7035 125.297 60.6567 124.079C65.5535 122.873 69.2029 114.091 66.5276 109.949C65.6062 108.524 64.9555 108.573 62.5058 110.256C58.4089 113.07 57.5012 112.765 58.9392 109.056C59.9208 106.525 59.5811 104.549 57.3308 99.6843L54.4774 93.5195L50.1222 99.7777ZM-204.738 104.444L-214.496 110.109L-214.14 121.777L-213.783 133.445L-204.233 138.851L-194.682 144.258L-184.487 138.636L-174.293 133.015V121.575V110.137L-184.293 104.439C-189.793 101.306 -194.448 98.7501 -194.636 98.7599C-194.824 98.771 -199.37 101.328 -204.738 104.444ZM-54.8817 100.785L-60.2098 102.635V123.532C-60.2098 139.77 -59.86 144.287 -58.6427 143.792C-57.7802 143.441 -54.9594 142.478 -52.3744 141.652L-47.6732 140.147V125.795C-47.6732 117.902 -47.3359 111.113 -46.9235 110.71C-46.511 110.305 -45.3777 110.274 -44.4036 110.641C-42.9582 111.184 -42.7651 114.037 -43.3543 126.229C-43.7517 134.436 -43.5699 141.863 -42.9519 142.733C-42.0555 143.993 -40.6376 143.814 -35.974 141.854L-30.122 139.395V124.6C-30.122 112.268 -29.8085 109.805 -28.2415 109.805C-27.2072 109.805 -26.3309 110.22 -26.2933 110.727C-26.1178 113.137 -25.5285 128.509 -25.3305 135.906L-25.1073 144.184L-19.1524 141.891L-13.1976 139.599L-12.8503 120.759C-12.6585 110.396 -12.7814 101.206 -13.1223 100.335C-13.5987 99.1176 -15.6334 99.4262 -21.9318 101.667C-29.3334 104.303 -30.122 104.38 -30.122 102.482C-30.122 99.0021 -31.2778 98.841 -38.5716 101.302C-47.2545 104.23 -47.6732 104.226 -47.6732 101.2C-47.6732 98.3469 -47.8324 98.3383 -54.8817 100.785ZM-142.304 104.58C-145.875 113.365 -157.995 146.024 -157.995 146.864C-157.995 147.44 -151.791 147.912 -144.209 147.912H-130.422L-128.754 143.917L-127.084 139.922L-136.049 139.307L-145.013 138.693L-138.348 120.868C-134.682 111.065 -131.68 102.906 -131.675 102.737C-131.671 102.567 -133.865 102.429 -136.549 102.429C-140.028 102.429 -141.68 103.046 -142.304 104.58ZM-128.54 103.966C-128.846 104.812 -131.588 112.042 -134.634 120.036C-140.529 135.504 -140.471 136.207 -133.362 135.404C-130.077 135.033 -129.409 133.924 -123.872 119.639C-120.595 111.188 -117.906 103.858 -117.896 103.351C-117.864 101.751 -127.951 102.333 -128.54 103.966ZM-114.75 103.966C-115.056 104.812 -117.798 112.042 -120.844 120.036C-126.743 135.511 -126.684 136.205 -119.55 135.404C-116.236 135.032 -115.603 133.975 -110.104 119.639C-106.862 111.188 -104.183 103.858 -104.149 103.351C-104.043 101.748 -114.161 102.335 -114.75 103.966ZM-100.981 103.966C-105.672 116.485 -111.61 133.552 -111.61 134.521C-111.61 135.209 -109.519 135.597 -106.937 135.386L-102.264 135.005L-96.3414 119.639C-93.0844 111.188 -90.3916 103.858 -90.3577 103.351C-90.2524 101.749 -100.371 102.335 -100.981 103.966ZM-187.939 108.156C-184.57 109.954 -181.815 111.829 -181.815 112.325C-181.815 113.517 -193.41 127.015 -194.434 127.015C-194.871 127.015 -198.134 123.741 -201.683 119.739L-208.136 112.464L-201.557 108.702C-197.939 106.635 -194.772 104.93 -194.52 104.915C-194.27 104.9 -191.307 106.359 -187.939 108.156ZM-200.62 128.975C-200.62 129.249 -202.594 129.473 -205.007 129.473C-209.385 129.473 -209.395 129.461 -209.395 123.825V118.177L-205.007 123.327C-202.594 126.159 -200.62 128.701 -200.62 128.975ZM-179.307 123.941V129.473H-184.41H-189.512L-184.723 123.982C-182.089 120.962 -179.794 118.472 -179.621 118.45C-179.448 118.428 -179.307 120.899 -179.307 123.941ZM37.2622 124.473C30.2881 131.399 29.3541 136.029 34.4703 138.314C37.1444 139.509 38.2024 139.315 41.3153 137.059C43.3399 135.591 45.3232 134.39 45.7244 134.39C46.1256 134.39 48.1088 135.591 50.1335 137.059C53.2463 139.315 54.3044 139.509 56.9785 138.314C62.1799 135.991 61.172 131.369 53.9434 124.391C50.5347 121.102 46.7273 118.443 45.4812 118.484C44.2363 118.524 40.538 121.22 37.2622 124.473ZM-191.844 134.331L-187.456 134.478L-190.59 136.234C-194.747 138.565 -196.046 138.502 -199.437 135.81L-202.294 133.541L-199.263 133.863C-197.596 134.04 -194.257 134.251 -191.844 134.331ZM31.3261 174.649C31.3086 178.298 30.955 178.659 27.2329 178.811C24.2868 178.933 23.9396 179.126 25.9793 179.512C29.4582 180.168 29.5334 181.299 26.2927 184.176C22.4903 187.55 23.2475 188.658 29.0733 188.241C33.9024 187.897 34.4678 187.497 35.5886 183.642C36.49 180.546 36.4172 179.289 35.3153 178.929C34.4903 178.66 33.8058 177.517 33.7958 176.391C33.7845 175.263 33.2292 173.512 32.561 172.498C31.6383 171.099 31.3412 171.617 31.3261 174.649ZM-208.141 197.766V220.439H-203.754H-199.366V205.688V190.937H-194.978H-190.59V205.688V220.439H-181.188H-171.785V212.449V204.459H-176.11H-180.436L-180.812 197.39C-181.184 190.402 -181.234 190.317 -185.262 189.937L-189.337 189.551V182.322V175.093H-198.739H-208.141V197.766ZM-122.197 178.587C-128.565 182.704 -129.688 186.289 -130.197 204.151C-130.604 218.444 -130.415 220.439 -128.657 220.439C-126.919 220.439 -126.654 218.218 -126.654 203.721V187.003L-122.391 182.823C-117.344 177.874 -111.955 177.322 -105.624 181.107C-95.4915 187.165 -98.163 202.75 -109.729 205.058L-113.49 205.81L-109.623 204.049C-99.8855 199.618 -97.6741 190.833 -104.589 184.053C-110.592 178.167 -117.71 178.623 -123.179 185.241C-124.984 187.427 -125.349 190.578 -125.372 204.151C-125.389 214.208 -124.92 220.439 -124.146 220.439C-123.444 220.439 -122.893 217.071 -122.893 212.792V205.144L-115.023 212.792C-110.696 216.997 -106.337 220.439 -105.338 220.439C-104.337 220.439 -108.019 215.939 -113.519 210.438C-119.02 204.937 -122.673 200.896 -121.639 201.458C-120.605 202.02 -115.895 206.52 -111.172 211.459C-105.755 217.125 -101.608 220.439 -99.9369 220.439C-97.7017 220.439 -98.2345 219.496 -103.334 214.419C-108.85 208.927 -109.156 208.328 -106.812 207.599C-105.399 207.159 -102.514 204.87 -100.405 202.513C-97.1989 198.934 -96.5659 197.196 -96.5659 191.979C-96.5659 186.36 -97.056 185.25 -101.433 180.957C-105.758 176.718 -106.98 176.187 -112.402 176.194C-116.329 176.199 -119.821 177.053 -122.197 178.587ZM37.6809 183.138C36.9852 185.61 36.7106 188.099 37.0704 188.67C37.9178 190.015 48.5113 190.024 49.3575 188.681C49.7135 188.117 49.37 185.627 48.594 183.149C47.3441 179.157 46.716 178.644 43.0654 178.644C39.3922 178.644 38.8105 179.129 37.6809 183.138ZM50.398 183.561C51.6404 188.359 51.8034 188.478 57.1603 188.478C60.1791 188.478 62.6325 188.063 62.6124 187.556C62.5159 185.138 54.8874 178.644 52.1431 178.644C49.2459 178.644 49.1757 178.841 50.398 183.561ZM-44.3572 190.322L-54.1095 200.771H-61.3293C-67.2541 200.771 -69.0368 201.281 -71.2746 203.615C-72.7739 205.18 -74 206.84 -74 207.303C-74 207.768 -68.9352 208.146 -62.7459 208.146H-51.4906L-41.2607 197.698L-31.0296 187.249H-23.8988C-18.0668 187.249 -16.2728 186.731 -14.0425 184.404C-12.5431 182.839 -11.3171 181.18 -11.3171 180.716C-11.3171 180.252 -16.5574 179.873 -22.961 179.873H-34.605L-44.3572 190.322ZM-106.282 185.74C-103.186 188.406 -103.378 196.072 -106.611 198.942C-110.426 202.327 -116.455 201.827 -119.957 197.834C-123.408 193.899 -123.639 191.299 -120.878 187.434C-117.17 182.243 -111.155 181.545 -106.282 185.74ZM-119.132 187.249C-124.151 192.171 -120.323 199.951 -112.881 199.951C-108.097 199.951 -105.341 197.052 -105.341 192.018C-105.341 185.195 -113.987 182.204 -119.132 187.249ZM-109.153 189.034C-105.822 192.969 -110.713 199.013 -115.057 196.331C-119.397 193.65 -117.852 187.249 -112.863 187.249C-111.654 187.249 -109.984 188.051 -109.153 189.034ZM-42.9644 202.724C-50.0363 209.882 -56.01 216.244 -56.2394 216.861C-56.4701 217.476 -54.5583 217.98 -51.9933 217.98C-47.7998 217.98 -46.4007 217.018 -38.1516 208.454L-28.9749 198.927L-28.9222 208.224C-28.8721 216.772 -28.585 217.786 -25.3518 220.824C-23.4186 222.641 -21.5845 224.127 -21.2774 224.127C-20.3535 224.126 -19.8282 194.918 -20.7032 192.215C-21.3125 190.334 -22.5887 189.707 -25.8106 189.707C-29.623 189.707 -31.5549 191.174 -42.9644 202.724ZM23.7854 190.919C23.7854 192.736 37.7712 210.824 38.5698 210.039C39.2881 209.335 35.1673 193.216 33.9601 192.007C32.4369 190.483 23.7854 189.559 23.7854 190.919ZM55.9931 190.595C54.0562 190.88 52.2196 191.765 51.9125 192.562C49.6972 198.3 46.7148 210.605 47.5397 210.605C48.6091 210.605 61.1431 194.241 62.2601 191.384C62.9233 189.691 62.4921 189.637 55.9931 190.595ZM36.8848 194.317C39.8472 206.32 42.9313 214.614 43.8301 212.997C44.7227 211.39 50.1122 192.981 50.1122 191.538C50.1122 191.207 46.948 190.937 43.0817 190.937H36.0499L36.8848 194.317ZM-119.088 258.465C-121.005 261.977 -120.794 262.234 -115.998 262.234C-111.565 262.234 -110.988 261.565 -112.371 258.033C-113.428 255.333 -117.522 255.597 -119.088 258.465ZM-205.007 258.748C-209.001 260.909 -214.481 266.251 -216.402 269.856C-218.934 274.608 -218.645 285.369 -215.848 290.527C-214.569 292.882 -211.164 296.45 -208.281 298.453C-201.664 303.053 -192.676 303.406 -184.762 299.378C-180.374 297.144 -174.293 290.301 -174.293 287.596C-174.293 285.617 -185.982 286.955 -188.994 289.278C-196.762 295.268 -208.141 289.036 -208.141 278.791C-208.141 277.143 -206.503 273.996 -204.5 271.798C-201.471 268.475 -200.008 267.824 -195.815 267.931C-192.731 268.01 -189.454 269.077 -187.378 270.679L-183.983 273.298H-190.854C-200.586 273.298 -205.126 278.635 -199.58 283.556C-196.067 286.673 -173.019 286.506 -170.099 283.342C-168.958 282.105 -168.024 280.255 -168.024 279.23C-168.024 277.111 -171.889 273.298 -174.038 273.298C-174.824 273.298 -175.166 272.528 -174.798 271.588C-173.881 269.245 -181.494 261.011 -186.456 258.978C-191.315 256.988 -201.518 256.861 -205.007 258.748ZM-57.1245 260.698C-57.5219 262.556 -58.3782 266.398 -59.0288 269.232C-60.7363 276.684 -60.4805 282.609 -58.3782 284.32C-57.3715 285.14 -54.2386 286.115 -51.4166 286.486C-47.7998 286.962 -46.4759 287.651 -46.9335 288.82C-47.2908 289.732 -47.964 293.294 -48.4291 296.737L-49.2766 302.997L-45.6874 302.591C-42.567 302.238 -41.9602 301.502 -41.0501 296.961C-39.6911 290.178 -37.3004 290.308 -35.4011 297.268C-34.0371 302.268 -33.5306 302.8 -30.127 302.8C-25.936 302.8 -25.7229 302.103 -27.8177 295.244C-29.1103 291.014 -28.9899 290.166 -26.7509 287.725C-20.9815 281.44 -22.5022 275.391 -30.4366 273.06L-35.3522 271.616L-34.5173 266.153C-34.0572 263.149 -33.384 259.932 -33.0217 259.004C-32.5403 257.776 -33.5357 257.317 -36.6823 257.317H-41.0037L-42.6184 266.229C-44.9026 278.833 -45.7814 280.673 -49.5223 280.673C-53.2469 280.673 -53.3485 279.706 -50.8073 268.38C-48.3589 257.468 -48.3853 257.317 -52.664 257.317C-55.7292 257.317 -56.5315 257.924 -57.1245 260.698ZM3.30935 258.137C2.84926 258.587 2.47317 264.948 2.47317 272.274V285.59H8.11463H13.7561V276.985V268.38H30.6805H47.6049V262.849V257.317H25.8752C13.9228 257.317 3.76819 257.686 3.30935 258.137ZM-121.02 264.704C-121.448 265.386 -121.445 267.046 -121.008 268.392C-119.889 271.849 -112.235 271.824 -110.342 268.355C-109.596 266.989 -109.328 265.329 -109.746 264.667C-110.745 263.081 -120.016 263.111 -121.02 264.704ZM-103.148 264.412C-105.743 264.957 -105.912 266.031 -103.774 268.383C-102.459 269.829 -102.582 269.826 -104.537 268.368C-106.59 266.835 -107.077 266.912 -108.639 269.006C-109.614 270.314 -110.117 272.09 -109.757 272.955C-109.397 273.82 -108.73 275.432 -108.276 276.538C-107.708 277.92 -107.992 278.373 -109.181 277.984C-110.134 277.673 -111.235 276.082 -111.629 274.448C-112.115 272.426 -112.652 271.966 -113.307 273.007C-113.909 273.963 -115.487 274.237 -117.514 273.738C-119.985 273.129 -120.52 273.32 -119.754 274.534C-119.127 275.529 -119.601 276.741 -121.013 277.752C-123.077 279.232 -123.093 279.445 -121.204 280.156C-120.064 280.585 -119.132 282.051 -119.132 283.413C-119.132 285.477 -118.817 285.636 -117.251 284.361C-115.751 283.14 -114.991 283.14 -113.49 284.361C-111.921 285.638 -111.61 285.467 -111.61 283.326C-111.61 280.489 -108.236 278.215 -104.028 278.215C-101.737 278.215 -101.381 277.648 -101.82 274.711C-102.343 271.221 -102.326 271.213 -97.4096 272.296C-94.6954 272.893 -92.2871 273.199 -92.059 272.976C-91.8308 272.752 -92.6946 270.876 -93.977 268.807C-96.359 264.968 -99.2336 263.589 -103.148 264.412ZM-136.465 267.537C-140.52 271.772 -140.02 273.666 -135.116 272.644C-132.876 272.176 -130.032 270.921 -128.797 269.853C-126.657 268.001 -126.642 268.078 -128.476 271.526C-131.172 276.594 -130.894 278.215 -127.324 278.215C-121.936 278.215 -119.982 271.859 -123.98 267.339C-127.124 263.786 -132.958 263.878 -136.465 267.537ZM53.8732 281.832V290.507H36.253H18.6328L19.0152 296.346L19.3976 302.185L40.963 302.521C66.7307 302.923 65.4256 303.83 64.8878 285.895L64.5293 273.912L59.2012 273.535L53.8732 273.156V281.832ZM-193.288 276.844C-190.749 278.421 -192.097 282.462 -195.31 282.91C-198.344 283.335 -200.128 280.706 -198.912 277.6C-198.111 275.551 -195.857 275.247 -193.288 276.844ZM-197.25 277.779C-199.025 279.519 -198.021 281.902 -195.513 281.902C-193.761 281.902 -193.046 281.235 -193.319 279.853C-193.767 277.59 -195.907 276.462 -197.25 277.779ZM-30.8616 280.215C-29.7822 282.972 -32.3108 285.59 -36.0505 285.59C-38.376 285.59 -38.9728 285.097 -38.4049 283.646C-37.9861 282.576 -37.6439 280.917 -37.6439 279.958C-37.6439 277.519 -31.8307 277.739 -30.8616 280.215ZM-130.327 280.98C-130.278 281.826 -129.798 283.623 -129.26 284.974C-128.594 286.647 -128.904 287.878 -130.232 288.829C-131.801 289.954 -131.948 291.134 -130.984 294.884C-129.563 300.412 -127.095 301.674 -125.52 297.679C-124.713 295.628 -124.954 293.932 -126.368 291.737C-128.197 288.895 -128.189 288.789 -126.278 290.325C-124.475 291.773 -124.017 291.576 -122.722 288.789C-120.625 284.275 -122.967 279.444 -127.254 279.444C-128.994 279.444 -130.375 280.135 -130.327 280.98ZM-108.489 282.366C-110.085 284.754 -110.169 285.878 -108.944 288.512C-108.121 290.286 -107.036 291.737 -106.536 291.737C-105.334 291.737 -101.58 283.915 -101.58 281.41C-101.58 278.398 -106.272 279.047 -108.489 282.366ZM-121.639 290.509C-123.368 294.601 -122.144 297.17 -117.828 298.514C-115.682 299.181 -107.849 296.201 -107.849 294.718C-107.849 294.362 -108.71 292.441 -109.762 290.446C-111.303 287.524 -112.491 286.82 -115.877 286.82C-119.366 286.82 -120.347 287.446 -121.639 290.509ZM-104.589 291.106C-107.938 296.118 -105.461 303.249 -101.915 298.805C-99.7815 296.13 -99.2838 291.923 -100.855 289.818C-102.219 287.99 -102.592 288.118 -104.589 291.106ZM-85.3983 322.816C-90.0155 325.867 -130.749 381.177 -129.656 382.911C-128.614 384.564 -109.823 384.123 -107.642 382.395C-106.575 381.551 -103.032 377.124 -99.7702 372.561C-96.5082 367.998 -93.4643 364.272 -93.008 364.282C-92.5516 364.293 -89.4062 368.417 -86.0176 373.447C-82.6289 378.479 -79.0573 382.895 -78.0794 383.263C-75.1509 384.364 -56.6506 384.018 -55.9135 382.848C-55.5374 382.25 -56.2532 380.453 -57.5056 378.852C-58.7568 377.251 -64.4785 369.14 -70.2202 360.829C-77.3711 350.475 -80.252 345.317 -79.3694 344.451C-78.4856 343.585 -75.206 347.376 -68.9553 356.491C-57.0054 373.917 -51.1859 381.881 -49.595 382.991C-47.8462 384.211 -27.9218 384.184 -27.1508 382.961C-26.1466 381.369 -66.0994 325.779 -70.4045 322.776C-75.4505 319.256 -80.0301 319.269 -85.3983 322.816Z" fill="white"/>
</g>
<defs>
<clipPath id="clip0_23_19">
<rect width="88" height="88" fill="white"/>
</clipPath>
</defs>
</svg>
