<svg width="88" height="88" viewBox="0 0 88 88" fill="none" xmlns="http://www.w3.org/2000/svg">
<g clip-path="url(#clip0_23_24)">
<path fill-rule="evenodd" clip-rule="evenodd" d="M-333 128V380H-76H181V128V-124H-76H-333V128ZM91.9902 126.156V333.288H-77.2537H-246.498V126.156V-80.9756H-77.2537H91.9902V126.156ZM-195.424 -53.9317C-195.805 -52.9176 -196.739 -48.7921 -197.498 -44.7638C-199.447 -34.4294 -200.715 -33.8774 -204.447 -41.7398L-207.609 -48.4L-207.622 -38.8732C-207.629 -33.6328 -208.169 -29.3463 -208.824 -29.3463C-209.478 -29.3463 -211.52 -31.2824 -213.361 -33.6488C-215.201 -36.0151 -217.148 -37.9512 -217.687 -37.9512C-218.55 -37.9512 -214.77 -21.1828 -213.662 -20.0961C-212.464 -18.9221 -199.433 -24.369 -197.32 -26.9271L-194.887 -29.8737L-192.607 -26.9087C-190.487 -24.1539 -178.054 -19.0598 -176.196 -20.1846C-175.746 -20.4587 -174.697 -24.0703 -173.867 -28.2117C-173.036 -32.3531 -172.045 -36.6531 -171.667 -37.7681C-171.288 -38.883 -173.255 -37.3059 -176.036 -34.2634C-180.406 -29.484 -181.216 -29.0353 -181.993 -30.9653C-182.488 -32.1946 -182.59 -36.481 -182.22 -40.4921C-181.849 -44.5032 -181.914 -47.7718 -182.367 -47.7559C-182.818 -47.7399 -184.468 -44.8745 -186.031 -41.387C-189.57 -33.4976 -190.88 -34.4785 -193.084 -46.6667C-193.989 -51.676 -195.042 -54.9459 -195.424 -53.9317ZM-130.881 -52.0177C-133.223 -50.4099 -133.668 -48.9519 -133.668 -42.8867C-133.668 -32.626 -132.495 -31.8049 -117.826 -31.8049C-101.922 -31.8049 -101.073 -32.3335 -101.073 -42.2266C-101.073 -48.9741 -101.473 -50.3791 -103.86 -52.0177C-107.763 -54.6988 -126.979 -54.6988 -130.881 -52.0177ZM-48.061 -51.9034C-49.5867 -51.5789 -52.5491 -49.7448 -54.6427 -47.8272C-59.211 -43.6427 -59.6498 -38.5511 -55.8499 -33.8147L-53.2524 -30.5756H-57.0447C-61.2495 -30.5756 -67.2244 -28.2953 -67.2244 -26.6899C-67.2244 -26.1232 -56.646 -25.6622 -43.7183 -25.6671C-22.3697 -25.6745 -19.8674 -25.8995 -16.4512 -28.1171L-12.6902 -30.5596L-20.4216 -30.567L-28.1529 -30.5756L-25.5528 -35.2296C-23.2109 -39.4214 -23.1282 -40.2352 -24.7166 -43.4165C-27.3856 -48.7614 -32.3865 -51.7719 -39.2377 -52.1554C-42.5637 -52.341 -46.534 -52.2279 -48.061 -51.9034ZM42.0533 -49.8825C41.2597 -47.9931 40.2693 -45.1166 39.8531 -43.4891C39.1924 -40.9101 38.2672 -40.4835 32.6345 -40.1627L26.1732 -39.7951L30.8594 -36.7219C33.4356 -35.0317 35.5518 -33.2247 35.5606 -32.7059C35.5681 -32.1872 32.6984 -26.7563 29.1807 -20.6394C25.6642 -14.5214 23.0152 -9.29205 23.2935 -9.01793C23.5731 -8.74503 27.9885 -12.6529 33.1046 -17.7039C38.2221 -22.755 42.8832 -26.8878 43.4636 -26.8878C44.0441 -26.8878 46.5539 -25.3672 49.0412 -23.5073L53.5631 -20.1268L52.7482 -23.8146C52.3007 -25.8429 51.5936 -28.6666 51.1774 -30.0913C50.5819 -32.1294 51.561 -33.5 55.7821 -36.5449L61.1427 -40.4098H54.2977H47.4528L45.4745 -46.8634L43.4962 -53.3171L42.0533 -49.8825ZM-38.6535 -45.7534C-37.0752 -44.7761 -34.8687 -42.0951 -33.7492 -39.7939C-31.3322 -34.8252 -32.9556 -31.8049 -38.0417 -31.8049C-42.5662 -31.8049 -49.6732 -39.1793 -49.6732 -43.8726C-49.6732 -49.2949 -45.5223 -50.003 -38.6535 -45.7534ZM-107.341 -42.2537V-37.9512H-117.371H-127.4V-42.2537V-46.5561H-117.371H-107.341V-42.2537ZM-129.907 -28.9899C-132.66 -27.6291 -133.087 -26.5289 -133.411 -19.9314C-133.94 -9.16053 -132.912 -8.44878 -116.808 -8.44878C-107.207 -8.44878 -103.51 -8.89501 -102.417 -10.1857C-101.535 -11.2282 -101.098 -15.0192 -101.324 -19.6818C-101.656 -26.5436 -102.062 -27.6192 -104.834 -28.9899C-106.558 -29.8417 -112.199 -30.54 -117.371 -30.54C-122.542 -30.54 -128.184 -29.8417 -129.907 -28.9899ZM-107.341 -18.8976V-14.5951H-117.371H-127.4V-18.8976V-23.2H-117.371H-107.341V-18.8976ZM-207.634 -19.0807C-210.623 -17.9781 -212.157 -16.557 -212.446 -14.6271C-212.814 -12.1599 -212.491 -11.9104 -209.938 -12.702C-197.818 -16.4599 -192.254 -16.4734 -180.54 -12.7746C-176.374 -11.4593 -175.658 -15.3597 -179.601 -17.8932C-183.822 -20.605 -201.475 -21.3524 -207.634 -19.0807ZM-65.9707 -18.8976C-68.7664 -17.3302 -66.3945 -17.1397 -44.0317 -17.136C-23.9218 -17.1323 -18.4771 -17.4888 -16.5252 -18.9369C-14.3589 -20.5435 -16.7709 -20.7365 -38.4642 -20.6984C-57.229 -20.664 -63.5574 -20.2498 -65.9707 -18.8976ZM-64.4037 -10.6369C-65.9557 -9.903 -67.2244 -8.83354 -67.2244 -8.2607C-67.2244 -7.68786 -56.646 -7.2232 -43.7183 -7.22812C-22.3697 -7.2355 -19.8674 -7.46045 -16.4512 -9.67805L-12.6902 -12.1206L-37.1366 -12.0456C-51.9812 -12.0001 -62.6912 -11.4457 -64.4037 -10.6369ZM48.1222 25.7777C44.2923 31.2812 43.6141 31.768 42.492 29.822C40.6441 26.6161 35.9642 21.0537 35.1142 21.0537C33.0695 21.0537 30.3378 29.2111 30.9308 33.5467C31.6517 38.8129 31.1565 39.1497 26.9429 36.256C24.4933 34.5732 23.8426 34.524 22.9212 35.9487C20.2459 40.0913 23.8953 48.8732 28.792 50.0791C33.6951 51.2851 36.2024 49.2125 36.2024 43.9525C36.2024 40.5953 36.7227 39.4914 38.3073 39.4914C39.4644 39.4927 41.2422 38.6789 42.2564 37.6832C43.8811 36.0901 44.2848 36.0901 45.6337 37.6832C46.4762 38.6789 48.1485 39.4927 49.3496 39.4927C51.0483 39.4927 51.5009 40.4786 51.3893 43.9377C51.22 49.199 53.7035 51.2973 58.6567 50.0791C63.5535 48.8732 67.2029 40.0913 64.5276 35.9487C63.6062 34.524 62.9555 34.5732 60.5058 36.256C56.4089 39.0698 55.5012 38.765 56.9392 35.0563C57.9208 32.5252 57.5811 30.5485 55.3308 25.6843L52.4774 19.5195L48.1222 25.7777ZM-206.738 30.444L-216.496 36.1085L-216.14 47.7767L-215.783 59.4449L-206.233 64.8513L-196.682 70.2576L-186.487 64.6361L-176.293 59.0147V47.5751V36.1368L-186.293 30.4391C-191.793 27.3057 -196.448 24.7501 -196.636 24.7599C-196.824 24.771 -201.37 27.3278 -206.738 30.444ZM-56.8817 26.7845L-62.2098 28.6346V49.5321C-62.2098 65.7695 -61.86 70.2871 -60.6427 69.7917C-59.7802 69.4413 -56.9594 68.4776 -54.3744 67.6515L-49.6732 66.1469V51.7952C-49.6732 43.9021 -49.3359 37.1128 -48.9235 36.7096C-48.511 36.3052 -47.3777 36.2745 -46.4036 36.6408C-44.9582 37.1841 -44.7651 40.0372 -45.3543 52.2291C-45.7517 60.4357 -45.5699 67.863 -44.9519 68.7333C-44.0555 69.9933 -42.6376 69.8138 -37.974 67.8544L-32.122 65.3946V50.6003C-32.122 38.2683 -31.8085 35.8049 -30.2415 35.8049C-29.2072 35.8049 -28.3309 36.2204 -28.2933 36.7268C-28.1178 39.1374 -27.5285 54.5094 -27.3305 61.9059L-27.1073 70.1838L-21.1524 67.8912L-15.1976 65.5987L-14.8503 46.7589C-14.6585 36.3962 -14.7814 27.2061 -15.1223 26.3346C-15.5987 25.1176 -17.6334 25.4262 -23.9318 27.6671C-31.3334 30.3027 -32.122 30.3801 -32.122 28.4821C-32.122 25.0021 -33.2778 24.841 -40.5716 27.302C-49.2545 30.2301 -49.6732 30.2265 -49.6732 27.2C-49.6732 24.3469 -49.8324 24.3383 -56.8817 26.7845ZM-144.304 30.5805C-147.875 39.3648 -159.995 72.024 -159.995 72.8636C-159.995 73.4402 -153.791 73.9122 -146.209 73.9122H-132.422L-130.754 69.9171L-129.084 65.922L-138.049 65.3073L-147.013 64.6927L-140.348 46.8683C-136.682 37.0649 -133.68 28.9062 -133.675 28.7366C-133.671 28.5669 -135.865 28.4293 -138.549 28.4293C-142.028 28.4293 -143.68 29.0464 -144.304 30.5805ZM-130.54 29.9659C-130.846 30.8116 -133.588 38.0421 -136.634 46.0361C-142.529 61.504 -142.471 62.2071 -135.362 61.4044C-132.077 61.0332 -131.409 59.9244 -125.872 45.639C-122.595 37.1878 -119.906 29.8577 -119.896 29.3512C-119.864 27.7507 -129.951 28.3334 -130.54 29.9659ZM-116.75 29.9659C-117.056 30.8116 -119.798 38.0421 -122.844 46.0361C-128.743 61.5113 -128.684 62.2046 -121.55 61.4044C-118.236 61.0319 -117.603 59.9748 -112.104 45.639C-108.862 37.1878 -106.183 29.8577 -106.149 29.3512C-106.043 27.7483 -116.161 28.3346 -116.75 29.9659ZM-102.981 29.9659C-107.672 42.4847 -113.61 59.5519 -113.61 60.5206C-113.61 61.2089 -111.519 61.5974 -108.937 61.386L-104.264 61.0049L-98.3414 45.639C-95.0844 37.1878 -92.3916 29.8577 -92.3577 29.3512C-92.2524 27.7495 -102.371 28.3346 -102.981 29.9659ZM-189.939 34.1564C-186.57 35.9536 -183.815 37.8295 -183.815 38.3249C-183.815 39.5173 -195.41 53.0146 -196.434 53.0146C-196.871 53.0146 -200.134 49.7411 -203.683 45.7386L-210.136 38.4638L-203.557 34.7022C-199.939 32.6346 -196.772 30.9296 -196.52 30.9149C-196.27 30.9001 -193.307 32.3592 -189.939 34.1564ZM-202.62 54.9753C-202.62 55.2494 -204.594 55.4732 -207.007 55.4732C-211.385 55.4732 -211.395 55.4609 -211.395 49.8247V44.1774L-207.007 49.3268C-204.594 52.1591 -202.62 54.7012 -202.62 54.9753ZM-181.307 49.9415V55.4732H-186.41H-191.512L-186.723 49.982C-184.089 46.9617 -181.794 44.4725 -181.621 44.4503C-181.448 44.4282 -181.307 46.899 -181.307 49.9415ZM35.2622 50.4725C28.2881 57.3994 27.3541 62.0289 32.4703 64.3141C35.1444 65.5089 36.2024 65.3147 39.3153 63.059C41.3399 61.5912 43.3232 60.3902 43.7244 60.3902C44.1256 60.3902 46.1088 61.5912 48.1335 63.059C51.2463 65.3147 52.3044 65.5089 54.9785 64.3141C60.1799 61.9908 59.172 57.3687 51.9434 50.3914C48.5347 47.1019 44.7273 44.4429 43.4812 44.4835C42.2363 44.5241 38.538 47.2199 35.2622 50.4725ZM-193.844 60.3312L-189.456 60.4775L-192.59 62.2341C-196.747 64.5648 -198.046 64.5021 -201.437 61.8101L-204.294 59.5408L-201.263 59.8629C-199.596 60.0399 -196.257 60.2513 -193.844 60.3312ZM29.3261 100.649C29.3086 104.298 28.955 104.659 25.2329 104.811C22.2868 104.933 21.9396 105.126 23.9793 105.512C27.4582 106.168 27.5334 107.299 24.2927 110.176C20.4903 113.55 21.2475 114.658 27.0733 114.241C31.9024 113.897 32.4678 113.497 33.5886 109.642C34.49 106.546 34.4172 105.289 33.3153 104.929C32.4903 104.66 31.8058 103.517 31.7958 102.391C31.7845 101.263 31.2292 99.5117 30.561 98.4976C29.6383 97.0987 29.3412 97.6174 29.3261 100.649ZM-210.141 123.766V146.439H-205.754H-201.366V131.688V116.937H-196.978H-192.59V131.688V146.439H-183.188H-173.785V138.449V130.459H-178.11H-182.436L-182.812 123.39C-183.184 116.402 -183.234 116.317 -187.262 115.937L-191.337 115.551V108.322V101.093H-200.739H-210.141V123.766ZM-124.197 104.587C-130.565 108.704 -131.688 112.289 -132.197 130.151C-132.604 144.444 -132.415 146.439 -130.657 146.439C-128.919 146.439 -128.654 144.218 -128.654 129.721V113.003L-124.391 108.823C-119.344 103.874 -113.955 103.322 -107.624 107.107C-97.4915 113.165 -100.163 128.75 -111.729 131.058L-115.49 131.81L-111.623 130.049C-101.886 125.618 -99.6741 116.833 -106.589 110.053C-112.592 104.167 -119.71 104.623 -125.179 111.241C-126.984 113.427 -127.349 116.578 -127.372 130.151C-127.389 140.208 -126.92 146.439 -126.146 146.439C-125.444 146.439 -124.893 143.071 -124.893 138.792V131.144L-117.023 138.792C-112.696 142.997 -108.337 146.439 -107.338 146.439C-106.337 146.439 -110.019 141.939 -115.519 136.438C-121.02 130.937 -124.673 126.896 -123.639 127.458C-122.605 128.02 -117.895 132.52 -113.172 137.459C-107.755 143.125 -103.608 146.439 -101.937 146.439C-99.7017 146.439 -100.234 145.496 -105.334 140.419C-110.85 134.927 -111.156 134.328 -108.812 133.599C-107.399 133.159 -104.514 130.87 -102.405 128.513C-99.1989 124.934 -98.5659 123.196 -98.5659 117.979C-98.5659 112.36 -99.056 111.25 -103.433 106.957C-107.758 102.718 -108.98 102.187 -114.402 102.194C-118.329 102.199 -121.821 103.053 -124.197 104.587ZM35.6809 109.138C34.9852 111.61 34.7106 114.099 35.0704 114.67C35.9178 116.015 46.5113 116.024 47.3575 114.681C47.7135 114.117 47.37 111.627 46.594 109.149C45.3441 105.157 44.716 104.644 41.0654 104.644C37.3922 104.644 36.8105 105.129 35.6809 109.138ZM48.398 109.561C49.6404 114.359 49.8034 114.478 55.1603 114.478C58.1791 114.478 60.6325 114.063 60.6124 113.556C60.5159 111.138 52.8874 104.644 50.1431 104.644C47.2459 104.644 47.1757 104.841 48.398 109.561ZM-46.3572 116.322L-56.1095 126.771H-63.3293C-69.2541 126.771 -71.0368 127.281 -73.2746 129.615C-74.7739 131.18 -76 132.84 -76 133.303C-76 133.768 -70.9352 134.146 -64.7459 134.146H-53.4906L-43.2607 123.698L-33.0296 113.249H-25.8988C-20.0668 113.249 -18.2728 112.731 -16.0425 110.404C-14.5431 108.839 -13.3171 107.18 -13.3171 106.716C-13.3171 106.252 -18.5574 105.873 -24.961 105.873H-36.605L-46.3572 116.322ZM-108.282 111.74C-105.186 114.406 -105.378 122.072 -108.611 124.942C-112.426 128.327 -118.455 127.827 -121.957 123.834C-125.408 119.899 -125.639 117.299 -122.878 113.434C-119.17 108.243 -113.155 107.545 -108.282 111.74ZM-121.132 113.249C-126.151 118.171 -122.323 125.951 -114.881 125.951C-110.097 125.951 -107.341 123.052 -107.341 118.018C-107.341 111.195 -115.987 108.204 -121.132 113.249ZM-111.153 115.034C-107.822 118.969 -112.713 125.013 -117.057 122.331C-121.397 119.65 -119.852 113.249 -114.863 113.249C-113.654 113.249 -111.984 114.051 -111.153 115.034ZM-44.9644 128.724C-52.0363 135.882 -58.01 142.244 -58.2394 142.861C-58.4701 143.476 -56.5583 143.98 -53.9933 143.98C-49.7998 143.98 -48.4007 143.018 -40.1516 134.454L-30.9749 124.927L-30.9222 134.224C-30.8721 142.772 -30.585 143.786 -27.3518 146.824C-25.4186 148.641 -23.5845 150.127 -23.2774 150.127C-22.3535 150.126 -21.8282 120.918 -22.7032 118.215C-23.3125 116.334 -24.5887 115.707 -27.8106 115.707C-31.623 115.707 -33.5549 117.174 -44.9644 128.724ZM21.7854 116.919C21.7854 118.736 35.7712 136.824 36.5698 136.039C37.2881 135.335 33.1673 119.216 31.9601 118.007C30.4369 116.483 21.7854 115.559 21.7854 116.919ZM53.9931 116.595C52.0562 116.88 50.2196 117.765 49.9125 118.562C47.6972 124.3 44.7148 136.605 45.5397 136.605C46.6091 136.605 59.1431 120.241 60.2601 117.384C60.9233 115.691 60.4921 115.637 53.9931 116.595ZM34.8848 120.317C37.8472 132.32 40.9313 140.614 41.8301 138.997C42.7227 137.39 48.1122 118.981 48.1122 117.538C48.1122 117.207 44.948 116.937 41.0817 116.937H34.0499L34.8848 120.317ZM-121.088 184.465C-123.005 187.977 -122.794 188.234 -117.998 188.234C-113.565 188.234 -112.988 187.565 -114.371 184.033C-115.428 181.333 -119.522 181.597 -121.088 184.465ZM-207.007 184.748C-211.001 186.909 -216.481 192.251 -218.402 195.856C-220.934 200.608 -220.645 211.369 -217.848 216.527C-216.569 218.882 -213.164 222.45 -210.281 224.453C-203.664 229.053 -194.676 229.406 -186.762 225.378C-182.374 223.144 -176.293 216.301 -176.293 213.596C-176.293 211.617 -187.982 212.955 -190.994 215.278C-198.762 221.268 -210.141 215.036 -210.141 204.791C-210.141 203.143 -208.503 199.996 -206.5 197.798C-203.471 194.475 -202.008 193.824 -197.815 193.931C-194.731 194.01 -191.454 195.077 -189.378 196.679L-185.983 199.298H-192.854C-202.586 199.298 -207.126 204.635 -201.58 209.556C-198.067 212.673 -175.019 212.506 -172.099 209.342C-170.958 208.105 -170.024 206.255 -170.024 205.23C-170.024 203.111 -173.889 199.298 -176.038 199.298C-176.824 199.298 -177.166 198.528 -176.798 197.588C-175.881 195.245 -183.494 187.011 -188.456 184.978C-193.315 182.988 -203.518 182.861 -207.007 184.748ZM-59.1245 186.698C-59.5219 188.556 -60.3782 192.398 -61.0288 195.232C-62.7363 202.684 -62.4805 208.609 -60.3782 210.32C-59.3715 211.14 -56.2386 212.115 -53.4166 212.486C-49.7998 212.962 -48.4759 213.651 -48.9335 214.82C-49.2908 215.732 -49.964 219.294 -50.4291 222.737L-51.2766 228.997L-47.6874 228.591C-44.567 228.238 -43.9602 227.502 -43.0501 222.961C-41.6911 216.178 -39.3004 216.308 -37.4011 223.268C-36.0371 228.268 -35.5306 228.8 -32.127 228.8C-27.936 228.8 -27.7229 228.103 -29.8177 221.244C-31.1103 217.014 -30.9899 216.166 -28.7509 213.725C-22.9815 207.44 -24.5022 201.391 -32.4366 199.06L-37.3522 197.616L-36.5173 192.153C-36.0572 189.149 -35.384 185.932 -35.0217 185.004C-34.5403 183.776 -35.5357 183.317 -38.6823 183.317H-43.0037L-44.6184 192.229C-46.9026 204.833 -47.7814 206.673 -51.5223 206.673C-55.2469 206.673 -55.3485 205.706 -52.8073 194.38C-50.3589 183.468 -50.3853 183.317 -54.664 183.317C-57.7292 183.317 -58.5315 183.924 -59.1245 186.698ZM1.30935 184.137C0.849258 184.587 0.47317 190.948 0.47317 198.274V211.59H6.11463H11.7561V202.985V194.38H28.6805H45.6049V188.849V183.317H23.8752C11.9228 183.317 1.76819 183.686 1.30935 184.137ZM-123.02 190.704C-123.448 191.386 -123.445 193.046 -123.008 194.392C-121.889 197.849 -114.235 197.824 -112.342 194.355C-111.596 192.989 -111.328 191.329 -111.746 190.667C-112.745 189.081 -122.016 189.111 -123.02 190.704ZM-105.148 190.412C-107.743 190.957 -107.912 192.031 -105.774 194.383C-104.459 195.829 -104.582 195.826 -106.537 194.368C-108.59 192.835 -109.077 192.912 -110.639 195.006C-111.614 196.314 -112.117 198.09 -111.757 198.955C-111.397 199.82 -110.73 201.432 -110.276 202.538C-109.708 203.92 -109.992 204.373 -111.181 203.984C-112.134 203.673 -113.235 202.082 -113.629 200.448C-114.115 198.426 -114.652 197.966 -115.307 199.007C-115.909 199.963 -117.487 200.237 -119.514 199.738C-121.985 199.129 -122.52 199.32 -121.754 200.534C-121.127 201.529 -121.601 202.741 -123.013 203.752C-125.077 205.232 -125.093 205.445 -123.204 206.156C-122.064 206.585 -121.132 208.051 -121.132 209.413C-121.132 211.477 -120.817 211.636 -119.251 210.361C-117.751 209.14 -116.991 209.14 -115.49 210.361C-113.921 211.638 -113.61 211.467 -113.61 209.326C-113.61 206.489 -110.236 204.215 -106.028 204.215C-103.737 204.215 -103.381 203.648 -103.82 200.711C-104.343 197.221 -104.326 197.213 -99.4096 198.296C-96.6954 198.893 -94.2871 199.199 -94.059 198.976C-93.8308 198.752 -94.6946 196.876 -95.977 194.807C-98.359 190.968 -101.234 189.589 -105.148 190.412ZM-138.465 193.537C-142.52 197.772 -142.02 199.666 -137.116 198.644C-134.876 198.176 -132.032 196.921 -130.797 195.853C-128.657 194.001 -128.642 194.078 -130.476 197.526C-133.172 202.594 -132.894 204.215 -129.324 204.215C-123.936 204.215 -121.982 197.859 -125.98 193.339C-129.124 189.786 -134.958 189.878 -138.465 193.537ZM51.8732 207.832V216.507H34.253H16.6328L17.0152 222.346L17.3976 228.185L38.963 228.521C64.7307 228.923 63.4256 229.83 62.8878 211.895L62.5293 199.912L57.2012 199.535L51.8732 199.156V207.832ZM-195.288 202.844C-192.749 204.421 -194.097 208.462 -197.31 208.91C-200.344 209.335 -202.128 206.706 -200.912 203.6C-200.111 201.551 -197.857 201.247 -195.288 202.844ZM-199.25 203.779C-201.025 205.519 -200.021 207.902 -197.513 207.902C-195.761 207.902 -195.046 207.235 -195.319 205.853C-195.767 203.59 -197.907 202.462 -199.25 203.779ZM-32.8616 206.215C-31.7822 208.972 -34.3108 211.59 -38.0505 211.59C-40.376 211.59 -40.9728 211.097 -40.4049 209.646C-39.9861 208.576 -39.6439 206.917 -39.6439 205.958C-39.6439 203.519 -33.8307 203.739 -32.8616 206.215ZM-132.327 206.98C-132.278 207.826 -131.798 209.623 -131.26 210.974C-130.594 212.647 -130.904 213.878 -132.232 214.829C-133.801 215.954 -133.948 217.134 -132.984 220.884C-131.563 226.412 -129.095 227.674 -127.52 223.679C-126.713 221.628 -126.954 219.932 -128.368 217.737C-130.197 214.895 -130.189 214.789 -128.278 216.325C-126.475 217.773 -126.017 217.576 -124.722 214.789C-122.625 210.275 -124.967 205.444 -129.254 205.444C-130.994 205.444 -132.375 206.135 -132.327 206.98ZM-110.489 208.366C-112.085 210.754 -112.169 211.878 -110.944 214.512C-110.121 216.286 -109.036 217.737 -108.536 217.737C-107.334 217.737 -103.58 209.915 -103.58 207.41C-103.58 204.398 -108.272 205.047 -110.489 208.366ZM-123.639 216.509C-125.368 220.601 -124.144 223.17 -119.828 224.514C-117.682 225.181 -109.849 222.201 -109.849 220.718C-109.849 220.362 -110.71 218.441 -111.762 216.446C-113.303 213.524 -114.491 212.82 -117.877 212.82C-121.366 212.82 -122.347 213.446 -123.639 216.509ZM-106.589 217.106C-109.938 222.118 -107.461 229.249 -103.915 224.805C-101.781 222.13 -101.284 217.923 -102.855 215.818C-104.219 213.99 -104.592 214.118 -106.589 217.106ZM-87.3983 248.816C-92.0155 251.867 -132.749 307.177 -131.656 308.911C-130.614 310.564 -111.823 310.123 -109.642 308.395C-108.575 307.551 -105.032 303.124 -101.77 298.561C-98.5082 293.998 -95.4643 290.272 -95.008 290.282C-94.5516 290.293 -91.4062 294.417 -88.0176 299.447C-84.6289 304.479 -81.0573 308.895 -80.0794 309.263C-77.1509 310.364 -58.6506 310.018 -57.9135 308.848C-57.5374 308.25 -58.2532 306.453 -59.5056 304.852C-60.7568 303.251 -66.4785 295.14 -72.2202 286.829C-79.3711 276.475 -82.252 271.317 -81.3694 270.451C-80.4856 269.585 -77.206 273.376 -70.9553 282.491C-59.0054 299.917 -53.1859 307.881 -51.595 308.991C-49.8462 310.211 -29.9218 310.184 -29.1508 308.961C-28.1466 307.369 -68.0994 251.779 -72.4045 248.776C-77.4505 245.256 -82.0301 245.269 -87.3983 248.816Z" fill="white"/>
</g>
<defs>
<clipPath id="clip0_23_24">
<rect width="88" height="88" fill="white"/>
</clipPath>
</defs>
</svg>
